<?xml version="1.0" encoding="utf-8" standalone="no"?>
<!DOCTYPE svg PUBLIC "-//W3C//DTD SVG 1.1//EN"
  "http://www.w3.org/Graphics/SVG/1.1/DTD/svg11.dtd">
<!-- Created with matplotlib (https://matplotlib.org/) -->
<svg height="720pt" version="1.1" viewBox="0 0 720 720" width="720pt" xmlns="http://www.w3.org/2000/svg" xmlns:xlink="http://www.w3.org/1999/xlink">
 <defs>
  <style type="text/css">
*{stroke-linecap:butt;stroke-linejoin:round;}
  </style>
 </defs>
 <g id="figure_1">
  <g id="patch_1">
   <path d="M 0 720 
L 720 720 
L 720 0 
L 0 0 
z
" style="fill:none;"/>
  </g>
  <g id="axes_1">
   <g id="patch_2">
    <path d="M 17.28 583.513043 
L 702.72 583.513043 
L 702.72 136.486957 
L 17.28 136.486957 
z
" style="fill:none;"/>
   </g>
   <g id="PatchCollection_1">
    <path clip-path="url(#p0a6b4a0e06)" d="M 47.081739 553.711304 
L 76.883478 553.711304 
L 76.883478 523.909565 
L 47.081739 523.909565 
z
" style="fill:#000080;stroke:#000000;"/>
    <path clip-path="url(#p0a6b4a0e06)" d="M 76.883478 553.711304 
L 106.685217 553.711304 
L 106.685217 523.909565 
L 76.883478 523.909565 
z
" style="fill:#000084;stroke:#000000;"/>
    <path clip-path="url(#p0a6b4a0e06)" d="M 106.685217 553.711304 
L 136.486957 553.711304 
L 136.486957 523.909565 
L 106.685217 523.909565 
z
" style="fill:#000089;stroke:#000000;"/>
    <path clip-path="url(#p0a6b4a0e06)" d="M 136.486957 553.711304 
L 166.288696 553.711304 
L 166.288696 523.909565 
L 136.486957 523.909565 
z
" style="fill:#00008d;stroke:#000000;"/>
    <path clip-path="url(#p0a6b4a0e06)" d="M 166.288696 553.711304 
L 196.090435 553.711304 
L 196.090435 523.909565 
L 166.288696 523.909565 
z
" style="fill:#000092;stroke:#000000;"/>
    <path clip-path="url(#p0a6b4a0e06)" d="M 196.090435 553.711304 
L 225.892174 553.711304 
L 225.892174 523.909565 
L 196.090435 523.909565 
z
" style="fill:#000096;stroke:#000000;"/>
    <path clip-path="url(#p0a6b4a0e06)" d="M 225.892174 553.711304 
L 255.693913 553.711304 
L 255.693913 523.909565 
L 225.892174 523.909565 
z
" style="fill:#00009b;stroke:#000000;"/>
    <path clip-path="url(#p0a6b4a0e06)" d="M 255.693913 553.711304 
L 285.495652 553.711304 
L 285.495652 523.909565 
L 255.693913 523.909565 
z
" style="fill:#00009f;stroke:#000000;"/>
    <path clip-path="url(#p0a6b4a0e06)" d="M 285.495652 553.711304 
L 315.297391 553.711304 
L 315.297391 523.909565 
L 285.495652 523.909565 
z
" style="fill:#0000a4;stroke:#000000;"/>
    <path clip-path="url(#p0a6b4a0e06)" d="M 315.297391 553.711304 
L 345.09913 553.711304 
L 345.09913 523.909565 
L 315.297391 523.909565 
z
" style="fill:#0000ad;stroke:#000000;"/>
    <path clip-path="url(#p0a6b4a0e06)" d="M 345.09913 553.711304 
L 374.90087 553.711304 
L 374.90087 523.909565 
L 345.09913 523.909565 
z
" style="fill:#0000b2;stroke:#000000;"/>
    <path clip-path="url(#p0a6b4a0e06)" d="M 374.90087 553.711304 
L 404.702609 553.711304 
L 404.702609 523.909565 
L 374.90087 523.909565 
z
" style="fill:#0000b6;stroke:#000000;"/>
    <path clip-path="url(#p0a6b4a0e06)" d="M 404.702609 553.711304 
L 434.504348 553.711304 
L 434.504348 523.909565 
L 404.702609 523.909565 
z
" style="fill:#0000bb;stroke:#000000;"/>
    <path clip-path="url(#p0a6b4a0e06)" d="M 434.504348 553.711304 
L 464.306087 553.711304 
L 464.306087 523.909565 
L 434.504348 523.909565 
z
" style="fill:#0000bf;stroke:#000000;"/>
    <path clip-path="url(#p0a6b4a0e06)" d="M 464.306087 553.711304 
L 494.107826 553.711304 
L 494.107826 523.909565 
L 464.306087 523.909565 
z
" style="fill:#0000c4;stroke:#000000;"/>
    <path clip-path="url(#p0a6b4a0e06)" d="M 494.107826 553.711304 
L 523.909565 553.711304 
L 523.909565 523.909565 
L 494.107826 523.909565 
z
" style="fill:#0000c8;stroke:#000000;"/>
    <path clip-path="url(#p0a6b4a0e06)" d="M 523.909565 553.711304 
L 553.711304 553.711304 
L 553.711304 523.909565 
L 523.909565 523.909565 
z
" style="fill:#0000cd;stroke:#000000;"/>
    <path clip-path="url(#p0a6b4a0e06)" d="M 553.711304 553.711304 
L 583.513043 553.711304 
L 583.513043 523.909565 
L 553.711304 523.909565 
z
" style="fill:#0000d1;stroke:#000000;"/>
    <path clip-path="url(#p0a6b4a0e06)" d="M 583.513043 553.711304 
L 613.314783 553.711304 
L 613.314783 523.909565 
L 583.513043 523.909565 
z
" style="fill:#0000da;stroke:#000000;"/>
    <path clip-path="url(#p0a6b4a0e06)" d="M 613.314783 553.711304 
L 643.116522 553.711304 
L 643.116522 523.909565 
L 613.314783 523.909565 
z
" style="fill:#0000df;stroke:#000000;"/>
    <path clip-path="url(#p0a6b4a0e06)" d="M 643.116522 553.711304 
L 672.918261 553.711304 
L 672.918261 523.909565 
L 643.116522 523.909565 
z
" style="fill:#0000e3;stroke:#000000;"/>
    <path clip-path="url(#p0a6b4a0e06)" d="M 47.081739 523.909565 
L 76.883478 523.909565 
L 76.883478 494.107826 
L 47.081739 494.107826 
z
" style="fill:#0000e8;stroke:#000000;"/>
    <path clip-path="url(#p0a6b4a0e06)" d="M 76.883478 523.909565 
L 106.685217 523.909565 
L 106.685217 494.107826 
L 76.883478 494.107826 
z
" style="fill:#0000ed;stroke:#000000;"/>
    <path clip-path="url(#p0a6b4a0e06)" d="M 106.685217 523.909565 
L 136.486957 523.909565 
L 136.486957 494.107826 
L 106.685217 494.107826 
z
" style="fill:#0000f1;stroke:#000000;"/>
    <path clip-path="url(#p0a6b4a0e06)" d="M 136.486957 523.909565 
L 166.288696 523.909565 
L 166.288696 494.107826 
L 136.486957 494.107826 
z
" style="fill:#0000f6;stroke:#000000;"/>
    <path clip-path="url(#p0a6b4a0e06)" d="M 166.288696 523.909565 
L 196.090435 523.909565 
L 196.090435 494.107826 
L 166.288696 494.107826 
z
" style="fill:#0000fa;stroke:#000000;"/>
    <path clip-path="url(#p0a6b4a0e06)" d="M 196.090435 523.909565 
L 225.892174 523.909565 
L 225.892174 494.107826 
L 196.090435 494.107826 
z
" style="fill:#0000ff;stroke:#000000;"/>
    <path clip-path="url(#p0a6b4a0e06)" d="M 225.892174 523.909565 
L 255.693913 523.909565 
L 255.693913 494.107826 
L 225.892174 494.107826 
z
" style="fill:#0000ff;stroke:#000000;"/>
    <path clip-path="url(#p0a6b4a0e06)" d="M 255.693913 523.909565 
L 285.495652 523.909565 
L 285.495652 494.107826 
L 255.693913 494.107826 
z
" style="fill:#0000ff;stroke:#000000;"/>
    <path clip-path="url(#p0a6b4a0e06)" d="M 285.495652 523.909565 
L 315.297391 523.909565 
L 315.297391 494.107826 
L 285.495652 494.107826 
z
" style="fill:#0000ff;stroke:#000000;"/>
    <path clip-path="url(#p0a6b4a0e06)" d="M 315.297391 523.909565 
L 345.09913 523.909565 
L 345.09913 494.107826 
L 315.297391 494.107826 
z
" style="fill:#0004ff;stroke:#000000;"/>
    <path clip-path="url(#p0a6b4a0e06)" d="M 345.09913 523.909565 
L 374.90087 523.909565 
L 374.90087 494.107826 
L 345.09913 494.107826 
z
" style="fill:#0008ff;stroke:#000000;"/>
    <path clip-path="url(#p0a6b4a0e06)" d="M 374.90087 523.909565 
L 404.702609 523.909565 
L 404.702609 494.107826 
L 374.90087 494.107826 
z
" style="fill:#000cff;stroke:#000000;"/>
    <path clip-path="url(#p0a6b4a0e06)" d="M 404.702609 523.909565 
L 434.504348 523.909565 
L 434.504348 494.107826 
L 404.702609 494.107826 
z
" style="fill:#0010ff;stroke:#000000;"/>
    <path clip-path="url(#p0a6b4a0e06)" d="M 434.504348 523.909565 
L 464.306087 523.909565 
L 464.306087 494.107826 
L 434.504348 494.107826 
z
" style="fill:#0014ff;stroke:#000000;"/>
    <path clip-path="url(#p0a6b4a0e06)" d="M 464.306087 523.909565 
L 494.107826 523.909565 
L 494.107826 494.107826 
L 464.306087 494.107826 
z
" style="fill:#0018ff;stroke:#000000;"/>
    <path clip-path="url(#p0a6b4a0e06)" d="M 494.107826 523.909565 
L 523.909565 523.909565 
L 523.909565 494.107826 
L 494.107826 494.107826 
z
" style="fill:#0020ff;stroke:#000000;"/>
    <path clip-path="url(#p0a6b4a0e06)" d="M 523.909565 523.909565 
L 553.711304 523.909565 
L 553.711304 494.107826 
L 523.909565 494.107826 
z
" style="fill:#0024ff;stroke:#000000;"/>
    <path clip-path="url(#p0a6b4a0e06)" d="M 553.711304 523.909565 
L 583.513043 523.909565 
L 583.513043 494.107826 
L 553.711304 494.107826 
z
" style="fill:#0028ff;stroke:#000000;"/>
    <path clip-path="url(#p0a6b4a0e06)" d="M 583.513043 523.909565 
L 613.314783 523.909565 
L 613.314783 494.107826 
L 583.513043 494.107826 
z
" style="fill:#002cff;stroke:#000000;"/>
    <path clip-path="url(#p0a6b4a0e06)" d="M 613.314783 523.909565 
L 643.116522 523.909565 
L 643.116522 494.107826 
L 613.314783 494.107826 
z
" style="fill:#0030ff;stroke:#000000;"/>
    <path clip-path="url(#p0a6b4a0e06)" d="M 643.116522 523.909565 
L 672.918261 523.909565 
L 672.918261 494.107826 
L 643.116522 494.107826 
z
" style="fill:#0034ff;stroke:#000000;"/>
    <path clip-path="url(#p0a6b4a0e06)" d="M 47.081739 494.107826 
L 76.883478 494.107826 
L 76.883478 464.306087 
L 47.081739 464.306087 
z
" style="fill:#0038ff;stroke:#000000;"/>
    <path clip-path="url(#p0a6b4a0e06)" d="M 76.883478 494.107826 
L 106.685217 494.107826 
L 106.685217 464.306087 
L 76.883478 464.306087 
z
" style="fill:#003cff;stroke:#000000;"/>
    <path clip-path="url(#p0a6b4a0e06)" d="M 106.685217 494.107826 
L 136.486957 494.107826 
L 136.486957 464.306087 
L 106.685217 464.306087 
z
" style="fill:#0040ff;stroke:#000000;"/>
    <path clip-path="url(#p0a6b4a0e06)" d="M 136.486957 494.107826 
L 166.288696 494.107826 
L 166.288696 464.306087 
L 136.486957 464.306087 
z
" style="fill:#0048ff;stroke:#000000;"/>
    <path clip-path="url(#p0a6b4a0e06)" d="M 166.288696 494.107826 
L 196.090435 494.107826 
L 196.090435 464.306087 
L 166.288696 464.306087 
z
" style="fill:#004cff;stroke:#000000;"/>
    <path clip-path="url(#p0a6b4a0e06)" d="M 196.090435 494.107826 
L 225.892174 494.107826 
L 225.892174 464.306087 
L 196.090435 464.306087 
z
" style="fill:#0050ff;stroke:#000000;"/>
    <path clip-path="url(#p0a6b4a0e06)" d="M 225.892174 494.107826 
L 255.693913 494.107826 
L 255.693913 464.306087 
L 225.892174 464.306087 
z
" style="fill:#0054ff;stroke:#000000;"/>
    <path clip-path="url(#p0a6b4a0e06)" d="M 255.693913 494.107826 
L 285.495652 494.107826 
L 285.495652 464.306087 
L 255.693913 464.306087 
z
" style="fill:#0058ff;stroke:#000000;"/>
    <path clip-path="url(#p0a6b4a0e06)" d="M 285.495652 494.107826 
L 315.297391 494.107826 
L 315.297391 464.306087 
L 285.495652 464.306087 
z
" style="fill:#005cff;stroke:#000000;"/>
    <path clip-path="url(#p0a6b4a0e06)" d="M 315.297391 494.107826 
L 345.09913 494.107826 
L 345.09913 464.306087 
L 315.297391 464.306087 
z
" style="fill:#0060ff;stroke:#000000;"/>
    <path clip-path="url(#p0a6b4a0e06)" d="M 345.09913 494.107826 
L 374.90087 494.107826 
L 374.90087 464.306087 
L 345.09913 464.306087 
z
" style="fill:#0064ff;stroke:#000000;"/>
    <path clip-path="url(#p0a6b4a0e06)" d="M 374.90087 494.107826 
L 404.702609 494.107826 
L 404.702609 464.306087 
L 374.90087 464.306087 
z
" style="fill:#0068ff;stroke:#000000;"/>
    <path clip-path="url(#p0a6b4a0e06)" d="M 404.702609 494.107826 
L 434.504348 494.107826 
L 434.504348 464.306087 
L 404.702609 464.306087 
z
" style="fill:#0070ff;stroke:#000000;"/>
    <path clip-path="url(#p0a6b4a0e06)" d="M 434.504348 494.107826 
L 464.306087 494.107826 
L 464.306087 464.306087 
L 434.504348 464.306087 
z
" style="fill:#0074ff;stroke:#000000;"/>
    <path clip-path="url(#p0a6b4a0e06)" d="M 464.306087 494.107826 
L 494.107826 494.107826 
L 494.107826 464.306087 
L 464.306087 464.306087 
z
" style="fill:#0078ff;stroke:#000000;"/>
    <path clip-path="url(#p0a6b4a0e06)" d="M 494.107826 494.107826 
L 523.909565 494.107826 
L 523.909565 464.306087 
L 494.107826 464.306087 
z
" style="fill:#007cff;stroke:#000000;"/>
    <path clip-path="url(#p0a6b4a0e06)" d="M 523.909565 494.107826 
L 553.711304 494.107826 
L 553.711304 464.306087 
L 523.909565 464.306087 
z
" style="fill:#0080ff;stroke:#000000;"/>
    <path clip-path="url(#p0a6b4a0e06)" d="M 553.711304 494.107826 
L 583.513043 494.107826 
L 583.513043 464.306087 
L 553.711304 464.306087 
z
" style="fill:#0084ff;stroke:#000000;"/>
    <path clip-path="url(#p0a6b4a0e06)" d="M 583.513043 494.107826 
L 613.314783 494.107826 
L 613.314783 464.306087 
L 583.513043 464.306087 
z
" style="fill:#0088ff;stroke:#000000;"/>
    <path clip-path="url(#p0a6b4a0e06)" d="M 613.314783 494.107826 
L 643.116522 494.107826 
L 643.116522 464.306087 
L 613.314783 464.306087 
z
" style="fill:#008cff;stroke:#000000;"/>
    <path clip-path="url(#p0a6b4a0e06)" d="M 643.116522 494.107826 
L 672.918261 494.107826 
L 672.918261 464.306087 
L 643.116522 464.306087 
z
" style="fill:#0094ff;stroke:#000000;"/>
    <path clip-path="url(#p0a6b4a0e06)" d="M 47.081739 464.306087 
L 76.883478 464.306087 
L 76.883478 434.504348 
L 47.081739 434.504348 
z
" style="fill:#0098ff;stroke:#000000;"/>
    <path clip-path="url(#p0a6b4a0e06)" d="M 76.883478 464.306087 
L 106.685217 464.306087 
L 106.685217 434.504348 
L 76.883478 434.504348 
z
" style="fill:#009cff;stroke:#000000;"/>
    <path clip-path="url(#p0a6b4a0e06)" d="M 106.685217 464.306087 
L 136.486957 464.306087 
L 136.486957 434.504348 
L 106.685217 434.504348 
z
" style="fill:#00a0ff;stroke:#000000;"/>
    <path clip-path="url(#p0a6b4a0e06)" d="M 136.486957 464.306087 
L 166.288696 464.306087 
L 166.288696 434.504348 
L 136.486957 434.504348 
z
" style="fill:#00a4ff;stroke:#000000;"/>
    <path clip-path="url(#p0a6b4a0e06)" d="M 166.288696 464.306087 
L 196.090435 464.306087 
L 196.090435 434.504348 
L 166.288696 434.504348 
z
" style="fill:#00a8ff;stroke:#000000;"/>
    <path clip-path="url(#p0a6b4a0e06)" d="M 196.090435 464.306087 
L 225.892174 464.306087 
L 225.892174 434.504348 
L 196.090435 434.504348 
z
" style="fill:#00acff;stroke:#000000;"/>
    <path clip-path="url(#p0a6b4a0e06)" d="M 225.892174 464.306087 
L 255.693913 464.306087 
L 255.693913 434.504348 
L 225.892174 434.504348 
z
" style="fill:#00b0ff;stroke:#000000;"/>
    <path clip-path="url(#p0a6b4a0e06)" d="M 255.693913 464.306087 
L 285.495652 464.306087 
L 285.495652 434.504348 
L 255.693913 434.504348 
z
" style="fill:#00b4ff;stroke:#000000;"/>
    <path clip-path="url(#p0a6b4a0e06)" d="M 285.495652 464.306087 
L 315.297391 464.306087 
L 315.297391 434.504348 
L 285.495652 434.504348 
z
" style="fill:#00bcff;stroke:#000000;"/>
    <path clip-path="url(#p0a6b4a0e06)" d="M 315.297391 464.306087 
L 345.09913 464.306087 
L 345.09913 434.504348 
L 315.297391 434.504348 
z
" style="fill:#00c0ff;stroke:#000000;"/>
    <path clip-path="url(#p0a6b4a0e06)" d="M 345.09913 464.306087 
L 374.90087 464.306087 
L 374.90087 434.504348 
L 345.09913 434.504348 
z
" style="fill:#00c4ff;stroke:#000000;"/>
    <path clip-path="url(#p0a6b4a0e06)" d="M 374.90087 464.306087 
L 404.702609 464.306087 
L 404.702609 434.504348 
L 374.90087 434.504348 
z
" style="fill:#00c8ff;stroke:#000000;"/>
    <path clip-path="url(#p0a6b4a0e06)" d="M 404.702609 464.306087 
L 434.504348 464.306087 
L 434.504348 434.504348 
L 404.702609 434.504348 
z
" style="fill:#00ccff;stroke:#000000;"/>
    <path clip-path="url(#p0a6b4a0e06)" d="M 434.504348 464.306087 
L 464.306087 464.306087 
L 464.306087 434.504348 
L 434.504348 434.504348 
z
" style="fill:#00d0ff;stroke:#000000;"/>
    <path clip-path="url(#p0a6b4a0e06)" d="M 464.306087 464.306087 
L 494.107826 464.306087 
L 494.107826 434.504348 
L 464.306087 434.504348 
z
" style="fill:#00d4ff;stroke:#000000;"/>
    <path clip-path="url(#p0a6b4a0e06)" d="M 494.107826 464.306087 
L 523.909565 464.306087 
L 523.909565 434.504348 
L 494.107826 434.504348 
z
" style="fill:#00d8ff;stroke:#000000;"/>
    <path clip-path="url(#p0a6b4a0e06)" d="M 523.909565 464.306087 
L 553.711304 464.306087 
L 553.711304 434.504348 
L 523.909565 434.504348 
z
" style="fill:#00dcfe;stroke:#000000;"/>
    <path clip-path="url(#p0a6b4a0e06)" d="M 553.711304 464.306087 
L 583.513043 464.306087 
L 583.513043 434.504348 
L 553.711304 434.504348 
z
" style="fill:#00e4f8;stroke:#000000;"/>
    <path clip-path="url(#p0a6b4a0e06)" d="M 583.513043 464.306087 
L 613.314783 464.306087 
L 613.314783 434.504348 
L 583.513043 434.504348 
z
" style="fill:#02e8f4;stroke:#000000;"/>
    <path clip-path="url(#p0a6b4a0e06)" d="M 613.314783 464.306087 
L 643.116522 464.306087 
L 643.116522 434.504348 
L 613.314783 434.504348 
z
" style="fill:#06ecf1;stroke:#000000;"/>
    <path clip-path="url(#p0a6b4a0e06)" d="M 643.116522 464.306087 
L 672.918261 464.306087 
L 672.918261 434.504348 
L 643.116522 434.504348 
z
" style="fill:#09f0ee;stroke:#000000;"/>
    <path clip-path="url(#p0a6b4a0e06)" d="M 47.081739 434.504348 
L 76.883478 434.504348 
L 76.883478 404.702609 
L 47.081739 404.702609 
z
" style="fill:#0cf4eb;stroke:#000000;"/>
    <path clip-path="url(#p0a6b4a0e06)" d="M 76.883478 434.504348 
L 106.685217 434.504348 
L 106.685217 404.702609 
L 76.883478 404.702609 
z
" style="fill:#0ff8e7;stroke:#000000;"/>
    <path clip-path="url(#p0a6b4a0e06)" d="M 106.685217 434.504348 
L 136.486957 434.504348 
L 136.486957 404.702609 
L 106.685217 404.702609 
z
" style="fill:#13fce4;stroke:#000000;"/>
    <path clip-path="url(#p0a6b4a0e06)" d="M 136.486957 434.504348 
L 166.288696 434.504348 
L 166.288696 404.702609 
L 136.486957 404.702609 
z
" style="fill:#16ffe1;stroke:#000000;"/>
    <path clip-path="url(#p0a6b4a0e06)" d="M 166.288696 434.504348 
L 196.090435 434.504348 
L 196.090435 404.702609 
L 166.288696 404.702609 
z
" style="fill:#19ffde;stroke:#000000;"/>
    <path clip-path="url(#p0a6b4a0e06)" d="M 196.090435 434.504348 
L 225.892174 434.504348 
L 225.892174 404.702609 
L 196.090435 404.702609 
z
" style="fill:#1fffd7;stroke:#000000;"/>
    <path clip-path="url(#p0a6b4a0e06)" d="M 225.892174 434.504348 
L 255.693913 434.504348 
L 255.693913 404.702609 
L 225.892174 404.702609 
z
" style="fill:#23ffd4;stroke:#000000;"/>
    <path clip-path="url(#p0a6b4a0e06)" d="M 255.693913 434.504348 
L 285.495652 434.504348 
L 285.495652 404.702609 
L 255.693913 404.702609 
z
" style="fill:#26ffd1;stroke:#000000;"/>
    <path clip-path="url(#p0a6b4a0e06)" d="M 285.495652 434.504348 
L 315.297391 434.504348 
L 315.297391 404.702609 
L 285.495652 404.702609 
z
" style="fill:#29ffce;stroke:#000000;"/>
    <path clip-path="url(#p0a6b4a0e06)" d="M 315.297391 434.504348 
L 345.09913 434.504348 
L 345.09913 404.702609 
L 315.297391 404.702609 
z
" style="fill:#2cffca;stroke:#000000;"/>
    <path clip-path="url(#p0a6b4a0e06)" d="M 345.09913 434.504348 
L 374.90087 434.504348 
L 374.90087 404.702609 
L 345.09913 404.702609 
z
" style="fill:#30ffc7;stroke:#000000;"/>
    <path clip-path="url(#p0a6b4a0e06)" d="M 374.90087 434.504348 
L 404.702609 434.504348 
L 404.702609 404.702609 
L 374.90087 404.702609 
z
" style="fill:#33ffc4;stroke:#000000;"/>
    <path clip-path="url(#p0a6b4a0e06)" d="M 404.702609 434.504348 
L 434.504348 434.504348 
L 434.504348 404.702609 
L 404.702609 404.702609 
z
" style="fill:#36ffc1;stroke:#000000;"/>
    <path clip-path="url(#p0a6b4a0e06)" d="M 434.504348 434.504348 
L 464.306087 434.504348 
L 464.306087 404.702609 
L 434.504348 404.702609 
z
" style="fill:#39ffbe;stroke:#000000;"/>
    <path clip-path="url(#p0a6b4a0e06)" d="M 464.306087 434.504348 
L 494.107826 434.504348 
L 494.107826 404.702609 
L 464.306087 404.702609 
z
" style="fill:#40ffb7;stroke:#000000;"/>
    <path clip-path="url(#p0a6b4a0e06)" d="M 494.107826 434.504348 
L 523.909565 434.504348 
L 523.909565 404.702609 
L 494.107826 404.702609 
z
" style="fill:#43ffb4;stroke:#000000;"/>
    <path clip-path="url(#p0a6b4a0e06)" d="M 523.909565 434.504348 
L 553.711304 434.504348 
L 553.711304 404.702609 
L 523.909565 404.702609 
z
" style="fill:#46ffb1;stroke:#000000;"/>
    <path clip-path="url(#p0a6b4a0e06)" d="M 553.711304 434.504348 
L 583.513043 434.504348 
L 583.513043 404.702609 
L 553.711304 404.702609 
z
" style="fill:#49ffad;stroke:#000000;"/>
    <path clip-path="url(#p0a6b4a0e06)" d="M 583.513043 434.504348 
L 613.314783 434.504348 
L 613.314783 404.702609 
L 583.513043 404.702609 
z
" style="fill:#4dffaa;stroke:#000000;"/>
    <path clip-path="url(#p0a6b4a0e06)" d="M 613.314783 434.504348 
L 643.116522 434.504348 
L 643.116522 404.702609 
L 613.314783 404.702609 
z
" style="fill:#50ffa7;stroke:#000000;"/>
    <path clip-path="url(#p0a6b4a0e06)" d="M 643.116522 434.504348 
L 672.918261 434.504348 
L 672.918261 404.702609 
L 643.116522 404.702609 
z
" style="fill:#53ffa4;stroke:#000000;"/>
    <path clip-path="url(#p0a6b4a0e06)" d="M 47.081739 404.702609 
L 76.883478 404.702609 
L 76.883478 374.90087 
L 47.081739 374.90087 
z
" style="fill:#56ffa0;stroke:#000000;"/>
    <path clip-path="url(#p0a6b4a0e06)" d="M 76.883478 404.702609 
L 106.685217 404.702609 
L 106.685217 374.90087 
L 76.883478 374.90087 
z
" style="fill:#5aff9d;stroke:#000000;"/>
    <path clip-path="url(#p0a6b4a0e06)" d="M 106.685217 404.702609 
L 136.486957 404.702609 
L 136.486957 374.90087 
L 106.685217 374.90087 
z
" style="fill:#60ff97;stroke:#000000;"/>
    <path clip-path="url(#p0a6b4a0e06)" d="M 136.486957 404.702609 
L 166.288696 404.702609 
L 166.288696 374.90087 
L 136.486957 374.90087 
z
" style="fill:#63ff94;stroke:#000000;"/>
    <path clip-path="url(#p0a6b4a0e06)" d="M 166.288696 404.702609 
L 196.090435 404.702609 
L 196.090435 374.90087 
L 166.288696 374.90087 
z
" style="fill:#66ff90;stroke:#000000;"/>
    <path clip-path="url(#p0a6b4a0e06)" d="M 196.090435 404.702609 
L 225.892174 404.702609 
L 225.892174 374.90087 
L 196.090435 374.90087 
z
" style="fill:#6aff8d;stroke:#000000;"/>
    <path clip-path="url(#p0a6b4a0e06)" d="M 225.892174 404.702609 
L 255.693913 404.702609 
L 255.693913 374.90087 
L 225.892174 374.90087 
z
" style="fill:#6dff8a;stroke:#000000;"/>
    <path clip-path="url(#p0a6b4a0e06)" d="M 255.693913 404.702609 
L 285.495652 404.702609 
L 285.495652 374.90087 
L 255.693913 374.90087 
z
" style="fill:#70ff87;stroke:#000000;"/>
    <path clip-path="url(#p0a6b4a0e06)" d="M 285.495652 404.702609 
L 315.297391 404.702609 
L 315.297391 374.90087 
L 285.495652 374.90087 
z
" style="fill:#73ff83;stroke:#000000;"/>
    <path clip-path="url(#p0a6b4a0e06)" d="M 315.297391 404.702609 
L 345.09913 404.702609 
L 345.09913 374.90087 
L 315.297391 374.90087 
z
" style="fill:#77ff80;stroke:#000000;"/>
    <path clip-path="url(#p0a6b4a0e06)" d="M 345.09913 404.702609 
L 374.90087 404.702609 
L 374.90087 374.90087 
L 345.09913 374.90087 
z
" style="fill:#7dff7a;stroke:#000000;"/>
    <path clip-path="url(#p0a6b4a0e06)" d="M 374.90087 404.702609 
L 404.702609 404.702609 
L 404.702609 374.90087 
L 374.90087 374.90087 
z
" style="fill:#80ff77;stroke:#000000;"/>
    <path clip-path="url(#p0a6b4a0e06)" d="M 404.702609 404.702609 
L 434.504348 404.702609 
L 434.504348 374.90087 
L 404.702609 374.90087 
z
" style="fill:#83ff73;stroke:#000000;"/>
    <path clip-path="url(#p0a6b4a0e06)" d="M 434.504348 404.702609 
L 464.306087 404.702609 
L 464.306087 374.90087 
L 434.504348 374.90087 
z
" style="fill:#87ff70;stroke:#000000;"/>
    <path clip-path="url(#p0a6b4a0e06)" d="M 464.306087 404.702609 
L 494.107826 404.702609 
L 494.107826 374.90087 
L 464.306087 374.90087 
z
" style="fill:#8aff6d;stroke:#000000;"/>
    <path clip-path="url(#p0a6b4a0e06)" d="M 494.107826 404.702609 
L 523.909565 404.702609 
L 523.909565 374.90087 
L 494.107826 374.90087 
z
" style="fill:#8dff6a;stroke:#000000;"/>
    <path clip-path="url(#p0a6b4a0e06)" d="M 523.909565 404.702609 
L 553.711304 404.702609 
L 553.711304 374.90087 
L 523.909565 374.90087 
z
" style="fill:#90ff66;stroke:#000000;"/>
    <path clip-path="url(#p0a6b4a0e06)" d="M 553.711304 404.702609 
L 583.513043 404.702609 
L 583.513043 374.90087 
L 553.711304 374.90087 
z
" style="fill:#94ff63;stroke:#000000;"/>
    <path clip-path="url(#p0a6b4a0e06)" d="M 583.513043 404.702609 
L 613.314783 404.702609 
L 613.314783 374.90087 
L 583.513043 374.90087 
z
" style="fill:#97ff60;stroke:#000000;"/>
    <path clip-path="url(#p0a6b4a0e06)" d="M 613.314783 404.702609 
L 643.116522 404.702609 
L 643.116522 374.90087 
L 613.314783 374.90087 
z
" style="fill:#9dff5a;stroke:#000000;"/>
    <path clip-path="url(#p0a6b4a0e06)" d="M 643.116522 404.702609 
L 672.918261 404.702609 
L 672.918261 374.90087 
L 643.116522 374.90087 
z
" style="fill:#a0ff56;stroke:#000000;"/>
    <path clip-path="url(#p0a6b4a0e06)" d="M 47.081739 374.90087 
L 76.883478 374.90087 
L 76.883478 345.09913 
L 47.081739 345.09913 
z
" style="fill:#a4ff53;stroke:#000000;"/>
    <path clip-path="url(#p0a6b4a0e06)" d="M 76.883478 374.90087 
L 106.685217 374.90087 
L 106.685217 345.09913 
L 76.883478 345.09913 
z
" style="fill:#a7ff50;stroke:#000000;"/>
    <path clip-path="url(#p0a6b4a0e06)" d="M 106.685217 374.90087 
L 136.486957 374.90087 
L 136.486957 345.09913 
L 106.685217 345.09913 
z
" style="fill:#aaff4d;stroke:#000000;"/>
    <path clip-path="url(#p0a6b4a0e06)" d="M 136.486957 374.90087 
L 166.288696 374.90087 
L 166.288696 345.09913 
L 136.486957 345.09913 
z
" style="fill:#adff49;stroke:#000000;"/>
    <path clip-path="url(#p0a6b4a0e06)" d="M 166.288696 374.90087 
L 196.090435 374.90087 
L 196.090435 345.09913 
L 166.288696 345.09913 
z
" style="fill:#b1ff46;stroke:#000000;"/>
    <path clip-path="url(#p0a6b4a0e06)" d="M 196.090435 374.90087 
L 225.892174 374.90087 
L 225.892174 345.09913 
L 196.090435 345.09913 
z
" style="fill:#b4ff43;stroke:#000000;"/>
    <path clip-path="url(#p0a6b4a0e06)" d="M 225.892174 374.90087 
L 255.693913 374.90087 
L 255.693913 345.09913 
L 225.892174 345.09913 
z
" style="fill:#b7ff40;stroke:#000000;"/>
    <path clip-path="url(#p0a6b4a0e06)" d="M 255.693913 374.90087 
L 285.495652 374.90087 
L 285.495652 345.09913 
L 255.693913 345.09913 
z
" style="fill:#beff39;stroke:#000000;"/>
    <path clip-path="url(#p0a6b4a0e06)" d="M 285.495652 374.90087 
L 315.297391 374.90087 
L 315.297391 345.09913 
L 285.495652 345.09913 
z
" style="fill:#c1ff36;stroke:#000000;"/>
    <path clip-path="url(#p0a6b4a0e06)" d="M 315.297391 374.90087 
L 345.09913 374.90087 
L 345.09913 345.09913 
L 315.297391 345.09913 
z
" style="fill:#c4ff33;stroke:#000000;"/>
    <path clip-path="url(#p0a6b4a0e06)" d="M 345.09913 374.90087 
L 374.90087 374.90087 
L 374.90087 345.09913 
L 345.09913 345.09913 
z
" style="fill:#c7ff30;stroke:#000000;"/>
    <path clip-path="url(#p0a6b4a0e06)" d="M 374.90087 374.90087 
L 404.702609 374.90087 
L 404.702609 345.09913 
L 374.90087 345.09913 
z
" style="fill:#caff2c;stroke:#000000;"/>
    <path clip-path="url(#p0a6b4a0e06)" d="M 404.702609 374.90087 
L 434.504348 374.90087 
L 434.504348 345.09913 
L 404.702609 345.09913 
z
" style="fill:#ceff29;stroke:#000000;"/>
    <path clip-path="url(#p0a6b4a0e06)" d="M 434.504348 374.90087 
L 464.306087 374.90087 
L 464.306087 345.09913 
L 434.504348 345.09913 
z
" style="fill:#d1ff26;stroke:#000000;"/>
    <path clip-path="url(#p0a6b4a0e06)" d="M 464.306087 374.90087 
L 494.107826 374.90087 
L 494.107826 345.09913 
L 464.306087 345.09913 
z
" style="fill:#d4ff23;stroke:#000000;"/>
    <path clip-path="url(#p0a6b4a0e06)" d="M 494.107826 374.90087 
L 523.909565 374.90087 
L 523.909565 345.09913 
L 494.107826 345.09913 
z
" style="fill:#d7ff1f;stroke:#000000;"/>
    <path clip-path="url(#p0a6b4a0e06)" d="M 523.909565 374.90087 
L 553.711304 374.90087 
L 553.711304 345.09913 
L 523.909565 345.09913 
z
" style="fill:#deff19;stroke:#000000;"/>
    <path clip-path="url(#p0a6b4a0e06)" d="M 553.711304 374.90087 
L 583.513043 374.90087 
L 583.513043 345.09913 
L 553.711304 345.09913 
z
" style="fill:#e1ff16;stroke:#000000;"/>
    <path clip-path="url(#p0a6b4a0e06)" d="M 583.513043 374.90087 
L 613.314783 374.90087 
L 613.314783 345.09913 
L 583.513043 345.09913 
z
" style="fill:#e4ff13;stroke:#000000;"/>
    <path clip-path="url(#p0a6b4a0e06)" d="M 613.314783 374.90087 
L 643.116522 374.90087 
L 643.116522 345.09913 
L 613.314783 345.09913 
z
" style="fill:#e7ff0f;stroke:#000000;"/>
    <path clip-path="url(#p0a6b4a0e06)" d="M 643.116522 374.90087 
L 672.918261 374.90087 
L 672.918261 345.09913 
L 643.116522 345.09913 
z
" style="fill:#ebff0c;stroke:#000000;"/>
    <path clip-path="url(#p0a6b4a0e06)" d="M 47.081739 345.09913 
L 76.883478 345.09913 
L 76.883478 315.297391 
L 47.081739 315.297391 
z
" style="fill:#eeff09;stroke:#000000;"/>
    <path clip-path="url(#p0a6b4a0e06)" d="M 76.883478 345.09913 
L 106.685217 345.09913 
L 106.685217 315.297391 
L 76.883478 315.297391 
z
" style="fill:#f1fc06;stroke:#000000;"/>
    <path clip-path="url(#p0a6b4a0e06)" d="M 106.685217 345.09913 
L 136.486957 345.09913 
L 136.486957 315.297391 
L 106.685217 315.297391 
z
" style="fill:#f4f802;stroke:#000000;"/>
    <path clip-path="url(#p0a6b4a0e06)" d="M 136.486957 345.09913 
L 166.288696 345.09913 
L 166.288696 315.297391 
L 136.486957 315.297391 
z
" style="fill:#f8f500;stroke:#000000;"/>
    <path clip-path="url(#p0a6b4a0e06)" d="M 166.288696 345.09913 
L 196.090435 345.09913 
L 196.090435 315.297391 
L 166.288696 315.297391 
z
" style="fill:#feed00;stroke:#000000;"/>
    <path clip-path="url(#p0a6b4a0e06)" d="M 196.090435 345.09913 
L 225.892174 345.09913 
L 225.892174 315.297391 
L 196.090435 315.297391 
z
" style="fill:#ffea00;stroke:#000000;"/>
    <path clip-path="url(#p0a6b4a0e06)" d="M 225.892174 345.09913 
L 255.693913 345.09913 
L 255.693913 315.297391 
L 225.892174 315.297391 
z
" style="fill:#ffe600;stroke:#000000;"/>
    <path clip-path="url(#p0a6b4a0e06)" d="M 255.693913 345.09913 
L 285.495652 345.09913 
L 285.495652 315.297391 
L 255.693913 315.297391 
z
" style="fill:#ffe200;stroke:#000000;"/>
    <path clip-path="url(#p0a6b4a0e06)" d="M 285.495652 345.09913 
L 315.297391 345.09913 
L 315.297391 315.297391 
L 285.495652 315.297391 
z
" style="fill:#ffde00;stroke:#000000;"/>
    <path clip-path="url(#p0a6b4a0e06)" d="M 315.297391 345.09913 
L 345.09913 345.09913 
L 345.09913 315.297391 
L 315.297391 315.297391 
z
" style="fill:#ffdb00;stroke:#000000;"/>
    <path clip-path="url(#p0a6b4a0e06)" d="M 345.09913 345.09913 
L 374.90087 345.09913 
L 374.90087 315.297391 
L 345.09913 315.297391 
z
" style="fill:#ffd700;stroke:#000000;"/>
    <path clip-path="url(#p0a6b4a0e06)" d="M 374.90087 345.09913 
L 404.702609 345.09913 
L 404.702609 315.297391 
L 374.90087 315.297391 
z
" style="fill:#ffd300;stroke:#000000;"/>
    <path clip-path="url(#p0a6b4a0e06)" d="M 404.702609 345.09913 
L 434.504348 345.09913 
L 434.504348 315.297391 
L 404.702609 315.297391 
z
" style="fill:#ffd000;stroke:#000000;"/>
    <path clip-path="url(#p0a6b4a0e06)" d="M 434.504348 345.09913 
L 464.306087 345.09913 
L 464.306087 315.297391 
L 434.504348 315.297391 
z
" style="fill:#ffc800;stroke:#000000;"/>
    <path clip-path="url(#p0a6b4a0e06)" d="M 464.306087 345.09913 
L 494.107826 345.09913 
L 494.107826 315.297391 
L 464.306087 315.297391 
z
" style="fill:#ffc400;stroke:#000000;"/>
    <path clip-path="url(#p0a6b4a0e06)" d="M 494.107826 345.09913 
L 523.909565 345.09913 
L 523.909565 315.297391 
L 494.107826 315.297391 
z
" style="fill:#ffc100;stroke:#000000;"/>
    <path clip-path="url(#p0a6b4a0e06)" d="M 523.909565 345.09913 
L 553.711304 345.09913 
L 553.711304 315.297391 
L 523.909565 315.297391 
z
" style="fill:#ffbd00;stroke:#000000;"/>
    <path clip-path="url(#p0a6b4a0e06)" d="M 553.711304 345.09913 
L 583.513043 345.09913 
L 583.513043 315.297391 
L 553.711304 315.297391 
z
" style="fill:#ffb900;stroke:#000000;"/>
    <path clip-path="url(#p0a6b4a0e06)" d="M 583.513043 345.09913 
L 613.314783 345.09913 
L 613.314783 315.297391 
L 583.513043 315.297391 
z
" style="fill:#ffb600;stroke:#000000;"/>
    <path clip-path="url(#p0a6b4a0e06)" d="M 613.314783 345.09913 
L 643.116522 345.09913 
L 643.116522 315.297391 
L 613.314783 315.297391 
z
" style="fill:#ffb200;stroke:#000000;"/>
    <path clip-path="url(#p0a6b4a0e06)" d="M 643.116522 345.09913 
L 672.918261 345.09913 
L 672.918261 315.297391 
L 643.116522 315.297391 
z
" style="fill:#ffae00;stroke:#000000;"/>
    <path clip-path="url(#p0a6b4a0e06)" d="M 47.081739 315.297391 
L 76.883478 315.297391 
L 76.883478 285.495652 
L 47.081739 285.495652 
z
" style="fill:#ffab00;stroke:#000000;"/>
    <path clip-path="url(#p0a6b4a0e06)" d="M 76.883478 315.297391 
L 106.685217 315.297391 
L 106.685217 285.495652 
L 76.883478 285.495652 
z
" style="fill:#ffa300;stroke:#000000;"/>
    <path clip-path="url(#p0a6b4a0e06)" d="M 106.685217 315.297391 
L 136.486957 315.297391 
L 136.486957 285.495652 
L 106.685217 285.495652 
z
" style="fill:#ff9f00;stroke:#000000;"/>
    <path clip-path="url(#p0a6b4a0e06)" d="M 136.486957 315.297391 
L 166.288696 315.297391 
L 166.288696 285.495652 
L 136.486957 285.495652 
z
" style="fill:#ff9c00;stroke:#000000;"/>
    <path clip-path="url(#p0a6b4a0e06)" d="M 166.288696 315.297391 
L 196.090435 315.297391 
L 196.090435 285.495652 
L 166.288696 285.495652 
z
" style="fill:#ff9800;stroke:#000000;"/>
    <path clip-path="url(#p0a6b4a0e06)" d="M 196.090435 315.297391 
L 225.892174 315.297391 
L 225.892174 285.495652 
L 196.090435 285.495652 
z
" style="fill:#ff9400;stroke:#000000;"/>
    <path clip-path="url(#p0a6b4a0e06)" d="M 225.892174 315.297391 
L 255.693913 315.297391 
L 255.693913 285.495652 
L 225.892174 285.495652 
z
" style="fill:#ff9100;stroke:#000000;"/>
    <path clip-path="url(#p0a6b4a0e06)" d="M 255.693913 315.297391 
L 285.495652 315.297391 
L 285.495652 285.495652 
L 255.693913 285.495652 
z
" style="fill:#ff8d00;stroke:#000000;"/>
    <path clip-path="url(#p0a6b4a0e06)" d="M 285.495652 315.297391 
L 315.297391 315.297391 
L 315.297391 285.495652 
L 285.495652 285.495652 
z
" style="fill:#ff8900;stroke:#000000;"/>
    <path clip-path="url(#p0a6b4a0e06)" d="M 315.297391 315.297391 
L 345.09913 315.297391 
L 345.09913 285.495652 
L 315.297391 285.495652 
z
" style="fill:#ff8200;stroke:#000000;"/>
    <path clip-path="url(#p0a6b4a0e06)" d="M 345.09913 315.297391 
L 374.90087 315.297391 
L 374.90087 285.495652 
L 345.09913 285.495652 
z
" style="fill:#ff7e00;stroke:#000000;"/>
    <path clip-path="url(#p0a6b4a0e06)" d="M 374.90087 315.297391 
L 404.702609 315.297391 
L 404.702609 285.495652 
L 374.90087 285.495652 
z
" style="fill:#ff7a00;stroke:#000000;"/>
    <path clip-path="url(#p0a6b4a0e06)" d="M 404.702609 315.297391 
L 434.504348 315.297391 
L 434.504348 285.495652 
L 404.702609 285.495652 
z
" style="fill:#ff7700;stroke:#000000;"/>
    <path clip-path="url(#p0a6b4a0e06)" d="M 434.504348 315.297391 
L 464.306087 315.297391 
L 464.306087 285.495652 
L 434.504348 285.495652 
z
" style="fill:#ff7300;stroke:#000000;"/>
    <path clip-path="url(#p0a6b4a0e06)" d="M 464.306087 315.297391 
L 494.107826 315.297391 
L 494.107826 285.495652 
L 464.306087 285.495652 
z
" style="fill:#ff6f00;stroke:#000000;"/>
    <path clip-path="url(#p0a6b4a0e06)" d="M 494.107826 315.297391 
L 523.909565 315.297391 
L 523.909565 285.495652 
L 494.107826 285.495652 
z
" style="fill:#ff6c00;stroke:#000000;"/>
    <path clip-path="url(#p0a6b4a0e06)" d="M 523.909565 315.297391 
L 553.711304 315.297391 
L 553.711304 285.495652 
L 523.909565 285.495652 
z
" style="fill:#ff6800;stroke:#000000;"/>
    <path clip-path="url(#p0a6b4a0e06)" d="M 553.711304 315.297391 
L 583.513043 315.297391 
L 583.513043 285.495652 
L 553.711304 285.495652 
z
" style="fill:#ff6400;stroke:#000000;"/>
    <path clip-path="url(#p0a6b4a0e06)" d="M 583.513043 315.297391 
L 613.314783 315.297391 
L 613.314783 285.495652 
L 583.513043 285.495652 
z
" style="fill:#ff5d00;stroke:#000000;"/>
    <path clip-path="url(#p0a6b4a0e06)" d="M 613.314783 315.297391 
L 643.116522 315.297391 
L 643.116522 285.495652 
L 613.314783 285.495652 
z
" style="fill:#ff5900;stroke:#000000;"/>
    <path clip-path="url(#p0a6b4a0e06)" d="M 643.116522 315.297391 
L 672.918261 315.297391 
L 672.918261 285.495652 
L 643.116522 285.495652 
z
" style="fill:#ff5500;stroke:#000000;"/>
    <path clip-path="url(#p0a6b4a0e06)" d="M 47.081739 285.495652 
L 76.883478 285.495652 
L 76.883478 255.693913 
L 47.081739 255.693913 
z
" style="fill:#ff5200;stroke:#000000;"/>
    <path clip-path="url(#p0a6b4a0e06)" d="M 76.883478 285.495652 
L 106.685217 285.495652 
L 106.685217 255.693913 
L 76.883478 255.693913 
z
" style="fill:#ff4e00;stroke:#000000;"/>
    <path clip-path="url(#p0a6b4a0e06)" d="M 106.685217 285.495652 
L 136.486957 285.495652 
L 136.486957 255.693913 
L 106.685217 255.693913 
z
" style="fill:#ff4a00;stroke:#000000;"/>
    <path clip-path="url(#p0a6b4a0e06)" d="M 136.486957 285.495652 
L 166.288696 285.495652 
L 166.288696 255.693913 
L 136.486957 255.693913 
z
" style="fill:#ff4700;stroke:#000000;"/>
    <path clip-path="url(#p0a6b4a0e06)" d="M 166.288696 285.495652 
L 196.090435 285.495652 
L 196.090435 255.693913 
L 166.288696 255.693913 
z
" style="fill:#ff4300;stroke:#000000;"/>
    <path clip-path="url(#p0a6b4a0e06)" d="M 196.090435 285.495652 
L 225.892174 285.495652 
L 225.892174 255.693913 
L 196.090435 255.693913 
z
" style="fill:#ff3f00;stroke:#000000;"/>
    <path clip-path="url(#p0a6b4a0e06)" d="M 225.892174 285.495652 
L 255.693913 285.495652 
L 255.693913 255.693913 
L 225.892174 255.693913 
z
" style="fill:#ff3800;stroke:#000000;"/>
    <path clip-path="url(#p0a6b4a0e06)" d="M 255.693913 285.495652 
L 285.495652 285.495652 
L 285.495652 255.693913 
L 255.693913 255.693913 
z
" style="fill:#ff3400;stroke:#000000;"/>
    <path clip-path="url(#p0a6b4a0e06)" d="M 285.495652 285.495652 
L 315.297391 285.495652 
L 315.297391 255.693913 
L 285.495652 255.693913 
z
" style="fill:#ff3000;stroke:#000000;"/>
    <path clip-path="url(#p0a6b4a0e06)" d="M 315.297391 285.495652 
L 345.09913 285.495652 
L 345.09913 255.693913 
L 315.297391 255.693913 
z
" style="fill:#ff2d00;stroke:#000000;"/>
    <path clip-path="url(#p0a6b4a0e06)" d="M 345.09913 285.495652 
L 374.90087 285.495652 
L 374.90087 255.693913 
L 345.09913 255.693913 
z
" style="fill:#ff2900;stroke:#000000;"/>
    <path clip-path="url(#p0a6b4a0e06)" d="M 374.90087 285.495652 
L 404.702609 285.495652 
L 404.702609 255.693913 
L 374.90087 255.693913 
z
" style="fill:#ff2500;stroke:#000000;"/>
    <path clip-path="url(#p0a6b4a0e06)" d="M 404.702609 285.495652 
L 434.504348 285.495652 
L 434.504348 255.693913 
L 404.702609 255.693913 
z
" style="fill:#ff2200;stroke:#000000;"/>
    <path clip-path="url(#p0a6b4a0e06)" d="M 434.504348 285.495652 
L 464.306087 285.495652 
L 464.306087 255.693913 
L 434.504348 255.693913 
z
" style="fill:#ff1e00;stroke:#000000;"/>
    <path clip-path="url(#p0a6b4a0e06)" d="M 464.306087 285.495652 
L 494.107826 285.495652 
L 494.107826 255.693913 
L 464.306087 255.693913 
z
" style="fill:#ff1a00;stroke:#000000;"/>
    <path clip-path="url(#p0a6b4a0e06)" d="M 494.107826 285.495652 
L 523.909565 285.495652 
L 523.909565 255.693913 
L 494.107826 255.693913 
z
" style="fill:#ff1300;stroke:#000000;"/>
    <path clip-path="url(#p0a6b4a0e06)" d="M 523.909565 285.495652 
L 553.711304 285.495652 
L 553.711304 255.693913 
L 523.909565 255.693913 
z
" style="fill:#fa0f00;stroke:#000000;"/>
    <path clip-path="url(#p0a6b4a0e06)" d="M 553.711304 285.495652 
L 583.513043 285.495652 
L 583.513043 255.693913 
L 553.711304 255.693913 
z
" style="fill:#f60b00;stroke:#000000;"/>
    <path clip-path="url(#p0a6b4a0e06)" d="M 583.513043 285.495652 
L 613.314783 285.495652 
L 613.314783 255.693913 
L 583.513043 255.693913 
z
" style="fill:#f10800;stroke:#000000;"/>
    <path clip-path="url(#p0a6b4a0e06)" d="M 613.314783 285.495652 
L 643.116522 285.495652 
L 643.116522 255.693913 
L 613.314783 255.693913 
z
" style="fill:#ed0400;stroke:#000000;"/>
    <path clip-path="url(#p0a6b4a0e06)" d="M 643.116522 285.495652 
L 672.918261 285.495652 
L 672.918261 255.693913 
L 643.116522 255.693913 
z
" style="fill:#e80000;stroke:#000000;"/>
    <path clip-path="url(#p0a6b4a0e06)" d="M 47.081739 255.693913 
L 76.883478 255.693913 
L 76.883478 225.892174 
L 47.081739 225.892174 
z
" style="fill:#e40000;stroke:#000000;"/>
    <path clip-path="url(#p0a6b4a0e06)" d="M 76.883478 255.693913 
L 106.685217 255.693913 
L 106.685217 225.892174 
L 76.883478 225.892174 
z
" style="fill:#df0000;stroke:#000000;"/>
    <path clip-path="url(#p0a6b4a0e06)" d="M 106.685217 255.693913 
L 136.486957 255.693913 
L 136.486957 225.892174 
L 106.685217 225.892174 
z
" style="fill:#da0000;stroke:#000000;"/>
    <path clip-path="url(#p0a6b4a0e06)" d="M 136.486957 255.693913 
L 166.288696 255.693913 
L 166.288696 225.892174 
L 136.486957 225.892174 
z
" style="fill:#d10000;stroke:#000000;"/>
    <path clip-path="url(#p0a6b4a0e06)" d="M 166.288696 255.693913 
L 196.090435 255.693913 
L 196.090435 225.892174 
L 166.288696 225.892174 
z
" style="fill:#cd0000;stroke:#000000;"/>
    <path clip-path="url(#p0a6b4a0e06)" d="M 196.090435 255.693913 
L 225.892174 255.693913 
L 225.892174 225.892174 
L 196.090435 225.892174 
z
" style="fill:#c80000;stroke:#000000;"/>
    <path clip-path="url(#p0a6b4a0e06)" d="M 225.892174 255.693913 
L 255.693913 255.693913 
L 255.693913 225.892174 
L 225.892174 225.892174 
z
" style="fill:#c40000;stroke:#000000;"/>
    <path clip-path="url(#p0a6b4a0e06)" d="M 255.693913 255.693913 
L 285.495652 255.693913 
L 285.495652 225.892174 
L 255.693913 225.892174 
z
" style="fill:#bf0000;stroke:#000000;"/>
    <path clip-path="url(#p0a6b4a0e06)" d="M 285.495652 255.693913 
L 315.297391 255.693913 
L 315.297391 225.892174 
L 285.495652 225.892174 
z
" style="fill:#bb0000;stroke:#000000;"/>
    <path clip-path="url(#p0a6b4a0e06)" d="M 315.297391 255.693913 
L 345.09913 255.693913 
L 345.09913 225.892174 
L 315.297391 225.892174 
z
" style="fill:#b60000;stroke:#000000;"/>
    <path clip-path="url(#p0a6b4a0e06)" d="M 345.09913 255.693913 
L 374.90087 255.693913 
L 374.90087 225.892174 
L 345.09913 225.892174 
z
" style="fill:#b20000;stroke:#000000;"/>
    <path clip-path="url(#p0a6b4a0e06)" d="M 374.90087 255.693913 
L 404.702609 255.693913 
L 404.702609 225.892174 
L 374.90087 225.892174 
z
" style="fill:#ad0000;stroke:#000000;"/>
    <path clip-path="url(#p0a6b4a0e06)" d="M 404.702609 255.693913 
L 434.504348 255.693913 
L 434.504348 225.892174 
L 404.702609 225.892174 
z
" style="fill:#a40000;stroke:#000000;"/>
    <path clip-path="url(#p0a6b4a0e06)" d="M 434.504348 255.693913 
L 464.306087 255.693913 
L 464.306087 225.892174 
L 434.504348 225.892174 
z
" style="fill:#9f0000;stroke:#000000;"/>
    <path clip-path="url(#p0a6b4a0e06)" d="M 464.306087 255.693913 
L 494.107826 255.693913 
L 494.107826 225.892174 
L 464.306087 225.892174 
z
" style="fill:#9b0000;stroke:#000000;"/>
    <path clip-path="url(#p0a6b4a0e06)" d="M 494.107826 255.693913 
L 523.909565 255.693913 
L 523.909565 225.892174 
L 494.107826 225.892174 
z
" style="fill:#960000;stroke:#000000;"/>
    <path clip-path="url(#p0a6b4a0e06)" d="M 523.909565 255.693913 
L 553.711304 255.693913 
L 553.711304 225.892174 
L 523.909565 225.892174 
z
" style="fill:#920000;stroke:#000000;"/>
    <path clip-path="url(#p0a6b4a0e06)" d="M 553.711304 255.693913 
L 583.513043 255.693913 
L 583.513043 225.892174 
L 553.711304 225.892174 
z
" style="fill:#8d0000;stroke:#000000;"/>
    <path clip-path="url(#p0a6b4a0e06)" d="M 583.513043 255.693913 
L 613.314783 255.693913 
L 613.314783 225.892174 
L 583.513043 225.892174 
z
" style="fill:#890000;stroke:#000000;"/>
    <path clip-path="url(#p0a6b4a0e06)" d="M 613.314783 255.693913 
L 643.116522 255.693913 
L 643.116522 225.892174 
L 613.314783 225.892174 
z
" style="fill:#840000;stroke:#000000;"/>
    <path clip-path="url(#p0a6b4a0e06)" d="M 643.116522 255.693913 
L 672.918261 255.693913 
L 672.918261 225.892174 
L 643.116522 225.892174 
z
" style="fill:#800000;stroke:#000000;"/>
   </g>
   <g id="line2d_1">
    <defs>
     <path d="M 0 3 
C 0.795609 3 1.55874 2.683901 2.12132 2.12132 
C 2.683901 1.55874 3 0.795609 3 0 
C 3 -0.795609 2.683901 -1.55874 2.12132 -2.12132 
C 1.55874 -2.683901 0.795609 -3 0 -3 
C -0.795609 -3 -1.55874 -2.683901 -2.12132 -2.12132 
C -2.683901 -1.55874 -3 -0.795609 -3 0 
C -3 0.795609 -2.683901 1.55874 -2.12132 2.12132 
C -1.55874 2.683901 -0.795609 3 0 3 
z
" id="md3453bb52b" style="stroke:#000000;"/>
    </defs>
    <g clip-path="url(#p0a6b4a0e06)">
     <use style="stroke:#000000;" x="47.081739" xlink:href="#md3453bb52b" y="553.711304"/>
     <use style="stroke:#000000;" x="76.883478" xlink:href="#md3453bb52b" y="553.711304"/>
     <use style="stroke:#000000;" x="106.685217" xlink:href="#md3453bb52b" y="553.711304"/>
     <use style="stroke:#000000;" x="136.486957" xlink:href="#md3453bb52b" y="553.711304"/>
     <use style="stroke:#000000;" x="166.288696" xlink:href="#md3453bb52b" y="553.711304"/>
     <use style="stroke:#000000;" x="196.090435" xlink:href="#md3453bb52b" y="553.711304"/>
     <use style="stroke:#000000;" x="225.892174" xlink:href="#md3453bb52b" y="553.711304"/>
     <use style="stroke:#000000;" x="255.693913" xlink:href="#md3453bb52b" y="553.711304"/>
     <use style="stroke:#000000;" x="285.495652" xlink:href="#md3453bb52b" y="553.711304"/>
     <use style="stroke:#000000;" x="315.297391" xlink:href="#md3453bb52b" y="553.711304"/>
     <use style="stroke:#000000;" x="345.09913" xlink:href="#md3453bb52b" y="553.711304"/>
     <use style="stroke:#000000;" x="374.90087" xlink:href="#md3453bb52b" y="553.711304"/>
     <use style="stroke:#000000;" x="404.702609" xlink:href="#md3453bb52b" y="553.711304"/>
     <use style="stroke:#000000;" x="434.504348" xlink:href="#md3453bb52b" y="553.711304"/>
     <use style="stroke:#000000;" x="464.306087" xlink:href="#md3453bb52b" y="553.711304"/>
     <use style="stroke:#000000;" x="494.107826" xlink:href="#md3453bb52b" y="553.711304"/>
     <use style="stroke:#000000;" x="523.909565" xlink:href="#md3453bb52b" y="553.711304"/>
     <use style="stroke:#000000;" x="553.711304" xlink:href="#md3453bb52b" y="553.711304"/>
     <use style="stroke:#000000;" x="583.513043" xlink:href="#md3453bb52b" y="553.711304"/>
     <use style="stroke:#000000;" x="613.314783" xlink:href="#md3453bb52b" y="553.711304"/>
     <use style="stroke:#000000;" x="643.116522" xlink:href="#md3453bb52b" y="553.711304"/>
     <use style="stroke:#000000;" x="672.918261" xlink:href="#md3453bb52b" y="553.711304"/>
     <use style="stroke:#000000;" x="47.081739" xlink:href="#md3453bb52b" y="523.909565"/>
     <use style="stroke:#000000;" x="76.883478" xlink:href="#md3453bb52b" y="523.909565"/>
     <use style="stroke:#000000;" x="106.685217" xlink:href="#md3453bb52b" y="523.909565"/>
     <use style="stroke:#000000;" x="136.486957" xlink:href="#md3453bb52b" y="523.909565"/>
     <use style="stroke:#000000;" x="166.288696" xlink:href="#md3453bb52b" y="523.909565"/>
     <use style="stroke:#000000;" x="196.090435" xlink:href="#md3453bb52b" y="523.909565"/>
     <use style="stroke:#000000;" x="225.892174" xlink:href="#md3453bb52b" y="523.909565"/>
     <use style="stroke:#000000;" x="255.693913" xlink:href="#md3453bb52b" y="523.909565"/>
     <use style="stroke:#000000;" x="285.495652" xlink:href="#md3453bb52b" y="523.909565"/>
     <use style="stroke:#000000;" x="315.297391" xlink:href="#md3453bb52b" y="523.909565"/>
     <use style="stroke:#000000;" x="345.09913" xlink:href="#md3453bb52b" y="523.909565"/>
     <use style="stroke:#000000;" x="374.90087" xlink:href="#md3453bb52b" y="523.909565"/>
     <use style="stroke:#000000;" x="404.702609" xlink:href="#md3453bb52b" y="523.909565"/>
     <use style="stroke:#000000;" x="434.504348" xlink:href="#md3453bb52b" y="523.909565"/>
     <use style="stroke:#000000;" x="464.306087" xlink:href="#md3453bb52b" y="523.909565"/>
     <use style="stroke:#000000;" x="494.107826" xlink:href="#md3453bb52b" y="523.909565"/>
     <use style="stroke:#000000;" x="523.909565" xlink:href="#md3453bb52b" y="523.909565"/>
     <use style="stroke:#000000;" x="553.711304" xlink:href="#md3453bb52b" y="523.909565"/>
     <use style="stroke:#000000;" x="583.513043" xlink:href="#md3453bb52b" y="523.909565"/>
     <use style="stroke:#000000;" x="613.314783" xlink:href="#md3453bb52b" y="523.909565"/>
     <use style="stroke:#000000;" x="643.116522" xlink:href="#md3453bb52b" y="523.909565"/>
     <use style="stroke:#000000;" x="672.918261" xlink:href="#md3453bb52b" y="523.909565"/>
     <use style="stroke:#000000;" x="47.081739" xlink:href="#md3453bb52b" y="494.107826"/>
     <use style="stroke:#000000;" x="76.883478" xlink:href="#md3453bb52b" y="494.107826"/>
     <use style="stroke:#000000;" x="106.685217" xlink:href="#md3453bb52b" y="494.107826"/>
     <use style="stroke:#000000;" x="136.486957" xlink:href="#md3453bb52b" y="494.107826"/>
     <use style="stroke:#000000;" x="166.288696" xlink:href="#md3453bb52b" y="494.107826"/>
     <use style="stroke:#000000;" x="196.090435" xlink:href="#md3453bb52b" y="494.107826"/>
     <use style="stroke:#000000;" x="225.892174" xlink:href="#md3453bb52b" y="494.107826"/>
     <use style="stroke:#000000;" x="255.693913" xlink:href="#md3453bb52b" y="494.107826"/>
     <use style="stroke:#000000;" x="285.495652" xlink:href="#md3453bb52b" y="494.107826"/>
     <use style="stroke:#000000;" x="315.297391" xlink:href="#md3453bb52b" y="494.107826"/>
     <use style="stroke:#000000;" x="345.09913" xlink:href="#md3453bb52b" y="494.107826"/>
     <use style="stroke:#000000;" x="374.90087" xlink:href="#md3453bb52b" y="494.107826"/>
     <use style="stroke:#000000;" x="404.702609" xlink:href="#md3453bb52b" y="494.107826"/>
     <use style="stroke:#000000;" x="434.504348" xlink:href="#md3453bb52b" y="494.107826"/>
     <use style="stroke:#000000;" x="464.306087" xlink:href="#md3453bb52b" y="494.107826"/>
     <use style="stroke:#000000;" x="494.107826" xlink:href="#md3453bb52b" y="494.107826"/>
     <use style="stroke:#000000;" x="523.909565" xlink:href="#md3453bb52b" y="494.107826"/>
     <use style="stroke:#000000;" x="553.711304" xlink:href="#md3453bb52b" y="494.107826"/>
     <use style="stroke:#000000;" x="583.513043" xlink:href="#md3453bb52b" y="494.107826"/>
     <use style="stroke:#000000;" x="613.314783" xlink:href="#md3453bb52b" y="494.107826"/>
     <use style="stroke:#000000;" x="643.116522" xlink:href="#md3453bb52b" y="494.107826"/>
     <use style="stroke:#000000;" x="672.918261" xlink:href="#md3453bb52b" y="494.107826"/>
     <use style="stroke:#000000;" x="47.081739" xlink:href="#md3453bb52b" y="464.306087"/>
     <use style="stroke:#000000;" x="76.883478" xlink:href="#md3453bb52b" y="464.306087"/>
     <use style="stroke:#000000;" x="106.685217" xlink:href="#md3453bb52b" y="464.306087"/>
     <use style="stroke:#000000;" x="136.486957" xlink:href="#md3453bb52b" y="464.306087"/>
     <use style="stroke:#000000;" x="166.288696" xlink:href="#md3453bb52b" y="464.306087"/>
     <use style="stroke:#000000;" x="196.090435" xlink:href="#md3453bb52b" y="464.306087"/>
     <use style="stroke:#000000;" x="225.892174" xlink:href="#md3453bb52b" y="464.306087"/>
     <use style="stroke:#000000;" x="255.693913" xlink:href="#md3453bb52b" y="464.306087"/>
     <use style="stroke:#000000;" x="285.495652" xlink:href="#md3453bb52b" y="464.306087"/>
     <use style="stroke:#000000;" x="315.297391" xlink:href="#md3453bb52b" y="464.306087"/>
     <use style="stroke:#000000;" x="345.09913" xlink:href="#md3453bb52b" y="464.306087"/>
     <use style="stroke:#000000;" x="374.90087" xlink:href="#md3453bb52b" y="464.306087"/>
     <use style="stroke:#000000;" x="404.702609" xlink:href="#md3453bb52b" y="464.306087"/>
     <use style="stroke:#000000;" x="434.504348" xlink:href="#md3453bb52b" y="464.306087"/>
     <use style="stroke:#000000;" x="464.306087" xlink:href="#md3453bb52b" y="464.306087"/>
     <use style="stroke:#000000;" x="494.107826" xlink:href="#md3453bb52b" y="464.306087"/>
     <use style="stroke:#000000;" x="523.909565" xlink:href="#md3453bb52b" y="464.306087"/>
     <use style="stroke:#000000;" x="553.711304" xlink:href="#md3453bb52b" y="464.306087"/>
     <use style="stroke:#000000;" x="583.513043" xlink:href="#md3453bb52b" y="464.306087"/>
     <use style="stroke:#000000;" x="613.314783" xlink:href="#md3453bb52b" y="464.306087"/>
     <use style="stroke:#000000;" x="643.116522" xlink:href="#md3453bb52b" y="464.306087"/>
     <use style="stroke:#000000;" x="672.918261" xlink:href="#md3453bb52b" y="464.306087"/>
     <use style="stroke:#000000;" x="47.081739" xlink:href="#md3453bb52b" y="434.504348"/>
     <use style="stroke:#000000;" x="76.883478" xlink:href="#md3453bb52b" y="434.504348"/>
     <use style="stroke:#000000;" x="106.685217" xlink:href="#md3453bb52b" y="434.504348"/>
     <use style="stroke:#000000;" x="136.486957" xlink:href="#md3453bb52b" y="434.504348"/>
     <use style="stroke:#000000;" x="166.288696" xlink:href="#md3453bb52b" y="434.504348"/>
     <use style="stroke:#000000;" x="196.090435" xlink:href="#md3453bb52b" y="434.504348"/>
     <use style="stroke:#000000;" x="225.892174" xlink:href="#md3453bb52b" y="434.504348"/>
     <use style="stroke:#000000;" x="255.693913" xlink:href="#md3453bb52b" y="434.504348"/>
     <use style="stroke:#000000;" x="285.495652" xlink:href="#md3453bb52b" y="434.504348"/>
     <use style="stroke:#000000;" x="315.297391" xlink:href="#md3453bb52b" y="434.504348"/>
     <use style="stroke:#000000;" x="345.09913" xlink:href="#md3453bb52b" y="434.504348"/>
     <use style="stroke:#000000;" x="374.90087" xlink:href="#md3453bb52b" y="434.504348"/>
     <use style="stroke:#000000;" x="404.702609" xlink:href="#md3453bb52b" y="434.504348"/>
     <use style="stroke:#000000;" x="434.504348" xlink:href="#md3453bb52b" y="434.504348"/>
     <use style="stroke:#000000;" x="464.306087" xlink:href="#md3453bb52b" y="434.504348"/>
     <use style="stroke:#000000;" x="494.107826" xlink:href="#md3453bb52b" y="434.504348"/>
     <use style="stroke:#000000;" x="523.909565" xlink:href="#md3453bb52b" y="434.504348"/>
     <use style="stroke:#000000;" x="553.711304" xlink:href="#md3453bb52b" y="434.504348"/>
     <use style="stroke:#000000;" x="583.513043" xlink:href="#md3453bb52b" y="434.504348"/>
     <use style="stroke:#000000;" x="613.314783" xlink:href="#md3453bb52b" y="434.504348"/>
     <use style="stroke:#000000;" x="643.116522" xlink:href="#md3453bb52b" y="434.504348"/>
     <use style="stroke:#000000;" x="672.918261" xlink:href="#md3453bb52b" y="434.504348"/>
     <use style="stroke:#000000;" x="47.081739" xlink:href="#md3453bb52b" y="404.702609"/>
     <use style="stroke:#000000;" x="76.883478" xlink:href="#md3453bb52b" y="404.702609"/>
     <use style="stroke:#000000;" x="106.685217" xlink:href="#md3453bb52b" y="404.702609"/>
     <use style="stroke:#000000;" x="136.486957" xlink:href="#md3453bb52b" y="404.702609"/>
     <use style="stroke:#000000;" x="166.288696" xlink:href="#md3453bb52b" y="404.702609"/>
     <use style="stroke:#000000;" x="196.090435" xlink:href="#md3453bb52b" y="404.702609"/>
     <use style="stroke:#000000;" x="225.892174" xlink:href="#md3453bb52b" y="404.702609"/>
     <use style="stroke:#000000;" x="255.693913" xlink:href="#md3453bb52b" y="404.702609"/>
     <use style="stroke:#000000;" x="285.495652" xlink:href="#md3453bb52b" y="404.702609"/>
     <use style="stroke:#000000;" x="315.297391" xlink:href="#md3453bb52b" y="404.702609"/>
     <use style="stroke:#000000;" x="345.09913" xlink:href="#md3453bb52b" y="404.702609"/>
     <use style="stroke:#000000;" x="374.90087" xlink:href="#md3453bb52b" y="404.702609"/>
     <use style="stroke:#000000;" x="404.702609" xlink:href="#md3453bb52b" y="404.702609"/>
     <use style="stroke:#000000;" x="434.504348" xlink:href="#md3453bb52b" y="404.702609"/>
     <use style="stroke:#000000;" x="464.306087" xlink:href="#md3453bb52b" y="404.702609"/>
     <use style="stroke:#000000;" x="494.107826" xlink:href="#md3453bb52b" y="404.702609"/>
     <use style="stroke:#000000;" x="523.909565" xlink:href="#md3453bb52b" y="404.702609"/>
     <use style="stroke:#000000;" x="553.711304" xlink:href="#md3453bb52b" y="404.702609"/>
     <use style="stroke:#000000;" x="583.513043" xlink:href="#md3453bb52b" y="404.702609"/>
     <use style="stroke:#000000;" x="613.314783" xlink:href="#md3453bb52b" y="404.702609"/>
     <use style="stroke:#000000;" x="643.116522" xlink:href="#md3453bb52b" y="404.702609"/>
     <use style="stroke:#000000;" x="672.918261" xlink:href="#md3453bb52b" y="404.702609"/>
     <use style="stroke:#000000;" x="47.081739" xlink:href="#md3453bb52b" y="374.90087"/>
     <use style="stroke:#000000;" x="76.883478" xlink:href="#md3453bb52b" y="374.90087"/>
     <use style="stroke:#000000;" x="106.685217" xlink:href="#md3453bb52b" y="374.90087"/>
     <use style="stroke:#000000;" x="136.486957" xlink:href="#md3453bb52b" y="374.90087"/>
     <use style="stroke:#000000;" x="166.288696" xlink:href="#md3453bb52b" y="374.90087"/>
     <use style="stroke:#000000;" x="196.090435" xlink:href="#md3453bb52b" y="374.90087"/>
     <use style="stroke:#000000;" x="225.892174" xlink:href="#md3453bb52b" y="374.90087"/>
     <use style="stroke:#000000;" x="255.693913" xlink:href="#md3453bb52b" y="374.90087"/>
     <use style="stroke:#000000;" x="285.495652" xlink:href="#md3453bb52b" y="374.90087"/>
     <use style="stroke:#000000;" x="315.297391" xlink:href="#md3453bb52b" y="374.90087"/>
     <use style="stroke:#000000;" x="345.09913" xlink:href="#md3453bb52b" y="374.90087"/>
     <use style="stroke:#000000;" x="374.90087" xlink:href="#md3453bb52b" y="374.90087"/>
     <use style="stroke:#000000;" x="404.702609" xlink:href="#md3453bb52b" y="374.90087"/>
     <use style="stroke:#000000;" x="434.504348" xlink:href="#md3453bb52b" y="374.90087"/>
     <use style="stroke:#000000;" x="464.306087" xlink:href="#md3453bb52b" y="374.90087"/>
     <use style="stroke:#000000;" x="494.107826" xlink:href="#md3453bb52b" y="374.90087"/>
     <use style="stroke:#000000;" x="523.909565" xlink:href="#md3453bb52b" y="374.90087"/>
     <use style="stroke:#000000;" x="553.711304" xlink:href="#md3453bb52b" y="374.90087"/>
     <use style="stroke:#000000;" x="583.513043" xlink:href="#md3453bb52b" y="374.90087"/>
     <use style="stroke:#000000;" x="613.314783" xlink:href="#md3453bb52b" y="374.90087"/>
     <use style="stroke:#000000;" x="643.116522" xlink:href="#md3453bb52b" y="374.90087"/>
     <use style="stroke:#000000;" x="672.918261" xlink:href="#md3453bb52b" y="374.90087"/>
     <use style="stroke:#000000;" x="47.081739" xlink:href="#md3453bb52b" y="345.09913"/>
     <use style="stroke:#000000;" x="76.883478" xlink:href="#md3453bb52b" y="345.09913"/>
     <use style="stroke:#000000;" x="106.685217" xlink:href="#md3453bb52b" y="345.09913"/>
     <use style="stroke:#000000;" x="136.486957" xlink:href="#md3453bb52b" y="345.09913"/>
     <use style="stroke:#000000;" x="166.288696" xlink:href="#md3453bb52b" y="345.09913"/>
     <use style="stroke:#000000;" x="196.090435" xlink:href="#md3453bb52b" y="345.09913"/>
     <use style="stroke:#000000;" x="225.892174" xlink:href="#md3453bb52b" y="345.09913"/>
     <use style="stroke:#000000;" x="255.693913" xlink:href="#md3453bb52b" y="345.09913"/>
     <use style="stroke:#000000;" x="285.495652" xlink:href="#md3453bb52b" y="345.09913"/>
     <use style="stroke:#000000;" x="315.297391" xlink:href="#md3453bb52b" y="345.09913"/>
     <use style="stroke:#000000;" x="345.09913" xlink:href="#md3453bb52b" y="345.09913"/>
     <use style="stroke:#000000;" x="374.90087" xlink:href="#md3453bb52b" y="345.09913"/>
     <use style="stroke:#000000;" x="404.702609" xlink:href="#md3453bb52b" y="345.09913"/>
     <use style="stroke:#000000;" x="434.504348" xlink:href="#md3453bb52b" y="345.09913"/>
     <use style="stroke:#000000;" x="464.306087" xlink:href="#md3453bb52b" y="345.09913"/>
     <use style="stroke:#000000;" x="494.107826" xlink:href="#md3453bb52b" y="345.09913"/>
     <use style="stroke:#000000;" x="523.909565" xlink:href="#md3453bb52b" y="345.09913"/>
     <use style="stroke:#000000;" x="553.711304" xlink:href="#md3453bb52b" y="345.09913"/>
     <use style="stroke:#000000;" x="583.513043" xlink:href="#md3453bb52b" y="345.09913"/>
     <use style="stroke:#000000;" x="613.314783" xlink:href="#md3453bb52b" y="345.09913"/>
     <use style="stroke:#000000;" x="643.116522" xlink:href="#md3453bb52b" y="345.09913"/>
     <use style="stroke:#000000;" x="672.918261" xlink:href="#md3453bb52b" y="345.09913"/>
     <use style="stroke:#000000;" x="47.081739" xlink:href="#md3453bb52b" y="315.297391"/>
     <use style="stroke:#000000;" x="76.883478" xlink:href="#md3453bb52b" y="315.297391"/>
     <use style="stroke:#000000;" x="106.685217" xlink:href="#md3453bb52b" y="315.297391"/>
     <use style="stroke:#000000;" x="136.486957" xlink:href="#md3453bb52b" y="315.297391"/>
     <use style="stroke:#000000;" x="166.288696" xlink:href="#md3453bb52b" y="315.297391"/>
     <use style="stroke:#000000;" x="196.090435" xlink:href="#md3453bb52b" y="315.297391"/>
     <use style="stroke:#000000;" x="225.892174" xlink:href="#md3453bb52b" y="315.297391"/>
     <use style="stroke:#000000;" x="255.693913" xlink:href="#md3453bb52b" y="315.297391"/>
     <use style="stroke:#000000;" x="285.495652" xlink:href="#md3453bb52b" y="315.297391"/>
     <use style="stroke:#000000;" x="315.297391" xlink:href="#md3453bb52b" y="315.297391"/>
     <use style="stroke:#000000;" x="345.09913" xlink:href="#md3453bb52b" y="315.297391"/>
     <use style="stroke:#000000;" x="374.90087" xlink:href="#md3453bb52b" y="315.297391"/>
     <use style="stroke:#000000;" x="404.702609" xlink:href="#md3453bb52b" y="315.297391"/>
     <use style="stroke:#000000;" x="434.504348" xlink:href="#md3453bb52b" y="315.297391"/>
     <use style="stroke:#000000;" x="464.306087" xlink:href="#md3453bb52b" y="315.297391"/>
     <use style="stroke:#000000;" x="494.107826" xlink:href="#md3453bb52b" y="315.297391"/>
     <use style="stroke:#000000;" x="523.909565" xlink:href="#md3453bb52b" y="315.297391"/>
     <use style="stroke:#000000;" x="553.711304" xlink:href="#md3453bb52b" y="315.297391"/>
     <use style="stroke:#000000;" x="583.513043" xlink:href="#md3453bb52b" y="315.297391"/>
     <use style="stroke:#000000;" x="613.314783" xlink:href="#md3453bb52b" y="315.297391"/>
     <use style="stroke:#000000;" x="643.116522" xlink:href="#md3453bb52b" y="315.297391"/>
     <use style="stroke:#000000;" x="672.918261" xlink:href="#md3453bb52b" y="315.297391"/>
     <use style="stroke:#000000;" x="47.081739" xlink:href="#md3453bb52b" y="285.495652"/>
     <use style="stroke:#000000;" x="76.883478" xlink:href="#md3453bb52b" y="285.495652"/>
     <use style="stroke:#000000;" x="106.685217" xlink:href="#md3453bb52b" y="285.495652"/>
     <use style="stroke:#000000;" x="136.486957" xlink:href="#md3453bb52b" y="285.495652"/>
     <use style="stroke:#000000;" x="166.288696" xlink:href="#md3453bb52b" y="285.495652"/>
     <use style="stroke:#000000;" x="196.090435" xlink:href="#md3453bb52b" y="285.495652"/>
     <use style="stroke:#000000;" x="225.892174" xlink:href="#md3453bb52b" y="285.495652"/>
     <use style="stroke:#000000;" x="255.693913" xlink:href="#md3453bb52b" y="285.495652"/>
     <use style="stroke:#000000;" x="285.495652" xlink:href="#md3453bb52b" y="285.495652"/>
     <use style="stroke:#000000;" x="315.297391" xlink:href="#md3453bb52b" y="285.495652"/>
     <use style="stroke:#000000;" x="345.09913" xlink:href="#md3453bb52b" y="285.495652"/>
     <use style="stroke:#000000;" x="374.90087" xlink:href="#md3453bb52b" y="285.495652"/>
     <use style="stroke:#000000;" x="404.702609" xlink:href="#md3453bb52b" y="285.495652"/>
     <use style="stroke:#000000;" x="434.504348" xlink:href="#md3453bb52b" y="285.495652"/>
     <use style="stroke:#000000;" x="464.306087" xlink:href="#md3453bb52b" y="285.495652"/>
     <use style="stroke:#000000;" x="494.107826" xlink:href="#md3453bb52b" y="285.495652"/>
     <use style="stroke:#000000;" x="523.909565" xlink:href="#md3453bb52b" y="285.495652"/>
     <use style="stroke:#000000;" x="553.711304" xlink:href="#md3453bb52b" y="285.495652"/>
     <use style="stroke:#000000;" x="583.513043" xlink:href="#md3453bb52b" y="285.495652"/>
     <use style="stroke:#000000;" x="613.314783" xlink:href="#md3453bb52b" y="285.495652"/>
     <use style="stroke:#000000;" x="643.116522" xlink:href="#md3453bb52b" y="285.495652"/>
     <use style="stroke:#000000;" x="672.918261" xlink:href="#md3453bb52b" y="285.495652"/>
     <use style="stroke:#000000;" x="47.081739" xlink:href="#md3453bb52b" y="255.693913"/>
     <use style="stroke:#000000;" x="76.883478" xlink:href="#md3453bb52b" y="255.693913"/>
     <use style="stroke:#000000;" x="106.685217" xlink:href="#md3453bb52b" y="255.693913"/>
     <use style="stroke:#000000;" x="136.486957" xlink:href="#md3453bb52b" y="255.693913"/>
     <use style="stroke:#000000;" x="166.288696" xlink:href="#md3453bb52b" y="255.693913"/>
     <use style="stroke:#000000;" x="196.090435" xlink:href="#md3453bb52b" y="255.693913"/>
     <use style="stroke:#000000;" x="225.892174" xlink:href="#md3453bb52b" y="255.693913"/>
     <use style="stroke:#000000;" x="255.693913" xlink:href="#md3453bb52b" y="255.693913"/>
     <use style="stroke:#000000;" x="285.495652" xlink:href="#md3453bb52b" y="255.693913"/>
     <use style="stroke:#000000;" x="315.297391" xlink:href="#md3453bb52b" y="255.693913"/>
     <use style="stroke:#000000;" x="345.09913" xlink:href="#md3453bb52b" y="255.693913"/>
     <use style="stroke:#000000;" x="374.90087" xlink:href="#md3453bb52b" y="255.693913"/>
     <use style="stroke:#000000;" x="404.702609" xlink:href="#md3453bb52b" y="255.693913"/>
     <use style="stroke:#000000;" x="434.504348" xlink:href="#md3453bb52b" y="255.693913"/>
     <use style="stroke:#000000;" x="464.306087" xlink:href="#md3453bb52b" y="255.693913"/>
     <use style="stroke:#000000;" x="494.107826" xlink:href="#md3453bb52b" y="255.693913"/>
     <use style="stroke:#000000;" x="523.909565" xlink:href="#md3453bb52b" y="255.693913"/>
     <use style="stroke:#000000;" x="553.711304" xlink:href="#md3453bb52b" y="255.693913"/>
     <use style="stroke:#000000;" x="583.513043" xlink:href="#md3453bb52b" y="255.693913"/>
     <use style="stroke:#000000;" x="613.314783" xlink:href="#md3453bb52b" y="255.693913"/>
     <use style="stroke:#000000;" x="643.116522" xlink:href="#md3453bb52b" y="255.693913"/>
     <use style="stroke:#000000;" x="672.918261" xlink:href="#md3453bb52b" y="255.693913"/>
     <use style="stroke:#000000;" x="47.081739" xlink:href="#md3453bb52b" y="225.892174"/>
     <use style="stroke:#000000;" x="76.883478" xlink:href="#md3453bb52b" y="225.892174"/>
     <use style="stroke:#000000;" x="106.685217" xlink:href="#md3453bb52b" y="225.892174"/>
     <use style="stroke:#000000;" x="136.486957" xlink:href="#md3453bb52b" y="225.892174"/>
     <use style="stroke:#000000;" x="166.288696" xlink:href="#md3453bb52b" y="225.892174"/>
     <use style="stroke:#000000;" x="196.090435" xlink:href="#md3453bb52b" y="225.892174"/>
     <use style="stroke:#000000;" x="225.892174" xlink:href="#md3453bb52b" y="225.892174"/>
     <use style="stroke:#000000;" x="255.693913" xlink:href="#md3453bb52b" y="225.892174"/>
     <use style="stroke:#000000;" x="285.495652" xlink:href="#md3453bb52b" y="225.892174"/>
     <use style="stroke:#000000;" x="315.297391" xlink:href="#md3453bb52b" y="225.892174"/>
     <use style="stroke:#000000;" x="345.09913" xlink:href="#md3453bb52b" y="225.892174"/>
     <use style="stroke:#000000;" x="374.90087" xlink:href="#md3453bb52b" y="225.892174"/>
     <use style="stroke:#000000;" x="404.702609" xlink:href="#md3453bb52b" y="225.892174"/>
     <use style="stroke:#000000;" x="434.504348" xlink:href="#md3453bb52b" y="225.892174"/>
     <use style="stroke:#000000;" x="464.306087" xlink:href="#md3453bb52b" y="225.892174"/>
     <use style="stroke:#000000;" x="494.107826" xlink:href="#md3453bb52b" y="225.892174"/>
     <use style="stroke:#000000;" x="523.909565" xlink:href="#md3453bb52b" y="225.892174"/>
     <use style="stroke:#000000;" x="553.711304" xlink:href="#md3453bb52b" y="225.892174"/>
     <use style="stroke:#000000;" x="583.513043" xlink:href="#md3453bb52b" y="225.892174"/>
     <use style="stroke:#000000;" x="613.314783" xlink:href="#md3453bb52b" y="225.892174"/>
     <use style="stroke:#000000;" x="643.116522" xlink:href="#md3453bb52b" y="225.892174"/>
     <use style="stroke:#000000;" x="672.918261" xlink:href="#md3453bb52b" y="225.892174"/>
    </g>
   </g>
   <g id="line2d_2">
    <defs>
     <path d="M 0 3 
C 0.795609 3 1.55874 2.683901 2.12132 2.12132 
C 2.683901 1.55874 3 0.795609 3 0 
C 3 -0.795609 2.683901 -1.55874 2.12132 -2.12132 
C 1.55874 -2.683901 0.795609 -3 0 -3 
C -0.795609 -3 -1.55874 -2.683901 -2.12132 -2.12132 
C -2.683901 -1.55874 -3 -0.795609 -3 0 
C -3 0.795609 -2.683901 1.55874 -2.12132 2.12132 
C -1.55874 2.683901 -0.795609 3 0 3 
z
" id="mee6e022865" style="stroke:#008000;"/>
    </defs>
    <g clip-path="url(#p0a6b4a0e06)">
     <use style="fill:#008000;stroke:#008000;" x="47.081739" xlink:href="#mee6e022865" y="523.909565"/>
     <use style="fill:#008000;stroke:#008000;" x="47.081739" xlink:href="#mee6e022865" y="494.107826"/>
     <use style="fill:#008000;stroke:#008000;" x="47.081739" xlink:href="#mee6e022865" y="464.306087"/>
     <use style="fill:#008000;stroke:#008000;" x="47.081739" xlink:href="#mee6e022865" y="434.504348"/>
     <use style="fill:#008000;stroke:#008000;" x="47.081739" xlink:href="#mee6e022865" y="404.702609"/>
     <use style="fill:#008000;stroke:#008000;" x="47.081739" xlink:href="#mee6e022865" y="374.90087"/>
     <use style="fill:#008000;stroke:#008000;" x="47.081739" xlink:href="#mee6e022865" y="345.09913"/>
     <use style="fill:#008000;stroke:#008000;" x="47.081739" xlink:href="#mee6e022865" y="315.297391"/>
     <use style="fill:#008000;stroke:#008000;" x="47.081739" xlink:href="#mee6e022865" y="285.495652"/>
     <use style="fill:#008000;stroke:#008000;" x="47.081739" xlink:href="#mee6e022865" y="255.693913"/>
    </g>
   </g>
   <g id="line2d_3">
    <defs>
     <path d="M 0 3 
C 0.795609 3 1.55874 2.683901 2.12132 2.12132 
C 2.683901 1.55874 3 0.795609 3 0 
C 3 -0.795609 2.683901 -1.55874 2.12132 -2.12132 
C 1.55874 -2.683901 0.795609 -3 0 -3 
C -0.795609 -3 -1.55874 -2.683901 -2.12132 -2.12132 
C -2.683901 -1.55874 -3 -0.795609 -3 0 
C -3 0.795609 -2.683901 1.55874 -2.12132 2.12132 
C -1.55874 2.683901 -0.795609 3 0 3 
z
" id="m695fe68be4" style="stroke:#0000ff;"/>
    </defs>
    <g clip-path="url(#p0a6b4a0e06)">
     <use style="fill:#0000ff;stroke:#0000ff;" x="672.918261" xlink:href="#m695fe68be4" y="523.909565"/>
     <use style="fill:#0000ff;stroke:#0000ff;" x="672.918261" xlink:href="#m695fe68be4" y="494.107826"/>
     <use style="fill:#0000ff;stroke:#0000ff;" x="672.918261" xlink:href="#m695fe68be4" y="464.306087"/>
     <use style="fill:#0000ff;stroke:#0000ff;" x="672.918261" xlink:href="#m695fe68be4" y="434.504348"/>
     <use style="fill:#0000ff;stroke:#0000ff;" x="672.918261" xlink:href="#m695fe68be4" y="404.702609"/>
     <use style="fill:#0000ff;stroke:#0000ff;" x="672.918261" xlink:href="#m695fe68be4" y="374.90087"/>
     <use style="fill:#0000ff;stroke:#0000ff;" x="672.918261" xlink:href="#m695fe68be4" y="345.09913"/>
     <use style="fill:#0000ff;stroke:#0000ff;" x="672.918261" xlink:href="#m695fe68be4" y="315.297391"/>
     <use style="fill:#0000ff;stroke:#0000ff;" x="672.918261" xlink:href="#m695fe68be4" y="285.495652"/>
     <use style="fill:#0000ff;stroke:#0000ff;" x="672.918261" xlink:href="#m695fe68be4" y="255.693913"/>
    </g>
   </g>
   <g id="line2d_4">
    <defs>
     <path d="M 0 3 
C 0.795609 3 1.55874 2.683901 2.12132 2.12132 
C 2.683901 1.55874 3 0.795609 3 0 
C 3 -0.795609 2.683901 -1.55874 2.12132 -2.12132 
C 1.55874 -2.683901 0.795609 -3 0 -3 
C -0.795609 -3 -1.55874 -2.683901 -2.12132 -2.12132 
C -2.683901 -1.55874 -3 -0.795609 -3 0 
C -3 0.795609 -2.683901 1.55874 -2.12132 2.12132 
C -1.55874 2.683901 -0.795609 3 0 3 
z
" id="m70d20ef9f1" style="stroke:#ff0000;"/>
    </defs>
    <g clip-path="url(#p0a6b4a0e06)">
     <use style="fill:#ff0000;stroke:#ff0000;" x="47.081739" xlink:href="#m70d20ef9f1" y="553.711304"/>
     <use style="fill:#ff0000;stroke:#ff0000;" x="76.883478" xlink:href="#m70d20ef9f1" y="553.711304"/>
     <use style="fill:#ff0000;stroke:#ff0000;" x="106.685217" xlink:href="#m70d20ef9f1" y="553.711304"/>
     <use style="fill:#ff0000;stroke:#ff0000;" x="136.486957" xlink:href="#m70d20ef9f1" y="553.711304"/>
     <use style="fill:#ff0000;stroke:#ff0000;" x="166.288696" xlink:href="#m70d20ef9f1" y="553.711304"/>
     <use style="fill:#ff0000;stroke:#ff0000;" x="196.090435" xlink:href="#m70d20ef9f1" y="553.711304"/>
     <use style="fill:#ff0000;stroke:#ff0000;" x="225.892174" xlink:href="#m70d20ef9f1" y="553.711304"/>
     <use style="fill:#ff0000;stroke:#ff0000;" x="255.693913" xlink:href="#m70d20ef9f1" y="553.711304"/>
     <use style="fill:#ff0000;stroke:#ff0000;" x="285.495652" xlink:href="#m70d20ef9f1" y="553.711304"/>
     <use style="fill:#ff0000;stroke:#ff0000;" x="315.297391" xlink:href="#m70d20ef9f1" y="553.711304"/>
     <use style="fill:#ff0000;stroke:#ff0000;" x="345.09913" xlink:href="#m70d20ef9f1" y="553.711304"/>
     <use style="fill:#ff0000;stroke:#ff0000;" x="374.90087" xlink:href="#m70d20ef9f1" y="553.711304"/>
     <use style="fill:#ff0000;stroke:#ff0000;" x="404.702609" xlink:href="#m70d20ef9f1" y="553.711304"/>
     <use style="fill:#ff0000;stroke:#ff0000;" x="434.504348" xlink:href="#m70d20ef9f1" y="553.711304"/>
     <use style="fill:#ff0000;stroke:#ff0000;" x="464.306087" xlink:href="#m70d20ef9f1" y="553.711304"/>
     <use style="fill:#ff0000;stroke:#ff0000;" x="494.107826" xlink:href="#m70d20ef9f1" y="553.711304"/>
     <use style="fill:#ff0000;stroke:#ff0000;" x="523.909565" xlink:href="#m70d20ef9f1" y="553.711304"/>
     <use style="fill:#ff0000;stroke:#ff0000;" x="553.711304" xlink:href="#m70d20ef9f1" y="553.711304"/>
     <use style="fill:#ff0000;stroke:#ff0000;" x="583.513043" xlink:href="#m70d20ef9f1" y="553.711304"/>
     <use style="fill:#ff0000;stroke:#ff0000;" x="613.314783" xlink:href="#m70d20ef9f1" y="553.711304"/>
     <use style="fill:#ff0000;stroke:#ff0000;" x="643.116522" xlink:href="#m70d20ef9f1" y="553.711304"/>
     <use style="fill:#ff0000;stroke:#ff0000;" x="672.918261" xlink:href="#m70d20ef9f1" y="553.711304"/>
    </g>
   </g>
   <g id="line2d_5">
    <defs>
     <path d="M 0 3 
C 0.795609 3 1.55874 2.683901 2.12132 2.12132 
C 2.683901 1.55874 3 0.795609 3 0 
C 3 -0.795609 2.683901 -1.55874 2.12132 -2.12132 
C 1.55874 -2.683901 0.795609 -3 0 -3 
C -0.795609 -3 -1.55874 -2.683901 -2.12132 -2.12132 
C -2.683901 -1.55874 -3 -0.795609 -3 0 
C -3 0.795609 -2.683901 1.55874 -2.12132 2.12132 
C -1.55874 2.683901 -0.795609 3 0 3 
z
" id="m5118030c98" style="stroke:#bfbf00;"/>
    </defs>
    <g clip-path="url(#p0a6b4a0e06)">
     <use style="fill:#bfbf00;stroke:#bfbf00;" x="47.081739" xlink:href="#m5118030c98" y="225.892174"/>
     <use style="fill:#bfbf00;stroke:#bfbf00;" x="76.883478" xlink:href="#m5118030c98" y="225.892174"/>
     <use style="fill:#bfbf00;stroke:#bfbf00;" x="106.685217" xlink:href="#m5118030c98" y="225.892174"/>
     <use style="fill:#bfbf00;stroke:#bfbf00;" x="136.486957" xlink:href="#m5118030c98" y="225.892174"/>
     <use style="fill:#bfbf00;stroke:#bfbf00;" x="166.288696" xlink:href="#m5118030c98" y="225.892174"/>
     <use style="fill:#bfbf00;stroke:#bfbf00;" x="196.090435" xlink:href="#m5118030c98" y="225.892174"/>
     <use style="fill:#bfbf00;stroke:#bfbf00;" x="225.892174" xlink:href="#m5118030c98" y="225.892174"/>
     <use style="fill:#bfbf00;stroke:#bfbf00;" x="255.693913" xlink:href="#m5118030c98" y="225.892174"/>
     <use style="fill:#bfbf00;stroke:#bfbf00;" x="285.495652" xlink:href="#m5118030c98" y="225.892174"/>
     <use style="fill:#bfbf00;stroke:#bfbf00;" x="315.297391" xlink:href="#m5118030c98" y="225.892174"/>
     <use style="fill:#bfbf00;stroke:#bfbf00;" x="345.09913" xlink:href="#m5118030c98" y="225.892174"/>
     <use style="fill:#bfbf00;stroke:#bfbf00;" x="374.90087" xlink:href="#m5118030c98" y="225.892174"/>
     <use style="fill:#bfbf00;stroke:#bfbf00;" x="404.702609" xlink:href="#m5118030c98" y="225.892174"/>
     <use style="fill:#bfbf00;stroke:#bfbf00;" x="434.504348" xlink:href="#m5118030c98" y="225.892174"/>
     <use style="fill:#bfbf00;stroke:#bfbf00;" x="464.306087" xlink:href="#m5118030c98" y="225.892174"/>
     <use style="fill:#bfbf00;stroke:#bfbf00;" x="494.107826" xlink:href="#m5118030c98" y="225.892174"/>
     <use style="fill:#bfbf00;stroke:#bfbf00;" x="523.909565" xlink:href="#m5118030c98" y="225.892174"/>
     <use style="fill:#bfbf00;stroke:#bfbf00;" x="553.711304" xlink:href="#m5118030c98" y="225.892174"/>
     <use style="fill:#bfbf00;stroke:#bfbf00;" x="583.513043" xlink:href="#m5118030c98" y="225.892174"/>
     <use style="fill:#bfbf00;stroke:#bfbf00;" x="613.314783" xlink:href="#m5118030c98" y="225.892174"/>
     <use style="fill:#bfbf00;stroke:#bfbf00;" x="643.116522" xlink:href="#m5118030c98" y="225.892174"/>
     <use style="fill:#bfbf00;stroke:#bfbf00;" x="672.918261" xlink:href="#m5118030c98" y="225.892174"/>
    </g>
   </g>
   <g id="patch_3">
    <path d="M 17.28 583.513043 
L 17.28 136.486957 
" style="fill:none;stroke:#000000;stroke-linecap:square;stroke-linejoin:miter;stroke-width:0.8;"/>
   </g>
   <g id="patch_4">
    <path d="M 702.72 583.513043 
L 702.72 136.486957 
" style="fill:none;stroke:#000000;stroke-linecap:square;stroke-linejoin:miter;stroke-width:0.8;"/>
   </g>
   <g id="patch_5">
    <path d="M 17.28 583.513043 
L 702.72 583.513043 
" style="fill:none;stroke:#000000;stroke-linecap:square;stroke-linejoin:miter;stroke-width:0.8;"/>
   </g>
   <g id="patch_6">
    <path d="M 17.28 136.486957 
L 702.72 136.486957 
" style="fill:none;stroke:#000000;stroke-linecap:square;stroke-linejoin:miter;stroke-width:0.8;"/>
   </g>
   <g id="legend_1">
    <g id="patch_7">
     <path d="M 153.28375 196.256957 
L 566.71625 196.256957 
Q 569.91625 196.256957 569.91625 193.056957 
L 569.91625 147.686957 
Q 569.91625 144.486957 566.71625 144.486957 
L 153.28375 144.486957 
Q 150.08375 144.486957 150.08375 147.686957 
L 150.08375 193.056957 
Q 150.08375 196.256957 153.28375 196.256957 
z
" style="fill:none;opacity:0.8;stroke:#cccccc;stroke-linejoin:miter;"/>
    </g>
    <g id="line2d_6"/>
    <g id="line2d_7">
     <g>
      <use style="fill:#008000;stroke:#008000;" x="172.48375" xlink:href="#mee6e022865" y="157.444457"/>
     </g>
    </g>
    <g id="text_1">
     <!-- nodesLeftOpenEdge -->
     <defs>
      <path d="M 54.890625 33.015625 
L 54.890625 0 
L 45.90625 0 
L 45.90625 32.71875 
Q 45.90625 40.484375 42.875 44.328125 
Q 39.84375 48.1875 33.796875 48.1875 
Q 26.515625 48.1875 22.3125 43.546875 
Q 18.109375 38.921875 18.109375 30.90625 
L 18.109375 0 
L 9.078125 0 
L 9.078125 54.6875 
L 18.109375 54.6875 
L 18.109375 46.1875 
Q 21.34375 51.125 25.703125 53.5625 
Q 30.078125 56 35.796875 56 
Q 45.21875 56 50.046875 50.171875 
Q 54.890625 44.34375 54.890625 33.015625 
z
" id="DejaVuSans-110"/>
      <path d="M 30.609375 48.390625 
Q 23.390625 48.390625 19.1875 42.75 
Q 14.984375 37.109375 14.984375 27.296875 
Q 14.984375 17.484375 19.15625 11.84375 
Q 23.34375 6.203125 30.609375 6.203125 
Q 37.796875 6.203125 41.984375 11.859375 
Q 46.1875 17.53125 46.1875 27.296875 
Q 46.1875 37.015625 41.984375 42.703125 
Q 37.796875 48.390625 30.609375 48.390625 
z
M 30.609375 56 
Q 42.328125 56 49.015625 48.375 
Q 55.71875 40.765625 55.71875 27.296875 
Q 55.71875 13.875 49.015625 6.21875 
Q 42.328125 -1.421875 30.609375 -1.421875 
Q 18.84375 -1.421875 12.171875 6.21875 
Q 5.515625 13.875 5.515625 27.296875 
Q 5.515625 40.765625 12.171875 48.375 
Q 18.84375 56 30.609375 56 
z
" id="DejaVuSans-111"/>
      <path d="M 45.40625 46.390625 
L 45.40625 75.984375 
L 54.390625 75.984375 
L 54.390625 0 
L 45.40625 0 
L 45.40625 8.203125 
Q 42.578125 3.328125 38.25 0.953125 
Q 33.9375 -1.421875 27.875 -1.421875 
Q 17.96875 -1.421875 11.734375 6.484375 
Q 5.515625 14.40625 5.515625 27.296875 
Q 5.515625 40.1875 11.734375 48.09375 
Q 17.96875 56 27.875 56 
Q 33.9375 56 38.25 53.625 
Q 42.578125 51.265625 45.40625 46.390625 
z
M 14.796875 27.296875 
Q 14.796875 17.390625 18.875 11.75 
Q 22.953125 6.109375 30.078125 6.109375 
Q 37.203125 6.109375 41.296875 11.75 
Q 45.40625 17.390625 45.40625 27.296875 
Q 45.40625 37.203125 41.296875 42.84375 
Q 37.203125 48.484375 30.078125 48.484375 
Q 22.953125 48.484375 18.875 42.84375 
Q 14.796875 37.203125 14.796875 27.296875 
z
" id="DejaVuSans-100"/>
      <path d="M 56.203125 29.59375 
L 56.203125 25.203125 
L 14.890625 25.203125 
Q 15.484375 15.921875 20.484375 11.0625 
Q 25.484375 6.203125 34.421875 6.203125 
Q 39.59375 6.203125 44.453125 7.46875 
Q 49.3125 8.734375 54.109375 11.28125 
L 54.109375 2.78125 
Q 49.265625 0.734375 44.1875 -0.34375 
Q 39.109375 -1.421875 33.890625 -1.421875 
Q 20.796875 -1.421875 13.15625 6.1875 
Q 5.515625 13.8125 5.515625 26.8125 
Q 5.515625 40.234375 12.765625 48.109375 
Q 20.015625 56 32.328125 56 
Q 43.359375 56 49.78125 48.890625 
Q 56.203125 41.796875 56.203125 29.59375 
z
M 47.21875 32.234375 
Q 47.125 39.59375 43.09375 43.984375 
Q 39.0625 48.390625 32.421875 48.390625 
Q 24.90625 48.390625 20.390625 44.140625 
Q 15.875 39.890625 15.1875 32.171875 
z
" id="DejaVuSans-101"/>
      <path d="M 44.28125 53.078125 
L 44.28125 44.578125 
Q 40.484375 46.53125 36.375 47.5 
Q 32.28125 48.484375 27.875 48.484375 
Q 21.1875 48.484375 17.84375 46.4375 
Q 14.5 44.390625 14.5 40.28125 
Q 14.5 37.15625 16.890625 35.375 
Q 19.28125 33.59375 26.515625 31.984375 
L 29.59375 31.296875 
Q 39.15625 29.25 43.1875 25.515625 
Q 47.21875 21.78125 47.21875 15.09375 
Q 47.21875 7.46875 41.1875 3.015625 
Q 35.15625 -1.421875 24.609375 -1.421875 
Q 20.21875 -1.421875 15.453125 -0.5625 
Q 10.6875 0.296875 5.421875 2 
L 5.421875 11.28125 
Q 10.40625 8.6875 15.234375 7.390625 
Q 20.0625 6.109375 24.8125 6.109375 
Q 31.15625 6.109375 34.5625 8.28125 
Q 37.984375 10.453125 37.984375 14.40625 
Q 37.984375 18.0625 35.515625 20.015625 
Q 33.0625 21.96875 24.703125 23.78125 
L 21.578125 24.515625 
Q 13.234375 26.265625 9.515625 29.90625 
Q 5.8125 33.546875 5.8125 39.890625 
Q 5.8125 47.609375 11.28125 51.796875 
Q 16.75 56 26.8125 56 
Q 31.78125 56 36.171875 55.265625 
Q 40.578125 54.546875 44.28125 53.078125 
z
" id="DejaVuSans-115"/>
      <path d="M 9.8125 72.90625 
L 19.671875 72.90625 
L 19.671875 8.296875 
L 55.171875 8.296875 
L 55.171875 0 
L 9.8125 0 
z
" id="DejaVuSans-76"/>
      <path d="M 37.109375 75.984375 
L 37.109375 68.5 
L 28.515625 68.5 
Q 23.6875 68.5 21.796875 66.546875 
Q 19.921875 64.59375 19.921875 59.515625 
L 19.921875 54.6875 
L 34.71875 54.6875 
L 34.71875 47.703125 
L 19.921875 47.703125 
L 19.921875 0 
L 10.890625 0 
L 10.890625 47.703125 
L 2.296875 47.703125 
L 2.296875 54.6875 
L 10.890625 54.6875 
L 10.890625 58.5 
Q 10.890625 67.625 15.140625 71.796875 
Q 19.390625 75.984375 28.609375 75.984375 
z
" id="DejaVuSans-102"/>
      <path d="M 18.3125 70.21875 
L 18.3125 54.6875 
L 36.8125 54.6875 
L 36.8125 47.703125 
L 18.3125 47.703125 
L 18.3125 18.015625 
Q 18.3125 11.328125 20.140625 9.421875 
Q 21.96875 7.515625 27.59375 7.515625 
L 36.8125 7.515625 
L 36.8125 0 
L 27.59375 0 
Q 17.1875 0 13.234375 3.875 
Q 9.28125 7.765625 9.28125 18.015625 
L 9.28125 47.703125 
L 2.6875 47.703125 
L 2.6875 54.6875 
L 9.28125 54.6875 
L 9.28125 70.21875 
z
" id="DejaVuSans-116"/>
      <path d="M 39.40625 66.21875 
Q 28.65625 66.21875 22.328125 58.203125 
Q 16.015625 50.203125 16.015625 36.375 
Q 16.015625 22.609375 22.328125 14.59375 
Q 28.65625 6.59375 39.40625 6.59375 
Q 50.140625 6.59375 56.421875 14.59375 
Q 62.703125 22.609375 62.703125 36.375 
Q 62.703125 50.203125 56.421875 58.203125 
Q 50.140625 66.21875 39.40625 66.21875 
z
M 39.40625 74.21875 
Q 54.734375 74.21875 63.90625 63.9375 
Q 73.09375 53.65625 73.09375 36.375 
Q 73.09375 19.140625 63.90625 8.859375 
Q 54.734375 -1.421875 39.40625 -1.421875 
Q 24.03125 -1.421875 14.8125 8.828125 
Q 5.609375 19.09375 5.609375 36.375 
Q 5.609375 53.65625 14.8125 63.9375 
Q 24.03125 74.21875 39.40625 74.21875 
z
" id="DejaVuSans-79"/>
      <path d="M 18.109375 8.203125 
L 18.109375 -20.796875 
L 9.078125 -20.796875 
L 9.078125 54.6875 
L 18.109375 54.6875 
L 18.109375 46.390625 
Q 20.953125 51.265625 25.265625 53.625 
Q 29.59375 56 35.59375 56 
Q 45.5625 56 51.78125 48.09375 
Q 58.015625 40.1875 58.015625 27.296875 
Q 58.015625 14.40625 51.78125 6.484375 
Q 45.5625 -1.421875 35.59375 -1.421875 
Q 29.59375 -1.421875 25.265625 0.953125 
Q 20.953125 3.328125 18.109375 8.203125 
z
M 48.6875 27.296875 
Q 48.6875 37.203125 44.609375 42.84375 
Q 40.53125 48.484375 33.40625 48.484375 
Q 26.265625 48.484375 22.1875 42.84375 
Q 18.109375 37.203125 18.109375 27.296875 
Q 18.109375 17.390625 22.1875 11.75 
Q 26.265625 6.109375 33.40625 6.109375 
Q 40.53125 6.109375 44.609375 11.75 
Q 48.6875 17.390625 48.6875 27.296875 
z
" id="DejaVuSans-112"/>
      <path d="M 9.8125 72.90625 
L 55.90625 72.90625 
L 55.90625 64.59375 
L 19.671875 64.59375 
L 19.671875 43.015625 
L 54.390625 43.015625 
L 54.390625 34.71875 
L 19.671875 34.71875 
L 19.671875 8.296875 
L 56.78125 8.296875 
L 56.78125 0 
L 9.8125 0 
z
" id="DejaVuSans-69"/>
      <path d="M 45.40625 27.984375 
Q 45.40625 37.75 41.375 43.109375 
Q 37.359375 48.484375 30.078125 48.484375 
Q 22.859375 48.484375 18.828125 43.109375 
Q 14.796875 37.75 14.796875 27.984375 
Q 14.796875 18.265625 18.828125 12.890625 
Q 22.859375 7.515625 30.078125 7.515625 
Q 37.359375 7.515625 41.375 12.890625 
Q 45.40625 18.265625 45.40625 27.984375 
z
M 54.390625 6.78125 
Q 54.390625 -7.171875 48.1875 -13.984375 
Q 42 -20.796875 29.203125 -20.796875 
Q 24.46875 -20.796875 20.265625 -20.09375 
Q 16.0625 -19.390625 12.109375 -17.921875 
L 12.109375 -9.1875 
Q 16.0625 -11.328125 19.921875 -12.34375 
Q 23.78125 -13.375 27.78125 -13.375 
Q 36.625 -13.375 41.015625 -8.765625 
Q 45.40625 -4.15625 45.40625 5.171875 
L 45.40625 9.625 
Q 42.625 4.78125 38.28125 2.390625 
Q 33.9375 0 27.875 0 
Q 17.828125 0 11.671875 7.65625 
Q 5.515625 15.328125 5.515625 27.984375 
Q 5.515625 40.671875 11.671875 48.328125 
Q 17.828125 56 27.875 56 
Q 33.9375 56 38.28125 53.609375 
Q 42.625 51.21875 45.40625 46.390625 
L 45.40625 54.6875 
L 54.390625 54.6875 
z
" id="DejaVuSans-103"/>
     </defs>
     <g transform="translate(191.68375 163.044457)scale(0.16 -0.16)">
      <use xlink:href="#DejaVuSans-110"/>
      <use x="63.378906" xlink:href="#DejaVuSans-111"/>
      <use x="124.560547" xlink:href="#DejaVuSans-100"/>
      <use x="188.037109" xlink:href="#DejaVuSans-101"/>
      <use x="249.560547" xlink:href="#DejaVuSans-115"/>
      <use x="301.660156" xlink:href="#DejaVuSans-76"/>
      <use x="357.357422" xlink:href="#DejaVuSans-101"/>
      <use x="418.880859" xlink:href="#DejaVuSans-102"/>
      <use x="454.070312" xlink:href="#DejaVuSans-116"/>
      <use x="493.279297" xlink:href="#DejaVuSans-79"/>
      <use x="571.990234" xlink:href="#DejaVuSans-112"/>
      <use x="635.466797" xlink:href="#DejaVuSans-101"/>
      <use x="696.990234" xlink:href="#DejaVuSans-110"/>
      <use x="760.369141" xlink:href="#DejaVuSans-69"/>
      <use x="823.552734" xlink:href="#DejaVuSans-100"/>
      <use x="887.029297" xlink:href="#DejaVuSans-103"/>
      <use x="950.505859" xlink:href="#DejaVuSans-101"/>
     </g>
    </g>
    <g id="line2d_8"/>
    <g id="line2d_9">
     <g>
      <use style="fill:#0000ff;stroke:#0000ff;" x="172.48375" xlink:href="#m695fe68be4" y="180.929457"/>
     </g>
    </g>
    <g id="text_2">
     <!-- nodesRightOpenEdge -->
     <defs>
      <path d="M 44.390625 34.1875 
Q 47.5625 33.109375 50.5625 29.59375 
Q 53.5625 26.078125 56.59375 19.921875 
L 66.609375 0 
L 56 0 
L 46.6875 18.703125 
Q 43.0625 26.03125 39.671875 28.421875 
Q 36.28125 30.8125 30.421875 30.8125 
L 19.671875 30.8125 
L 19.671875 0 
L 9.8125 0 
L 9.8125 72.90625 
L 32.078125 72.90625 
Q 44.578125 72.90625 50.734375 67.671875 
Q 56.890625 62.453125 56.890625 51.90625 
Q 56.890625 45.015625 53.6875 40.46875 
Q 50.484375 35.9375 44.390625 34.1875 
z
M 19.671875 64.796875 
L 19.671875 38.921875 
L 32.078125 38.921875 
Q 39.203125 38.921875 42.84375 42.21875 
Q 46.484375 45.515625 46.484375 51.90625 
Q 46.484375 58.296875 42.84375 61.546875 
Q 39.203125 64.796875 32.078125 64.796875 
z
" id="DejaVuSans-82"/>
      <path d="M 9.421875 54.6875 
L 18.40625 54.6875 
L 18.40625 0 
L 9.421875 0 
z
M 9.421875 75.984375 
L 18.40625 75.984375 
L 18.40625 64.59375 
L 9.421875 64.59375 
z
" id="DejaVuSans-105"/>
      <path d="M 54.890625 33.015625 
L 54.890625 0 
L 45.90625 0 
L 45.90625 32.71875 
Q 45.90625 40.484375 42.875 44.328125 
Q 39.84375 48.1875 33.796875 48.1875 
Q 26.515625 48.1875 22.3125 43.546875 
Q 18.109375 38.921875 18.109375 30.90625 
L 18.109375 0 
L 9.078125 0 
L 9.078125 75.984375 
L 18.109375 75.984375 
L 18.109375 46.1875 
Q 21.34375 51.125 25.703125 53.5625 
Q 30.078125 56 35.796875 56 
Q 45.21875 56 50.046875 50.171875 
Q 54.890625 44.34375 54.890625 33.015625 
z
" id="DejaVuSans-104"/>
     </defs>
     <g transform="translate(191.68375 186.529457)scale(0.16 -0.16)">
      <use xlink:href="#DejaVuSans-110"/>
      <use x="63.378906" xlink:href="#DejaVuSans-111"/>
      <use x="124.560547" xlink:href="#DejaVuSans-100"/>
      <use x="188.037109" xlink:href="#DejaVuSans-101"/>
      <use x="249.560547" xlink:href="#DejaVuSans-115"/>
      <use x="301.660156" xlink:href="#DejaVuSans-82"/>
      <use x="371.142578" xlink:href="#DejaVuSans-105"/>
      <use x="398.925781" xlink:href="#DejaVuSans-103"/>
      <use x="462.402344" xlink:href="#DejaVuSans-104"/>
      <use x="525.78125" xlink:href="#DejaVuSans-116"/>
      <use x="564.990234" xlink:href="#DejaVuSans-79"/>
      <use x="643.701172" xlink:href="#DejaVuSans-112"/>
      <use x="707.177734" xlink:href="#DejaVuSans-101"/>
      <use x="768.701172" xlink:href="#DejaVuSans-110"/>
      <use x="832.080078" xlink:href="#DejaVuSans-69"/>
      <use x="895.263672" xlink:href="#DejaVuSans-100"/>
      <use x="958.740234" xlink:href="#DejaVuSans-103"/>
      <use x="1022.216797" xlink:href="#DejaVuSans-101"/>
     </g>
    </g>
    <g id="line2d_10"/>
    <g id="line2d_11">
     <g>
      <use style="fill:#ff0000;stroke:#ff0000;" x="397.09125" xlink:href="#m70d20ef9f1" y="157.444457"/>
     </g>
    </g>
    <g id="text_3">
     <!-- nodesBottomEdge -->
     <defs>
      <path d="M 19.671875 34.8125 
L 19.671875 8.109375 
L 35.5 8.109375 
Q 43.453125 8.109375 47.28125 11.40625 
Q 51.125 14.703125 51.125 21.484375 
Q 51.125 28.328125 47.28125 31.5625 
Q 43.453125 34.8125 35.5 34.8125 
z
M 19.671875 64.796875 
L 19.671875 42.828125 
L 34.28125 42.828125 
Q 41.5 42.828125 45.03125 45.53125 
Q 48.578125 48.25 48.578125 53.8125 
Q 48.578125 59.328125 45.03125 62.0625 
Q 41.5 64.796875 34.28125 64.796875 
z
M 9.8125 72.90625 
L 35.015625 72.90625 
Q 46.296875 72.90625 52.390625 68.21875 
Q 58.5 63.53125 58.5 54.890625 
Q 58.5 48.1875 55.375 44.234375 
Q 52.25 40.28125 46.1875 39.3125 
Q 53.46875 37.75 57.5 32.78125 
Q 61.53125 27.828125 61.53125 20.40625 
Q 61.53125 10.640625 54.890625 5.3125 
Q 48.25 0 35.984375 0 
L 9.8125 0 
z
" id="DejaVuSans-66"/>
      <path d="M 52 44.1875 
Q 55.375 50.25 60.0625 53.125 
Q 64.75 56 71.09375 56 
Q 79.640625 56 84.28125 50.015625 
Q 88.921875 44.046875 88.921875 33.015625 
L 88.921875 0 
L 79.890625 0 
L 79.890625 32.71875 
Q 79.890625 40.578125 77.09375 44.375 
Q 74.3125 48.1875 68.609375 48.1875 
Q 61.625 48.1875 57.5625 43.546875 
Q 53.515625 38.921875 53.515625 30.90625 
L 53.515625 0 
L 44.484375 0 
L 44.484375 32.71875 
Q 44.484375 40.625 41.703125 44.40625 
Q 38.921875 48.1875 33.109375 48.1875 
Q 26.21875 48.1875 22.15625 43.53125 
Q 18.109375 38.875 18.109375 30.90625 
L 18.109375 0 
L 9.078125 0 
L 9.078125 54.6875 
L 18.109375 54.6875 
L 18.109375 46.1875 
Q 21.1875 51.21875 25.484375 53.609375 
Q 29.78125 56 35.6875 56 
Q 41.65625 56 45.828125 52.96875 
Q 50 49.953125 52 44.1875 
z
" id="DejaVuSans-109"/>
     </defs>
     <g transform="translate(416.29125 163.044457)scale(0.16 -0.16)">
      <use xlink:href="#DejaVuSans-110"/>
      <use x="63.378906" xlink:href="#DejaVuSans-111"/>
      <use x="124.560547" xlink:href="#DejaVuSans-100"/>
      <use x="188.037109" xlink:href="#DejaVuSans-101"/>
      <use x="249.560547" xlink:href="#DejaVuSans-115"/>
      <use x="301.660156" xlink:href="#DejaVuSans-66"/>
      <use x="370.263672" xlink:href="#DejaVuSans-111"/>
      <use x="431.445312" xlink:href="#DejaVuSans-116"/>
      <use x="470.654297" xlink:href="#DejaVuSans-116"/>
      <use x="509.863281" xlink:href="#DejaVuSans-111"/>
      <use x="571.044922" xlink:href="#DejaVuSans-109"/>
      <use x="668.457031" xlink:href="#DejaVuSans-69"/>
      <use x="731.640625" xlink:href="#DejaVuSans-100"/>
      <use x="795.117188" xlink:href="#DejaVuSans-103"/>
      <use x="858.59375" xlink:href="#DejaVuSans-101"/>
     </g>
    </g>
    <g id="line2d_12"/>
    <g id="line2d_13">
     <g>
      <use style="fill:#bfbf00;stroke:#bfbf00;" x="397.09125" xlink:href="#m5118030c98" y="180.929457"/>
     </g>
    </g>
    <g id="text_4">
     <!-- nodesTopEdge -->
     <defs>
      <path d="M -0.296875 72.90625 
L 61.375 72.90625 
L 61.375 64.59375 
L 35.5 64.59375 
L 35.5 0 
L 25.59375 0 
L 25.59375 64.59375 
L -0.296875 64.59375 
z
" id="DejaVuSans-84"/>
     </defs>
     <g transform="translate(416.29125 186.529457)scale(0.16 -0.16)">
      <use xlink:href="#DejaVuSans-110"/>
      <use x="63.378906" xlink:href="#DejaVuSans-111"/>
      <use x="124.560547" xlink:href="#DejaVuSans-100"/>
      <use x="188.037109" xlink:href="#DejaVuSans-101"/>
      <use x="249.560547" xlink:href="#DejaVuSans-115"/>
      <use x="301.660156" xlink:href="#DejaVuSans-84"/>
      <use x="362.478516" xlink:href="#DejaVuSans-111"/>
      <use x="423.660156" xlink:href="#DejaVuSans-112"/>
      <use x="487.136719" xlink:href="#DejaVuSans-69"/>
      <use x="550.320312" xlink:href="#DejaVuSans-100"/>
      <use x="613.796875" xlink:href="#DejaVuSans-103"/>
      <use x="677.273438" xlink:href="#DejaVuSans-101"/>
     </g>
    </g>
   </g>
  </g>
 </g>
 <defs>
  <clipPath id="p0a6b4a0e06">
   <rect height="447.026087" width="685.44" x="17.28" y="136.486957"/>
  </clipPath>
 </defs>
</svg>
