<?xml version="1.0" encoding="utf-8" standalone="no"?>
<!DOCTYPE svg PUBLIC "-//W3C//DTD SVG 1.1//EN"
  "http://www.w3.org/Graphics/SVG/1.1/DTD/svg11.dtd">
<!-- Created with matplotlib (http://matplotlib.org/) -->
<svg height="720pt" version="1.1" viewBox="0 0 720 720" width="720pt" xmlns="http://www.w3.org/2000/svg" xmlns:xlink="http://www.w3.org/1999/xlink">
 <defs>
  <style type="text/css">
*{stroke-linecap:butt;stroke-linejoin:round;}
  </style>
 </defs>
 <g id="figure_1">
  <g id="patch_1">
   <path d="M 0 720 
L 720 720 
L 720 0 
L 0 0 
z
" style="fill:none;"/>
  </g>
  <g id="axes_1">
   <g id="patch_2">
    <path d="M 20.78 537.686667 
L 699.22 537.686667 
L 699.22 182.313333 
L 20.78 182.313333 
z
" style="fill:none;"/>
   </g>
   <g id="PatchCollection_1">
    <path clip-path="url(#pcd77f0de20)" d="M 77.316667 508.072222 
L 104.238889 508.072222 
L 104.238889 481.15 
L 77.316667 481.15 
z
" style="fill:#000080;stroke:#000000;"/>
    <path clip-path="url(#pcd77f0de20)" d="M 104.238889 508.072222 
L 131.161111 508.072222 
L 131.161111 481.15 
L 104.238889 481.15 
z
" style="fill:#000084;stroke:#000000;"/>
    <path clip-path="url(#pcd77f0de20)" d="M 131.161111 508.072222 
L 158.083333 508.072222 
L 158.083333 481.15 
L 131.161111 481.15 
z
" style="fill:#000089;stroke:#000000;"/>
    <path clip-path="url(#pcd77f0de20)" d="M 158.083333 508.072222 
L 185.005556 508.072222 
L 185.005556 481.15 
L 158.083333 481.15 
z
" style="fill:#00008d;stroke:#000000;"/>
    <path clip-path="url(#pcd77f0de20)" d="M 185.005556 508.072222 
L 211.927778 508.072222 
L 211.927778 481.15 
L 185.005556 481.15 
z
" style="fill:#000092;stroke:#000000;"/>
    <path clip-path="url(#pcd77f0de20)" d="M 211.927778 508.072222 
L 238.85 508.072222 
L 238.85 481.15 
L 211.927778 481.15 
z
" style="fill:#000096;stroke:#000000;"/>
    <path clip-path="url(#pcd77f0de20)" d="M 238.85 508.072222 
L 265.772222 508.072222 
L 265.772222 481.15 
L 238.85 481.15 
z
" style="fill:#00009b;stroke:#000000;"/>
    <path clip-path="url(#pcd77f0de20)" d="M 265.772222 508.072222 
L 292.694444 508.072222 
L 292.694444 481.15 
L 265.772222 481.15 
z
" style="fill:#00009f;stroke:#000000;"/>
    <path clip-path="url(#pcd77f0de20)" d="M 292.694444 508.072222 
L 319.616667 508.072222 
L 319.616667 481.15 
L 292.694444 481.15 
z
" style="fill:#0000a4;stroke:#000000;"/>
    <path clip-path="url(#pcd77f0de20)" d="M 319.616667 508.072222 
L 346.538889 508.072222 
L 346.538889 481.15 
L 319.616667 481.15 
z
" style="fill:#0000ad;stroke:#000000;"/>
    <path clip-path="url(#pcd77f0de20)" d="M 346.538889 508.072222 
L 373.461111 508.072222 
L 373.461111 481.15 
L 346.538889 481.15 
z
" style="fill:#0000b2;stroke:#000000;"/>
    <path clip-path="url(#pcd77f0de20)" d="M 373.461111 508.072222 
L 400.383333 508.072222 
L 400.383333 481.15 
L 373.461111 481.15 
z
" style="fill:#0000b6;stroke:#000000;"/>
    <path clip-path="url(#pcd77f0de20)" d="M 400.383333 508.072222 
L 427.305556 508.072222 
L 427.305556 481.15 
L 400.383333 481.15 
z
" style="fill:#0000bb;stroke:#000000;"/>
    <path clip-path="url(#pcd77f0de20)" d="M 427.305556 508.072222 
L 454.227778 508.072222 
L 454.227778 481.15 
L 427.305556 481.15 
z
" style="fill:#0000bf;stroke:#000000;"/>
    <path clip-path="url(#pcd77f0de20)" d="M 454.227778 508.072222 
L 481.15 508.072222 
L 481.15 481.15 
L 454.227778 481.15 
z
" style="fill:#0000c4;stroke:#000000;"/>
    <path clip-path="url(#pcd77f0de20)" d="M 481.15 508.072222 
L 508.072222 508.072222 
L 508.072222 481.15 
L 481.15 481.15 
z
" style="fill:#0000c8;stroke:#000000;"/>
    <path clip-path="url(#pcd77f0de20)" d="M 508.072222 508.072222 
L 534.994444 508.072222 
L 534.994444 481.15 
L 508.072222 481.15 
z
" style="fill:#0000cd;stroke:#000000;"/>
    <path clip-path="url(#pcd77f0de20)" d="M 534.994444 508.072222 
L 561.916667 508.072222 
L 561.916667 481.15 
L 534.994444 481.15 
z
" style="fill:#0000d1;stroke:#000000;"/>
    <path clip-path="url(#pcd77f0de20)" d="M 561.916667 508.072222 
L 588.838889 508.072222 
L 588.838889 481.15 
L 561.916667 481.15 
z
" style="fill:#0000da;stroke:#000000;"/>
    <path clip-path="url(#pcd77f0de20)" d="M 588.838889 508.072222 
L 615.761111 508.072222 
L 615.761111 481.15 
L 588.838889 481.15 
z
" style="fill:#0000df;stroke:#000000;"/>
    <path clip-path="url(#pcd77f0de20)" d="M 615.761111 508.072222 
L 642.683333 508.072222 
L 642.683333 481.15 
L 615.761111 481.15 
z
" style="fill:#0000e3;stroke:#000000;"/>
    <path clip-path="url(#pcd77f0de20)" d="M 77.316667 481.15 
L 104.238889 481.15 
L 104.238889 454.227778 
L 77.316667 454.227778 
z
" style="fill:#0000e8;stroke:#000000;"/>
    <path clip-path="url(#pcd77f0de20)" d="M 104.238889 481.15 
L 131.161111 481.15 
L 131.161111 454.227778 
L 104.238889 454.227778 
z
" style="fill:#0000ed;stroke:#000000;"/>
    <path clip-path="url(#pcd77f0de20)" d="M 131.161111 481.15 
L 158.083333 481.15 
L 158.083333 454.227778 
L 131.161111 454.227778 
z
" style="fill:#0000f1;stroke:#000000;"/>
    <path clip-path="url(#pcd77f0de20)" d="M 158.083333 481.15 
L 185.005556 481.15 
L 185.005556 454.227778 
L 158.083333 454.227778 
z
" style="fill:#0000f6;stroke:#000000;"/>
    <path clip-path="url(#pcd77f0de20)" d="M 185.005556 481.15 
L 211.927778 481.15 
L 211.927778 454.227778 
L 185.005556 454.227778 
z
" style="fill:#0000fa;stroke:#000000;"/>
    <path clip-path="url(#pcd77f0de20)" d="M 211.927778 481.15 
L 238.85 481.15 
L 238.85 454.227778 
L 211.927778 454.227778 
z
" style="fill:#0000ff;stroke:#000000;"/>
    <path clip-path="url(#pcd77f0de20)" d="M 238.85 481.15 
L 265.772222 481.15 
L 265.772222 454.227778 
L 238.85 454.227778 
z
" style="fill:#0000ff;stroke:#000000;"/>
    <path clip-path="url(#pcd77f0de20)" d="M 265.772222 481.15 
L 292.694444 481.15 
L 292.694444 454.227778 
L 265.772222 454.227778 
z
" style="fill:#0000ff;stroke:#000000;"/>
    <path clip-path="url(#pcd77f0de20)" d="M 292.694444 481.15 
L 319.616667 481.15 
L 319.616667 454.227778 
L 292.694444 454.227778 
z
" style="fill:#0000ff;stroke:#000000;"/>
    <path clip-path="url(#pcd77f0de20)" d="M 319.616667 481.15 
L 346.538889 481.15 
L 346.538889 454.227778 
L 319.616667 454.227778 
z
" style="fill:#0004ff;stroke:#000000;"/>
    <path clip-path="url(#pcd77f0de20)" d="M 346.538889 481.15 
L 373.461111 481.15 
L 373.461111 454.227778 
L 346.538889 454.227778 
z
" style="fill:#0008ff;stroke:#000000;"/>
    <path clip-path="url(#pcd77f0de20)" d="M 373.461111 481.15 
L 400.383333 481.15 
L 400.383333 454.227778 
L 373.461111 454.227778 
z
" style="fill:#000cff;stroke:#000000;"/>
    <path clip-path="url(#pcd77f0de20)" d="M 400.383333 481.15 
L 427.305556 481.15 
L 427.305556 454.227778 
L 400.383333 454.227778 
z
" style="fill:#0010ff;stroke:#000000;"/>
    <path clip-path="url(#pcd77f0de20)" d="M 427.305556 481.15 
L 454.227778 481.15 
L 454.227778 454.227778 
L 427.305556 454.227778 
z
" style="fill:#0014ff;stroke:#000000;"/>
    <path clip-path="url(#pcd77f0de20)" d="M 454.227778 481.15 
L 481.15 481.15 
L 481.15 454.227778 
L 454.227778 454.227778 
z
" style="fill:#0018ff;stroke:#000000;"/>
    <path clip-path="url(#pcd77f0de20)" d="M 481.15 481.15 
L 508.072222 481.15 
L 508.072222 454.227778 
L 481.15 454.227778 
z
" style="fill:#0020ff;stroke:#000000;"/>
    <path clip-path="url(#pcd77f0de20)" d="M 508.072222 481.15 
L 534.994444 481.15 
L 534.994444 454.227778 
L 508.072222 454.227778 
z
" style="fill:#0024ff;stroke:#000000;"/>
    <path clip-path="url(#pcd77f0de20)" d="M 534.994444 481.15 
L 561.916667 481.15 
L 561.916667 454.227778 
L 534.994444 454.227778 
z
" style="fill:#0028ff;stroke:#000000;"/>
    <path clip-path="url(#pcd77f0de20)" d="M 561.916667 481.15 
L 588.838889 481.15 
L 588.838889 454.227778 
L 561.916667 454.227778 
z
" style="fill:#002cff;stroke:#000000;"/>
    <path clip-path="url(#pcd77f0de20)" d="M 588.838889 481.15 
L 615.761111 481.15 
L 615.761111 454.227778 
L 588.838889 454.227778 
z
" style="fill:#0030ff;stroke:#000000;"/>
    <path clip-path="url(#pcd77f0de20)" d="M 615.761111 481.15 
L 642.683333 481.15 
L 642.683333 454.227778 
L 615.761111 454.227778 
z
" style="fill:#0034ff;stroke:#000000;"/>
    <path clip-path="url(#pcd77f0de20)" d="M 77.316667 454.227778 
L 104.238889 454.227778 
L 104.238889 427.305556 
L 77.316667 427.305556 
z
" style="fill:#0038ff;stroke:#000000;"/>
    <path clip-path="url(#pcd77f0de20)" d="M 104.238889 454.227778 
L 131.161111 454.227778 
L 131.161111 427.305556 
L 104.238889 427.305556 
z
" style="fill:#003cff;stroke:#000000;"/>
    <path clip-path="url(#pcd77f0de20)" d="M 131.161111 454.227778 
L 158.083333 454.227778 
L 158.083333 427.305556 
L 131.161111 427.305556 
z
" style="fill:#0040ff;stroke:#000000;"/>
    <path clip-path="url(#pcd77f0de20)" d="M 158.083333 454.227778 
L 185.005556 454.227778 
L 185.005556 427.305556 
L 158.083333 427.305556 
z
" style="fill:#0048ff;stroke:#000000;"/>
    <path clip-path="url(#pcd77f0de20)" d="M 185.005556 454.227778 
L 211.927778 454.227778 
L 211.927778 427.305556 
L 185.005556 427.305556 
z
" style="fill:#004cff;stroke:#000000;"/>
    <path clip-path="url(#pcd77f0de20)" d="M 211.927778 454.227778 
L 238.85 454.227778 
L 238.85 427.305556 
L 211.927778 427.305556 
z
" style="fill:#0050ff;stroke:#000000;"/>
    <path clip-path="url(#pcd77f0de20)" d="M 238.85 454.227778 
L 265.772222 454.227778 
L 265.772222 427.305556 
L 238.85 427.305556 
z
" style="fill:#0054ff;stroke:#000000;"/>
    <path clip-path="url(#pcd77f0de20)" d="M 265.772222 454.227778 
L 292.694444 454.227778 
L 292.694444 427.305556 
L 265.772222 427.305556 
z
" style="fill:#0058ff;stroke:#000000;"/>
    <path clip-path="url(#pcd77f0de20)" d="M 292.694444 454.227778 
L 319.616667 454.227778 
L 319.616667 427.305556 
L 292.694444 427.305556 
z
" style="fill:#005cff;stroke:#000000;"/>
    <path clip-path="url(#pcd77f0de20)" d="M 319.616667 454.227778 
L 346.538889 454.227778 
L 346.538889 427.305556 
L 319.616667 427.305556 
z
" style="fill:#0060ff;stroke:#000000;"/>
    <path clip-path="url(#pcd77f0de20)" d="M 346.538889 454.227778 
L 373.461111 454.227778 
L 373.461111 427.305556 
L 346.538889 427.305556 
z
" style="fill:#0064ff;stroke:#000000;"/>
    <path clip-path="url(#pcd77f0de20)" d="M 373.461111 454.227778 
L 400.383333 454.227778 
L 400.383333 427.305556 
L 373.461111 427.305556 
z
" style="fill:#0068ff;stroke:#000000;"/>
    <path clip-path="url(#pcd77f0de20)" d="M 400.383333 454.227778 
L 427.305556 454.227778 
L 427.305556 427.305556 
L 400.383333 427.305556 
z
" style="fill:#0070ff;stroke:#000000;"/>
    <path clip-path="url(#pcd77f0de20)" d="M 427.305556 454.227778 
L 454.227778 454.227778 
L 454.227778 427.305556 
L 427.305556 427.305556 
z
" style="fill:#0074ff;stroke:#000000;"/>
    <path clip-path="url(#pcd77f0de20)" d="M 454.227778 454.227778 
L 481.15 454.227778 
L 481.15 427.305556 
L 454.227778 427.305556 
z
" style="fill:#0078ff;stroke:#000000;"/>
    <path clip-path="url(#pcd77f0de20)" d="M 481.15 454.227778 
L 508.072222 454.227778 
L 508.072222 427.305556 
L 481.15 427.305556 
z
" style="fill:#007cff;stroke:#000000;"/>
    <path clip-path="url(#pcd77f0de20)" d="M 508.072222 454.227778 
L 534.994444 454.227778 
L 534.994444 427.305556 
L 508.072222 427.305556 
z
" style="fill:#0080ff;stroke:#000000;"/>
    <path clip-path="url(#pcd77f0de20)" d="M 534.994444 454.227778 
L 561.916667 454.227778 
L 561.916667 427.305556 
L 534.994444 427.305556 
z
" style="fill:#0084ff;stroke:#000000;"/>
    <path clip-path="url(#pcd77f0de20)" d="M 561.916667 454.227778 
L 588.838889 454.227778 
L 588.838889 427.305556 
L 561.916667 427.305556 
z
" style="fill:#0088ff;stroke:#000000;"/>
    <path clip-path="url(#pcd77f0de20)" d="M 588.838889 454.227778 
L 615.761111 454.227778 
L 615.761111 427.305556 
L 588.838889 427.305556 
z
" style="fill:#008cff;stroke:#000000;"/>
    <path clip-path="url(#pcd77f0de20)" d="M 615.761111 454.227778 
L 642.683333 454.227778 
L 642.683333 427.305556 
L 615.761111 427.305556 
z
" style="fill:#0094ff;stroke:#000000;"/>
    <path clip-path="url(#pcd77f0de20)" d="M 77.316667 427.305556 
L 104.238889 427.305556 
L 104.238889 400.383333 
L 77.316667 400.383333 
z
" style="fill:#0098ff;stroke:#000000;"/>
    <path clip-path="url(#pcd77f0de20)" d="M 104.238889 427.305556 
L 131.161111 427.305556 
L 131.161111 400.383333 
L 104.238889 400.383333 
z
" style="fill:#009cff;stroke:#000000;"/>
    <path clip-path="url(#pcd77f0de20)" d="M 131.161111 427.305556 
L 158.083333 427.305556 
L 158.083333 400.383333 
L 131.161111 400.383333 
z
" style="fill:#00a0ff;stroke:#000000;"/>
    <path clip-path="url(#pcd77f0de20)" d="M 158.083333 427.305556 
L 185.005556 427.305556 
L 185.005556 400.383333 
L 158.083333 400.383333 
z
" style="fill:#00a4ff;stroke:#000000;"/>
    <path clip-path="url(#pcd77f0de20)" d="M 185.005556 427.305556 
L 211.927778 427.305556 
L 211.927778 400.383333 
L 185.005556 400.383333 
z
" style="fill:#00a8ff;stroke:#000000;"/>
    <path clip-path="url(#pcd77f0de20)" d="M 211.927778 427.305556 
L 238.85 427.305556 
L 238.85 400.383333 
L 211.927778 400.383333 
z
" style="fill:#00acff;stroke:#000000;"/>
    <path clip-path="url(#pcd77f0de20)" d="M 238.85 427.305556 
L 265.772222 427.305556 
L 265.772222 400.383333 
L 238.85 400.383333 
z
" style="fill:#00b0ff;stroke:#000000;"/>
    <path clip-path="url(#pcd77f0de20)" d="M 265.772222 427.305556 
L 292.694444 427.305556 
L 292.694444 400.383333 
L 265.772222 400.383333 
z
" style="fill:#00b4ff;stroke:#000000;"/>
    <path clip-path="url(#pcd77f0de20)" d="M 292.694444 427.305556 
L 319.616667 427.305556 
L 319.616667 400.383333 
L 292.694444 400.383333 
z
" style="fill:#00bcff;stroke:#000000;"/>
    <path clip-path="url(#pcd77f0de20)" d="M 319.616667 427.305556 
L 346.538889 427.305556 
L 346.538889 400.383333 
L 319.616667 400.383333 
z
" style="fill:#00c0ff;stroke:#000000;"/>
    <path clip-path="url(#pcd77f0de20)" d="M 346.538889 427.305556 
L 373.461111 427.305556 
L 373.461111 400.383333 
L 346.538889 400.383333 
z
" style="fill:#00c4ff;stroke:#000000;"/>
    <path clip-path="url(#pcd77f0de20)" d="M 373.461111 427.305556 
L 400.383333 427.305556 
L 400.383333 400.383333 
L 373.461111 400.383333 
z
" style="fill:#00c8ff;stroke:#000000;"/>
    <path clip-path="url(#pcd77f0de20)" d="M 400.383333 427.305556 
L 427.305556 427.305556 
L 427.305556 400.383333 
L 400.383333 400.383333 
z
" style="fill:#00ccff;stroke:#000000;"/>
    <path clip-path="url(#pcd77f0de20)" d="M 427.305556 427.305556 
L 454.227778 427.305556 
L 454.227778 400.383333 
L 427.305556 400.383333 
z
" style="fill:#00d0ff;stroke:#000000;"/>
    <path clip-path="url(#pcd77f0de20)" d="M 454.227778 427.305556 
L 481.15 427.305556 
L 481.15 400.383333 
L 454.227778 400.383333 
z
" style="fill:#00d4ff;stroke:#000000;"/>
    <path clip-path="url(#pcd77f0de20)" d="M 481.15 427.305556 
L 508.072222 427.305556 
L 508.072222 400.383333 
L 481.15 400.383333 
z
" style="fill:#00d8ff;stroke:#000000;"/>
    <path clip-path="url(#pcd77f0de20)" d="M 508.072222 427.305556 
L 534.994444 427.305556 
L 534.994444 400.383333 
L 508.072222 400.383333 
z
" style="fill:#00dcfe;stroke:#000000;"/>
    <path clip-path="url(#pcd77f0de20)" d="M 534.994444 427.305556 
L 561.916667 427.305556 
L 561.916667 400.383333 
L 534.994444 400.383333 
z
" style="fill:#00e4f8;stroke:#000000;"/>
    <path clip-path="url(#pcd77f0de20)" d="M 561.916667 427.305556 
L 588.838889 427.305556 
L 588.838889 400.383333 
L 561.916667 400.383333 
z
" style="fill:#02e8f4;stroke:#000000;"/>
    <path clip-path="url(#pcd77f0de20)" d="M 588.838889 427.305556 
L 615.761111 427.305556 
L 615.761111 400.383333 
L 588.838889 400.383333 
z
" style="fill:#06ecf1;stroke:#000000;"/>
    <path clip-path="url(#pcd77f0de20)" d="M 615.761111 427.305556 
L 642.683333 427.305556 
L 642.683333 400.383333 
L 615.761111 400.383333 
z
" style="fill:#09f0ee;stroke:#000000;"/>
    <path clip-path="url(#pcd77f0de20)" d="M 77.316667 400.383333 
L 104.238889 400.383333 
L 104.238889 373.461111 
L 77.316667 373.461111 
z
" style="fill:#0cf4eb;stroke:#000000;"/>
    <path clip-path="url(#pcd77f0de20)" d="M 104.238889 400.383333 
L 131.161111 400.383333 
L 131.161111 373.461111 
L 104.238889 373.461111 
z
" style="fill:#0ff8e7;stroke:#000000;"/>
    <path clip-path="url(#pcd77f0de20)" d="M 131.161111 400.383333 
L 158.083333 400.383333 
L 158.083333 373.461111 
L 131.161111 373.461111 
z
" style="fill:#13fce4;stroke:#000000;"/>
    <path clip-path="url(#pcd77f0de20)" d="M 158.083333 400.383333 
L 185.005556 400.383333 
L 185.005556 373.461111 
L 158.083333 373.461111 
z
" style="fill:#16ffe1;stroke:#000000;"/>
    <path clip-path="url(#pcd77f0de20)" d="M 185.005556 400.383333 
L 211.927778 400.383333 
L 211.927778 373.461111 
L 185.005556 373.461111 
z
" style="fill:#19ffde;stroke:#000000;"/>
    <path clip-path="url(#pcd77f0de20)" d="M 211.927778 400.383333 
L 238.85 400.383333 
L 238.85 373.461111 
L 211.927778 373.461111 
z
" style="fill:#1fffd7;stroke:#000000;"/>
    <path clip-path="url(#pcd77f0de20)" d="M 238.85 400.383333 
L 265.772222 400.383333 
L 265.772222 373.461111 
L 238.85 373.461111 
z
" style="fill:#23ffd4;stroke:#000000;"/>
    <path clip-path="url(#pcd77f0de20)" d="M 265.772222 400.383333 
L 292.694444 400.383333 
L 292.694444 373.461111 
L 265.772222 373.461111 
z
" style="fill:#26ffd1;stroke:#000000;"/>
    <path clip-path="url(#pcd77f0de20)" d="M 292.694444 400.383333 
L 319.616667 400.383333 
L 319.616667 373.461111 
L 292.694444 373.461111 
z
" style="fill:#29ffce;stroke:#000000;"/>
    <path clip-path="url(#pcd77f0de20)" d="M 319.616667 400.383333 
L 346.538889 400.383333 
L 346.538889 373.461111 
L 319.616667 373.461111 
z
" style="fill:#2cffca;stroke:#000000;"/>
    <path clip-path="url(#pcd77f0de20)" d="M 346.538889 400.383333 
L 373.461111 400.383333 
L 373.461111 373.461111 
L 346.538889 373.461111 
z
" style="fill:#30ffc7;stroke:#000000;"/>
    <path clip-path="url(#pcd77f0de20)" d="M 373.461111 400.383333 
L 400.383333 400.383333 
L 400.383333 373.461111 
L 373.461111 373.461111 
z
" style="fill:#33ffc4;stroke:#000000;"/>
    <path clip-path="url(#pcd77f0de20)" d="M 400.383333 400.383333 
L 427.305556 400.383333 
L 427.305556 373.461111 
L 400.383333 373.461111 
z
" style="fill:#36ffc1;stroke:#000000;"/>
    <path clip-path="url(#pcd77f0de20)" d="M 427.305556 400.383333 
L 454.227778 400.383333 
L 454.227778 373.461111 
L 427.305556 373.461111 
z
" style="fill:#39ffbe;stroke:#000000;"/>
    <path clip-path="url(#pcd77f0de20)" d="M 454.227778 400.383333 
L 481.15 400.383333 
L 481.15 373.461111 
L 454.227778 373.461111 
z
" style="fill:#40ffb7;stroke:#000000;"/>
    <path clip-path="url(#pcd77f0de20)" d="M 481.15 400.383333 
L 508.072222 400.383333 
L 508.072222 373.461111 
L 481.15 373.461111 
z
" style="fill:#43ffb4;stroke:#000000;"/>
    <path clip-path="url(#pcd77f0de20)" d="M 508.072222 400.383333 
L 534.994444 400.383333 
L 534.994444 373.461111 
L 508.072222 373.461111 
z
" style="fill:#46ffb1;stroke:#000000;"/>
    <path clip-path="url(#pcd77f0de20)" d="M 534.994444 400.383333 
L 561.916667 400.383333 
L 561.916667 373.461111 
L 534.994444 373.461111 
z
" style="fill:#49ffad;stroke:#000000;"/>
    <path clip-path="url(#pcd77f0de20)" d="M 561.916667 400.383333 
L 588.838889 400.383333 
L 588.838889 373.461111 
L 561.916667 373.461111 
z
" style="fill:#4dffaa;stroke:#000000;"/>
    <path clip-path="url(#pcd77f0de20)" d="M 588.838889 400.383333 
L 615.761111 400.383333 
L 615.761111 373.461111 
L 588.838889 373.461111 
z
" style="fill:#50ffa7;stroke:#000000;"/>
    <path clip-path="url(#pcd77f0de20)" d="M 615.761111 400.383333 
L 642.683333 400.383333 
L 642.683333 373.461111 
L 615.761111 373.461111 
z
" style="fill:#53ffa4;stroke:#000000;"/>
    <path clip-path="url(#pcd77f0de20)" d="M 77.316667 373.461111 
L 104.238889 373.461111 
L 104.238889 346.538889 
L 77.316667 346.538889 
z
" style="fill:#56ffa0;stroke:#000000;"/>
    <path clip-path="url(#pcd77f0de20)" d="M 104.238889 373.461111 
L 131.161111 373.461111 
L 131.161111 346.538889 
L 104.238889 346.538889 
z
" style="fill:#5aff9d;stroke:#000000;"/>
    <path clip-path="url(#pcd77f0de20)" d="M 131.161111 373.461111 
L 158.083333 373.461111 
L 158.083333 346.538889 
L 131.161111 346.538889 
z
" style="fill:#60ff97;stroke:#000000;"/>
    <path clip-path="url(#pcd77f0de20)" d="M 158.083333 373.461111 
L 185.005556 373.461111 
L 185.005556 346.538889 
L 158.083333 346.538889 
z
" style="fill:#63ff94;stroke:#000000;"/>
    <path clip-path="url(#pcd77f0de20)" d="M 185.005556 373.461111 
L 211.927778 373.461111 
L 211.927778 346.538889 
L 185.005556 346.538889 
z
" style="fill:#66ff90;stroke:#000000;"/>
    <path clip-path="url(#pcd77f0de20)" d="M 211.927778 373.461111 
L 238.85 373.461111 
L 238.85 346.538889 
L 211.927778 346.538889 
z
" style="fill:#6aff8d;stroke:#000000;"/>
    <path clip-path="url(#pcd77f0de20)" d="M 238.85 373.461111 
L 265.772222 373.461111 
L 265.772222 346.538889 
L 238.85 346.538889 
z
" style="fill:#6dff8a;stroke:#000000;"/>
    <path clip-path="url(#pcd77f0de20)" d="M 265.772222 373.461111 
L 292.694444 373.461111 
L 292.694444 346.538889 
L 265.772222 346.538889 
z
" style="fill:#70ff87;stroke:#000000;"/>
    <path clip-path="url(#pcd77f0de20)" d="M 292.694444 373.461111 
L 319.616667 373.461111 
L 319.616667 346.538889 
L 292.694444 346.538889 
z
" style="fill:#73ff83;stroke:#000000;"/>
    <path clip-path="url(#pcd77f0de20)" d="M 319.616667 373.461111 
L 346.538889 373.461111 
L 346.538889 346.538889 
L 319.616667 346.538889 
z
" style="fill:#77ff80;stroke:#000000;"/>
    <path clip-path="url(#pcd77f0de20)" d="M 346.538889 373.461111 
L 373.461111 373.461111 
L 373.461111 346.538889 
L 346.538889 346.538889 
z
" style="fill:#7dff7a;stroke:#000000;"/>
    <path clip-path="url(#pcd77f0de20)" d="M 373.461111 373.461111 
L 400.383333 373.461111 
L 400.383333 346.538889 
L 373.461111 346.538889 
z
" style="fill:#80ff77;stroke:#000000;"/>
    <path clip-path="url(#pcd77f0de20)" d="M 400.383333 373.461111 
L 427.305556 373.461111 
L 427.305556 346.538889 
L 400.383333 346.538889 
z
" style="fill:#83ff73;stroke:#000000;"/>
    <path clip-path="url(#pcd77f0de20)" d="M 427.305556 373.461111 
L 454.227778 373.461111 
L 454.227778 346.538889 
L 427.305556 346.538889 
z
" style="fill:#87ff70;stroke:#000000;"/>
    <path clip-path="url(#pcd77f0de20)" d="M 454.227778 373.461111 
L 481.15 373.461111 
L 481.15 346.538889 
L 454.227778 346.538889 
z
" style="fill:#8aff6d;stroke:#000000;"/>
    <path clip-path="url(#pcd77f0de20)" d="M 481.15 373.461111 
L 508.072222 373.461111 
L 508.072222 346.538889 
L 481.15 346.538889 
z
" style="fill:#8dff6a;stroke:#000000;"/>
    <path clip-path="url(#pcd77f0de20)" d="M 508.072222 373.461111 
L 534.994444 373.461111 
L 534.994444 346.538889 
L 508.072222 346.538889 
z
" style="fill:#90ff66;stroke:#000000;"/>
    <path clip-path="url(#pcd77f0de20)" d="M 534.994444 373.461111 
L 561.916667 373.461111 
L 561.916667 346.538889 
L 534.994444 346.538889 
z
" style="fill:#94ff63;stroke:#000000;"/>
    <path clip-path="url(#pcd77f0de20)" d="M 561.916667 373.461111 
L 588.838889 373.461111 
L 588.838889 346.538889 
L 561.916667 346.538889 
z
" style="fill:#97ff60;stroke:#000000;"/>
    <path clip-path="url(#pcd77f0de20)" d="M 588.838889 373.461111 
L 615.761111 373.461111 
L 615.761111 346.538889 
L 588.838889 346.538889 
z
" style="fill:#9dff5a;stroke:#000000;"/>
    <path clip-path="url(#pcd77f0de20)" d="M 615.761111 373.461111 
L 642.683333 373.461111 
L 642.683333 346.538889 
L 615.761111 346.538889 
z
" style="fill:#a0ff56;stroke:#000000;"/>
    <path clip-path="url(#pcd77f0de20)" d="M 77.316667 346.538889 
L 104.238889 346.538889 
L 104.238889 319.616667 
L 77.316667 319.616667 
z
" style="fill:#a4ff53;stroke:#000000;"/>
    <path clip-path="url(#pcd77f0de20)" d="M 104.238889 346.538889 
L 131.161111 346.538889 
L 131.161111 319.616667 
L 104.238889 319.616667 
z
" style="fill:#a7ff50;stroke:#000000;"/>
    <path clip-path="url(#pcd77f0de20)" d="M 131.161111 346.538889 
L 158.083333 346.538889 
L 158.083333 319.616667 
L 131.161111 319.616667 
z
" style="fill:#aaff4d;stroke:#000000;"/>
    <path clip-path="url(#pcd77f0de20)" d="M 158.083333 346.538889 
L 185.005556 346.538889 
L 185.005556 319.616667 
L 158.083333 319.616667 
z
" style="fill:#adff49;stroke:#000000;"/>
    <path clip-path="url(#pcd77f0de20)" d="M 185.005556 346.538889 
L 211.927778 346.538889 
L 211.927778 319.616667 
L 185.005556 319.616667 
z
" style="fill:#b1ff46;stroke:#000000;"/>
    <path clip-path="url(#pcd77f0de20)" d="M 211.927778 346.538889 
L 238.85 346.538889 
L 238.85 319.616667 
L 211.927778 319.616667 
z
" style="fill:#b4ff43;stroke:#000000;"/>
    <path clip-path="url(#pcd77f0de20)" d="M 238.85 346.538889 
L 265.772222 346.538889 
L 265.772222 319.616667 
L 238.85 319.616667 
z
" style="fill:#b7ff40;stroke:#000000;"/>
    <path clip-path="url(#pcd77f0de20)" d="M 265.772222 346.538889 
L 292.694444 346.538889 
L 292.694444 319.616667 
L 265.772222 319.616667 
z
" style="fill:#beff39;stroke:#000000;"/>
    <path clip-path="url(#pcd77f0de20)" d="M 292.694444 346.538889 
L 319.616667 346.538889 
L 319.616667 319.616667 
L 292.694444 319.616667 
z
" style="fill:#c1ff36;stroke:#000000;"/>
    <path clip-path="url(#pcd77f0de20)" d="M 319.616667 346.538889 
L 346.538889 346.538889 
L 346.538889 319.616667 
L 319.616667 319.616667 
z
" style="fill:#c4ff33;stroke:#000000;"/>
    <path clip-path="url(#pcd77f0de20)" d="M 346.538889 346.538889 
L 373.461111 346.538889 
L 373.461111 319.616667 
L 346.538889 319.616667 
z
" style="fill:#c7ff30;stroke:#000000;"/>
    <path clip-path="url(#pcd77f0de20)" d="M 373.461111 346.538889 
L 400.383333 346.538889 
L 400.383333 319.616667 
L 373.461111 319.616667 
z
" style="fill:#caff2c;stroke:#000000;"/>
    <path clip-path="url(#pcd77f0de20)" d="M 400.383333 346.538889 
L 427.305556 346.538889 
L 427.305556 319.616667 
L 400.383333 319.616667 
z
" style="fill:#ceff29;stroke:#000000;"/>
    <path clip-path="url(#pcd77f0de20)" d="M 427.305556 346.538889 
L 454.227778 346.538889 
L 454.227778 319.616667 
L 427.305556 319.616667 
z
" style="fill:#d1ff26;stroke:#000000;"/>
    <path clip-path="url(#pcd77f0de20)" d="M 454.227778 346.538889 
L 481.15 346.538889 
L 481.15 319.616667 
L 454.227778 319.616667 
z
" style="fill:#d4ff23;stroke:#000000;"/>
    <path clip-path="url(#pcd77f0de20)" d="M 481.15 346.538889 
L 508.072222 346.538889 
L 508.072222 319.616667 
L 481.15 319.616667 
z
" style="fill:#d7ff1f;stroke:#000000;"/>
    <path clip-path="url(#pcd77f0de20)" d="M 508.072222 346.538889 
L 534.994444 346.538889 
L 534.994444 319.616667 
L 508.072222 319.616667 
z
" style="fill:#deff19;stroke:#000000;"/>
    <path clip-path="url(#pcd77f0de20)" d="M 534.994444 346.538889 
L 561.916667 346.538889 
L 561.916667 319.616667 
L 534.994444 319.616667 
z
" style="fill:#e1ff16;stroke:#000000;"/>
    <path clip-path="url(#pcd77f0de20)" d="M 561.916667 346.538889 
L 588.838889 346.538889 
L 588.838889 319.616667 
L 561.916667 319.616667 
z
" style="fill:#e4ff13;stroke:#000000;"/>
    <path clip-path="url(#pcd77f0de20)" d="M 588.838889 346.538889 
L 615.761111 346.538889 
L 615.761111 319.616667 
L 588.838889 319.616667 
z
" style="fill:#e7ff0f;stroke:#000000;"/>
    <path clip-path="url(#pcd77f0de20)" d="M 615.761111 346.538889 
L 642.683333 346.538889 
L 642.683333 319.616667 
L 615.761111 319.616667 
z
" style="fill:#ebff0c;stroke:#000000;"/>
    <path clip-path="url(#pcd77f0de20)" d="M 77.316667 319.616667 
L 104.238889 319.616667 
L 104.238889 292.694444 
L 77.316667 292.694444 
z
" style="fill:#eeff09;stroke:#000000;"/>
    <path clip-path="url(#pcd77f0de20)" d="M 104.238889 319.616667 
L 131.161111 319.616667 
L 131.161111 292.694444 
L 104.238889 292.694444 
z
" style="fill:#f1fc06;stroke:#000000;"/>
    <path clip-path="url(#pcd77f0de20)" d="M 131.161111 319.616667 
L 158.083333 319.616667 
L 158.083333 292.694444 
L 131.161111 292.694444 
z
" style="fill:#f4f802;stroke:#000000;"/>
    <path clip-path="url(#pcd77f0de20)" d="M 158.083333 319.616667 
L 185.005556 319.616667 
L 185.005556 292.694444 
L 158.083333 292.694444 
z
" style="fill:#f8f500;stroke:#000000;"/>
    <path clip-path="url(#pcd77f0de20)" d="M 185.005556 319.616667 
L 211.927778 319.616667 
L 211.927778 292.694444 
L 185.005556 292.694444 
z
" style="fill:#feed00;stroke:#000000;"/>
    <path clip-path="url(#pcd77f0de20)" d="M 211.927778 319.616667 
L 238.85 319.616667 
L 238.85 292.694444 
L 211.927778 292.694444 
z
" style="fill:#ffea00;stroke:#000000;"/>
    <path clip-path="url(#pcd77f0de20)" d="M 238.85 319.616667 
L 265.772222 319.616667 
L 265.772222 292.694444 
L 238.85 292.694444 
z
" style="fill:#ffe600;stroke:#000000;"/>
    <path clip-path="url(#pcd77f0de20)" d="M 265.772222 319.616667 
L 292.694444 319.616667 
L 292.694444 292.694444 
L 265.772222 292.694444 
z
" style="fill:#ffe200;stroke:#000000;"/>
    <path clip-path="url(#pcd77f0de20)" d="M 292.694444 319.616667 
L 319.616667 319.616667 
L 319.616667 292.694444 
L 292.694444 292.694444 
z
" style="fill:#ffde00;stroke:#000000;"/>
    <path clip-path="url(#pcd77f0de20)" d="M 319.616667 319.616667 
L 346.538889 319.616667 
L 346.538889 292.694444 
L 319.616667 292.694444 
z
" style="fill:#ffdb00;stroke:#000000;"/>
    <path clip-path="url(#pcd77f0de20)" d="M 346.538889 319.616667 
L 373.461111 319.616667 
L 373.461111 292.694444 
L 346.538889 292.694444 
z
" style="fill:#ffd700;stroke:#000000;"/>
    <path clip-path="url(#pcd77f0de20)" d="M 373.461111 319.616667 
L 400.383333 319.616667 
L 400.383333 292.694444 
L 373.461111 292.694444 
z
" style="fill:#ffd300;stroke:#000000;"/>
    <path clip-path="url(#pcd77f0de20)" d="M 400.383333 319.616667 
L 427.305556 319.616667 
L 427.305556 292.694444 
L 400.383333 292.694444 
z
" style="fill:#ffd000;stroke:#000000;"/>
    <path clip-path="url(#pcd77f0de20)" d="M 427.305556 319.616667 
L 454.227778 319.616667 
L 454.227778 292.694444 
L 427.305556 292.694444 
z
" style="fill:#ffc800;stroke:#000000;"/>
    <path clip-path="url(#pcd77f0de20)" d="M 454.227778 319.616667 
L 481.15 319.616667 
L 481.15 292.694444 
L 454.227778 292.694444 
z
" style="fill:#ffc400;stroke:#000000;"/>
    <path clip-path="url(#pcd77f0de20)" d="M 481.15 319.616667 
L 508.072222 319.616667 
L 508.072222 292.694444 
L 481.15 292.694444 
z
" style="fill:#ffc100;stroke:#000000;"/>
    <path clip-path="url(#pcd77f0de20)" d="M 508.072222 319.616667 
L 534.994444 319.616667 
L 534.994444 292.694444 
L 508.072222 292.694444 
z
" style="fill:#ffbd00;stroke:#000000;"/>
    <path clip-path="url(#pcd77f0de20)" d="M 534.994444 319.616667 
L 561.916667 319.616667 
L 561.916667 292.694444 
L 534.994444 292.694444 
z
" style="fill:#ffb900;stroke:#000000;"/>
    <path clip-path="url(#pcd77f0de20)" d="M 561.916667 319.616667 
L 588.838889 319.616667 
L 588.838889 292.694444 
L 561.916667 292.694444 
z
" style="fill:#ffb600;stroke:#000000;"/>
    <path clip-path="url(#pcd77f0de20)" d="M 588.838889 319.616667 
L 615.761111 319.616667 
L 615.761111 292.694444 
L 588.838889 292.694444 
z
" style="fill:#ffb200;stroke:#000000;"/>
    <path clip-path="url(#pcd77f0de20)" d="M 615.761111 319.616667 
L 642.683333 319.616667 
L 642.683333 292.694444 
L 615.761111 292.694444 
z
" style="fill:#ffae00;stroke:#000000;"/>
    <path clip-path="url(#pcd77f0de20)" d="M 77.316667 292.694444 
L 104.238889 292.694444 
L 104.238889 265.772222 
L 77.316667 265.772222 
z
" style="fill:#ffab00;stroke:#000000;"/>
    <path clip-path="url(#pcd77f0de20)" d="M 104.238889 292.694444 
L 131.161111 292.694444 
L 131.161111 265.772222 
L 104.238889 265.772222 
z
" style="fill:#ffa300;stroke:#000000;"/>
    <path clip-path="url(#pcd77f0de20)" d="M 131.161111 292.694444 
L 158.083333 292.694444 
L 158.083333 265.772222 
L 131.161111 265.772222 
z
" style="fill:#ff9f00;stroke:#000000;"/>
    <path clip-path="url(#pcd77f0de20)" d="M 158.083333 292.694444 
L 185.005556 292.694444 
L 185.005556 265.772222 
L 158.083333 265.772222 
z
" style="fill:#ff9c00;stroke:#000000;"/>
    <path clip-path="url(#pcd77f0de20)" d="M 185.005556 292.694444 
L 211.927778 292.694444 
L 211.927778 265.772222 
L 185.005556 265.772222 
z
" style="fill:#ff9800;stroke:#000000;"/>
    <path clip-path="url(#pcd77f0de20)" d="M 211.927778 292.694444 
L 238.85 292.694444 
L 238.85 265.772222 
L 211.927778 265.772222 
z
" style="fill:#ff9400;stroke:#000000;"/>
    <path clip-path="url(#pcd77f0de20)" d="M 238.85 292.694444 
L 265.772222 292.694444 
L 265.772222 265.772222 
L 238.85 265.772222 
z
" style="fill:#ff9100;stroke:#000000;"/>
    <path clip-path="url(#pcd77f0de20)" d="M 265.772222 292.694444 
L 292.694444 292.694444 
L 292.694444 265.772222 
L 265.772222 265.772222 
z
" style="fill:#ff8d00;stroke:#000000;"/>
    <path clip-path="url(#pcd77f0de20)" d="M 292.694444 292.694444 
L 319.616667 292.694444 
L 319.616667 265.772222 
L 292.694444 265.772222 
z
" style="fill:#ff8900;stroke:#000000;"/>
    <path clip-path="url(#pcd77f0de20)" d="M 319.616667 292.694444 
L 346.538889 292.694444 
L 346.538889 265.772222 
L 319.616667 265.772222 
z
" style="fill:#ff8200;stroke:#000000;"/>
    <path clip-path="url(#pcd77f0de20)" d="M 346.538889 292.694444 
L 373.461111 292.694444 
L 373.461111 265.772222 
L 346.538889 265.772222 
z
" style="fill:#ff7e00;stroke:#000000;"/>
    <path clip-path="url(#pcd77f0de20)" d="M 373.461111 292.694444 
L 400.383333 292.694444 
L 400.383333 265.772222 
L 373.461111 265.772222 
z
" style="fill:#ff7a00;stroke:#000000;"/>
    <path clip-path="url(#pcd77f0de20)" d="M 400.383333 292.694444 
L 427.305556 292.694444 
L 427.305556 265.772222 
L 400.383333 265.772222 
z
" style="fill:#ff7700;stroke:#000000;"/>
    <path clip-path="url(#pcd77f0de20)" d="M 427.305556 292.694444 
L 454.227778 292.694444 
L 454.227778 265.772222 
L 427.305556 265.772222 
z
" style="fill:#ff7300;stroke:#000000;"/>
    <path clip-path="url(#pcd77f0de20)" d="M 454.227778 292.694444 
L 481.15 292.694444 
L 481.15 265.772222 
L 454.227778 265.772222 
z
" style="fill:#ff6f00;stroke:#000000;"/>
    <path clip-path="url(#pcd77f0de20)" d="M 481.15 292.694444 
L 508.072222 292.694444 
L 508.072222 265.772222 
L 481.15 265.772222 
z
" style="fill:#ff6c00;stroke:#000000;"/>
    <path clip-path="url(#pcd77f0de20)" d="M 508.072222 292.694444 
L 534.994444 292.694444 
L 534.994444 265.772222 
L 508.072222 265.772222 
z
" style="fill:#ff6800;stroke:#000000;"/>
    <path clip-path="url(#pcd77f0de20)" d="M 534.994444 292.694444 
L 561.916667 292.694444 
L 561.916667 265.772222 
L 534.994444 265.772222 
z
" style="fill:#ff6400;stroke:#000000;"/>
    <path clip-path="url(#pcd77f0de20)" d="M 561.916667 292.694444 
L 588.838889 292.694444 
L 588.838889 265.772222 
L 561.916667 265.772222 
z
" style="fill:#ff5d00;stroke:#000000;"/>
    <path clip-path="url(#pcd77f0de20)" d="M 588.838889 292.694444 
L 615.761111 292.694444 
L 615.761111 265.772222 
L 588.838889 265.772222 
z
" style="fill:#ff5900;stroke:#000000;"/>
    <path clip-path="url(#pcd77f0de20)" d="M 615.761111 292.694444 
L 642.683333 292.694444 
L 642.683333 265.772222 
L 615.761111 265.772222 
z
" style="fill:#ff5500;stroke:#000000;"/>
    <path clip-path="url(#pcd77f0de20)" d="M 77.316667 265.772222 
L 104.238889 265.772222 
L 104.238889 238.85 
L 77.316667 238.85 
z
" style="fill:#ff5200;stroke:#000000;"/>
    <path clip-path="url(#pcd77f0de20)" d="M 104.238889 265.772222 
L 131.161111 265.772222 
L 131.161111 238.85 
L 104.238889 238.85 
z
" style="fill:#ff4e00;stroke:#000000;"/>
    <path clip-path="url(#pcd77f0de20)" d="M 131.161111 265.772222 
L 158.083333 265.772222 
L 158.083333 238.85 
L 131.161111 238.85 
z
" style="fill:#ff4a00;stroke:#000000;"/>
    <path clip-path="url(#pcd77f0de20)" d="M 158.083333 265.772222 
L 185.005556 265.772222 
L 185.005556 238.85 
L 158.083333 238.85 
z
" style="fill:#ff4700;stroke:#000000;"/>
    <path clip-path="url(#pcd77f0de20)" d="M 185.005556 265.772222 
L 211.927778 265.772222 
L 211.927778 238.85 
L 185.005556 238.85 
z
" style="fill:#ff4300;stroke:#000000;"/>
    <path clip-path="url(#pcd77f0de20)" d="M 211.927778 265.772222 
L 238.85 265.772222 
L 238.85 238.85 
L 211.927778 238.85 
z
" style="fill:#ff3f00;stroke:#000000;"/>
    <path clip-path="url(#pcd77f0de20)" d="M 238.85 265.772222 
L 265.772222 265.772222 
L 265.772222 238.85 
L 238.85 238.85 
z
" style="fill:#ff3800;stroke:#000000;"/>
    <path clip-path="url(#pcd77f0de20)" d="M 265.772222 265.772222 
L 292.694444 265.772222 
L 292.694444 238.85 
L 265.772222 238.85 
z
" style="fill:#ff3400;stroke:#000000;"/>
    <path clip-path="url(#pcd77f0de20)" d="M 292.694444 265.772222 
L 319.616667 265.772222 
L 319.616667 238.85 
L 292.694444 238.85 
z
" style="fill:#ff3000;stroke:#000000;"/>
    <path clip-path="url(#pcd77f0de20)" d="M 319.616667 265.772222 
L 346.538889 265.772222 
L 346.538889 238.85 
L 319.616667 238.85 
z
" style="fill:#ff2d00;stroke:#000000;"/>
    <path clip-path="url(#pcd77f0de20)" d="M 346.538889 265.772222 
L 373.461111 265.772222 
L 373.461111 238.85 
L 346.538889 238.85 
z
" style="fill:#ff2900;stroke:#000000;"/>
    <path clip-path="url(#pcd77f0de20)" d="M 373.461111 265.772222 
L 400.383333 265.772222 
L 400.383333 238.85 
L 373.461111 238.85 
z
" style="fill:#ff2500;stroke:#000000;"/>
    <path clip-path="url(#pcd77f0de20)" d="M 400.383333 265.772222 
L 427.305556 265.772222 
L 427.305556 238.85 
L 400.383333 238.85 
z
" style="fill:#ff2200;stroke:#000000;"/>
    <path clip-path="url(#pcd77f0de20)" d="M 427.305556 265.772222 
L 454.227778 265.772222 
L 454.227778 238.85 
L 427.305556 238.85 
z
" style="fill:#ff1e00;stroke:#000000;"/>
    <path clip-path="url(#pcd77f0de20)" d="M 454.227778 265.772222 
L 481.15 265.772222 
L 481.15 238.85 
L 454.227778 238.85 
z
" style="fill:#ff1a00;stroke:#000000;"/>
    <path clip-path="url(#pcd77f0de20)" d="M 481.15 265.772222 
L 508.072222 265.772222 
L 508.072222 238.85 
L 481.15 238.85 
z
" style="fill:#ff1300;stroke:#000000;"/>
    <path clip-path="url(#pcd77f0de20)" d="M 508.072222 265.772222 
L 534.994444 265.772222 
L 534.994444 238.85 
L 508.072222 238.85 
z
" style="fill:#fa0f00;stroke:#000000;"/>
    <path clip-path="url(#pcd77f0de20)" d="M 534.994444 265.772222 
L 561.916667 265.772222 
L 561.916667 238.85 
L 534.994444 238.85 
z
" style="fill:#f60b00;stroke:#000000;"/>
    <path clip-path="url(#pcd77f0de20)" d="M 561.916667 265.772222 
L 588.838889 265.772222 
L 588.838889 238.85 
L 561.916667 238.85 
z
" style="fill:#f10800;stroke:#000000;"/>
    <path clip-path="url(#pcd77f0de20)" d="M 588.838889 265.772222 
L 615.761111 265.772222 
L 615.761111 238.85 
L 588.838889 238.85 
z
" style="fill:#ed0400;stroke:#000000;"/>
    <path clip-path="url(#pcd77f0de20)" d="M 615.761111 265.772222 
L 642.683333 265.772222 
L 642.683333 238.85 
L 615.761111 238.85 
z
" style="fill:#e80000;stroke:#000000;"/>
    <path clip-path="url(#pcd77f0de20)" d="M 77.316667 238.85 
L 104.238889 238.85 
L 104.238889 211.927778 
L 77.316667 211.927778 
z
" style="fill:#e40000;stroke:#000000;"/>
    <path clip-path="url(#pcd77f0de20)" d="M 104.238889 238.85 
L 131.161111 238.85 
L 131.161111 211.927778 
L 104.238889 211.927778 
z
" style="fill:#df0000;stroke:#000000;"/>
    <path clip-path="url(#pcd77f0de20)" d="M 131.161111 238.85 
L 158.083333 238.85 
L 158.083333 211.927778 
L 131.161111 211.927778 
z
" style="fill:#da0000;stroke:#000000;"/>
    <path clip-path="url(#pcd77f0de20)" d="M 158.083333 238.85 
L 185.005556 238.85 
L 185.005556 211.927778 
L 158.083333 211.927778 
z
" style="fill:#d10000;stroke:#000000;"/>
    <path clip-path="url(#pcd77f0de20)" d="M 185.005556 238.85 
L 211.927778 238.85 
L 211.927778 211.927778 
L 185.005556 211.927778 
z
" style="fill:#cd0000;stroke:#000000;"/>
    <path clip-path="url(#pcd77f0de20)" d="M 211.927778 238.85 
L 238.85 238.85 
L 238.85 211.927778 
L 211.927778 211.927778 
z
" style="fill:#c80000;stroke:#000000;"/>
    <path clip-path="url(#pcd77f0de20)" d="M 238.85 238.85 
L 265.772222 238.85 
L 265.772222 211.927778 
L 238.85 211.927778 
z
" style="fill:#c40000;stroke:#000000;"/>
    <path clip-path="url(#pcd77f0de20)" d="M 265.772222 238.85 
L 292.694444 238.85 
L 292.694444 211.927778 
L 265.772222 211.927778 
z
" style="fill:#bf0000;stroke:#000000;"/>
    <path clip-path="url(#pcd77f0de20)" d="M 292.694444 238.85 
L 319.616667 238.85 
L 319.616667 211.927778 
L 292.694444 211.927778 
z
" style="fill:#bb0000;stroke:#000000;"/>
    <path clip-path="url(#pcd77f0de20)" d="M 319.616667 238.85 
L 346.538889 238.85 
L 346.538889 211.927778 
L 319.616667 211.927778 
z
" style="fill:#b60000;stroke:#000000;"/>
    <path clip-path="url(#pcd77f0de20)" d="M 346.538889 238.85 
L 373.461111 238.85 
L 373.461111 211.927778 
L 346.538889 211.927778 
z
" style="fill:#b20000;stroke:#000000;"/>
    <path clip-path="url(#pcd77f0de20)" d="M 373.461111 238.85 
L 400.383333 238.85 
L 400.383333 211.927778 
L 373.461111 211.927778 
z
" style="fill:#ad0000;stroke:#000000;"/>
    <path clip-path="url(#pcd77f0de20)" d="M 400.383333 238.85 
L 427.305556 238.85 
L 427.305556 211.927778 
L 400.383333 211.927778 
z
" style="fill:#a40000;stroke:#000000;"/>
    <path clip-path="url(#pcd77f0de20)" d="M 427.305556 238.85 
L 454.227778 238.85 
L 454.227778 211.927778 
L 427.305556 211.927778 
z
" style="fill:#9f0000;stroke:#000000;"/>
    <path clip-path="url(#pcd77f0de20)" d="M 454.227778 238.85 
L 481.15 238.85 
L 481.15 211.927778 
L 454.227778 211.927778 
z
" style="fill:#9b0000;stroke:#000000;"/>
    <path clip-path="url(#pcd77f0de20)" d="M 481.15 238.85 
L 508.072222 238.85 
L 508.072222 211.927778 
L 481.15 211.927778 
z
" style="fill:#960000;stroke:#000000;"/>
    <path clip-path="url(#pcd77f0de20)" d="M 508.072222 238.85 
L 534.994444 238.85 
L 534.994444 211.927778 
L 508.072222 211.927778 
z
" style="fill:#920000;stroke:#000000;"/>
    <path clip-path="url(#pcd77f0de20)" d="M 534.994444 238.85 
L 561.916667 238.85 
L 561.916667 211.927778 
L 534.994444 211.927778 
z
" style="fill:#8d0000;stroke:#000000;"/>
    <path clip-path="url(#pcd77f0de20)" d="M 561.916667 238.85 
L 588.838889 238.85 
L 588.838889 211.927778 
L 561.916667 211.927778 
z
" style="fill:#890000;stroke:#000000;"/>
    <path clip-path="url(#pcd77f0de20)" d="M 588.838889 238.85 
L 615.761111 238.85 
L 615.761111 211.927778 
L 588.838889 211.927778 
z
" style="fill:#840000;stroke:#000000;"/>
    <path clip-path="url(#pcd77f0de20)" d="M 615.761111 238.85 
L 642.683333 238.85 
L 642.683333 211.927778 
L 615.761111 211.927778 
z
" style="fill:#800000;stroke:#000000;"/>
   </g>
   <g id="line2d_1">
    <defs>
     <path d="M 0 3 
C 0.795609 3 1.55874 2.683901 2.12132 2.12132 
C 2.683901 1.55874 3 0.795609 3 0 
C 3 -0.795609 2.683901 -1.55874 2.12132 -2.12132 
C 1.55874 -2.683901 0.795609 -3 0 -3 
C -0.795609 -3 -1.55874 -2.683901 -2.12132 -2.12132 
C -2.683901 -1.55874 -3 -0.795609 -3 0 
C -3 0.795609 -2.683901 1.55874 -2.12132 2.12132 
C -1.55874 2.683901 -0.795609 3 0 3 
z
" id="m635e10850f" style="stroke:#000000;"/>
    </defs>
    <g clip-path="url(#pcd77f0de20)">
     <use style="stroke:#000000;" x="77.316667" xlink:href="#m635e10850f" y="508.072222"/>
     <use style="stroke:#000000;" x="104.238889" xlink:href="#m635e10850f" y="508.072222"/>
     <use style="stroke:#000000;" x="131.161111" xlink:href="#m635e10850f" y="508.072222"/>
     <use style="stroke:#000000;" x="158.083333" xlink:href="#m635e10850f" y="508.072222"/>
     <use style="stroke:#000000;" x="185.005556" xlink:href="#m635e10850f" y="508.072222"/>
     <use style="stroke:#000000;" x="211.927778" xlink:href="#m635e10850f" y="508.072222"/>
     <use style="stroke:#000000;" x="238.85" xlink:href="#m635e10850f" y="508.072222"/>
     <use style="stroke:#000000;" x="265.772222" xlink:href="#m635e10850f" y="508.072222"/>
     <use style="stroke:#000000;" x="292.694444" xlink:href="#m635e10850f" y="508.072222"/>
     <use style="stroke:#000000;" x="319.616667" xlink:href="#m635e10850f" y="508.072222"/>
     <use style="stroke:#000000;" x="346.538889" xlink:href="#m635e10850f" y="508.072222"/>
     <use style="stroke:#000000;" x="373.461111" xlink:href="#m635e10850f" y="508.072222"/>
     <use style="stroke:#000000;" x="400.383333" xlink:href="#m635e10850f" y="508.072222"/>
     <use style="stroke:#000000;" x="427.305556" xlink:href="#m635e10850f" y="508.072222"/>
     <use style="stroke:#000000;" x="454.227778" xlink:href="#m635e10850f" y="508.072222"/>
     <use style="stroke:#000000;" x="481.15" xlink:href="#m635e10850f" y="508.072222"/>
     <use style="stroke:#000000;" x="508.072222" xlink:href="#m635e10850f" y="508.072222"/>
     <use style="stroke:#000000;" x="534.994444" xlink:href="#m635e10850f" y="508.072222"/>
     <use style="stroke:#000000;" x="561.916667" xlink:href="#m635e10850f" y="508.072222"/>
     <use style="stroke:#000000;" x="588.838889" xlink:href="#m635e10850f" y="508.072222"/>
     <use style="stroke:#000000;" x="615.761111" xlink:href="#m635e10850f" y="508.072222"/>
     <use style="stroke:#000000;" x="642.683333" xlink:href="#m635e10850f" y="508.072222"/>
     <use style="stroke:#000000;" x="77.316667" xlink:href="#m635e10850f" y="481.15"/>
     <use style="stroke:#000000;" x="104.238889" xlink:href="#m635e10850f" y="481.15"/>
     <use style="stroke:#000000;" x="131.161111" xlink:href="#m635e10850f" y="481.15"/>
     <use style="stroke:#000000;" x="158.083333" xlink:href="#m635e10850f" y="481.15"/>
     <use style="stroke:#000000;" x="185.005556" xlink:href="#m635e10850f" y="481.15"/>
     <use style="stroke:#000000;" x="211.927778" xlink:href="#m635e10850f" y="481.15"/>
     <use style="stroke:#000000;" x="238.85" xlink:href="#m635e10850f" y="481.15"/>
     <use style="stroke:#000000;" x="265.772222" xlink:href="#m635e10850f" y="481.15"/>
     <use style="stroke:#000000;" x="292.694444" xlink:href="#m635e10850f" y="481.15"/>
     <use style="stroke:#000000;" x="319.616667" xlink:href="#m635e10850f" y="481.15"/>
     <use style="stroke:#000000;" x="346.538889" xlink:href="#m635e10850f" y="481.15"/>
     <use style="stroke:#000000;" x="373.461111" xlink:href="#m635e10850f" y="481.15"/>
     <use style="stroke:#000000;" x="400.383333" xlink:href="#m635e10850f" y="481.15"/>
     <use style="stroke:#000000;" x="427.305556" xlink:href="#m635e10850f" y="481.15"/>
     <use style="stroke:#000000;" x="454.227778" xlink:href="#m635e10850f" y="481.15"/>
     <use style="stroke:#000000;" x="481.15" xlink:href="#m635e10850f" y="481.15"/>
     <use style="stroke:#000000;" x="508.072222" xlink:href="#m635e10850f" y="481.15"/>
     <use style="stroke:#000000;" x="534.994444" xlink:href="#m635e10850f" y="481.15"/>
     <use style="stroke:#000000;" x="561.916667" xlink:href="#m635e10850f" y="481.15"/>
     <use style="stroke:#000000;" x="588.838889" xlink:href="#m635e10850f" y="481.15"/>
     <use style="stroke:#000000;" x="615.761111" xlink:href="#m635e10850f" y="481.15"/>
     <use style="stroke:#000000;" x="642.683333" xlink:href="#m635e10850f" y="481.15"/>
     <use style="stroke:#000000;" x="77.316667" xlink:href="#m635e10850f" y="454.227778"/>
     <use style="stroke:#000000;" x="104.238889" xlink:href="#m635e10850f" y="454.227778"/>
     <use style="stroke:#000000;" x="131.161111" xlink:href="#m635e10850f" y="454.227778"/>
     <use style="stroke:#000000;" x="158.083333" xlink:href="#m635e10850f" y="454.227778"/>
     <use style="stroke:#000000;" x="185.005556" xlink:href="#m635e10850f" y="454.227778"/>
     <use style="stroke:#000000;" x="211.927778" xlink:href="#m635e10850f" y="454.227778"/>
     <use style="stroke:#000000;" x="238.85" xlink:href="#m635e10850f" y="454.227778"/>
     <use style="stroke:#000000;" x="265.772222" xlink:href="#m635e10850f" y="454.227778"/>
     <use style="stroke:#000000;" x="292.694444" xlink:href="#m635e10850f" y="454.227778"/>
     <use style="stroke:#000000;" x="319.616667" xlink:href="#m635e10850f" y="454.227778"/>
     <use style="stroke:#000000;" x="346.538889" xlink:href="#m635e10850f" y="454.227778"/>
     <use style="stroke:#000000;" x="373.461111" xlink:href="#m635e10850f" y="454.227778"/>
     <use style="stroke:#000000;" x="400.383333" xlink:href="#m635e10850f" y="454.227778"/>
     <use style="stroke:#000000;" x="427.305556" xlink:href="#m635e10850f" y="454.227778"/>
     <use style="stroke:#000000;" x="454.227778" xlink:href="#m635e10850f" y="454.227778"/>
     <use style="stroke:#000000;" x="481.15" xlink:href="#m635e10850f" y="454.227778"/>
     <use style="stroke:#000000;" x="508.072222" xlink:href="#m635e10850f" y="454.227778"/>
     <use style="stroke:#000000;" x="534.994444" xlink:href="#m635e10850f" y="454.227778"/>
     <use style="stroke:#000000;" x="561.916667" xlink:href="#m635e10850f" y="454.227778"/>
     <use style="stroke:#000000;" x="588.838889" xlink:href="#m635e10850f" y="454.227778"/>
     <use style="stroke:#000000;" x="615.761111" xlink:href="#m635e10850f" y="454.227778"/>
     <use style="stroke:#000000;" x="642.683333" xlink:href="#m635e10850f" y="454.227778"/>
     <use style="stroke:#000000;" x="77.316667" xlink:href="#m635e10850f" y="427.305556"/>
     <use style="stroke:#000000;" x="104.238889" xlink:href="#m635e10850f" y="427.305556"/>
     <use style="stroke:#000000;" x="131.161111" xlink:href="#m635e10850f" y="427.305556"/>
     <use style="stroke:#000000;" x="158.083333" xlink:href="#m635e10850f" y="427.305556"/>
     <use style="stroke:#000000;" x="185.005556" xlink:href="#m635e10850f" y="427.305556"/>
     <use style="stroke:#000000;" x="211.927778" xlink:href="#m635e10850f" y="427.305556"/>
     <use style="stroke:#000000;" x="238.85" xlink:href="#m635e10850f" y="427.305556"/>
     <use style="stroke:#000000;" x="265.772222" xlink:href="#m635e10850f" y="427.305556"/>
     <use style="stroke:#000000;" x="292.694444" xlink:href="#m635e10850f" y="427.305556"/>
     <use style="stroke:#000000;" x="319.616667" xlink:href="#m635e10850f" y="427.305556"/>
     <use style="stroke:#000000;" x="346.538889" xlink:href="#m635e10850f" y="427.305556"/>
     <use style="stroke:#000000;" x="373.461111" xlink:href="#m635e10850f" y="427.305556"/>
     <use style="stroke:#000000;" x="400.383333" xlink:href="#m635e10850f" y="427.305556"/>
     <use style="stroke:#000000;" x="427.305556" xlink:href="#m635e10850f" y="427.305556"/>
     <use style="stroke:#000000;" x="454.227778" xlink:href="#m635e10850f" y="427.305556"/>
     <use style="stroke:#000000;" x="481.15" xlink:href="#m635e10850f" y="427.305556"/>
     <use style="stroke:#000000;" x="508.072222" xlink:href="#m635e10850f" y="427.305556"/>
     <use style="stroke:#000000;" x="534.994444" xlink:href="#m635e10850f" y="427.305556"/>
     <use style="stroke:#000000;" x="561.916667" xlink:href="#m635e10850f" y="427.305556"/>
     <use style="stroke:#000000;" x="588.838889" xlink:href="#m635e10850f" y="427.305556"/>
     <use style="stroke:#000000;" x="615.761111" xlink:href="#m635e10850f" y="427.305556"/>
     <use style="stroke:#000000;" x="642.683333" xlink:href="#m635e10850f" y="427.305556"/>
     <use style="stroke:#000000;" x="77.316667" xlink:href="#m635e10850f" y="400.383333"/>
     <use style="stroke:#000000;" x="104.238889" xlink:href="#m635e10850f" y="400.383333"/>
     <use style="stroke:#000000;" x="131.161111" xlink:href="#m635e10850f" y="400.383333"/>
     <use style="stroke:#000000;" x="158.083333" xlink:href="#m635e10850f" y="400.383333"/>
     <use style="stroke:#000000;" x="185.005556" xlink:href="#m635e10850f" y="400.383333"/>
     <use style="stroke:#000000;" x="211.927778" xlink:href="#m635e10850f" y="400.383333"/>
     <use style="stroke:#000000;" x="238.85" xlink:href="#m635e10850f" y="400.383333"/>
     <use style="stroke:#000000;" x="265.772222" xlink:href="#m635e10850f" y="400.383333"/>
     <use style="stroke:#000000;" x="292.694444" xlink:href="#m635e10850f" y="400.383333"/>
     <use style="stroke:#000000;" x="319.616667" xlink:href="#m635e10850f" y="400.383333"/>
     <use style="stroke:#000000;" x="346.538889" xlink:href="#m635e10850f" y="400.383333"/>
     <use style="stroke:#000000;" x="373.461111" xlink:href="#m635e10850f" y="400.383333"/>
     <use style="stroke:#000000;" x="400.383333" xlink:href="#m635e10850f" y="400.383333"/>
     <use style="stroke:#000000;" x="427.305556" xlink:href="#m635e10850f" y="400.383333"/>
     <use style="stroke:#000000;" x="454.227778" xlink:href="#m635e10850f" y="400.383333"/>
     <use style="stroke:#000000;" x="481.15" xlink:href="#m635e10850f" y="400.383333"/>
     <use style="stroke:#000000;" x="508.072222" xlink:href="#m635e10850f" y="400.383333"/>
     <use style="stroke:#000000;" x="534.994444" xlink:href="#m635e10850f" y="400.383333"/>
     <use style="stroke:#000000;" x="561.916667" xlink:href="#m635e10850f" y="400.383333"/>
     <use style="stroke:#000000;" x="588.838889" xlink:href="#m635e10850f" y="400.383333"/>
     <use style="stroke:#000000;" x="615.761111" xlink:href="#m635e10850f" y="400.383333"/>
     <use style="stroke:#000000;" x="642.683333" xlink:href="#m635e10850f" y="400.383333"/>
     <use style="stroke:#000000;" x="77.316667" xlink:href="#m635e10850f" y="373.461111"/>
     <use style="stroke:#000000;" x="104.238889" xlink:href="#m635e10850f" y="373.461111"/>
     <use style="stroke:#000000;" x="131.161111" xlink:href="#m635e10850f" y="373.461111"/>
     <use style="stroke:#000000;" x="158.083333" xlink:href="#m635e10850f" y="373.461111"/>
     <use style="stroke:#000000;" x="185.005556" xlink:href="#m635e10850f" y="373.461111"/>
     <use style="stroke:#000000;" x="211.927778" xlink:href="#m635e10850f" y="373.461111"/>
     <use style="stroke:#000000;" x="238.85" xlink:href="#m635e10850f" y="373.461111"/>
     <use style="stroke:#000000;" x="265.772222" xlink:href="#m635e10850f" y="373.461111"/>
     <use style="stroke:#000000;" x="292.694444" xlink:href="#m635e10850f" y="373.461111"/>
     <use style="stroke:#000000;" x="319.616667" xlink:href="#m635e10850f" y="373.461111"/>
     <use style="stroke:#000000;" x="346.538889" xlink:href="#m635e10850f" y="373.461111"/>
     <use style="stroke:#000000;" x="373.461111" xlink:href="#m635e10850f" y="373.461111"/>
     <use style="stroke:#000000;" x="400.383333" xlink:href="#m635e10850f" y="373.461111"/>
     <use style="stroke:#000000;" x="427.305556" xlink:href="#m635e10850f" y="373.461111"/>
     <use style="stroke:#000000;" x="454.227778" xlink:href="#m635e10850f" y="373.461111"/>
     <use style="stroke:#000000;" x="481.15" xlink:href="#m635e10850f" y="373.461111"/>
     <use style="stroke:#000000;" x="508.072222" xlink:href="#m635e10850f" y="373.461111"/>
     <use style="stroke:#000000;" x="534.994444" xlink:href="#m635e10850f" y="373.461111"/>
     <use style="stroke:#000000;" x="561.916667" xlink:href="#m635e10850f" y="373.461111"/>
     <use style="stroke:#000000;" x="588.838889" xlink:href="#m635e10850f" y="373.461111"/>
     <use style="stroke:#000000;" x="615.761111" xlink:href="#m635e10850f" y="373.461111"/>
     <use style="stroke:#000000;" x="642.683333" xlink:href="#m635e10850f" y="373.461111"/>
     <use style="stroke:#000000;" x="77.316667" xlink:href="#m635e10850f" y="346.538889"/>
     <use style="stroke:#000000;" x="104.238889" xlink:href="#m635e10850f" y="346.538889"/>
     <use style="stroke:#000000;" x="131.161111" xlink:href="#m635e10850f" y="346.538889"/>
     <use style="stroke:#000000;" x="158.083333" xlink:href="#m635e10850f" y="346.538889"/>
     <use style="stroke:#000000;" x="185.005556" xlink:href="#m635e10850f" y="346.538889"/>
     <use style="stroke:#000000;" x="211.927778" xlink:href="#m635e10850f" y="346.538889"/>
     <use style="stroke:#000000;" x="238.85" xlink:href="#m635e10850f" y="346.538889"/>
     <use style="stroke:#000000;" x="265.772222" xlink:href="#m635e10850f" y="346.538889"/>
     <use style="stroke:#000000;" x="292.694444" xlink:href="#m635e10850f" y="346.538889"/>
     <use style="stroke:#000000;" x="319.616667" xlink:href="#m635e10850f" y="346.538889"/>
     <use style="stroke:#000000;" x="346.538889" xlink:href="#m635e10850f" y="346.538889"/>
     <use style="stroke:#000000;" x="373.461111" xlink:href="#m635e10850f" y="346.538889"/>
     <use style="stroke:#000000;" x="400.383333" xlink:href="#m635e10850f" y="346.538889"/>
     <use style="stroke:#000000;" x="427.305556" xlink:href="#m635e10850f" y="346.538889"/>
     <use style="stroke:#000000;" x="454.227778" xlink:href="#m635e10850f" y="346.538889"/>
     <use style="stroke:#000000;" x="481.15" xlink:href="#m635e10850f" y="346.538889"/>
     <use style="stroke:#000000;" x="508.072222" xlink:href="#m635e10850f" y="346.538889"/>
     <use style="stroke:#000000;" x="534.994444" xlink:href="#m635e10850f" y="346.538889"/>
     <use style="stroke:#000000;" x="561.916667" xlink:href="#m635e10850f" y="346.538889"/>
     <use style="stroke:#000000;" x="588.838889" xlink:href="#m635e10850f" y="346.538889"/>
     <use style="stroke:#000000;" x="615.761111" xlink:href="#m635e10850f" y="346.538889"/>
     <use style="stroke:#000000;" x="642.683333" xlink:href="#m635e10850f" y="346.538889"/>
     <use style="stroke:#000000;" x="77.316667" xlink:href="#m635e10850f" y="319.616667"/>
     <use style="stroke:#000000;" x="104.238889" xlink:href="#m635e10850f" y="319.616667"/>
     <use style="stroke:#000000;" x="131.161111" xlink:href="#m635e10850f" y="319.616667"/>
     <use style="stroke:#000000;" x="158.083333" xlink:href="#m635e10850f" y="319.616667"/>
     <use style="stroke:#000000;" x="185.005556" xlink:href="#m635e10850f" y="319.616667"/>
     <use style="stroke:#000000;" x="211.927778" xlink:href="#m635e10850f" y="319.616667"/>
     <use style="stroke:#000000;" x="238.85" xlink:href="#m635e10850f" y="319.616667"/>
     <use style="stroke:#000000;" x="265.772222" xlink:href="#m635e10850f" y="319.616667"/>
     <use style="stroke:#000000;" x="292.694444" xlink:href="#m635e10850f" y="319.616667"/>
     <use style="stroke:#000000;" x="319.616667" xlink:href="#m635e10850f" y="319.616667"/>
     <use style="stroke:#000000;" x="346.538889" xlink:href="#m635e10850f" y="319.616667"/>
     <use style="stroke:#000000;" x="373.461111" xlink:href="#m635e10850f" y="319.616667"/>
     <use style="stroke:#000000;" x="400.383333" xlink:href="#m635e10850f" y="319.616667"/>
     <use style="stroke:#000000;" x="427.305556" xlink:href="#m635e10850f" y="319.616667"/>
     <use style="stroke:#000000;" x="454.227778" xlink:href="#m635e10850f" y="319.616667"/>
     <use style="stroke:#000000;" x="481.15" xlink:href="#m635e10850f" y="319.616667"/>
     <use style="stroke:#000000;" x="508.072222" xlink:href="#m635e10850f" y="319.616667"/>
     <use style="stroke:#000000;" x="534.994444" xlink:href="#m635e10850f" y="319.616667"/>
     <use style="stroke:#000000;" x="561.916667" xlink:href="#m635e10850f" y="319.616667"/>
     <use style="stroke:#000000;" x="588.838889" xlink:href="#m635e10850f" y="319.616667"/>
     <use style="stroke:#000000;" x="615.761111" xlink:href="#m635e10850f" y="319.616667"/>
     <use style="stroke:#000000;" x="642.683333" xlink:href="#m635e10850f" y="319.616667"/>
     <use style="stroke:#000000;" x="77.316667" xlink:href="#m635e10850f" y="292.694444"/>
     <use style="stroke:#000000;" x="104.238889" xlink:href="#m635e10850f" y="292.694444"/>
     <use style="stroke:#000000;" x="131.161111" xlink:href="#m635e10850f" y="292.694444"/>
     <use style="stroke:#000000;" x="158.083333" xlink:href="#m635e10850f" y="292.694444"/>
     <use style="stroke:#000000;" x="185.005556" xlink:href="#m635e10850f" y="292.694444"/>
     <use style="stroke:#000000;" x="211.927778" xlink:href="#m635e10850f" y="292.694444"/>
     <use style="stroke:#000000;" x="238.85" xlink:href="#m635e10850f" y="292.694444"/>
     <use style="stroke:#000000;" x="265.772222" xlink:href="#m635e10850f" y="292.694444"/>
     <use style="stroke:#000000;" x="292.694444" xlink:href="#m635e10850f" y="292.694444"/>
     <use style="stroke:#000000;" x="319.616667" xlink:href="#m635e10850f" y="292.694444"/>
     <use style="stroke:#000000;" x="346.538889" xlink:href="#m635e10850f" y="292.694444"/>
     <use style="stroke:#000000;" x="373.461111" xlink:href="#m635e10850f" y="292.694444"/>
     <use style="stroke:#000000;" x="400.383333" xlink:href="#m635e10850f" y="292.694444"/>
     <use style="stroke:#000000;" x="427.305556" xlink:href="#m635e10850f" y="292.694444"/>
     <use style="stroke:#000000;" x="454.227778" xlink:href="#m635e10850f" y="292.694444"/>
     <use style="stroke:#000000;" x="481.15" xlink:href="#m635e10850f" y="292.694444"/>
     <use style="stroke:#000000;" x="508.072222" xlink:href="#m635e10850f" y="292.694444"/>
     <use style="stroke:#000000;" x="534.994444" xlink:href="#m635e10850f" y="292.694444"/>
     <use style="stroke:#000000;" x="561.916667" xlink:href="#m635e10850f" y="292.694444"/>
     <use style="stroke:#000000;" x="588.838889" xlink:href="#m635e10850f" y="292.694444"/>
     <use style="stroke:#000000;" x="615.761111" xlink:href="#m635e10850f" y="292.694444"/>
     <use style="stroke:#000000;" x="642.683333" xlink:href="#m635e10850f" y="292.694444"/>
     <use style="stroke:#000000;" x="77.316667" xlink:href="#m635e10850f" y="265.772222"/>
     <use style="stroke:#000000;" x="104.238889" xlink:href="#m635e10850f" y="265.772222"/>
     <use style="stroke:#000000;" x="131.161111" xlink:href="#m635e10850f" y="265.772222"/>
     <use style="stroke:#000000;" x="158.083333" xlink:href="#m635e10850f" y="265.772222"/>
     <use style="stroke:#000000;" x="185.005556" xlink:href="#m635e10850f" y="265.772222"/>
     <use style="stroke:#000000;" x="211.927778" xlink:href="#m635e10850f" y="265.772222"/>
     <use style="stroke:#000000;" x="238.85" xlink:href="#m635e10850f" y="265.772222"/>
     <use style="stroke:#000000;" x="265.772222" xlink:href="#m635e10850f" y="265.772222"/>
     <use style="stroke:#000000;" x="292.694444" xlink:href="#m635e10850f" y="265.772222"/>
     <use style="stroke:#000000;" x="319.616667" xlink:href="#m635e10850f" y="265.772222"/>
     <use style="stroke:#000000;" x="346.538889" xlink:href="#m635e10850f" y="265.772222"/>
     <use style="stroke:#000000;" x="373.461111" xlink:href="#m635e10850f" y="265.772222"/>
     <use style="stroke:#000000;" x="400.383333" xlink:href="#m635e10850f" y="265.772222"/>
     <use style="stroke:#000000;" x="427.305556" xlink:href="#m635e10850f" y="265.772222"/>
     <use style="stroke:#000000;" x="454.227778" xlink:href="#m635e10850f" y="265.772222"/>
     <use style="stroke:#000000;" x="481.15" xlink:href="#m635e10850f" y="265.772222"/>
     <use style="stroke:#000000;" x="508.072222" xlink:href="#m635e10850f" y="265.772222"/>
     <use style="stroke:#000000;" x="534.994444" xlink:href="#m635e10850f" y="265.772222"/>
     <use style="stroke:#000000;" x="561.916667" xlink:href="#m635e10850f" y="265.772222"/>
     <use style="stroke:#000000;" x="588.838889" xlink:href="#m635e10850f" y="265.772222"/>
     <use style="stroke:#000000;" x="615.761111" xlink:href="#m635e10850f" y="265.772222"/>
     <use style="stroke:#000000;" x="642.683333" xlink:href="#m635e10850f" y="265.772222"/>
     <use style="stroke:#000000;" x="77.316667" xlink:href="#m635e10850f" y="238.85"/>
     <use style="stroke:#000000;" x="104.238889" xlink:href="#m635e10850f" y="238.85"/>
     <use style="stroke:#000000;" x="131.161111" xlink:href="#m635e10850f" y="238.85"/>
     <use style="stroke:#000000;" x="158.083333" xlink:href="#m635e10850f" y="238.85"/>
     <use style="stroke:#000000;" x="185.005556" xlink:href="#m635e10850f" y="238.85"/>
     <use style="stroke:#000000;" x="211.927778" xlink:href="#m635e10850f" y="238.85"/>
     <use style="stroke:#000000;" x="238.85" xlink:href="#m635e10850f" y="238.85"/>
     <use style="stroke:#000000;" x="265.772222" xlink:href="#m635e10850f" y="238.85"/>
     <use style="stroke:#000000;" x="292.694444" xlink:href="#m635e10850f" y="238.85"/>
     <use style="stroke:#000000;" x="319.616667" xlink:href="#m635e10850f" y="238.85"/>
     <use style="stroke:#000000;" x="346.538889" xlink:href="#m635e10850f" y="238.85"/>
     <use style="stroke:#000000;" x="373.461111" xlink:href="#m635e10850f" y="238.85"/>
     <use style="stroke:#000000;" x="400.383333" xlink:href="#m635e10850f" y="238.85"/>
     <use style="stroke:#000000;" x="427.305556" xlink:href="#m635e10850f" y="238.85"/>
     <use style="stroke:#000000;" x="454.227778" xlink:href="#m635e10850f" y="238.85"/>
     <use style="stroke:#000000;" x="481.15" xlink:href="#m635e10850f" y="238.85"/>
     <use style="stroke:#000000;" x="508.072222" xlink:href="#m635e10850f" y="238.85"/>
     <use style="stroke:#000000;" x="534.994444" xlink:href="#m635e10850f" y="238.85"/>
     <use style="stroke:#000000;" x="561.916667" xlink:href="#m635e10850f" y="238.85"/>
     <use style="stroke:#000000;" x="588.838889" xlink:href="#m635e10850f" y="238.85"/>
     <use style="stroke:#000000;" x="615.761111" xlink:href="#m635e10850f" y="238.85"/>
     <use style="stroke:#000000;" x="642.683333" xlink:href="#m635e10850f" y="238.85"/>
     <use style="stroke:#000000;" x="77.316667" xlink:href="#m635e10850f" y="211.927778"/>
     <use style="stroke:#000000;" x="104.238889" xlink:href="#m635e10850f" y="211.927778"/>
     <use style="stroke:#000000;" x="131.161111" xlink:href="#m635e10850f" y="211.927778"/>
     <use style="stroke:#000000;" x="158.083333" xlink:href="#m635e10850f" y="211.927778"/>
     <use style="stroke:#000000;" x="185.005556" xlink:href="#m635e10850f" y="211.927778"/>
     <use style="stroke:#000000;" x="211.927778" xlink:href="#m635e10850f" y="211.927778"/>
     <use style="stroke:#000000;" x="238.85" xlink:href="#m635e10850f" y="211.927778"/>
     <use style="stroke:#000000;" x="265.772222" xlink:href="#m635e10850f" y="211.927778"/>
     <use style="stroke:#000000;" x="292.694444" xlink:href="#m635e10850f" y="211.927778"/>
     <use style="stroke:#000000;" x="319.616667" xlink:href="#m635e10850f" y="211.927778"/>
     <use style="stroke:#000000;" x="346.538889" xlink:href="#m635e10850f" y="211.927778"/>
     <use style="stroke:#000000;" x="373.461111" xlink:href="#m635e10850f" y="211.927778"/>
     <use style="stroke:#000000;" x="400.383333" xlink:href="#m635e10850f" y="211.927778"/>
     <use style="stroke:#000000;" x="427.305556" xlink:href="#m635e10850f" y="211.927778"/>
     <use style="stroke:#000000;" x="454.227778" xlink:href="#m635e10850f" y="211.927778"/>
     <use style="stroke:#000000;" x="481.15" xlink:href="#m635e10850f" y="211.927778"/>
     <use style="stroke:#000000;" x="508.072222" xlink:href="#m635e10850f" y="211.927778"/>
     <use style="stroke:#000000;" x="534.994444" xlink:href="#m635e10850f" y="211.927778"/>
     <use style="stroke:#000000;" x="561.916667" xlink:href="#m635e10850f" y="211.927778"/>
     <use style="stroke:#000000;" x="588.838889" xlink:href="#m635e10850f" y="211.927778"/>
     <use style="stroke:#000000;" x="615.761111" xlink:href="#m635e10850f" y="211.927778"/>
     <use style="stroke:#000000;" x="642.683333" xlink:href="#m635e10850f" y="211.927778"/>
    </g>
   </g>
   <g id="line2d_2">
    <defs>
     <path d="M 0 3 
C 0.795609 3 1.55874 2.683901 2.12132 2.12132 
C 2.683901 1.55874 3 0.795609 3 0 
C 3 -0.795609 2.683901 -1.55874 2.12132 -2.12132 
C 1.55874 -2.683901 0.795609 -3 0 -3 
C -0.795609 -3 -1.55874 -2.683901 -2.12132 -2.12132 
C -2.683901 -1.55874 -3 -0.795609 -3 0 
C -3 0.795609 -2.683901 1.55874 -2.12132 2.12132 
C -1.55874 2.683901 -0.795609 3 0 3 
z
" id="m8a209b9e3f" style="stroke:#008000;"/>
    </defs>
    <g clip-path="url(#pcd77f0de20)">
     <use style="fill:#008000;stroke:#008000;" x="77.316667" xlink:href="#m8a209b9e3f" y="508.072222"/>
     <use style="fill:#008000;stroke:#008000;" x="77.316667" xlink:href="#m8a209b9e3f" y="481.15"/>
     <use style="fill:#008000;stroke:#008000;" x="77.316667" xlink:href="#m8a209b9e3f" y="454.227778"/>
     <use style="fill:#008000;stroke:#008000;" x="77.316667" xlink:href="#m8a209b9e3f" y="427.305556"/>
     <use style="fill:#008000;stroke:#008000;" x="77.316667" xlink:href="#m8a209b9e3f" y="400.383333"/>
     <use style="fill:#008000;stroke:#008000;" x="77.316667" xlink:href="#m8a209b9e3f" y="373.461111"/>
     <use style="fill:#008000;stroke:#008000;" x="77.316667" xlink:href="#m8a209b9e3f" y="346.538889"/>
     <use style="fill:#008000;stroke:#008000;" x="77.316667" xlink:href="#m8a209b9e3f" y="319.616667"/>
     <use style="fill:#008000;stroke:#008000;" x="77.316667" xlink:href="#m8a209b9e3f" y="292.694444"/>
     <use style="fill:#008000;stroke:#008000;" x="77.316667" xlink:href="#m8a209b9e3f" y="265.772222"/>
     <use style="fill:#008000;stroke:#008000;" x="77.316667" xlink:href="#m8a209b9e3f" y="238.85"/>
     <use style="fill:#008000;stroke:#008000;" x="77.316667" xlink:href="#m8a209b9e3f" y="211.927778"/>
    </g>
   </g>
   <g id="line2d_3">
    <defs>
     <path d="M 0 3 
C 0.795609 3 1.55874 2.683901 2.12132 2.12132 
C 2.683901 1.55874 3 0.795609 3 0 
C 3 -0.795609 2.683901 -1.55874 2.12132 -2.12132 
C 1.55874 -2.683901 0.795609 -3 0 -3 
C -0.795609 -3 -1.55874 -2.683901 -2.12132 -2.12132 
C -2.683901 -1.55874 -3 -0.795609 -3 0 
C -3 0.795609 -2.683901 1.55874 -2.12132 2.12132 
C -1.55874 2.683901 -0.795609 3 0 3 
z
" id="m04d8794764" style="stroke:#0000ff;"/>
    </defs>
    <g clip-path="url(#pcd77f0de20)">
     <use style="fill:#0000ff;stroke:#0000ff;" x="642.683333" xlink:href="#m04d8794764" y="508.072222"/>
     <use style="fill:#0000ff;stroke:#0000ff;" x="642.683333" xlink:href="#m04d8794764" y="481.15"/>
     <use style="fill:#0000ff;stroke:#0000ff;" x="642.683333" xlink:href="#m04d8794764" y="454.227778"/>
     <use style="fill:#0000ff;stroke:#0000ff;" x="642.683333" xlink:href="#m04d8794764" y="427.305556"/>
     <use style="fill:#0000ff;stroke:#0000ff;" x="642.683333" xlink:href="#m04d8794764" y="400.383333"/>
     <use style="fill:#0000ff;stroke:#0000ff;" x="642.683333" xlink:href="#m04d8794764" y="373.461111"/>
     <use style="fill:#0000ff;stroke:#0000ff;" x="642.683333" xlink:href="#m04d8794764" y="346.538889"/>
     <use style="fill:#0000ff;stroke:#0000ff;" x="642.683333" xlink:href="#m04d8794764" y="319.616667"/>
     <use style="fill:#0000ff;stroke:#0000ff;" x="642.683333" xlink:href="#m04d8794764" y="292.694444"/>
     <use style="fill:#0000ff;stroke:#0000ff;" x="642.683333" xlink:href="#m04d8794764" y="265.772222"/>
     <use style="fill:#0000ff;stroke:#0000ff;" x="642.683333" xlink:href="#m04d8794764" y="238.85"/>
     <use style="fill:#0000ff;stroke:#0000ff;" x="642.683333" xlink:href="#m04d8794764" y="211.927778"/>
    </g>
   </g>
   <g id="line2d_4">
    <defs>
     <path d="M 0 3 
C 0.795609 3 1.55874 2.683901 2.12132 2.12132 
C 2.683901 1.55874 3 0.795609 3 0 
C 3 -0.795609 2.683901 -1.55874 2.12132 -2.12132 
C 1.55874 -2.683901 0.795609 -3 0 -3 
C -0.795609 -3 -1.55874 -2.683901 -2.12132 -2.12132 
C -2.683901 -1.55874 -3 -0.795609 -3 0 
C -3 0.795609 -2.683901 1.55874 -2.12132 2.12132 
C -1.55874 2.683901 -0.795609 3 0 3 
z
" id="m650da9de81" style="stroke:#ff0000;"/>
    </defs>
    <g clip-path="url(#pcd77f0de20)">
     <use style="fill:#ff0000;stroke:#ff0000;" x="77.316667" xlink:href="#m650da9de81" y="508.072222"/>
     <use style="fill:#ff0000;stroke:#ff0000;" x="104.238889" xlink:href="#m650da9de81" y="508.072222"/>
     <use style="fill:#ff0000;stroke:#ff0000;" x="131.161111" xlink:href="#m650da9de81" y="508.072222"/>
     <use style="fill:#ff0000;stroke:#ff0000;" x="158.083333" xlink:href="#m650da9de81" y="508.072222"/>
     <use style="fill:#ff0000;stroke:#ff0000;" x="185.005556" xlink:href="#m650da9de81" y="508.072222"/>
     <use style="fill:#ff0000;stroke:#ff0000;" x="211.927778" xlink:href="#m650da9de81" y="508.072222"/>
     <use style="fill:#ff0000;stroke:#ff0000;" x="238.85" xlink:href="#m650da9de81" y="508.072222"/>
     <use style="fill:#ff0000;stroke:#ff0000;" x="265.772222" xlink:href="#m650da9de81" y="508.072222"/>
     <use style="fill:#ff0000;stroke:#ff0000;" x="292.694444" xlink:href="#m650da9de81" y="508.072222"/>
     <use style="fill:#ff0000;stroke:#ff0000;" x="319.616667" xlink:href="#m650da9de81" y="508.072222"/>
     <use style="fill:#ff0000;stroke:#ff0000;" x="346.538889" xlink:href="#m650da9de81" y="508.072222"/>
     <use style="fill:#ff0000;stroke:#ff0000;" x="373.461111" xlink:href="#m650da9de81" y="508.072222"/>
     <use style="fill:#ff0000;stroke:#ff0000;" x="400.383333" xlink:href="#m650da9de81" y="508.072222"/>
     <use style="fill:#ff0000;stroke:#ff0000;" x="427.305556" xlink:href="#m650da9de81" y="508.072222"/>
     <use style="fill:#ff0000;stroke:#ff0000;" x="454.227778" xlink:href="#m650da9de81" y="508.072222"/>
     <use style="fill:#ff0000;stroke:#ff0000;" x="481.15" xlink:href="#m650da9de81" y="508.072222"/>
     <use style="fill:#ff0000;stroke:#ff0000;" x="508.072222" xlink:href="#m650da9de81" y="508.072222"/>
     <use style="fill:#ff0000;stroke:#ff0000;" x="534.994444" xlink:href="#m650da9de81" y="508.072222"/>
     <use style="fill:#ff0000;stroke:#ff0000;" x="561.916667" xlink:href="#m650da9de81" y="508.072222"/>
     <use style="fill:#ff0000;stroke:#ff0000;" x="588.838889" xlink:href="#m650da9de81" y="508.072222"/>
     <use style="fill:#ff0000;stroke:#ff0000;" x="615.761111" xlink:href="#m650da9de81" y="508.072222"/>
     <use style="fill:#ff0000;stroke:#ff0000;" x="642.683333" xlink:href="#m650da9de81" y="508.072222"/>
    </g>
   </g>
   <g id="line2d_5">
    <defs>
     <path d="M 0 3 
C 0.795609 3 1.55874 2.683901 2.12132 2.12132 
C 2.683901 1.55874 3 0.795609 3 0 
C 3 -0.795609 2.683901 -1.55874 2.12132 -2.12132 
C 1.55874 -2.683901 0.795609 -3 0 -3 
C -0.795609 -3 -1.55874 -2.683901 -2.12132 -2.12132 
C -2.683901 -1.55874 -3 -0.795609 -3 0 
C -3 0.795609 -2.683901 1.55874 -2.12132 2.12132 
C -1.55874 2.683901 -0.795609 3 0 3 
z
" id="m8a276ca432" style="stroke:#bfbf00;"/>
    </defs>
    <g clip-path="url(#pcd77f0de20)">
     <use style="fill:#bfbf00;stroke:#bfbf00;" x="77.316667" xlink:href="#m8a276ca432" y="211.927778"/>
     <use style="fill:#bfbf00;stroke:#bfbf00;" x="104.238889" xlink:href="#m8a276ca432" y="211.927778"/>
     <use style="fill:#bfbf00;stroke:#bfbf00;" x="131.161111" xlink:href="#m8a276ca432" y="211.927778"/>
     <use style="fill:#bfbf00;stroke:#bfbf00;" x="158.083333" xlink:href="#m8a276ca432" y="211.927778"/>
     <use style="fill:#bfbf00;stroke:#bfbf00;" x="185.005556" xlink:href="#m8a276ca432" y="211.927778"/>
     <use style="fill:#bfbf00;stroke:#bfbf00;" x="211.927778" xlink:href="#m8a276ca432" y="211.927778"/>
     <use style="fill:#bfbf00;stroke:#bfbf00;" x="238.85" xlink:href="#m8a276ca432" y="211.927778"/>
     <use style="fill:#bfbf00;stroke:#bfbf00;" x="265.772222" xlink:href="#m8a276ca432" y="211.927778"/>
     <use style="fill:#bfbf00;stroke:#bfbf00;" x="292.694444" xlink:href="#m8a276ca432" y="211.927778"/>
     <use style="fill:#bfbf00;stroke:#bfbf00;" x="319.616667" xlink:href="#m8a276ca432" y="211.927778"/>
     <use style="fill:#bfbf00;stroke:#bfbf00;" x="346.538889" xlink:href="#m8a276ca432" y="211.927778"/>
     <use style="fill:#bfbf00;stroke:#bfbf00;" x="373.461111" xlink:href="#m8a276ca432" y="211.927778"/>
     <use style="fill:#bfbf00;stroke:#bfbf00;" x="400.383333" xlink:href="#m8a276ca432" y="211.927778"/>
     <use style="fill:#bfbf00;stroke:#bfbf00;" x="427.305556" xlink:href="#m8a276ca432" y="211.927778"/>
     <use style="fill:#bfbf00;stroke:#bfbf00;" x="454.227778" xlink:href="#m8a276ca432" y="211.927778"/>
     <use style="fill:#bfbf00;stroke:#bfbf00;" x="481.15" xlink:href="#m8a276ca432" y="211.927778"/>
     <use style="fill:#bfbf00;stroke:#bfbf00;" x="508.072222" xlink:href="#m8a276ca432" y="211.927778"/>
     <use style="fill:#bfbf00;stroke:#bfbf00;" x="534.994444" xlink:href="#m8a276ca432" y="211.927778"/>
     <use style="fill:#bfbf00;stroke:#bfbf00;" x="561.916667" xlink:href="#m8a276ca432" y="211.927778"/>
     <use style="fill:#bfbf00;stroke:#bfbf00;" x="588.838889" xlink:href="#m8a276ca432" y="211.927778"/>
     <use style="fill:#bfbf00;stroke:#bfbf00;" x="615.761111" xlink:href="#m8a276ca432" y="211.927778"/>
     <use style="fill:#bfbf00;stroke:#bfbf00;" x="642.683333" xlink:href="#m8a276ca432" y="211.927778"/>
    </g>
   </g>
   <g id="patch_3">
    <path d="M 20.78 537.686667 
L 20.78 182.313333 
" style="fill:none;stroke:#000000;stroke-linecap:square;stroke-linejoin:miter;stroke-width:0.8;"/>
   </g>
   <g id="patch_4">
    <path d="M 699.22 537.686667 
L 699.22 182.313333 
" style="fill:none;stroke:#000000;stroke-linecap:square;stroke-linejoin:miter;stroke-width:0.8;"/>
   </g>
   <g id="patch_5">
    <path d="M 20.78 537.686667 
L 699.22 537.686667 
" style="fill:none;stroke:#000000;stroke-linecap:square;stroke-linejoin:miter;stroke-width:0.8;"/>
   </g>
   <g id="patch_6">
    <path d="M 20.78 182.313333 
L 699.22 182.313333 
" style="fill:none;stroke:#000000;stroke-linecap:square;stroke-linejoin:miter;stroke-width:0.8;"/>
   </g>
  </g>
 </g>
 <defs>
  <clipPath id="pcd77f0de20">
   <rect height="355.373333" width="678.44" x="20.78" y="182.313333"/>
  </clipPath>
 </defs>
</svg>
