<?xml version="1.0" encoding="utf-8" standalone="no"?>
<!DOCTYPE svg PUBLIC "-//W3C//DTD SVG 1.1//EN"
  "http://www.w3.org/Graphics/SVG/1.1/DTD/svg11.dtd">
<!-- Created with matplotlib (https://matplotlib.org/) -->
<svg height="432pt" version="1.1" viewBox="0 0 576 432" width="576pt" xmlns="http://www.w3.org/2000/svg" xmlns:xlink="http://www.w3.org/1999/xlink">
 <metadata>
  <rdf:RDF xmlns:cc="http://creativecommons.org/ns#" xmlns:dc="http://purl.org/dc/elements/1.1/" xmlns:rdf="http://www.w3.org/1999/02/22-rdf-syntax-ns#">
   <cc:Work>
    <dc:type rdf:resource="http://purl.org/dc/dcmitype/StillImage"/>
    <dc:date>2020-12-18T18:27:41.433494</dc:date>
    <dc:format>image/svg+xml</dc:format>
    <dc:creator>
     <cc:Agent>
      <dc:title>Matplotlib v3.3.3, https://matplotlib.org/</dc:title>
     </cc:Agent>
    </dc:creator>
   </cc:Work>
  </rdf:RDF>
 </metadata>
 <defs>
  <style type="text/css">*{stroke-linecap:butt;stroke-linejoin:round;}</style>
 </defs>
 <g id="figure_1">
  <g id="patch_1">
   <path d="M 0 432 
L 576 432 
L 576 0 
L 0 0 
z
" style="fill:none;"/>
  </g>
  <g id="axes_1">
   <g id="patch_2">
    <path d="M 176.445714 411.22 
L 399.554286 411.22 
L 399.554286 20.78 
L 176.445714 20.78 
z
" style="fill:none;"/>
   </g>
   <g id="PatchCollection_1">
    <path clip-path="url(#pd28355a76e)" d="M 195.038095 378.683333 
L 241.519048 378.683333 
L 241.519048 332.202381 
L 195.038095 332.202381 
z
" style="fill:#fff5f0;stroke:#000000;"/>
    <path clip-path="url(#pd28355a76e)" d="M 241.519048 378.683333 
L 288 378.683333 
L 288 332.202381 
L 241.519048 332.202381 
z
" style="fill:#fff5f0;stroke:#000000;"/>
    <path clip-path="url(#pd28355a76e)" d="M 288 378.683333 
L 334.480952 378.683333 
L 334.480952 332.202381 
L 288 332.202381 
z
" style="fill:#fff5f0;stroke:#000000;"/>
    <path clip-path="url(#pd28355a76e)" d="M 334.480952 378.683333 
L 380.961905 378.683333 
L 380.961905 332.202381 
L 334.480952 332.202381 
z
" style="fill:#fff5f0;stroke:#000000;"/>
    <path clip-path="url(#pd28355a76e)" d="M 195.038095 332.202381 
L 241.519048 332.202381 
L 241.519048 285.721429 
L 195.038095 285.721429 
z
" style="fill:#fff5f0;stroke:#000000;"/>
    <path clip-path="url(#pd28355a76e)" d="M 241.519048 332.202381 
L 288 332.202381 
L 288 285.721429 
L 241.519048 285.721429 
z
" style="fill:#fff5f0;stroke:#000000;"/>
    <path clip-path="url(#pd28355a76e)" d="M 288 332.202381 
L 334.480952 332.202381 
L 334.480952 285.721429 
L 288 285.721429 
z
" style="fill:#fff5f0;stroke:#000000;"/>
    <path clip-path="url(#pd28355a76e)" d="M 334.480952 332.202381 
L 380.961905 332.202381 
L 380.961905 285.721429 
L 334.480952 285.721429 
z
" style="fill:#fff5f0;stroke:#000000;"/>
    <path clip-path="url(#pd28355a76e)" d="M 195.038095 285.721429 
L 241.519048 285.721429 
L 226.025397 270.227778 
L 210.531746 270.227778 
z
" style="fill:#fff5f0;stroke:#000000;"/>
    <path clip-path="url(#pd28355a76e)" d="M 241.519048 285.721429 
L 241.519048 254.734127 
L 226.025397 254.734127 
L 226.025397 270.227778 
z
" style="fill:#fff5f0;stroke:#000000;"/>
    <path clip-path="url(#pd28355a76e)" d="M 210.531746 270.227778 
L 226.025397 270.227778 
L 226.025397 254.734127 
L 210.531746 254.734127 
z
" style="fill:#fff5f0;stroke:#000000;"/>
    <path clip-path="url(#pd28355a76e)" d="M 195.038095 285.721429 
L 210.531746 270.227778 
L 210.531746 254.734127 
L 195.038095 254.734127 
z
" style="fill:#fff5f0;stroke:#000000;"/>
    <path clip-path="url(#pd28355a76e)" d="M 241.519048 285.721429 
L 288 285.721429 
L 272.506349 270.227778 
L 257.012698 270.227778 
z
" style="fill:#fff5f0;stroke:#000000;"/>
    <path clip-path="url(#pd28355a76e)" d="M 288 285.721429 
L 288 254.734127 
L 272.506349 254.734127 
L 272.506349 270.227778 
z
" style="fill:#fff5f0;stroke:#000000;"/>
    <path clip-path="url(#pd28355a76e)" d="M 257.012698 270.227778 
L 272.506349 270.227778 
L 272.506349 254.734127 
L 257.012698 254.734127 
z
" style="fill:#fff5f0;stroke:#000000;"/>
    <path clip-path="url(#pd28355a76e)" d="M 241.519048 285.721429 
L 257.012698 270.227778 
L 257.012698 254.734127 
L 241.519048 254.734127 
z
" style="fill:#fff5f0;stroke:#000000;"/>
    <path clip-path="url(#pd28355a76e)" d="M 288 285.721429 
L 334.480952 285.721429 
L 318.987302 270.227778 
L 303.493651 270.227778 
z
" style="fill:#fff5f0;stroke:#000000;"/>
    <path clip-path="url(#pd28355a76e)" d="M 334.480952 285.721429 
L 334.480952 254.734127 
L 318.987302 254.734127 
L 318.987302 270.227778 
z
" style="fill:#fff5f0;stroke:#000000;"/>
    <path clip-path="url(#pd28355a76e)" d="M 303.493651 270.227778 
L 318.987302 270.227778 
L 318.987302 254.734127 
L 303.493651 254.734127 
z
" style="fill:#fff5f0;stroke:#000000;"/>
    <path clip-path="url(#pd28355a76e)" d="M 288 285.721429 
L 303.493651 270.227778 
L 303.493651 254.734127 
L 288 254.734127 
z
" style="fill:#fff5f0;stroke:#000000;"/>
    <path clip-path="url(#pd28355a76e)" d="M 334.480952 285.721429 
L 380.961905 285.721429 
L 365.468254 270.227778 
L 349.974603 270.227778 
z
" style="fill:#fff5f0;stroke:#000000;"/>
    <path clip-path="url(#pd28355a76e)" d="M 380.961905 285.721429 
L 380.961905 254.734127 
L 365.468254 254.734127 
L 365.468254 270.227778 
z
" style="fill:#fff5f0;stroke:#000000;"/>
    <path clip-path="url(#pd28355a76e)" d="M 349.974603 270.227778 
L 365.468254 270.227778 
L 365.468254 254.734127 
L 349.974603 254.734127 
z
" style="fill:#fff5f0;stroke:#000000;"/>
    <path clip-path="url(#pd28355a76e)" d="M 334.480952 285.721429 
L 349.974603 270.227778 
L 349.974603 254.734127 
L 334.480952 254.734127 
z
" style="fill:#fff5f0;stroke:#000000;"/>
    <path clip-path="url(#pd28355a76e)" d="M 195.038095 254.734127 
L 210.531746 254.734127 
L 210.531746 239.240476 
L 195.038095 239.240476 
z
" style="fill:#fff5f0;stroke:#000000;"/>
    <path clip-path="url(#pd28355a76e)" d="M 210.531746 254.734127 
L 226.025397 254.734127 
L 226.025397 239.240476 
L 210.531746 239.240476 
z
" style="fill:#fff5f0;stroke:#000000;"/>
    <path clip-path="url(#pd28355a76e)" d="M 226.025397 254.734127 
L 241.519048 254.734127 
L 241.519048 239.240476 
L 226.025397 239.240476 
z
" style="fill:#fff5f0;stroke:#000000;"/>
    <path clip-path="url(#pd28355a76e)" d="M 241.519048 254.734127 
L 257.012698 254.734127 
L 257.012698 239.240476 
L 241.519048 239.240476 
z
" style="fill:#fff5f0;stroke:#000000;"/>
    <path clip-path="url(#pd28355a76e)" d="M 257.012698 254.734127 
L 272.506349 254.734127 
L 272.506349 239.240476 
L 257.012698 239.240476 
z
" style="fill:#fff5f0;stroke:#000000;"/>
    <path clip-path="url(#pd28355a76e)" d="M 272.506349 254.734127 
L 288 254.734127 
L 288 239.240476 
L 272.506349 239.240476 
z
" style="fill:#67000d;stroke:#000000;"/>
    <path clip-path="url(#pd28355a76e)" d="M 288 254.734127 
L 303.493651 254.734127 
L 303.493651 239.240476 
L 288 239.240476 
z
" style="fill:#67000d;stroke:#000000;"/>
    <path clip-path="url(#pd28355a76e)" d="M 303.493651 254.734127 
L 318.987302 254.734127 
L 318.987302 239.240476 
L 303.493651 239.240476 
z
" style="fill:#67000d;stroke:#000000;"/>
    <path clip-path="url(#pd28355a76e)" d="M 318.987302 254.734127 
L 334.480952 254.734127 
L 334.480952 239.240476 
L 318.987302 239.240476 
z
" style="fill:#67000d;stroke:#000000;"/>
    <path clip-path="url(#pd28355a76e)" d="M 334.480952 254.734127 
L 349.974603 254.734127 
L 349.974603 239.240476 
L 334.480952 239.240476 
z
" style="fill:#67000d;stroke:#000000;"/>
    <path clip-path="url(#pd28355a76e)" d="M 349.974603 254.734127 
L 365.468254 254.734127 
L 365.468254 239.240476 
L 349.974603 239.240476 
z
" style="fill:#fff5f0;stroke:#000000;"/>
    <path clip-path="url(#pd28355a76e)" d="M 365.468254 254.734127 
L 380.961905 254.734127 
L 380.961905 239.240476 
L 365.468254 239.240476 
z
" style="fill:#fff5f0;stroke:#000000;"/>
    <path clip-path="url(#pd28355a76e)" d="M 195.038095 239.240476 
L 210.531746 239.240476 
L 210.531746 223.746825 
L 195.038095 223.746825 
z
" style="fill:#fff5f0;stroke:#000000;"/>
    <path clip-path="url(#pd28355a76e)" d="M 210.531746 239.240476 
L 226.025397 239.240476 
L 226.025397 223.746825 
L 210.531746 223.746825 
z
" style="fill:#fff5f0;stroke:#000000;"/>
    <path clip-path="url(#pd28355a76e)" d="M 226.025397 239.240476 
L 241.519048 239.240476 
L 241.519048 223.746825 
L 226.025397 223.746825 
z
" style="fill:#fff5f0;stroke:#000000;"/>
    <path clip-path="url(#pd28355a76e)" d="M 241.519048 239.240476 
L 257.012698 239.240476 
L 257.012698 223.746825 
L 241.519048 223.746825 
z
" style="fill:#fff5f0;stroke:#000000;"/>
    <path clip-path="url(#pd28355a76e)" d="M 257.012698 239.240476 
L 272.506349 239.240476 
L 272.506349 223.746825 
L 257.012698 223.746825 
z
" style="fill:#fff5f0;stroke:#000000;"/>
    <path clip-path="url(#pd28355a76e)" d="M 272.506349 239.240476 
L 288 239.240476 
L 288 223.746825 
L 272.506349 223.746825 
z
" style="fill:#67000d;stroke:#000000;"/>
    <path clip-path="url(#pd28355a76e)" d="M 288 239.240476 
L 303.493651 239.240476 
L 303.493651 223.746825 
L 288 223.746825 
z
" style="fill:#67000d;stroke:#000000;"/>
    <path clip-path="url(#pd28355a76e)" d="M 303.493651 239.240476 
L 318.987302 239.240476 
L 318.987302 223.746825 
L 303.493651 223.746825 
z
" style="fill:#67000d;stroke:#000000;"/>
    <path clip-path="url(#pd28355a76e)" d="M 318.987302 239.240476 
L 334.480952 239.240476 
L 334.480952 223.746825 
L 318.987302 223.746825 
z
" style="fill:#67000d;stroke:#000000;"/>
    <path clip-path="url(#pd28355a76e)" d="M 334.480952 239.240476 
L 349.974603 239.240476 
L 349.974603 223.746825 
L 334.480952 223.746825 
z
" style="fill:#67000d;stroke:#000000;"/>
    <path clip-path="url(#pd28355a76e)" d="M 349.974603 239.240476 
L 365.468254 239.240476 
L 365.468254 223.746825 
L 349.974603 223.746825 
z
" style="fill:#fff5f0;stroke:#000000;"/>
    <path clip-path="url(#pd28355a76e)" d="M 365.468254 239.240476 
L 380.961905 239.240476 
L 380.961905 223.746825 
L 365.468254 223.746825 
z
" style="fill:#fff5f0;stroke:#000000;"/>
    <path clip-path="url(#pd28355a76e)" d="M 195.038095 223.746825 
L 210.531746 223.746825 
L 210.531746 208.253175 
L 195.038095 208.253175 
z
" style="fill:#fff5f0;stroke:#000000;"/>
    <path clip-path="url(#pd28355a76e)" d="M 210.531746 223.746825 
L 226.025397 223.746825 
L 226.025397 208.253175 
L 210.531746 208.253175 
z
" style="fill:#fff5f0;stroke:#000000;"/>
    <path clip-path="url(#pd28355a76e)" d="M 226.025397 223.746825 
L 241.519048 223.746825 
L 241.519048 208.253175 
L 226.025397 208.253175 
z
" style="fill:#fff5f0;stroke:#000000;"/>
    <path clip-path="url(#pd28355a76e)" d="M 241.519048 223.746825 
L 257.012698 223.746825 
L 257.012698 208.253175 
L 241.519048 208.253175 
z
" style="fill:#fff5f0;stroke:#000000;"/>
    <path clip-path="url(#pd28355a76e)" d="M 257.012698 223.746825 
L 272.506349 223.746825 
L 272.506349 208.253175 
L 257.012698 208.253175 
z
" style="fill:#fff5f0;stroke:#000000;"/>
    <path clip-path="url(#pd28355a76e)" d="M 272.506349 223.746825 
L 288 223.746825 
L 288 208.253175 
L 272.506349 208.253175 
z
" style="fill:#67000d;stroke:#000000;"/>
    <path clip-path="url(#pd28355a76e)" d="M 288 223.746825 
L 303.493651 223.746825 
L 303.493651 208.253175 
L 288 208.253175 
z
" style="fill:#67000d;stroke:#000000;"/>
    <path clip-path="url(#pd28355a76e)" d="M 303.493651 223.746825 
L 318.987302 223.746825 
L 318.987302 208.253175 
L 303.493651 208.253175 
z
" style="fill:#67000d;stroke:#000000;"/>
    <path clip-path="url(#pd28355a76e)" d="M 318.987302 223.746825 
L 334.480952 223.746825 
L 334.480952 208.253175 
L 318.987302 208.253175 
z
" style="fill:#67000d;stroke:#000000;"/>
    <path clip-path="url(#pd28355a76e)" d="M 334.480952 223.746825 
L 349.974603 223.746825 
L 349.974603 208.253175 
L 334.480952 208.253175 
z
" style="fill:#67000d;stroke:#000000;"/>
    <path clip-path="url(#pd28355a76e)" d="M 349.974603 223.746825 
L 365.468254 223.746825 
L 365.468254 208.253175 
L 349.974603 208.253175 
z
" style="fill:#fff5f0;stroke:#000000;"/>
    <path clip-path="url(#pd28355a76e)" d="M 365.468254 223.746825 
L 380.961905 223.746825 
L 380.961905 208.253175 
L 365.468254 208.253175 
z
" style="fill:#fff5f0;stroke:#000000;"/>
    <path clip-path="url(#pd28355a76e)" d="M 195.038095 208.253175 
L 210.531746 208.253175 
L 210.531746 192.759524 
L 195.038095 192.759524 
z
" style="fill:#fff5f0;stroke:#000000;"/>
    <path clip-path="url(#pd28355a76e)" d="M 210.531746 208.253175 
L 226.025397 208.253175 
L 226.025397 192.759524 
L 210.531746 192.759524 
z
" style="fill:#fff5f0;stroke:#000000;"/>
    <path clip-path="url(#pd28355a76e)" d="M 226.025397 208.253175 
L 241.519048 208.253175 
L 241.519048 192.759524 
L 226.025397 192.759524 
z
" style="fill:#fff5f0;stroke:#000000;"/>
    <path clip-path="url(#pd28355a76e)" d="M 241.519048 208.253175 
L 257.012698 208.253175 
L 257.012698 192.759524 
L 241.519048 192.759524 
z
" style="fill:#fff5f0;stroke:#000000;"/>
    <path clip-path="url(#pd28355a76e)" d="M 257.012698 208.253175 
L 272.506349 208.253175 
L 272.506349 192.759524 
L 257.012698 192.759524 
z
" style="fill:#fff5f0;stroke:#000000;"/>
    <path clip-path="url(#pd28355a76e)" d="M 272.506349 208.253175 
L 288 208.253175 
L 288 192.759524 
L 272.506349 192.759524 
z
" style="fill:#67000d;stroke:#000000;"/>
    <path clip-path="url(#pd28355a76e)" d="M 288 208.253175 
L 303.493651 208.253175 
L 303.493651 192.759524 
L 288 192.759524 
z
" style="fill:#67000d;stroke:#000000;"/>
    <path clip-path="url(#pd28355a76e)" d="M 303.493651 208.253175 
L 318.987302 208.253175 
L 318.987302 192.759524 
L 303.493651 192.759524 
z
" style="fill:#67000d;stroke:#000000;"/>
    <path clip-path="url(#pd28355a76e)" d="M 318.987302 208.253175 
L 334.480952 208.253175 
L 334.480952 192.759524 
L 318.987302 192.759524 
z
" style="fill:#67000d;stroke:#000000;"/>
    <path clip-path="url(#pd28355a76e)" d="M 334.480952 208.253175 
L 349.974603 208.253175 
L 349.974603 192.759524 
L 334.480952 192.759524 
z
" style="fill:#67000d;stroke:#000000;"/>
    <path clip-path="url(#pd28355a76e)" d="M 349.974603 208.253175 
L 365.468254 208.253175 
L 365.468254 192.759524 
L 349.974603 192.759524 
z
" style="fill:#fff5f0;stroke:#000000;"/>
    <path clip-path="url(#pd28355a76e)" d="M 365.468254 208.253175 
L 380.961905 208.253175 
L 380.961905 192.759524 
L 365.468254 192.759524 
z
" style="fill:#fff5f0;stroke:#000000;"/>
    <path clip-path="url(#pd28355a76e)" d="M 195.038095 192.759524 
L 210.531746 192.759524 
L 210.531746 177.265873 
L 195.038095 177.265873 
z
" style="fill:#fff5f0;stroke:#000000;"/>
    <path clip-path="url(#pd28355a76e)" d="M 210.531746 192.759524 
L 226.025397 192.759524 
L 226.025397 177.265873 
L 210.531746 177.265873 
z
" style="fill:#fff5f0;stroke:#000000;"/>
    <path clip-path="url(#pd28355a76e)" d="M 226.025397 192.759524 
L 241.519048 192.759524 
L 241.519048 177.265873 
L 226.025397 177.265873 
z
" style="fill:#fff5f0;stroke:#000000;"/>
    <path clip-path="url(#pd28355a76e)" d="M 241.519048 192.759524 
L 257.012698 192.759524 
L 257.012698 177.265873 
L 241.519048 177.265873 
z
" style="fill:#fff5f0;stroke:#000000;"/>
    <path clip-path="url(#pd28355a76e)" d="M 257.012698 192.759524 
L 272.506349 192.759524 
L 272.506349 177.265873 
L 257.012698 177.265873 
z
" style="fill:#fff5f0;stroke:#000000;"/>
    <path clip-path="url(#pd28355a76e)" d="M 272.506349 192.759524 
L 288 192.759524 
L 288 177.265873 
L 272.506349 177.265873 
z
" style="fill:#67000d;stroke:#000000;"/>
    <path clip-path="url(#pd28355a76e)" d="M 288 192.759524 
L 303.493651 192.759524 
L 303.493651 177.265873 
L 288 177.265873 
z
" style="fill:#67000d;stroke:#000000;"/>
    <path clip-path="url(#pd28355a76e)" d="M 303.493651 192.759524 
L 318.987302 192.759524 
L 318.987302 177.265873 
L 303.493651 177.265873 
z
" style="fill:#67000d;stroke:#000000;"/>
    <path clip-path="url(#pd28355a76e)" d="M 318.987302 192.759524 
L 334.480952 192.759524 
L 334.480952 177.265873 
L 318.987302 177.265873 
z
" style="fill:#67000d;stroke:#000000;"/>
    <path clip-path="url(#pd28355a76e)" d="M 334.480952 192.759524 
L 349.974603 192.759524 
L 349.974603 177.265873 
L 334.480952 177.265873 
z
" style="fill:#67000d;stroke:#000000;"/>
    <path clip-path="url(#pd28355a76e)" d="M 349.974603 192.759524 
L 365.468254 192.759524 
L 365.468254 177.265873 
L 349.974603 177.265873 
z
" style="fill:#fff5f0;stroke:#000000;"/>
    <path clip-path="url(#pd28355a76e)" d="M 365.468254 192.759524 
L 380.961905 192.759524 
L 380.961905 177.265873 
L 365.468254 177.265873 
z
" style="fill:#fff5f0;stroke:#000000;"/>
    <path clip-path="url(#pd28355a76e)" d="M 195.038095 177.265873 
L 210.531746 177.265873 
L 210.531746 161.772222 
L 195.038095 146.278571 
z
" style="fill:#fff5f0;stroke:#000000;"/>
    <path clip-path="url(#pd28355a76e)" d="M 210.531746 177.265873 
L 226.025397 177.265873 
L 226.025397 161.772222 
L 210.531746 161.772222 
z
" style="fill:#fff5f0;stroke:#000000;"/>
    <path clip-path="url(#pd28355a76e)" d="M 226.025397 177.265873 
L 241.519048 177.265873 
L 241.519048 146.278571 
L 226.025397 161.772222 
z
" style="fill:#fff5f0;stroke:#000000;"/>
    <path clip-path="url(#pd28355a76e)" d="M 210.531746 161.772222 
L 226.025397 161.772222 
L 241.519048 146.278571 
L 195.038095 146.278571 
z
" style="fill:#fff5f0;stroke:#000000;"/>
    <path clip-path="url(#pd28355a76e)" d="M 241.519048 177.265873 
L 257.012698 177.265873 
L 257.012698 161.772222 
L 241.519048 146.278571 
z
" style="fill:#fff5f0;stroke:#000000;"/>
    <path clip-path="url(#pd28355a76e)" d="M 257.012698 177.265873 
L 272.506349 177.265873 
L 272.506349 161.772222 
L 257.012698 161.772222 
z
" style="fill:#fff5f0;stroke:#000000;"/>
    <path clip-path="url(#pd28355a76e)" d="M 272.506349 177.265873 
L 288 177.265873 
L 288 146.278571 
L 272.506349 161.772222 
z
" style="fill:#fff5f0;stroke:#000000;"/>
    <path clip-path="url(#pd28355a76e)" d="M 257.012698 161.772222 
L 272.506349 161.772222 
L 288 146.278571 
L 241.519048 146.278571 
z
" style="fill:#fff5f0;stroke:#000000;"/>
    <path clip-path="url(#pd28355a76e)" d="M 288 177.265873 
L 303.493651 177.265873 
L 303.493651 161.772222 
L 288 146.278571 
z
" style="fill:#fff5f0;stroke:#000000;"/>
    <path clip-path="url(#pd28355a76e)" d="M 303.493651 177.265873 
L 318.987302 177.265873 
L 318.987302 161.772222 
L 303.493651 161.772222 
z
" style="fill:#fff5f0;stroke:#000000;"/>
    <path clip-path="url(#pd28355a76e)" d="M 318.987302 177.265873 
L 334.480952 177.265873 
L 334.480952 146.278571 
L 318.987302 161.772222 
z
" style="fill:#fff5f0;stroke:#000000;"/>
    <path clip-path="url(#pd28355a76e)" d="M 303.493651 161.772222 
L 318.987302 161.772222 
L 334.480952 146.278571 
L 288 146.278571 
z
" style="fill:#fff5f0;stroke:#000000;"/>
    <path clip-path="url(#pd28355a76e)" d="M 334.480952 177.265873 
L 349.974603 177.265873 
L 349.974603 161.772222 
L 334.480952 146.278571 
z
" style="fill:#fff5f0;stroke:#000000;"/>
    <path clip-path="url(#pd28355a76e)" d="M 349.974603 177.265873 
L 365.468254 177.265873 
L 365.468254 161.772222 
L 349.974603 161.772222 
z
" style="fill:#fff5f0;stroke:#000000;"/>
    <path clip-path="url(#pd28355a76e)" d="M 365.468254 177.265873 
L 380.961905 177.265873 
L 380.961905 146.278571 
L 365.468254 161.772222 
z
" style="fill:#fff5f0;stroke:#000000;"/>
    <path clip-path="url(#pd28355a76e)" d="M 349.974603 161.772222 
L 365.468254 161.772222 
L 380.961905 146.278571 
L 334.480952 146.278571 
z
" style="fill:#fff5f0;stroke:#000000;"/>
    <path clip-path="url(#pd28355a76e)" d="M 195.038095 146.278571 
L 241.519048 146.278571 
L 241.519048 99.797619 
L 195.038095 99.797619 
z
" style="fill:#fff5f0;stroke:#000000;"/>
    <path clip-path="url(#pd28355a76e)" d="M 241.519048 146.278571 
L 288 146.278571 
L 288 99.797619 
L 241.519048 99.797619 
z
" style="fill:#fff5f0;stroke:#000000;"/>
    <path clip-path="url(#pd28355a76e)" d="M 288 146.278571 
L 334.480952 146.278571 
L 334.480952 99.797619 
L 288 99.797619 
z
" style="fill:#fff5f0;stroke:#000000;"/>
    <path clip-path="url(#pd28355a76e)" d="M 334.480952 146.278571 
L 380.961905 146.278571 
L 380.961905 99.797619 
L 334.480952 99.797619 
z
" style="fill:#fff5f0;stroke:#000000;"/>
    <path clip-path="url(#pd28355a76e)" d="M 195.038095 99.797619 
L 241.519048 99.797619 
L 241.519048 53.316667 
L 195.038095 53.316667 
z
" style="fill:#fff5f0;stroke:#000000;"/>
    <path clip-path="url(#pd28355a76e)" d="M 241.519048 99.797619 
L 288 99.797619 
L 288 53.316667 
L 241.519048 53.316667 
z
" style="fill:#fff5f0;stroke:#000000;"/>
    <path clip-path="url(#pd28355a76e)" d="M 288 99.797619 
L 334.480952 99.797619 
L 334.480952 53.316667 
L 288 53.316667 
z
" style="fill:#fff5f0;stroke:#000000;"/>
    <path clip-path="url(#pd28355a76e)" d="M 334.480952 99.797619 
L 380.961905 99.797619 
L 380.961905 53.316667 
L 334.480952 53.316667 
z
" style="fill:#fff5f0;stroke:#000000;"/>
   </g>
   <g id="patch_3">
    <path d="M 176.445714 411.22 
L 176.445714 20.78 
" style="fill:none;stroke:#000000;stroke-linecap:square;stroke-linejoin:miter;stroke-width:0.8;"/>
   </g>
   <g id="patch_4">
    <path d="M 399.554286 411.22 
L 399.554286 20.78 
" style="fill:none;stroke:#000000;stroke-linecap:square;stroke-linejoin:miter;stroke-width:0.8;"/>
   </g>
   <g id="patch_5">
    <path d="M 176.445714 411.22 
L 399.554286 411.22 
" style="fill:none;stroke:#000000;stroke-linecap:square;stroke-linejoin:miter;stroke-width:0.8;"/>
   </g>
   <g id="patch_6">
    <path d="M 176.445714 20.78 
L 399.554286 20.78 
" style="fill:none;stroke:#000000;stroke-linecap:square;stroke-linejoin:miter;stroke-width:0.8;"/>
   </g>
  </g>
 </g>
 <defs>
  <clipPath id="pd28355a76e">
   <rect height="390.44" width="223.108571" x="176.445714" y="20.78"/>
  </clipPath>
 </defs>
</svg>
