<?xml version="1.0" encoding="utf-8" standalone="no"?>
<!DOCTYPE svg PUBLIC "-//W3C//DTD SVG 1.1//EN"
  "http://www.w3.org/Graphics/SVG/1.1/DTD/svg11.dtd">
<!-- Created with matplotlib (https://matplotlib.org/) -->
<svg height="432pt" version="1.1" viewBox="0 0 576 432" width="576pt" xmlns="http://www.w3.org/2000/svg" xmlns:xlink="http://www.w3.org/1999/xlink">
 <metadata>
  <rdf:RDF xmlns:cc="http://creativecommons.org/ns#" xmlns:dc="http://purl.org/dc/elements/1.1/" xmlns:rdf="http://www.w3.org/1999/02/22-rdf-syntax-ns#">
   <cc:Work>
    <dc:type rdf:resource="http://purl.org/dc/dcmitype/StillImage"/>
    <dc:date>2020-12-19T14:52:52.165663</dc:date>
    <dc:format>image/svg+xml</dc:format>
    <dc:creator>
     <cc:Agent>
      <dc:title>Matplotlib v3.3.3, https://matplotlib.org/</dc:title>
     </cc:Agent>
    </dc:creator>
   </cc:Work>
  </rdf:RDF>
 </metadata>
 <defs>
  <style type="text/css">*{stroke-linecap:butt;stroke-linejoin:round;}</style>
 </defs>
 <g id="figure_1">
  <g id="patch_1">
   <path d="M 0 432
L 576 432
L 576 0
L 0 0
z
" style="fill:none;"/>
  </g>
  <g id="axes_1">
   <g id="patch_2">
    <path d="M 227.932308 411.22
L 348.067692 411.22
L 348.067692 20.78
L 227.932308 20.78
z
" style="fill:none;"/>
   </g>
   <g id="PatchCollection_1">
    <path clip-path="url(#p0f87ea0b6e)" d="M 237.94359 378.683333
L 262.971795 378.683333
L 262.971795 353.655128
L 237.94359 353.655128
z
" style="fill:#fff5f0;stroke:#000000;"/>
    <path clip-path="url(#p0f87ea0b6e)" d="M 262.971795 378.683333
L 288 378.683333
L 288 353.655128
L 262.971795 353.655128
z
" style="fill:#fff5f0;stroke:#000000;"/>
    <path clip-path="url(#p0f87ea0b6e)" d="M 288 378.683333
L 313.028205 378.683333
L 313.028205 353.655128
L 288 353.655128
z
" style="fill:#fff5f0;stroke:#000000;"/>
    <path clip-path="url(#p0f87ea0b6e)" d="M 313.028205 378.683333
L 338.05641 378.683333
L 338.05641 353.655128
L 313.028205 353.655128
z
" style="fill:#fff5f0;stroke:#000000;"/>
    <path clip-path="url(#p0f87ea0b6e)" d="M 237.94359 353.655128
L 262.971795 353.655128
L 262.971795 328.626923
L 237.94359 328.626923
z
" style="fill:#fff5f0;stroke:#000000;"/>
    <path clip-path="url(#p0f87ea0b6e)" d="M 262.971795 353.655128
L 288 353.655128
L 288 328.626923
L 262.971795 328.626923
z
" style="fill:#fff5f0;stroke:#000000;"/>
    <path clip-path="url(#p0f87ea0b6e)" d="M 288 353.655128
L 313.028205 353.655128
L 313.028205 328.626923
L 288 328.626923
z
" style="fill:#fff5f0;stroke:#000000;"/>
    <path clip-path="url(#p0f87ea0b6e)" d="M 313.028205 353.655128
L 338.05641 353.655128
L 338.05641 328.626923
L 313.028205 328.626923
z
" style="fill:#fff5f0;stroke:#000000;"/>
    <path clip-path="url(#p0f87ea0b6e)" d="M 237.94359 328.626923
L 262.971795 328.626923
L 262.971795 303.598718
L 237.94359 303.598718
z
" style="fill:#fff5f0;stroke:#000000;"/>
    <path clip-path="url(#p0f87ea0b6e)" d="M 262.971795 328.626923
L 288 328.626923
L 288 303.598718
L 262.971795 303.598718
z
" style="fill:#fff5f0;stroke:#000000;"/>
    <path clip-path="url(#p0f87ea0b6e)" d="M 288 328.626923
L 313.028205 328.626923
L 313.028205 303.598718
L 288 303.598718
z
" style="fill:#fff5f0;stroke:#000000;"/>
    <path clip-path="url(#p0f87ea0b6e)" d="M 313.028205 328.626923
L 338.05641 328.626923
L 338.05641 303.598718
L 313.028205 303.598718
z
" style="fill:#fff5f0;stroke:#000000;"/>
    <path clip-path="url(#p0f87ea0b6e)" d="M 237.94359 303.598718
L 262.971795 303.598718
L 262.971795 278.570513
L 237.94359 278.570513
z
" style="fill:#fff5f0;stroke:#000000;"/>
    <path clip-path="url(#p0f87ea0b6e)" d="M 262.971795 303.598718
L 288 303.598718
L 288 278.570513
L 262.971795 278.570513
z
" style="fill:#fff5f0;stroke:#000000;"/>
    <path clip-path="url(#p0f87ea0b6e)" d="M 288 303.598718
L 313.028205 303.598718
L 313.028205 278.570513
L 288 278.570513
z
" style="fill:#fff5f0;stroke:#000000;"/>
    <path clip-path="url(#p0f87ea0b6e)" d="M 313.028205 303.598718
L 338.05641 303.598718
L 338.05641 278.570513
L 313.028205 278.570513
z
" style="fill:#fff5f0;stroke:#000000;"/>
    <path clip-path="url(#p0f87ea0b6e)" d="M 237.94359 278.570513
L 262.971795 278.570513
L 262.971795 253.542308
L 237.94359 253.542308
z
" style="fill:#fff5f0;stroke:#000000;"/>
    <path clip-path="url(#p0f87ea0b6e)" d="M 262.971795 278.570513
L 288 278.570513
L 288 253.542308
L 262.971795 253.542308
z
" style="fill:#fff5f0;stroke:#000000;"/>
    <path clip-path="url(#p0f87ea0b6e)" d="M 288 278.570513
L 313.028205 278.570513
L 313.028205 253.542308
L 288 253.542308
z
" style="fill:#fff5f0;stroke:#000000;"/>
    <path clip-path="url(#p0f87ea0b6e)" d="M 313.028205 278.570513
L 338.05641 278.570513
L 338.05641 253.542308
L 313.028205 253.542308
z
" style="fill:#fff5f0;stroke:#000000;"/>
    <path clip-path="url(#p0f87ea0b6e)" d="M 237.94359 253.542308
L 262.971795 253.542308
L 254.62906 245.199573
L 246.286325 245.199573
z
" style="fill:#fff5f0;stroke:#000000;"/>
    <path clip-path="url(#p0f87ea0b6e)" d="M 262.971795 253.542308
L 262.971795 236.856838
L 254.62906 236.856838
L 254.62906 245.199573
z
" style="fill:#fff5f0;stroke:#000000;"/>
    <path clip-path="url(#p0f87ea0b6e)" d="M 246.286325 245.199573
L 254.62906 245.199573
L 254.62906 236.856838
L 246.286325 236.856838
z
" style="fill:#fff5f0;stroke:#000000;"/>
    <path clip-path="url(#p0f87ea0b6e)" d="M 237.94359 253.542308
L 246.286325 245.199573
L 246.286325 236.856838
L 237.94359 236.856838
z
" style="fill:#fff5f0;stroke:#000000;"/>
    <path clip-path="url(#p0f87ea0b6e)" d="M 262.971795 253.542308
L 288 253.542308
L 279.657265 245.199573
L 271.31453 245.199573
z
" style="fill:#fff5f0;stroke:#000000;"/>
    <path clip-path="url(#p0f87ea0b6e)" d="M 288 253.542308
L 288 236.856838
L 279.657265 236.856838
L 279.657265 245.199573
z
" style="fill:#fff5f0;stroke:#000000;"/>
    <path clip-path="url(#p0f87ea0b6e)" d="M 271.31453 245.199573
L 279.657265 245.199573
L 279.657265 236.856838
L 271.31453 236.856838
z
" style="fill:#fff5f0;stroke:#000000;"/>
    <path clip-path="url(#p0f87ea0b6e)" d="M 262.971795 253.542308
L 271.31453 245.199573
L 271.31453 236.856838
L 262.971795 236.856838
z
" style="fill:#fff5f0;stroke:#000000;"/>
    <path clip-path="url(#p0f87ea0b6e)" d="M 288 253.542308
L 313.028205 253.542308
L 304.68547 245.199573
L 296.342735 245.199573
z
" style="fill:#fff5f0;stroke:#000000;"/>
    <path clip-path="url(#p0f87ea0b6e)" d="M 313.028205 253.542308
L 313.028205 236.856838
L 304.68547 236.856838
L 304.68547 245.199573
z
" style="fill:#fff5f0;stroke:#000000;"/>
    <path clip-path="url(#p0f87ea0b6e)" d="M 296.342735 245.199573
L 304.68547 245.199573
L 304.68547 236.856838
L 296.342735 236.856838
z
" style="fill:#fff5f0;stroke:#000000;"/>
    <path clip-path="url(#p0f87ea0b6e)" d="M 288 253.542308
L 296.342735 245.199573
L 296.342735 236.856838
L 288 236.856838
z
" style="fill:#fff5f0;stroke:#000000;"/>
    <path clip-path="url(#p0f87ea0b6e)" d="M 313.028205 253.542308
L 338.05641 253.542308
L 329.713675 245.199573
L 321.37094 245.199573
z
" style="fill:#fff5f0;stroke:#000000;"/>
    <path clip-path="url(#p0f87ea0b6e)" d="M 338.05641 253.542308
L 338.05641 236.856838
L 329.713675 236.856838
L 329.713675 245.199573
z
" style="fill:#fff5f0;stroke:#000000;"/>
    <path clip-path="url(#p0f87ea0b6e)" d="M 321.37094 245.199573
L 329.713675 245.199573
L 329.713675 236.856838
L 321.37094 236.856838
z
" style="fill:#fff5f0;stroke:#000000;"/>
    <path clip-path="url(#p0f87ea0b6e)" d="M 313.028205 253.542308
L 321.37094 245.199573
L 321.37094 236.856838
L 313.028205 236.856838
z
" style="fill:#fff5f0;stroke:#000000;"/>
    <path clip-path="url(#p0f87ea0b6e)" d="M 237.94359 236.856838
L 246.286325 236.856838
L 246.286325 228.514103
L 237.94359 228.514103
z
" style="fill:#fb694a;stroke:#000000;"/>
    <path clip-path="url(#p0f87ea0b6e)" d="M 246.286325 236.856838
L 254.62906 236.856838
L 254.62906 228.514103
L 246.286325 228.514103
z
" style="fill:#fb694a;stroke:#000000;"/>
    <path clip-path="url(#p0f87ea0b6e)" d="M 254.62906 236.856838
L 262.971795 236.856838
L 262.971795 228.514103
L 254.62906 228.514103
z
" style="fill:#fff5f0;stroke:#000000;"/>
    <path clip-path="url(#p0f87ea0b6e)" d="M 262.971795 236.856838
L 271.31453 236.856838
L 271.31453 228.514103
L 262.971795 228.514103
z
" style="fill:#fff5f0;stroke:#000000;"/>
    <path clip-path="url(#p0f87ea0b6e)" d="M 271.31453 236.856838
L 279.657265 236.856838
L 279.657265 228.514103
L 271.31453 228.514103
z
" style="fill:#fff5f0;stroke:#000000;"/>
    <path clip-path="url(#p0f87ea0b6e)" d="M 279.657265 236.856838
L 288 236.856838
L 288 228.514103
L 279.657265 228.514103
z
" style="fill:#fff5f0;stroke:#000000;"/>
    <path clip-path="url(#p0f87ea0b6e)" d="M 288 236.856838
L 296.342735 236.856838
L 296.342735 228.514103
L 288 228.514103
z
" style="fill:#fff5f0;stroke:#000000;"/>
    <path clip-path="url(#p0f87ea0b6e)" d="M 296.342735 236.856838
L 304.68547 236.856838
L 304.68547 228.514103
L 296.342735 228.514103
z
" style="fill:#fff5f0;stroke:#000000;"/>
    <path clip-path="url(#p0f87ea0b6e)" d="M 304.68547 236.856838
L 313.028205 236.856838
L 313.028205 228.514103
L 304.68547 228.514103
z
" style="fill:#fff5f0;stroke:#000000;"/>
    <path clip-path="url(#p0f87ea0b6e)" d="M 313.028205 236.856838
L 321.37094 236.856838
L 321.37094 228.514103
L 313.028205 228.514103
z
" style="fill:#fb694a;stroke:#000000;"/>
    <path clip-path="url(#p0f87ea0b6e)" d="M 321.37094 236.856838
L 329.713675 236.856838
L 329.713675 228.514103
L 321.37094 228.514103
z
" style="fill:#fb694a;stroke:#000000;"/>
    <path clip-path="url(#p0f87ea0b6e)" d="M 329.713675 236.856838
L 338.05641 236.856838
L 338.05641 228.514103
L 329.713675 228.514103
z
" style="fill:#fb694a;stroke:#000000;"/>
    <path clip-path="url(#p0f87ea0b6e)" d="M 237.94359 228.514103
L 246.286325 228.514103
L 246.286325 220.171368
L 237.94359 220.171368
z
" style="fill:#fb694a;stroke:#000000;"/>
    <path clip-path="url(#p0f87ea0b6e)" d="M 246.286325 228.514103
L 254.62906 228.514103
L 254.62906 220.171368
L 246.286325 220.171368
z
" style="fill:#fb694a;stroke:#000000;"/>
    <path clip-path="url(#p0f87ea0b6e)" d="M 254.62906 228.514103
L 262.971795 228.514103
L 262.971795 220.171368
L 254.62906 220.171368
z
" style="fill:#fff5f0;stroke:#000000;"/>
    <path clip-path="url(#p0f87ea0b6e)" d="M 262.971795 228.514103
L 271.31453 228.514103
L 271.31453 220.171368
L 262.971795 220.171368
z
" style="fill:#fff5f0;stroke:#000000;"/>
    <path clip-path="url(#p0f87ea0b6e)" d="M 271.31453 228.514103
L 279.657265 228.514103
L 279.657265 220.171368
L 271.31453 220.171368
z
" style="fill:#fff5f0;stroke:#000000;"/>
    <path clip-path="url(#p0f87ea0b6e)" d="M 279.657265 228.514103
L 288 228.514103
L 288 220.171368
L 279.657265 220.171368
z
" style="fill:#fff5f0;stroke:#000000;"/>
    <path clip-path="url(#p0f87ea0b6e)" d="M 288 228.514103
L 296.342735 228.514103
L 296.342735 220.171368
L 288 220.171368
z
" style="fill:#fff5f0;stroke:#000000;"/>
    <path clip-path="url(#p0f87ea0b6e)" d="M 296.342735 228.514103
L 304.68547 228.514103
L 304.68547 220.171368
L 296.342735 220.171368
z
" style="fill:#fff5f0;stroke:#000000;"/>
    <path clip-path="url(#p0f87ea0b6e)" d="M 304.68547 228.514103
L 313.028205 228.514103
L 313.028205 220.171368
L 304.68547 220.171368
z
" style="fill:#fff5f0;stroke:#000000;"/>
    <path clip-path="url(#p0f87ea0b6e)" d="M 313.028205 228.514103
L 321.37094 228.514103
L 321.37094 220.171368
L 313.028205 220.171368
z
" style="fill:#fb694a;stroke:#000000;"/>
    <path clip-path="url(#p0f87ea0b6e)" d="M 321.37094 228.514103
L 329.713675 228.514103
L 329.713675 220.171368
L 321.37094 220.171368
z
" style="fill:#fb694a;stroke:#000000;"/>
    <path clip-path="url(#p0f87ea0b6e)" d="M 329.713675 228.514103
L 338.05641 228.514103
L 338.05641 220.171368
L 329.713675 220.171368
z
" style="fill:#fb694a;stroke:#000000;"/>
    <path clip-path="url(#p0f87ea0b6e)" d="M 237.94359 220.171368
L 246.286325 220.171368
L 246.286325 211.828632
L 237.94359 211.828632
z
" style="fill:#fb694a;stroke:#000000;"/>
    <path clip-path="url(#p0f87ea0b6e)" d="M 246.286325 220.171368
L 254.62906 220.171368
L 254.62906 211.828632
L 246.286325 211.828632
z
" style="fill:#fb694a;stroke:#000000;"/>
    <path clip-path="url(#p0f87ea0b6e)" d="M 254.62906 220.171368
L 262.971795 220.171368
L 262.971795 211.828632
L 254.62906 211.828632
z
" style="fill:#fff5f0;stroke:#000000;"/>
    <path clip-path="url(#p0f87ea0b6e)" d="M 262.971795 220.171368
L 271.31453 220.171368
L 271.31453 211.828632
L 262.971795 211.828632
z
" style="fill:#fff5f0;stroke:#000000;"/>
    <path clip-path="url(#p0f87ea0b6e)" d="M 271.31453 220.171368
L 279.657265 220.171368
L 279.657265 211.828632
L 271.31453 211.828632
z
" style="fill:#fff5f0;stroke:#000000;"/>
    <path clip-path="url(#p0f87ea0b6e)" d="M 279.657265 220.171368
L 288 220.171368
L 288 211.828632
L 279.657265 211.828632
z
" style="fill:#fff5f0;stroke:#000000;"/>
    <path clip-path="url(#p0f87ea0b6e)" d="M 288 220.171368
L 296.342735 220.171368
L 296.342735 211.828632
L 288 211.828632
z
" style="fill:#fff5f0;stroke:#000000;"/>
    <path clip-path="url(#p0f87ea0b6e)" d="M 296.342735 220.171368
L 304.68547 220.171368
L 304.68547 211.828632
L 296.342735 211.828632
z
" style="fill:#fff5f0;stroke:#000000;"/>
    <path clip-path="url(#p0f87ea0b6e)" d="M 304.68547 220.171368
L 313.028205 220.171368
L 313.028205 211.828632
L 304.68547 211.828632
z
" style="fill:#fff5f0;stroke:#000000;"/>
    <path clip-path="url(#p0f87ea0b6e)" d="M 313.028205 220.171368
L 321.37094 220.171368
L 321.37094 211.828632
L 313.028205 211.828632
z
" style="fill:#fb694a;stroke:#000000;"/>
    <path clip-path="url(#p0f87ea0b6e)" d="M 321.37094 220.171368
L 329.713675 220.171368
L 329.713675 211.828632
L 321.37094 211.828632
z
" style="fill:#fb694a;stroke:#000000;"/>
    <path clip-path="url(#p0f87ea0b6e)" d="M 329.713675 220.171368
L 338.05641 220.171368
L 338.05641 211.828632
L 329.713675 211.828632
z
" style="fill:#67000d;stroke:#000000;"/>
    <path clip-path="url(#p0f87ea0b6e)" d="M 237.94359 211.828632
L 246.286325 211.828632
L 246.286325 203.485897
L 237.94359 203.485897
z
" style="fill:#fb694a;stroke:#000000;"/>
    <path clip-path="url(#p0f87ea0b6e)" d="M 246.286325 211.828632
L 254.62906 211.828632
L 254.62906 203.485897
L 246.286325 203.485897
z
" style="fill:#fb694a;stroke:#000000;"/>
    <path clip-path="url(#p0f87ea0b6e)" d="M 254.62906 211.828632
L 262.971795 211.828632
L 262.971795 203.485897
L 254.62906 203.485897
z
" style="fill:#fff5f0;stroke:#000000;"/>
    <path clip-path="url(#p0f87ea0b6e)" d="M 262.971795 211.828632
L 271.31453 211.828632
L 271.31453 203.485897
L 262.971795 203.485897
z
" style="fill:#fff5f0;stroke:#000000;"/>
    <path clip-path="url(#p0f87ea0b6e)" d="M 271.31453 211.828632
L 279.657265 211.828632
L 279.657265 203.485897
L 271.31453 203.485897
z
" style="fill:#fff5f0;stroke:#000000;"/>
    <path clip-path="url(#p0f87ea0b6e)" d="M 279.657265 211.828632
L 288 211.828632
L 288 203.485897
L 279.657265 203.485897
z
" style="fill:#fff5f0;stroke:#000000;"/>
    <path clip-path="url(#p0f87ea0b6e)" d="M 288 211.828632
L 296.342735 211.828632
L 296.342735 203.485897
L 288 203.485897
z
" style="fill:#fff5f0;stroke:#000000;"/>
    <path clip-path="url(#p0f87ea0b6e)" d="M 296.342735 211.828632
L 304.68547 211.828632
L 304.68547 203.485897
L 296.342735 203.485897
z
" style="fill:#fff5f0;stroke:#000000;"/>
    <path clip-path="url(#p0f87ea0b6e)" d="M 304.68547 211.828632
L 313.028205 211.828632
L 313.028205 203.485897
L 304.68547 203.485897
z
" style="fill:#fff5f0;stroke:#000000;"/>
    <path clip-path="url(#p0f87ea0b6e)" d="M 313.028205 211.828632
L 321.37094 211.828632
L 321.37094 203.485897
L 313.028205 203.485897
z
" style="fill:#fb694a;stroke:#000000;"/>
    <path clip-path="url(#p0f87ea0b6e)" d="M 321.37094 211.828632
L 329.713675 211.828632
L 329.713675 203.485897
L 321.37094 203.485897
z
" style="fill:#fb694a;stroke:#000000;"/>
    <path clip-path="url(#p0f87ea0b6e)" d="M 329.713675 211.828632
L 338.05641 211.828632
L 338.05641 203.485897
L 329.713675 203.485897
z
" style="fill:#fb694a;stroke:#000000;"/>
    <path clip-path="url(#p0f87ea0b6e)" d="M 237.94359 203.485897
L 246.286325 203.485897
L 246.286325 195.143162
L 237.94359 195.143162
z
" style="fill:#fb694a;stroke:#000000;"/>
    <path clip-path="url(#p0f87ea0b6e)" d="M 246.286325 203.485897
L 254.62906 203.485897
L 254.62906 195.143162
L 246.286325 195.143162
z
" style="fill:#fb694a;stroke:#000000;"/>
    <path clip-path="url(#p0f87ea0b6e)" d="M 254.62906 203.485897
L 262.971795 203.485897
L 262.971795 195.143162
L 254.62906 195.143162
z
" style="fill:#fff5f0;stroke:#000000;"/>
    <path clip-path="url(#p0f87ea0b6e)" d="M 262.971795 203.485897
L 271.31453 203.485897
L 271.31453 195.143162
L 262.971795 195.143162
z
" style="fill:#fff5f0;stroke:#000000;"/>
    <path clip-path="url(#p0f87ea0b6e)" d="M 271.31453 203.485897
L 279.657265 203.485897
L 279.657265 195.143162
L 271.31453 195.143162
z
" style="fill:#fff5f0;stroke:#000000;"/>
    <path clip-path="url(#p0f87ea0b6e)" d="M 279.657265 203.485897
L 288 203.485897
L 288 195.143162
L 279.657265 195.143162
z
" style="fill:#fff5f0;stroke:#000000;"/>
    <path clip-path="url(#p0f87ea0b6e)" d="M 288 203.485897
L 296.342735 203.485897
L 296.342735 195.143162
L 288 195.143162
z
" style="fill:#fff5f0;stroke:#000000;"/>
    <path clip-path="url(#p0f87ea0b6e)" d="M 296.342735 203.485897
L 304.68547 203.485897
L 304.68547 195.143162
L 296.342735 195.143162
z
" style="fill:#fff5f0;stroke:#000000;"/>
    <path clip-path="url(#p0f87ea0b6e)" d="M 304.68547 203.485897
L 313.028205 203.485897
L 313.028205 195.143162
L 304.68547 195.143162
z
" style="fill:#fff5f0;stroke:#000000;"/>
    <path clip-path="url(#p0f87ea0b6e)" d="M 313.028205 203.485897
L 321.37094 203.485897
L 321.37094 195.143162
L 313.028205 195.143162
z
" style="fill:#fb694a;stroke:#000000;"/>
    <path clip-path="url(#p0f87ea0b6e)" d="M 321.37094 203.485897
L 329.713675 203.485897
L 329.713675 195.143162
L 321.37094 195.143162
z
" style="fill:#fb694a;stroke:#000000;"/>
    <path clip-path="url(#p0f87ea0b6e)" d="M 329.713675 203.485897
L 338.05641 203.485897
L 338.05641 195.143162
L 329.713675 195.143162
z
" style="fill:#fb694a;stroke:#000000;"/>
    <path clip-path="url(#p0f87ea0b6e)" d="M 237.94359 195.143162
L 246.286325 195.143162
L 246.286325 186.800427
L 237.94359 178.457692
z
" style="fill:#fff5f0;stroke:#000000;"/>
    <path clip-path="url(#p0f87ea0b6e)" d="M 246.286325 195.143162
L 254.62906 195.143162
L 254.62906 186.800427
L 246.286325 186.800427
z
" style="fill:#fff5f0;stroke:#000000;"/>
    <path clip-path="url(#p0f87ea0b6e)" d="M 254.62906 195.143162
L 262.971795 195.143162
L 262.971795 178.457692
L 254.62906 186.800427
z
" style="fill:#fff5f0;stroke:#000000;"/>
    <path clip-path="url(#p0f87ea0b6e)" d="M 246.286325 186.800427
L 254.62906 186.800427
L 262.971795 178.457692
L 237.94359 178.457692
z
" style="fill:#fff5f0;stroke:#000000;"/>
    <path clip-path="url(#p0f87ea0b6e)" d="M 262.971795 195.143162
L 271.31453 195.143162
L 271.31453 186.800427
L 262.971795 178.457692
z
" style="fill:#fff5f0;stroke:#000000;"/>
    <path clip-path="url(#p0f87ea0b6e)" d="M 271.31453 195.143162
L 279.657265 195.143162
L 279.657265 186.800427
L 271.31453 186.800427
z
" style="fill:#fff5f0;stroke:#000000;"/>
    <path clip-path="url(#p0f87ea0b6e)" d="M 279.657265 195.143162
L 288 195.143162
L 288 178.457692
L 279.657265 186.800427
z
" style="fill:#fff5f0;stroke:#000000;"/>
    <path clip-path="url(#p0f87ea0b6e)" d="M 271.31453 186.800427
L 279.657265 186.800427
L 288 178.457692
L 262.971795 178.457692
z
" style="fill:#fff5f0;stroke:#000000;"/>
    <path clip-path="url(#p0f87ea0b6e)" d="M 288 195.143162
L 296.342735 195.143162
L 296.342735 186.800427
L 288 178.457692
z
" style="fill:#fff5f0;stroke:#000000;"/>
    <path clip-path="url(#p0f87ea0b6e)" d="M 296.342735 195.143162
L 304.68547 195.143162
L 304.68547 186.800427
L 296.342735 186.800427
z
" style="fill:#fff5f0;stroke:#000000;"/>
    <path clip-path="url(#p0f87ea0b6e)" d="M 304.68547 195.143162
L 313.028205 195.143162
L 313.028205 178.457692
L 304.68547 186.800427
z
" style="fill:#fff5f0;stroke:#000000;"/>
    <path clip-path="url(#p0f87ea0b6e)" d="M 296.342735 186.800427
L 304.68547 186.800427
L 313.028205 178.457692
L 288 178.457692
z
" style="fill:#fff5f0;stroke:#000000;"/>
    <path clip-path="url(#p0f87ea0b6e)" d="M 313.028205 195.143162
L 321.37094 195.143162
L 321.37094 186.800427
L 313.028205 178.457692
z
" style="fill:#fff5f0;stroke:#000000;"/>
    <path clip-path="url(#p0f87ea0b6e)" d="M 321.37094 195.143162
L 329.713675 195.143162
L 329.713675 186.800427
L 321.37094 186.800427
z
" style="fill:#fff5f0;stroke:#000000;"/>
    <path clip-path="url(#p0f87ea0b6e)" d="M 329.713675 195.143162
L 338.05641 195.143162
L 338.05641 178.457692
L 329.713675 186.800427
z
" style="fill:#fff5f0;stroke:#000000;"/>
    <path clip-path="url(#p0f87ea0b6e)" d="M 321.37094 186.800427
L 329.713675 186.800427
L 338.05641 178.457692
L 313.028205 178.457692
z
" style="fill:#fff5f0;stroke:#000000;"/>
    <path clip-path="url(#p0f87ea0b6e)" d="M 237.94359 178.457692
L 262.971795 178.457692
L 262.971795 153.429487
L 237.94359 153.429487
z
" style="fill:#fff5f0;stroke:#000000;"/>
    <path clip-path="url(#p0f87ea0b6e)" d="M 262.971795 178.457692
L 288 178.457692
L 288 153.429487
L 262.971795 153.429487
z
" style="fill:#fff5f0;stroke:#000000;"/>
    <path clip-path="url(#p0f87ea0b6e)" d="M 288 178.457692
L 313.028205 178.457692
L 313.028205 153.429487
L 288 153.429487
z
" style="fill:#fff5f0;stroke:#000000;"/>
    <path clip-path="url(#p0f87ea0b6e)" d="M 313.028205 178.457692
L 338.05641 178.457692
L 338.05641 153.429487
L 313.028205 153.429487
z
" style="fill:#fff5f0;stroke:#000000;"/>
    <path clip-path="url(#p0f87ea0b6e)" d="M 237.94359 153.429487
L 262.971795 153.429487
L 262.971795 128.401282
L 237.94359 128.401282
z
" style="fill:#fff5f0;stroke:#000000;"/>
    <path clip-path="url(#p0f87ea0b6e)" d="M 262.971795 153.429487
L 288 153.429487
L 288 128.401282
L 262.971795 128.401282
z
" style="fill:#fff5f0;stroke:#000000;"/>
    <path clip-path="url(#p0f87ea0b6e)" d="M 288 153.429487
L 313.028205 153.429487
L 313.028205 128.401282
L 288 128.401282
z
" style="fill:#fff5f0;stroke:#000000;"/>
    <path clip-path="url(#p0f87ea0b6e)" d="M 313.028205 153.429487
L 338.05641 153.429487
L 338.05641 128.401282
L 313.028205 128.401282
z
" style="fill:#fff5f0;stroke:#000000;"/>
    <path clip-path="url(#p0f87ea0b6e)" d="M 237.94359 128.401282
L 262.971795 128.401282
L 262.971795 103.373077
L 237.94359 103.373077
z
" style="fill:#fff5f0;stroke:#000000;"/>
    <path clip-path="url(#p0f87ea0b6e)" d="M 262.971795 128.401282
L 288 128.401282
L 288 103.373077
L 262.971795 103.373077
z
" style="fill:#fff5f0;stroke:#000000;"/>
    <path clip-path="url(#p0f87ea0b6e)" d="M 288 128.401282
L 313.028205 128.401282
L 313.028205 103.373077
L 288 103.373077
z
" style="fill:#fff5f0;stroke:#000000;"/>
    <path clip-path="url(#p0f87ea0b6e)" d="M 313.028205 128.401282
L 338.05641 128.401282
L 338.05641 103.373077
L 313.028205 103.373077
z
" style="fill:#fff5f0;stroke:#000000;"/>
    <path clip-path="url(#p0f87ea0b6e)" d="M 237.94359 103.373077
L 262.971795 103.373077
L 262.971795 78.344872
L 237.94359 78.344872
z
" style="fill:#fff5f0;stroke:#000000;"/>
    <path clip-path="url(#p0f87ea0b6e)" d="M 262.971795 103.373077
L 288 103.373077
L 288 78.344872
L 262.971795 78.344872
z
" style="fill:#fff5f0;stroke:#000000;"/>
    <path clip-path="url(#p0f87ea0b6e)" d="M 288 103.373077
L 313.028205 103.373077
L 313.028205 78.344872
L 288 78.344872
z
" style="fill:#fff5f0;stroke:#000000;"/>
    <path clip-path="url(#p0f87ea0b6e)" d="M 313.028205 103.373077
L 338.05641 103.373077
L 338.05641 78.344872
L 313.028205 78.344872
z
" style="fill:#fff5f0;stroke:#000000;"/>
    <path clip-path="url(#p0f87ea0b6e)" d="M 237.94359 78.344872
L 262.971795 78.344872
L 262.971795 53.316667
L 237.94359 53.316667
z
" style="fill:#fff5f0;stroke:#000000;"/>
    <path clip-path="url(#p0f87ea0b6e)" d="M 262.971795 78.344872
L 288 78.344872
L 288 53.316667
L 262.971795 53.316667
z
" style="fill:#fff5f0;stroke:#000000;"/>
    <path clip-path="url(#p0f87ea0b6e)" d="M 288 78.344872
L 313.028205 78.344872
L 313.028205 53.316667
L 288 53.316667
z
" style="fill:#fff5f0;stroke:#000000;"/>
    <path clip-path="url(#p0f87ea0b6e)" d="M 313.028205 78.344872
L 338.05641 78.344872
L 338.05641 53.316667
L 313.028205 53.316667
z
" style="fill:#fff5f0;stroke:#000000;"/>
   </g>
   <g id="patch_3">
    <path d="M 227.932308 411.22
L 227.932308 20.78
" style="fill:none;stroke:#000000;stroke-linecap:square;stroke-linejoin:miter;stroke-width:0.8;"/>
   </g>
   <g id="patch_4">
    <path d="M 348.067692 411.22
L 348.067692 20.78
" style="fill:none;stroke:#000000;stroke-linecap:square;stroke-linejoin:miter;stroke-width:0.8;"/>
   </g>
   <g id="patch_5">
    <path d="M 227.932308 411.22
L 348.067692 411.22
" style="fill:none;stroke:#000000;stroke-linecap:square;stroke-linejoin:miter;stroke-width:0.8;"/>
   </g>
   <g id="patch_6">
    <path d="M 227.932308 20.78
L 348.067692 20.78
" style="fill:none;stroke:#000000;stroke-linecap:square;stroke-linejoin:miter;stroke-width:0.8;"/>
   </g>
  </g>
 </g>
 <defs>
  <clipPath id="p0f87ea0b6e">
   <rect height="390.44" width="120.135385" x="227.932308" y="20.78"/>
  </clipPath>
 </defs>
</svg>
