<?xml version="1.0" encoding="utf-8" standalone="no"?>
<!DOCTYPE svg PUBLIC "-//W3C//DTD SVG 1.1//EN"
  "http://www.w3.org/Graphics/SVG/1.1/DTD/svg11.dtd">
<!-- Created with matplotlib (https://matplotlib.org/) -->
<svg height="720pt" version="1.1" viewBox="0 0 720 720" width="720pt" xmlns="http://www.w3.org/2000/svg" xmlns:xlink="http://www.w3.org/1999/xlink">
 <defs>
  <style type="text/css">
*{stroke-linecap:butt;stroke-linejoin:round;}
  </style>
 </defs>
 <g id="figure_1">
  <g id="patch_1">
   <path d="M 0 720 
L 720 720 
L 720 0 
L 0 0 
z
" style="fill:none;"/>
  </g>
  <g id="axes_1">
   <g id="patch_2">
    <path d="M 110.209091 702.72 
L 306.049091 702.72 
L 306.049091 17.28 
L 110.209091 17.28 
z
" style="fill:none;"/>
   </g>
   <g id="PatchCollection_1">
    <path clip-path="url(#pd9562cdf1e)" d="M 126.529091 645.6 
L 208.129091 645.6 
L 208.129091 564 
L 126.529091 564 
z
" style="fill:#000080;stroke:#000000;"/>
    <path clip-path="url(#pd9562cdf1e)" d="M 208.129091 645.6 
L 289.729091 645.6 
L 289.729091 564 
L 208.129091 564 
z
" style="fill:#000092;stroke:#000000;"/>
    <path clip-path="url(#pd9562cdf1e)" d="M 126.529091 564 
L 208.129091 564 
L 208.129091 482.4 
L 126.529091 482.4 
z
" style="fill:#0000a8;stroke:#000000;"/>
    <path clip-path="url(#pd9562cdf1e)" d="M 208.129091 564 
L 289.729091 564 
L 289.729091 482.4 
L 208.129091 482.4 
z
" style="fill:#0000bf;stroke:#000000;"/>
    <path clip-path="url(#pd9562cdf1e)" d="M 126.529091 482.4 
L 208.129091 482.4 
L 180.929091 455.2 
L 153.729091 455.2 
z
" style="fill:#0000d6;stroke:#000000;"/>
    <path clip-path="url(#pd9562cdf1e)" d="M 208.129091 482.4 
L 208.129091 428 
L 180.929091 428 
L 180.929091 455.2 
z
" style="fill:#0000ed;stroke:#000000;"/>
    <path clip-path="url(#pd9562cdf1e)" d="M 153.729091 455.2 
L 180.929091 455.2 
L 180.929091 428 
L 153.729091 428 
z
" style="fill:#0000ff;stroke:#000000;"/>
    <path clip-path="url(#pd9562cdf1e)" d="M 126.529091 482.4 
L 153.729091 455.2 
L 153.729091 428 
L 126.529091 428 
z
" style="fill:#0004ff;stroke:#000000;"/>
    <path clip-path="url(#pd9562cdf1e)" d="M 208.129091 482.4 
L 289.729091 482.4 
L 262.529091 455.2 
L 235.329091 455.2 
z
" style="fill:#0018ff;stroke:#000000;"/>
    <path clip-path="url(#pd9562cdf1e)" d="M 289.729091 482.4 
L 289.729091 428 
L 262.529091 428 
L 262.529091 455.2 
z
" style="fill:#002cff;stroke:#000000;"/>
    <path clip-path="url(#pd9562cdf1e)" d="M 235.329091 455.2 
L 262.529091 455.2 
L 262.529091 428 
L 235.329091 428 
z
" style="fill:#0040ff;stroke:#000000;"/>
    <path clip-path="url(#pd9562cdf1e)" d="M 208.129091 482.4 
L 235.329091 455.2 
L 235.329091 428 
L 208.129091 428 
z
" style="fill:#0054ff;stroke:#000000;"/>
    <path clip-path="url(#pd9562cdf1e)" d="M 126.529091 428 
L 153.729091 428 
L 153.729091 400.8 
L 126.529091 400.8 
z
" style="fill:#0064ff;stroke:#000000;"/>
    <path clip-path="url(#pd9562cdf1e)" d="M 153.729091 428 
L 180.929091 428 
L 180.929091 400.8 
L 153.729091 400.8 
z
" style="fill:#0078ff;stroke:#000000;"/>
    <path clip-path="url(#pd9562cdf1e)" d="M 180.929091 428 
L 208.129091 428 
L 208.129091 400.8 
L 180.929091 400.8 
z
" style="fill:#008cff;stroke:#000000;"/>
    <path clip-path="url(#pd9562cdf1e)" d="M 208.129091 428 
L 235.329091 428 
L 235.329091 400.8 
L 208.129091 400.8 
z
" style="fill:#00a0ff;stroke:#000000;"/>
    <path clip-path="url(#pd9562cdf1e)" d="M 235.329091 428 
L 262.529091 428 
L 262.529091 400.8 
L 235.329091 400.8 
z
" style="fill:#00b4ff;stroke:#000000;"/>
    <path clip-path="url(#pd9562cdf1e)" d="M 262.529091 428 
L 289.729091 428 
L 289.729091 400.8 
L 262.529091 400.8 
z
" style="fill:#00c8ff;stroke:#000000;"/>
    <path clip-path="url(#pd9562cdf1e)" d="M 126.529091 400.8 
L 153.729091 400.8 
L 153.729091 373.6 
L 126.529091 373.6 
z
" style="fill:#00d8ff;stroke:#000000;"/>
    <path clip-path="url(#pd9562cdf1e)" d="M 153.729091 400.8 
L 180.929091 400.8 
L 180.929091 373.6 
L 153.729091 373.6 
z
" style="fill:#06ecf1;stroke:#000000;"/>
    <path clip-path="url(#pd9562cdf1e)" d="M 180.929091 400.8 
L 208.129091 400.8 
L 208.129091 373.6 
L 180.929091 373.6 
z
" style="fill:#16ffe1;stroke:#000000;"/>
    <path clip-path="url(#pd9562cdf1e)" d="M 208.129091 400.8 
L 235.329091 400.8 
L 235.329091 373.6 
L 208.129091 373.6 
z
" style="fill:#26ffd1;stroke:#000000;"/>
    <path clip-path="url(#pd9562cdf1e)" d="M 235.329091 400.8 
L 262.529091 400.8 
L 262.529091 373.6 
L 235.329091 373.6 
z
" style="fill:#36ffc1;stroke:#000000;"/>
    <path clip-path="url(#pd9562cdf1e)" d="M 262.529091 400.8 
L 289.729091 400.8 
L 289.729091 373.6 
L 262.529091 373.6 
z
" style="fill:#46ffb1;stroke:#000000;"/>
    <path clip-path="url(#pd9562cdf1e)" d="M 126.529091 373.6 
L 153.729091 373.6 
L 153.729091 346.4 
L 126.529091 346.4 
z
" style="fill:#53ffa4;stroke:#000000;"/>
    <path clip-path="url(#pd9562cdf1e)" d="M 153.729091 373.6 
L 180.929091 373.6 
L 180.929091 346.4 
L 153.729091 346.4 
z
" style="fill:#63ff94;stroke:#000000;"/>
    <path clip-path="url(#pd9562cdf1e)" d="M 180.929091 373.6 
L 208.129091 373.6 
L 208.129091 346.4 
L 180.929091 346.4 
z
" style="fill:#73ff83;stroke:#000000;"/>
    <path clip-path="url(#pd9562cdf1e)" d="M 208.129091 373.6 
L 235.329091 373.6 
L 235.329091 346.4 
L 208.129091 346.4 
z
" style="fill:#83ff73;stroke:#000000;"/>
    <path clip-path="url(#pd9562cdf1e)" d="M 235.329091 373.6 
L 262.529091 373.6 
L 262.529091 346.4 
L 235.329091 346.4 
z
" style="fill:#94ff63;stroke:#000000;"/>
    <path clip-path="url(#pd9562cdf1e)" d="M 262.529091 373.6 
L 289.729091 373.6 
L 289.729091 346.4 
L 262.529091 346.4 
z
" style="fill:#a4ff53;stroke:#000000;"/>
    <path clip-path="url(#pd9562cdf1e)" d="M 126.529091 346.4 
L 153.729091 346.4 
L 153.729091 319.2 
L 126.529091 319.2 
z
" style="fill:#b1ff46;stroke:#000000;"/>
    <path clip-path="url(#pd9562cdf1e)" d="M 153.729091 346.4 
L 180.929091 346.4 
L 180.929091 319.2 
L 153.729091 319.2 
z
" style="fill:#c1ff36;stroke:#000000;"/>
    <path clip-path="url(#pd9562cdf1e)" d="M 180.929091 346.4 
L 208.129091 346.4 
L 208.129091 319.2 
L 180.929091 319.2 
z
" style="fill:#d1ff26;stroke:#000000;"/>
    <path clip-path="url(#pd9562cdf1e)" d="M 208.129091 346.4 
L 235.329091 346.4 
L 235.329091 319.2 
L 208.129091 319.2 
z
" style="fill:#e1ff16;stroke:#000000;"/>
    <path clip-path="url(#pd9562cdf1e)" d="M 235.329091 346.4 
L 262.529091 346.4 
L 262.529091 319.2 
L 235.329091 319.2 
z
" style="fill:#f1fc06;stroke:#000000;"/>
    <path clip-path="url(#pd9562cdf1e)" d="M 262.529091 346.4 
L 289.729091 346.4 
L 289.729091 319.2 
L 262.529091 319.2 
z
" style="fill:#ffea00;stroke:#000000;"/>
    <path clip-path="url(#pd9562cdf1e)" d="M 126.529091 319.2 
L 153.729091 319.2 
L 153.729091 292 
L 126.529091 292 
z
" style="fill:#ffdb00;stroke:#000000;"/>
    <path clip-path="url(#pd9562cdf1e)" d="M 153.729091 319.2 
L 180.929091 319.2 
L 180.929091 292 
L 153.729091 292 
z
" style="fill:#ffc800;stroke:#000000;"/>
    <path clip-path="url(#pd9562cdf1e)" d="M 180.929091 319.2 
L 208.129091 319.2 
L 208.129091 292 
L 180.929091 292 
z
" style="fill:#ffb600;stroke:#000000;"/>
    <path clip-path="url(#pd9562cdf1e)" d="M 208.129091 319.2 
L 235.329091 319.2 
L 235.329091 292 
L 208.129091 292 
z
" style="fill:#ffa300;stroke:#000000;"/>
    <path clip-path="url(#pd9562cdf1e)" d="M 235.329091 319.2 
L 262.529091 319.2 
L 262.529091 292 
L 235.329091 292 
z
" style="fill:#ff9100;stroke:#000000;"/>
    <path clip-path="url(#pd9562cdf1e)" d="M 262.529091 319.2 
L 289.729091 319.2 
L 289.729091 292 
L 262.529091 292 
z
" style="fill:#ff7e00;stroke:#000000;"/>
    <path clip-path="url(#pd9562cdf1e)" d="M 126.529091 292 
L 153.729091 292 
L 153.729091 264.8 
L 126.529091 237.6 
z
" style="fill:#ff6f00;stroke:#000000;"/>
    <path clip-path="url(#pd9562cdf1e)" d="M 153.729091 292 
L 180.929091 292 
L 180.929091 264.8 
L 153.729091 264.8 
z
" style="fill:#ff5d00;stroke:#000000;"/>
    <path clip-path="url(#pd9562cdf1e)" d="M 180.929091 292 
L 208.129091 292 
L 208.129091 237.6 
L 180.929091 264.8 
z
" style="fill:#ff4a00;stroke:#000000;"/>
    <path clip-path="url(#pd9562cdf1e)" d="M 153.729091 264.8 
L 180.929091 264.8 
L 208.129091 237.6 
L 126.529091 237.6 
z
" style="fill:#ff3800;stroke:#000000;"/>
    <path clip-path="url(#pd9562cdf1e)" d="M 208.129091 292 
L 235.329091 292 
L 235.329091 264.8 
L 208.129091 237.6 
z
" style="fill:#ff2500;stroke:#000000;"/>
    <path clip-path="url(#pd9562cdf1e)" d="M 235.329091 292 
L 262.529091 292 
L 262.529091 264.8 
L 235.329091 264.8 
z
" style="fill:#ff1300;stroke:#000000;"/>
    <path clip-path="url(#pd9562cdf1e)" d="M 262.529091 292 
L 289.729091 292 
L 289.729091 237.6 
L 262.529091 264.8 
z
" style="fill:#ed0400;stroke:#000000;"/>
    <path clip-path="url(#pd9562cdf1e)" d="M 235.329091 264.8 
L 262.529091 264.8 
L 289.729091 237.6 
L 208.129091 237.6 
z
" style="fill:#d60000;stroke:#000000;"/>
    <path clip-path="url(#pd9562cdf1e)" d="M 126.529091 237.6 
L 208.129091 237.6 
L 208.129091 156 
L 126.529091 156 
z
" style="fill:#bf0000;stroke:#000000;"/>
    <path clip-path="url(#pd9562cdf1e)" d="M 208.129091 237.6 
L 289.729091 237.6 
L 289.729091 156 
L 208.129091 156 
z
" style="fill:#a80000;stroke:#000000;"/>
    <path clip-path="url(#pd9562cdf1e)" d="M 126.529091 156 
L 208.129091 156 
L 208.129091 74.4 
L 126.529091 74.4 
z
" style="fill:#920000;stroke:#000000;"/>
    <path clip-path="url(#pd9562cdf1e)" d="M 208.129091 156 
L 289.729091 156 
L 289.729091 74.4 
L 208.129091 74.4 
z
" style="fill:#800000;stroke:#000000;"/>
   </g>
   <g id="patch_3">
    <path d="M 110.209091 702.72 
L 110.209091 17.28 
" style="fill:none;stroke:#000000;stroke-linecap:square;stroke-linejoin:miter;stroke-width:0.8;"/>
   </g>
   <g id="patch_4">
    <path d="M 306.049091 702.72 
L 306.049091 17.28 
" style="fill:none;stroke:#000000;stroke-linecap:square;stroke-linejoin:miter;stroke-width:0.8;"/>
   </g>
   <g id="patch_5">
    <path d="M 110.209091 702.72 
L 306.049091 702.72 
" style="fill:none;stroke:#000000;stroke-linecap:square;stroke-linejoin:miter;stroke-width:0.8;"/>
   </g>
   <g id="patch_6">
    <path d="M 110.209091 17.28 
L 306.049091 17.28 
" style="fill:none;stroke:#000000;stroke-linecap:square;stroke-linejoin:miter;stroke-width:0.8;"/>
   </g>
   <g id="text_1">
    <!-- 0 -->
    <defs>
     <path d="M 31.78125 66.40625 
Q 24.171875 66.40625 20.328125 58.90625 
Q 16.5 51.421875 16.5 36.375 
Q 16.5 21.390625 20.328125 13.890625 
Q 24.171875 6.390625 31.78125 6.390625 
Q 39.453125 6.390625 43.28125 13.890625 
Q 47.125 21.390625 47.125 36.375 
Q 47.125 51.421875 43.28125 58.90625 
Q 39.453125 66.40625 31.78125 66.40625 
z
M 31.78125 74.21875 
Q 44.046875 74.21875 50.515625 64.515625 
Q 56.984375 54.828125 56.984375 36.375 
Q 56.984375 17.96875 50.515625 8.265625 
Q 44.046875 -1.421875 31.78125 -1.421875 
Q 19.53125 -1.421875 13.0625 8.265625 
Q 6.59375 17.96875 6.59375 36.375 
Q 6.59375 54.828125 13.0625 64.515625 
Q 19.53125 74.21875 31.78125 74.21875 
z
" id="DejaVuSans-48"/>
    </defs>
    <g transform="translate(162.239091 609.215)scale(0.16 -0.16)">
     <use xlink:href="#DejaVuSans-48"/>
    </g>
   </g>
   <g id="text_2">
    <!-- 1 -->
    <defs>
     <path d="M 12.40625 8.296875 
L 28.515625 8.296875 
L 28.515625 63.921875 
L 10.984375 60.40625 
L 10.984375 69.390625 
L 28.421875 72.90625 
L 38.28125 72.90625 
L 38.28125 8.296875 
L 54.390625 8.296875 
L 54.390625 0 
L 12.40625 0 
z
" id="DejaVuSans-49"/>
    </defs>
    <g transform="translate(243.839091 609.215)scale(0.16 -0.16)">
     <use xlink:href="#DejaVuSans-49"/>
    </g>
   </g>
   <g id="text_3">
    <!-- 2 -->
    <defs>
     <path d="M 19.1875 8.296875 
L 53.609375 8.296875 
L 53.609375 0 
L 7.328125 0 
L 7.328125 8.296875 
Q 12.9375 14.109375 22.625 23.890625 
Q 32.328125 33.6875 34.8125 36.53125 
Q 39.546875 41.84375 41.421875 45.53125 
Q 43.3125 49.21875 43.3125 52.78125 
Q 43.3125 58.59375 39.234375 62.25 
Q 35.15625 65.921875 28.609375 65.921875 
Q 23.96875 65.921875 18.8125 64.3125 
Q 13.671875 62.703125 7.8125 59.421875 
L 7.8125 69.390625 
Q 13.765625 71.78125 18.9375 73 
Q 24.125 74.21875 28.421875 74.21875 
Q 39.75 74.21875 46.484375 68.546875 
Q 53.21875 62.890625 53.21875 53.421875 
Q 53.21875 48.921875 51.53125 44.890625 
Q 49.859375 40.875 45.40625 35.40625 
Q 44.1875 33.984375 37.640625 27.21875 
Q 31.109375 20.453125 19.1875 8.296875 
z
" id="DejaVuSans-50"/>
    </defs>
    <g transform="translate(162.239091 527.615)scale(0.16 -0.16)">
     <use xlink:href="#DejaVuSans-50"/>
    </g>
   </g>
   <g id="text_4">
    <!-- 3 -->
    <defs>
     <path d="M 40.578125 39.3125 
Q 47.65625 37.796875 51.625 33 
Q 55.609375 28.21875 55.609375 21.1875 
Q 55.609375 10.40625 48.1875 4.484375 
Q 40.765625 -1.421875 27.09375 -1.421875 
Q 22.515625 -1.421875 17.65625 -0.515625 
Q 12.796875 0.390625 7.625 2.203125 
L 7.625 11.71875 
Q 11.71875 9.328125 16.59375 8.109375 
Q 21.484375 6.890625 26.8125 6.890625 
Q 36.078125 6.890625 40.9375 10.546875 
Q 45.796875 14.203125 45.796875 21.1875 
Q 45.796875 27.640625 41.28125 31.265625 
Q 36.765625 34.90625 28.71875 34.90625 
L 20.21875 34.90625 
L 20.21875 43.015625 
L 29.109375 43.015625 
Q 36.375 43.015625 40.234375 45.921875 
Q 44.09375 48.828125 44.09375 54.296875 
Q 44.09375 59.90625 40.109375 62.90625 
Q 36.140625 65.921875 28.71875 65.921875 
Q 24.65625 65.921875 20.015625 65.03125 
Q 15.375 64.15625 9.8125 62.3125 
L 9.8125 71.09375 
Q 15.4375 72.65625 20.34375 73.4375 
Q 25.25 74.21875 29.59375 74.21875 
Q 40.828125 74.21875 47.359375 69.109375 
Q 53.90625 64.015625 53.90625 55.328125 
Q 53.90625 49.265625 50.4375 45.09375 
Q 46.96875 40.921875 40.578125 39.3125 
z
" id="DejaVuSans-51"/>
    </defs>
    <g transform="translate(243.839091 527.615)scale(0.16 -0.16)">
     <use xlink:href="#DejaVuSans-51"/>
    </g>
   </g>
   <g id="text_5">
    <!-- 4 -->
    <defs>
     <path d="M 37.796875 64.3125 
L 12.890625 25.390625 
L 37.796875 25.390625 
z
M 35.203125 72.90625 
L 47.609375 72.90625 
L 47.609375 25.390625 
L 58.015625 25.390625 
L 58.015625 17.1875 
L 47.609375 17.1875 
L 47.609375 0 
L 37.796875 0 
L 37.796875 17.1875 
L 4.890625 17.1875 
L 4.890625 26.703125 
z
" id="DejaVuSans-52"/>
    </defs>
    <g transform="translate(162.239091 473.215)scale(0.16 -0.16)">
     <use xlink:href="#DejaVuSans-52"/>
    </g>
   </g>
   <g id="text_6">
    <!-- 5 -->
    <defs>
     <path d="M 10.796875 72.90625 
L 49.515625 72.90625 
L 49.515625 64.59375 
L 19.828125 64.59375 
L 19.828125 46.734375 
Q 21.96875 47.46875 24.109375 47.828125 
Q 26.265625 48.1875 28.421875 48.1875 
Q 40.625 48.1875 47.75 41.5 
Q 54.890625 34.8125 54.890625 23.390625 
Q 54.890625 11.625 47.5625 5.09375 
Q 40.234375 -1.421875 26.90625 -1.421875 
Q 22.3125 -1.421875 17.546875 -0.640625 
Q 12.796875 0.140625 7.71875 1.703125 
L 7.71875 11.625 
Q 12.109375 9.234375 16.796875 8.0625 
Q 21.484375 6.890625 26.703125 6.890625 
Q 35.15625 6.890625 40.078125 11.328125 
Q 45.015625 15.765625 45.015625 23.390625 
Q 45.015625 31 40.078125 35.4375 
Q 35.15625 39.890625 26.703125 39.890625 
Q 22.75 39.890625 18.8125 39.015625 
Q 14.890625 38.140625 10.796875 36.28125 
z
" id="DejaVuSans-53"/>
    </defs>
    <g transform="translate(189.439091 452.815)scale(0.16 -0.16)">
     <use xlink:href="#DejaVuSans-53"/>
    </g>
   </g>
   <g id="text_7">
    <!-- 6 -->
    <defs>
     <path d="M 33.015625 40.375 
Q 26.375 40.375 22.484375 35.828125 
Q 18.609375 31.296875 18.609375 23.390625 
Q 18.609375 15.53125 22.484375 10.953125 
Q 26.375 6.390625 33.015625 6.390625 
Q 39.65625 6.390625 43.53125 10.953125 
Q 47.40625 15.53125 47.40625 23.390625 
Q 47.40625 31.296875 43.53125 35.828125 
Q 39.65625 40.375 33.015625 40.375 
z
M 52.59375 71.296875 
L 52.59375 62.3125 
Q 48.875 64.0625 45.09375 64.984375 
Q 41.3125 65.921875 37.59375 65.921875 
Q 27.828125 65.921875 22.671875 59.328125 
Q 17.53125 52.734375 16.796875 39.40625 
Q 19.671875 43.65625 24.015625 45.921875 
Q 28.375 48.1875 33.59375 48.1875 
Q 44.578125 48.1875 50.953125 41.515625 
Q 57.328125 34.859375 57.328125 23.390625 
Q 57.328125 12.15625 50.6875 5.359375 
Q 44.046875 -1.421875 33.015625 -1.421875 
Q 20.359375 -1.421875 13.671875 8.265625 
Q 6.984375 17.96875 6.984375 36.375 
Q 6.984375 53.65625 15.1875 63.9375 
Q 23.390625 74.21875 37.203125 74.21875 
Q 40.921875 74.21875 44.703125 73.484375 
Q 48.484375 72.75 52.59375 71.296875 
z
" id="DejaVuSans-54"/>
    </defs>
    <g transform="translate(162.239091 446.015)scale(0.16 -0.16)">
     <use xlink:href="#DejaVuSans-54"/>
    </g>
   </g>
   <g id="text_8">
    <!-- 7 -->
    <defs>
     <path d="M 8.203125 72.90625 
L 55.078125 72.90625 
L 55.078125 68.703125 
L 28.609375 0 
L 18.3125 0 
L 43.21875 64.59375 
L 8.203125 64.59375 
z
" id="DejaVuSans-55"/>
    </defs>
    <g transform="translate(135.039091 452.815)scale(0.16 -0.16)">
     <use xlink:href="#DejaVuSans-55"/>
    </g>
   </g>
   <g id="text_9">
    <!-- 8 -->
    <defs>
     <path d="M 31.78125 34.625 
Q 24.75 34.625 20.71875 30.859375 
Q 16.703125 27.09375 16.703125 20.515625 
Q 16.703125 13.921875 20.71875 10.15625 
Q 24.75 6.390625 31.78125 6.390625 
Q 38.8125 6.390625 42.859375 10.171875 
Q 46.921875 13.96875 46.921875 20.515625 
Q 46.921875 27.09375 42.890625 30.859375 
Q 38.875 34.625 31.78125 34.625 
z
M 21.921875 38.8125 
Q 15.578125 40.375 12.03125 44.71875 
Q 8.5 49.078125 8.5 55.328125 
Q 8.5 64.0625 14.71875 69.140625 
Q 20.953125 74.21875 31.78125 74.21875 
Q 42.671875 74.21875 48.875 69.140625 
Q 55.078125 64.0625 55.078125 55.328125 
Q 55.078125 49.078125 51.53125 44.71875 
Q 48 40.375 41.703125 38.8125 
Q 48.828125 37.15625 52.796875 32.3125 
Q 56.78125 27.484375 56.78125 20.515625 
Q 56.78125 9.90625 50.3125 4.234375 
Q 43.84375 -1.421875 31.78125 -1.421875 
Q 19.734375 -1.421875 13.25 4.234375 
Q 6.78125 9.90625 6.78125 20.515625 
Q 6.78125 27.484375 10.78125 32.3125 
Q 14.796875 37.15625 21.921875 38.8125 
z
M 18.3125 54.390625 
Q 18.3125 48.734375 21.84375 45.5625 
Q 25.390625 42.390625 31.78125 42.390625 
Q 38.140625 42.390625 41.71875 45.5625 
Q 45.3125 48.734375 45.3125 54.390625 
Q 45.3125 60.0625 41.71875 63.234375 
Q 38.140625 66.40625 31.78125 66.40625 
Q 25.390625 66.40625 21.84375 63.234375 
Q 18.3125 60.0625 18.3125 54.390625 
z
" id="DejaVuSans-56"/>
    </defs>
    <g transform="translate(243.839091 473.215)scale(0.16 -0.16)">
     <use xlink:href="#DejaVuSans-56"/>
    </g>
   </g>
   <g id="text_10">
    <!-- 9 -->
    <defs>
     <path d="M 10.984375 1.515625 
L 10.984375 10.5 
Q 14.703125 8.734375 18.5 7.8125 
Q 22.3125 6.890625 25.984375 6.890625 
Q 35.75 6.890625 40.890625 13.453125 
Q 46.046875 20.015625 46.78125 33.40625 
Q 43.953125 29.203125 39.59375 26.953125 
Q 35.25 24.703125 29.984375 24.703125 
Q 19.046875 24.703125 12.671875 31.3125 
Q 6.296875 37.9375 6.296875 49.421875 
Q 6.296875 60.640625 12.9375 67.421875 
Q 19.578125 74.21875 30.609375 74.21875 
Q 43.265625 74.21875 49.921875 64.515625 
Q 56.59375 54.828125 56.59375 36.375 
Q 56.59375 19.140625 48.40625 8.859375 
Q 40.234375 -1.421875 26.421875 -1.421875 
Q 22.703125 -1.421875 18.890625 -0.6875 
Q 15.09375 0.046875 10.984375 1.515625 
z
M 30.609375 32.421875 
Q 37.25 32.421875 41.125 36.953125 
Q 45.015625 41.5 45.015625 49.421875 
Q 45.015625 57.28125 41.125 61.84375 
Q 37.25 66.40625 30.609375 66.40625 
Q 23.96875 66.40625 20.09375 61.84375 
Q 16.21875 57.28125 16.21875 49.421875 
Q 16.21875 41.5 20.09375 36.953125 
Q 23.96875 32.421875 30.609375 32.421875 
z
" id="DejaVuSans-57"/>
    </defs>
    <g transform="translate(271.039091 452.815)scale(0.16 -0.16)">
     <use xlink:href="#DejaVuSans-57"/>
    </g>
   </g>
   <g id="text_11">
    <!-- 10 -->
    <g transform="translate(238.749091 446.015)scale(0.16 -0.16)">
     <use xlink:href="#DejaVuSans-49"/>
     <use x="63.623047" xlink:href="#DejaVuSans-48"/>
    </g>
   </g>
   <g id="text_12">
    <!-- 11 -->
    <g transform="translate(211.549091 452.815)scale(0.16 -0.16)">
     <use xlink:href="#DejaVuSans-49"/>
     <use x="63.623047" xlink:href="#DejaVuSans-49"/>
    </g>
   </g>
   <g id="text_13">
    <!-- 12 -->
    <g transform="translate(129.949091 418.815)scale(0.16 -0.16)">
     <use xlink:href="#DejaVuSans-49"/>
     <use x="63.623047" xlink:href="#DejaVuSans-50"/>
    </g>
   </g>
   <g id="text_14">
    <!-- 13 -->
    <g transform="translate(157.149091 418.815)scale(0.16 -0.16)">
     <use xlink:href="#DejaVuSans-49"/>
     <use x="63.623047" xlink:href="#DejaVuSans-51"/>
    </g>
   </g>
   <g id="text_15">
    <!-- 14 -->
    <g transform="translate(184.349091 418.815)scale(0.16 -0.16)">
     <use xlink:href="#DejaVuSans-49"/>
     <use x="63.623047" xlink:href="#DejaVuSans-52"/>
    </g>
   </g>
   <g id="text_16">
    <!-- 15 -->
    <g transform="translate(211.549091 418.815)scale(0.16 -0.16)">
     <use xlink:href="#DejaVuSans-49"/>
     <use x="63.623047" xlink:href="#DejaVuSans-53"/>
    </g>
   </g>
   <g id="text_17">
    <!-- 16 -->
    <g transform="translate(238.749091 418.815)scale(0.16 -0.16)">
     <use xlink:href="#DejaVuSans-49"/>
     <use x="63.623047" xlink:href="#DejaVuSans-54"/>
    </g>
   </g>
   <g id="text_18">
    <!-- 17 -->
    <g transform="translate(265.949091 418.815)scale(0.16 -0.16)">
     <use xlink:href="#DejaVuSans-49"/>
     <use x="63.623047" xlink:href="#DejaVuSans-55"/>
    </g>
   </g>
   <g id="text_19">
    <!-- 18 -->
    <g transform="translate(129.949091 391.615)scale(0.16 -0.16)">
     <use xlink:href="#DejaVuSans-49"/>
     <use x="63.623047" xlink:href="#DejaVuSans-56"/>
    </g>
   </g>
   <g id="text_20">
    <!-- 19 -->
    <g transform="translate(157.149091 391.615)scale(0.16 -0.16)">
     <use xlink:href="#DejaVuSans-49"/>
     <use x="63.623047" xlink:href="#DejaVuSans-57"/>
    </g>
   </g>
   <g id="text_21">
    <!-- 20 -->
    <g transform="translate(184.349091 391.615)scale(0.16 -0.16)">
     <use xlink:href="#DejaVuSans-50"/>
     <use x="63.623047" xlink:href="#DejaVuSans-48"/>
    </g>
   </g>
   <g id="text_22">
    <!-- 21 -->
    <g transform="translate(211.549091 391.615)scale(0.16 -0.16)">
     <use xlink:href="#DejaVuSans-50"/>
     <use x="63.623047" xlink:href="#DejaVuSans-49"/>
    </g>
   </g>
   <g id="text_23">
    <!-- 22 -->
    <g transform="translate(238.749091 391.615)scale(0.16 -0.16)">
     <use xlink:href="#DejaVuSans-50"/>
     <use x="63.623047" xlink:href="#DejaVuSans-50"/>
    </g>
   </g>
   <g id="text_24">
    <!-- 23 -->
    <g transform="translate(265.949091 391.615)scale(0.16 -0.16)">
     <use xlink:href="#DejaVuSans-50"/>
     <use x="63.623047" xlink:href="#DejaVuSans-51"/>
    </g>
   </g>
   <g id="text_25">
    <!-- 24 -->
    <g transform="translate(129.949091 364.415)scale(0.16 -0.16)">
     <use xlink:href="#DejaVuSans-50"/>
     <use x="63.623047" xlink:href="#DejaVuSans-52"/>
    </g>
   </g>
   <g id="text_26">
    <!-- 25 -->
    <g transform="translate(157.149091 364.415)scale(0.16 -0.16)">
     <use xlink:href="#DejaVuSans-50"/>
     <use x="63.623047" xlink:href="#DejaVuSans-53"/>
    </g>
   </g>
   <g id="text_27">
    <!-- 26 -->
    <g transform="translate(184.349091 364.415)scale(0.16 -0.16)">
     <use xlink:href="#DejaVuSans-50"/>
     <use x="63.623047" xlink:href="#DejaVuSans-54"/>
    </g>
   </g>
   <g id="text_28">
    <!-- 27 -->
    <g transform="translate(211.549091 364.415)scale(0.16 -0.16)">
     <use xlink:href="#DejaVuSans-50"/>
     <use x="63.623047" xlink:href="#DejaVuSans-55"/>
    </g>
   </g>
   <g id="text_29">
    <!-- 28 -->
    <g transform="translate(238.749091 364.415)scale(0.16 -0.16)">
     <use xlink:href="#DejaVuSans-50"/>
     <use x="63.623047" xlink:href="#DejaVuSans-56"/>
    </g>
   </g>
   <g id="text_30">
    <!-- 29 -->
    <g transform="translate(265.949091 364.415)scale(0.16 -0.16)">
     <use xlink:href="#DejaVuSans-50"/>
     <use x="63.623047" xlink:href="#DejaVuSans-57"/>
    </g>
   </g>
   <g id="text_31">
    <!-- 30 -->
    <g transform="translate(129.949091 337.215)scale(0.16 -0.16)">
     <use xlink:href="#DejaVuSans-51"/>
     <use x="63.623047" xlink:href="#DejaVuSans-48"/>
    </g>
   </g>
   <g id="text_32">
    <!-- 31 -->
    <g transform="translate(157.149091 337.215)scale(0.16 -0.16)">
     <use xlink:href="#DejaVuSans-51"/>
     <use x="63.623047" xlink:href="#DejaVuSans-49"/>
    </g>
   </g>
   <g id="text_33">
    <!-- 32 -->
    <g transform="translate(184.349091 337.215)scale(0.16 -0.16)">
     <use xlink:href="#DejaVuSans-51"/>
     <use x="63.623047" xlink:href="#DejaVuSans-50"/>
    </g>
   </g>
   <g id="text_34">
    <!-- 33 -->
    <g transform="translate(211.549091 337.215)scale(0.16 -0.16)">
     <use xlink:href="#DejaVuSans-51"/>
     <use x="63.623047" xlink:href="#DejaVuSans-51"/>
    </g>
   </g>
   <g id="text_35">
    <!-- 34 -->
    <g transform="translate(238.749091 337.215)scale(0.16 -0.16)">
     <use xlink:href="#DejaVuSans-51"/>
     <use x="63.623047" xlink:href="#DejaVuSans-52"/>
    </g>
   </g>
   <g id="text_36">
    <!-- 35 -->
    <g transform="translate(265.949091 337.215)scale(0.16 -0.16)">
     <use xlink:href="#DejaVuSans-51"/>
     <use x="63.623047" xlink:href="#DejaVuSans-53"/>
    </g>
   </g>
   <g id="text_37">
    <!-- 36 -->
    <g transform="translate(129.949091 310.015)scale(0.16 -0.16)">
     <use xlink:href="#DejaVuSans-51"/>
     <use x="63.623047" xlink:href="#DejaVuSans-54"/>
    </g>
   </g>
   <g id="text_38">
    <!-- 37 -->
    <g transform="translate(157.149091 310.015)scale(0.16 -0.16)">
     <use xlink:href="#DejaVuSans-51"/>
     <use x="63.623047" xlink:href="#DejaVuSans-55"/>
    </g>
   </g>
   <g id="text_39">
    <!-- 38 -->
    <g transform="translate(184.349091 310.015)scale(0.16 -0.16)">
     <use xlink:href="#DejaVuSans-51"/>
     <use x="63.623047" xlink:href="#DejaVuSans-56"/>
    </g>
   </g>
   <g id="text_40">
    <!-- 39 -->
    <g transform="translate(211.549091 310.015)scale(0.16 -0.16)">
     <use xlink:href="#DejaVuSans-51"/>
     <use x="63.623047" xlink:href="#DejaVuSans-57"/>
    </g>
   </g>
   <g id="text_41">
    <!-- 40 -->
    <g transform="translate(238.749091 310.015)scale(0.16 -0.16)">
     <use xlink:href="#DejaVuSans-52"/>
     <use x="63.623047" xlink:href="#DejaVuSans-48"/>
    </g>
   </g>
   <g id="text_42">
    <!-- 41 -->
    <g transform="translate(265.949091 310.015)scale(0.16 -0.16)">
     <use xlink:href="#DejaVuSans-52"/>
     <use x="63.623047" xlink:href="#DejaVuSans-49"/>
    </g>
   </g>
   <g id="text_43">
    <!-- 42 -->
    <g transform="translate(129.949091 276.015)scale(0.16 -0.16)">
     <use xlink:href="#DejaVuSans-52"/>
     <use x="63.623047" xlink:href="#DejaVuSans-50"/>
    </g>
   </g>
   <g id="text_44">
    <!-- 43 -->
    <g transform="translate(157.149091 282.815)scale(0.16 -0.16)">
     <use xlink:href="#DejaVuSans-52"/>
     <use x="63.623047" xlink:href="#DejaVuSans-51"/>
    </g>
   </g>
   <g id="text_45">
    <!-- 44 -->
    <g transform="translate(184.349091 276.015)scale(0.16 -0.16)">
     <use xlink:href="#DejaVuSans-52"/>
     <use x="63.623047" xlink:href="#DejaVuSans-52"/>
    </g>
   </g>
   <g id="text_46">
    <!-- 45 -->
    <g transform="translate(157.149091 255.615)scale(0.16 -0.16)">
     <use xlink:href="#DejaVuSans-52"/>
     <use x="63.623047" xlink:href="#DejaVuSans-53"/>
    </g>
   </g>
   <g id="text_47">
    <!-- 46 -->
    <g transform="translate(211.549091 276.015)scale(0.16 -0.16)">
     <use xlink:href="#DejaVuSans-52"/>
     <use x="63.623047" xlink:href="#DejaVuSans-54"/>
    </g>
   </g>
   <g id="text_48">
    <!-- 47 -->
    <g transform="translate(238.749091 282.815)scale(0.16 -0.16)">
     <use xlink:href="#DejaVuSans-52"/>
     <use x="63.623047" xlink:href="#DejaVuSans-55"/>
    </g>
   </g>
   <g id="text_49">
    <!-- 48 -->
    <g transform="translate(265.949091 276.015)scale(0.16 -0.16)">
     <use xlink:href="#DejaVuSans-52"/>
     <use x="63.623047" xlink:href="#DejaVuSans-56"/>
    </g>
   </g>
   <g id="text_50">
    <!-- 49 -->
    <g transform="translate(238.749091 255.615)scale(0.16 -0.16)">
     <use xlink:href="#DejaVuSans-52"/>
     <use x="63.623047" xlink:href="#DejaVuSans-57"/>
    </g>
   </g>
   <g id="text_51">
    <!-- 50 -->
    <g transform="translate(157.149091 201.215)scale(0.16 -0.16)">
     <use xlink:href="#DejaVuSans-53"/>
     <use x="63.623047" xlink:href="#DejaVuSans-48"/>
    </g>
   </g>
   <g id="text_52">
    <!-- 51 -->
    <g transform="translate(238.749091 201.215)scale(0.16 -0.16)">
     <use xlink:href="#DejaVuSans-53"/>
     <use x="63.623047" xlink:href="#DejaVuSans-49"/>
    </g>
   </g>
   <g id="text_53">
    <!-- 52 -->
    <g transform="translate(157.149091 119.615)scale(0.16 -0.16)">
     <use xlink:href="#DejaVuSans-53"/>
     <use x="63.623047" xlink:href="#DejaVuSans-50"/>
    </g>
   </g>
   <g id="text_54">
    <!-- 53 -->
    <g transform="translate(238.749091 119.615)scale(0.16 -0.16)">
     <use xlink:href="#DejaVuSans-53"/>
     <use x="63.623047" xlink:href="#DejaVuSans-51"/>
    </g>
   </g>
  </g>
  <g id="axes_2">
   <g id="patch_7">
    <path d="M 413.950909 702.72 
L 609.790909 702.72 
L 609.790909 17.28 
L 413.950909 17.28 
z
" style="fill:none;"/>
   </g>
   <g id="PatchCollection_2">
    <path clip-path="url(#pab9a750994)" d="M 430.270909 645.6 
L 457.470909 645.6 
L 457.470909 618.4 
L 430.270909 618.4 
z
" style="fill:#000080;stroke:#000000;"/>
    <path clip-path="url(#pab9a750994)" d="M 457.470909 645.6 
L 484.670909 645.6 
L 484.670909 618.4 
L 457.470909 618.4 
z
" style="fill:#000089;stroke:#000000;"/>
    <path clip-path="url(#pab9a750994)" d="M 484.670909 645.6 
L 511.870909 645.6 
L 511.870909 618.4 
L 484.670909 618.4 
z
" style="fill:#000092;stroke:#000000;"/>
    <path clip-path="url(#pab9a750994)" d="M 511.870909 645.6 
L 539.070909 645.6 
L 539.070909 618.4 
L 511.870909 618.4 
z
" style="fill:#00009b;stroke:#000000;"/>
    <path clip-path="url(#pab9a750994)" d="M 539.070909 645.6 
L 566.270909 645.6 
L 566.270909 618.4 
L 539.070909 618.4 
z
" style="fill:#0000a4;stroke:#000000;"/>
    <path clip-path="url(#pab9a750994)" d="M 566.270909 645.6 
L 593.470909 645.6 
L 593.470909 618.4 
L 566.270909 618.4 
z
" style="fill:#0000ad;stroke:#000000;"/>
    <path clip-path="url(#pab9a750994)" d="M 430.270909 618.4 
L 457.470909 618.4 
L 457.470909 591.2 
L 430.270909 591.2 
z
" style="fill:#0000b6;stroke:#000000;"/>
    <path clip-path="url(#pab9a750994)" d="M 457.470909 618.4 
L 484.670909 618.4 
L 484.670909 591.2 
L 457.470909 591.2 
z
" style="fill:#0000bf;stroke:#000000;"/>
    <path clip-path="url(#pab9a750994)" d="M 484.670909 618.4 
L 511.870909 618.4 
L 511.870909 591.2 
L 484.670909 591.2 
z
" style="fill:#0000c8;stroke:#000000;"/>
    <path clip-path="url(#pab9a750994)" d="M 511.870909 618.4 
L 539.070909 618.4 
L 539.070909 591.2 
L 511.870909 591.2 
z
" style="fill:#0000d1;stroke:#000000;"/>
    <path clip-path="url(#pab9a750994)" d="M 539.070909 618.4 
L 566.270909 618.4 
L 566.270909 591.2 
L 539.070909 591.2 
z
" style="fill:#0000da;stroke:#000000;"/>
    <path clip-path="url(#pab9a750994)" d="M 566.270909 618.4 
L 593.470909 618.4 
L 593.470909 591.2 
L 566.270909 591.2 
z
" style="fill:#0000e3;stroke:#000000;"/>
    <path clip-path="url(#pab9a750994)" d="M 430.270909 591.2 
L 457.470909 591.2 
L 457.470909 564 
L 430.270909 564 
z
" style="fill:#0000ed;stroke:#000000;"/>
    <path clip-path="url(#pab9a750994)" d="M 457.470909 591.2 
L 484.670909 591.2 
L 484.670909 564 
L 457.470909 564 
z
" style="fill:#0000f6;stroke:#000000;"/>
    <path clip-path="url(#pab9a750994)" d="M 484.670909 591.2 
L 511.870909 591.2 
L 511.870909 564 
L 484.670909 564 
z
" style="fill:#0000ff;stroke:#000000;"/>
    <path clip-path="url(#pab9a750994)" d="M 511.870909 591.2 
L 539.070909 591.2 
L 539.070909 564 
L 511.870909 564 
z
" style="fill:#0000ff;stroke:#000000;"/>
    <path clip-path="url(#pab9a750994)" d="M 539.070909 591.2 
L 566.270909 591.2 
L 566.270909 564 
L 539.070909 564 
z
" style="fill:#0000ff;stroke:#000000;"/>
    <path clip-path="url(#pab9a750994)" d="M 566.270909 591.2 
L 593.470909 591.2 
L 593.470909 564 
L 566.270909 564 
z
" style="fill:#0008ff;stroke:#000000;"/>
    <path clip-path="url(#pab9a750994)" d="M 430.270909 564 
L 457.470909 564 
L 457.470909 536.8 
L 430.270909 536.8 
z
" style="fill:#0010ff;stroke:#000000;"/>
    <path clip-path="url(#pab9a750994)" d="M 457.470909 564 
L 484.670909 564 
L 484.670909 536.8 
L 457.470909 536.8 
z
" style="fill:#0018ff;stroke:#000000;"/>
    <path clip-path="url(#pab9a750994)" d="M 484.670909 564 
L 511.870909 564 
L 511.870909 536.8 
L 484.670909 536.8 
z
" style="fill:#0020ff;stroke:#000000;"/>
    <path clip-path="url(#pab9a750994)" d="M 511.870909 564 
L 539.070909 564 
L 539.070909 536.8 
L 511.870909 536.8 
z
" style="fill:#002cff;stroke:#000000;"/>
    <path clip-path="url(#pab9a750994)" d="M 539.070909 564 
L 566.270909 564 
L 566.270909 536.8 
L 539.070909 536.8 
z
" style="fill:#0034ff;stroke:#000000;"/>
    <path clip-path="url(#pab9a750994)" d="M 566.270909 564 
L 593.470909 564 
L 593.470909 536.8 
L 566.270909 536.8 
z
" style="fill:#003cff;stroke:#000000;"/>
    <path clip-path="url(#pab9a750994)" d="M 430.270909 536.8 
L 457.470909 536.8 
L 457.470909 509.6 
L 430.270909 509.6 
z
" style="fill:#0044ff;stroke:#000000;"/>
    <path clip-path="url(#pab9a750994)" d="M 457.470909 536.8 
L 484.670909 536.8 
L 484.670909 509.6 
L 457.470909 509.6 
z
" style="fill:#004cff;stroke:#000000;"/>
    <path clip-path="url(#pab9a750994)" d="M 484.670909 536.8 
L 511.870909 536.8 
L 511.870909 509.6 
L 484.670909 509.6 
z
" style="fill:#0054ff;stroke:#000000;"/>
    <path clip-path="url(#pab9a750994)" d="M 511.870909 536.8 
L 539.070909 536.8 
L 539.070909 509.6 
L 511.870909 509.6 
z
" style="fill:#005cff;stroke:#000000;"/>
    <path clip-path="url(#pab9a750994)" d="M 539.070909 536.8 
L 566.270909 536.8 
L 566.270909 509.6 
L 539.070909 509.6 
z
" style="fill:#0064ff;stroke:#000000;"/>
    <path clip-path="url(#pab9a750994)" d="M 566.270909 536.8 
L 593.470909 536.8 
L 593.470909 509.6 
L 566.270909 509.6 
z
" style="fill:#006cff;stroke:#000000;"/>
    <path clip-path="url(#pab9a750994)" d="M 430.270909 509.6 
L 457.470909 509.6 
L 457.470909 482.4 
L 430.270909 482.4 
z
" style="fill:#0074ff;stroke:#000000;"/>
    <path clip-path="url(#pab9a750994)" d="M 457.470909 509.6 
L 484.670909 509.6 
L 484.670909 482.4 
L 457.470909 482.4 
z
" style="fill:#007cff;stroke:#000000;"/>
    <path clip-path="url(#pab9a750994)" d="M 484.670909 509.6 
L 511.870909 509.6 
L 511.870909 482.4 
L 484.670909 482.4 
z
" style="fill:#0084ff;stroke:#000000;"/>
    <path clip-path="url(#pab9a750994)" d="M 511.870909 509.6 
L 539.070909 509.6 
L 539.070909 482.4 
L 511.870909 482.4 
z
" style="fill:#008cff;stroke:#000000;"/>
    <path clip-path="url(#pab9a750994)" d="M 539.070909 509.6 
L 566.270909 509.6 
L 566.270909 482.4 
L 539.070909 482.4 
z
" style="fill:#0094ff;stroke:#000000;"/>
    <path clip-path="url(#pab9a750994)" d="M 566.270909 509.6 
L 593.470909 509.6 
L 593.470909 482.4 
L 566.270909 482.4 
z
" style="fill:#009cff;stroke:#000000;"/>
    <path clip-path="url(#pab9a750994)" d="M 430.270909 482.4 
L 457.470909 482.4 
L 457.470909 455.2 
L 430.270909 455.2 
z
" style="fill:#00a4ff;stroke:#000000;"/>
    <path clip-path="url(#pab9a750994)" d="M 457.470909 482.4 
L 484.670909 482.4 
L 484.670909 455.2 
L 457.470909 455.2 
z
" style="fill:#00acff;stroke:#000000;"/>
    <path clip-path="url(#pab9a750994)" d="M 484.670909 482.4 
L 511.870909 482.4 
L 511.870909 455.2 
L 484.670909 455.2 
z
" style="fill:#00b4ff;stroke:#000000;"/>
    <path clip-path="url(#pab9a750994)" d="M 511.870909 482.4 
L 539.070909 482.4 
L 539.070909 455.2 
L 511.870909 455.2 
z
" style="fill:#00bcff;stroke:#000000;"/>
    <path clip-path="url(#pab9a750994)" d="M 539.070909 482.4 
L 566.270909 482.4 
L 566.270909 455.2 
L 539.070909 455.2 
z
" style="fill:#00c4ff;stroke:#000000;"/>
    <path clip-path="url(#pab9a750994)" d="M 566.270909 482.4 
L 593.470909 482.4 
L 593.470909 455.2 
L 566.270909 455.2 
z
" style="fill:#00ccff;stroke:#000000;"/>
    <path clip-path="url(#pab9a750994)" d="M 430.270909 455.2 
L 457.470909 455.2 
L 457.470909 428 
L 430.270909 428 
z
" style="fill:#00d8ff;stroke:#000000;"/>
    <path clip-path="url(#pab9a750994)" d="M 457.470909 455.2 
L 484.670909 455.2 
L 484.670909 428 
L 457.470909 428 
z
" style="fill:#00e0fb;stroke:#000000;"/>
    <path clip-path="url(#pab9a750994)" d="M 484.670909 455.2 
L 511.870909 455.2 
L 511.870909 428 
L 484.670909 428 
z
" style="fill:#02e8f4;stroke:#000000;"/>
    <path clip-path="url(#pab9a750994)" d="M 511.870909 455.2 
L 539.070909 455.2 
L 539.070909 428 
L 511.870909 428 
z
" style="fill:#09f0ee;stroke:#000000;"/>
    <path clip-path="url(#pab9a750994)" d="M 539.070909 455.2 
L 566.270909 455.2 
L 566.270909 428 
L 539.070909 428 
z
" style="fill:#0ff8e7;stroke:#000000;"/>
    <path clip-path="url(#pab9a750994)" d="M 566.270909 455.2 
L 593.470909 455.2 
L 593.470909 428 
L 566.270909 428 
z
" style="fill:#16ffe1;stroke:#000000;"/>
    <path clip-path="url(#pab9a750994)" d="M 430.270909 428 
L 457.470909 428 
L 457.470909 400.8 
L 430.270909 400.8 
z
" style="fill:#1cffdb;stroke:#000000;"/>
    <path clip-path="url(#pab9a750994)" d="M 457.470909 428 
L 484.670909 428 
L 484.670909 400.8 
L 457.470909 400.8 
z
" style="fill:#23ffd4;stroke:#000000;"/>
    <path clip-path="url(#pab9a750994)" d="M 484.670909 428 
L 511.870909 428 
L 511.870909 400.8 
L 484.670909 400.8 
z
" style="fill:#29ffce;stroke:#000000;"/>
    <path clip-path="url(#pab9a750994)" d="M 511.870909 428 
L 539.070909 428 
L 539.070909 400.8 
L 511.870909 400.8 
z
" style="fill:#30ffc7;stroke:#000000;"/>
    <path clip-path="url(#pab9a750994)" d="M 539.070909 428 
L 566.270909 428 
L 566.270909 400.8 
L 539.070909 400.8 
z
" style="fill:#36ffc1;stroke:#000000;"/>
    <path clip-path="url(#pab9a750994)" d="M 566.270909 428 
L 593.470909 428 
L 593.470909 400.8 
L 566.270909 400.8 
z
" style="fill:#3cffba;stroke:#000000;"/>
    <path clip-path="url(#pab9a750994)" d="M 430.270909 400.8 
L 457.470909 400.8 
L 457.470909 373.6 
L 430.270909 373.6 
z
" style="fill:#43ffb4;stroke:#000000;"/>
    <path clip-path="url(#pab9a750994)" d="M 457.470909 400.8 
L 484.670909 400.8 
L 484.670909 373.6 
L 457.470909 373.6 
z
" style="fill:#49ffad;stroke:#000000;"/>
    <path clip-path="url(#pab9a750994)" d="M 484.670909 400.8 
L 511.870909 400.8 
L 511.870909 373.6 
L 484.670909 373.6 
z
" style="fill:#50ffa7;stroke:#000000;"/>
    <path clip-path="url(#pab9a750994)" d="M 511.870909 400.8 
L 539.070909 400.8 
L 539.070909 373.6 
L 511.870909 373.6 
z
" style="fill:#56ffa0;stroke:#000000;"/>
    <path clip-path="url(#pab9a750994)" d="M 539.070909 400.8 
L 566.270909 400.8 
L 566.270909 373.6 
L 539.070909 373.6 
z
" style="fill:#5dff9a;stroke:#000000;"/>
    <path clip-path="url(#pab9a750994)" d="M 566.270909 400.8 
L 593.470909 400.8 
L 593.470909 373.6 
L 566.270909 373.6 
z
" style="fill:#63ff94;stroke:#000000;"/>
    <path clip-path="url(#pab9a750994)" d="M 430.270909 373.6 
L 457.470909 373.6 
L 457.470909 346.4 
L 430.270909 346.4 
z
" style="fill:#6aff8d;stroke:#000000;"/>
    <path clip-path="url(#pab9a750994)" d="M 457.470909 373.6 
L 484.670909 373.6 
L 484.670909 346.4 
L 457.470909 346.4 
z
" style="fill:#70ff87;stroke:#000000;"/>
    <path clip-path="url(#pab9a750994)" d="M 484.670909 373.6 
L 511.870909 373.6 
L 511.870909 346.4 
L 484.670909 346.4 
z
" style="fill:#77ff80;stroke:#000000;"/>
    <path clip-path="url(#pab9a750994)" d="M 511.870909 373.6 
L 539.070909 373.6 
L 539.070909 346.4 
L 511.870909 346.4 
z
" style="fill:#80ff77;stroke:#000000;"/>
    <path clip-path="url(#pab9a750994)" d="M 539.070909 373.6 
L 566.270909 373.6 
L 566.270909 346.4 
L 539.070909 346.4 
z
" style="fill:#87ff70;stroke:#000000;"/>
    <path clip-path="url(#pab9a750994)" d="M 566.270909 373.6 
L 593.470909 373.6 
L 593.470909 346.4 
L 566.270909 346.4 
z
" style="fill:#8dff6a;stroke:#000000;"/>
    <path clip-path="url(#pab9a750994)" d="M 430.270909 346.4 
L 457.470909 346.4 
L 457.470909 319.2 
L 430.270909 319.2 
z
" style="fill:#94ff63;stroke:#000000;"/>
    <path clip-path="url(#pab9a750994)" d="M 457.470909 346.4 
L 484.670909 346.4 
L 484.670909 319.2 
L 457.470909 319.2 
z
" style="fill:#9aff5d;stroke:#000000;"/>
    <path clip-path="url(#pab9a750994)" d="M 484.670909 346.4 
L 511.870909 346.4 
L 511.870909 319.2 
L 484.670909 319.2 
z
" style="fill:#a0ff56;stroke:#000000;"/>
    <path clip-path="url(#pab9a750994)" d="M 511.870909 346.4 
L 539.070909 346.4 
L 539.070909 319.2 
L 511.870909 319.2 
z
" style="fill:#a7ff50;stroke:#000000;"/>
    <path clip-path="url(#pab9a750994)" d="M 539.070909 346.4 
L 566.270909 346.4 
L 566.270909 319.2 
L 539.070909 319.2 
z
" style="fill:#adff49;stroke:#000000;"/>
    <path clip-path="url(#pab9a750994)" d="M 566.270909 346.4 
L 593.470909 346.4 
L 593.470909 319.2 
L 566.270909 319.2 
z
" style="fill:#b4ff43;stroke:#000000;"/>
    <path clip-path="url(#pab9a750994)" d="M 430.270909 319.2 
L 457.470909 319.2 
L 457.470909 292 
L 430.270909 292 
z
" style="fill:#baff3c;stroke:#000000;"/>
    <path clip-path="url(#pab9a750994)" d="M 457.470909 319.2 
L 484.670909 319.2 
L 484.670909 292 
L 457.470909 292 
z
" style="fill:#c1ff36;stroke:#000000;"/>
    <path clip-path="url(#pab9a750994)" d="M 484.670909 319.2 
L 511.870909 319.2 
L 511.870909 292 
L 484.670909 292 
z
" style="fill:#c7ff30;stroke:#000000;"/>
    <path clip-path="url(#pab9a750994)" d="M 511.870909 319.2 
L 539.070909 319.2 
L 539.070909 292 
L 511.870909 292 
z
" style="fill:#ceff29;stroke:#000000;"/>
    <path clip-path="url(#pab9a750994)" d="M 539.070909 319.2 
L 566.270909 319.2 
L 566.270909 292 
L 539.070909 292 
z
" style="fill:#d4ff23;stroke:#000000;"/>
    <path clip-path="url(#pab9a750994)" d="M 566.270909 319.2 
L 593.470909 319.2 
L 593.470909 292 
L 566.270909 292 
z
" style="fill:#dbff1c;stroke:#000000;"/>
    <path clip-path="url(#pab9a750994)" d="M 430.270909 292 
L 457.470909 292 
L 457.470909 264.8 
L 430.270909 264.8 
z
" style="fill:#e1ff16;stroke:#000000;"/>
    <path clip-path="url(#pab9a750994)" d="M 457.470909 292 
L 484.670909 292 
L 484.670909 264.8 
L 457.470909 264.8 
z
" style="fill:#e7ff0f;stroke:#000000;"/>
    <path clip-path="url(#pab9a750994)" d="M 484.670909 292 
L 511.870909 292 
L 511.870909 264.8 
L 484.670909 264.8 
z
" style="fill:#eeff09;stroke:#000000;"/>
    <path clip-path="url(#pab9a750994)" d="M 511.870909 292 
L 539.070909 292 
L 539.070909 264.8 
L 511.870909 264.8 
z
" style="fill:#f4f802;stroke:#000000;"/>
    <path clip-path="url(#pab9a750994)" d="M 539.070909 292 
L 566.270909 292 
L 566.270909 264.8 
L 539.070909 264.8 
z
" style="fill:#fbf100;stroke:#000000;"/>
    <path clip-path="url(#pab9a750994)" d="M 566.270909 292 
L 593.470909 292 
L 593.470909 264.8 
L 566.270909 264.8 
z
" style="fill:#ffea00;stroke:#000000;"/>
    <path clip-path="url(#pab9a750994)" d="M 430.270909 264.8 
L 457.470909 264.8 
L 457.470909 237.6 
L 430.270909 237.6 
z
" style="fill:#ffde00;stroke:#000000;"/>
    <path clip-path="url(#pab9a750994)" d="M 457.470909 264.8 
L 484.670909 264.8 
L 484.670909 237.6 
L 457.470909 237.6 
z
" style="fill:#ffd700;stroke:#000000;"/>
    <path clip-path="url(#pab9a750994)" d="M 484.670909 264.8 
L 511.870909 264.8 
L 511.870909 237.6 
L 484.670909 237.6 
z
" style="fill:#ffd000;stroke:#000000;"/>
    <path clip-path="url(#pab9a750994)" d="M 511.870909 264.8 
L 539.070909 264.8 
L 539.070909 237.6 
L 511.870909 237.6 
z
" style="fill:#ffc800;stroke:#000000;"/>
    <path clip-path="url(#pab9a750994)" d="M 539.070909 264.8 
L 566.270909 264.8 
L 566.270909 237.6 
L 539.070909 237.6 
z
" style="fill:#ffc100;stroke:#000000;"/>
    <path clip-path="url(#pab9a750994)" d="M 566.270909 264.8 
L 593.470909 264.8 
L 593.470909 237.6 
L 566.270909 237.6 
z
" style="fill:#ffb900;stroke:#000000;"/>
    <path clip-path="url(#pab9a750994)" d="M 430.270909 237.6 
L 457.470909 237.6 
L 457.470909 210.4 
L 430.270909 210.4 
z
" style="fill:#ffb200;stroke:#000000;"/>
    <path clip-path="url(#pab9a750994)" d="M 457.470909 237.6 
L 484.670909 237.6 
L 484.670909 210.4 
L 457.470909 210.4 
z
" style="fill:#ffab00;stroke:#000000;"/>
    <path clip-path="url(#pab9a750994)" d="M 484.670909 237.6 
L 511.870909 237.6 
L 511.870909 210.4 
L 484.670909 210.4 
z
" style="fill:#ffa300;stroke:#000000;"/>
    <path clip-path="url(#pab9a750994)" d="M 511.870909 237.6 
L 539.070909 237.6 
L 539.070909 210.4 
L 511.870909 210.4 
z
" style="fill:#ff9c00;stroke:#000000;"/>
    <path clip-path="url(#pab9a750994)" d="M 539.070909 237.6 
L 566.270909 237.6 
L 566.270909 210.4 
L 539.070909 210.4 
z
" style="fill:#ff9400;stroke:#000000;"/>
    <path clip-path="url(#pab9a750994)" d="M 566.270909 237.6 
L 593.470909 237.6 
L 593.470909 210.4 
L 566.270909 210.4 
z
" style="fill:#ff8d00;stroke:#000000;"/>
    <path clip-path="url(#pab9a750994)" d="M 430.270909 210.4 
L 457.470909 210.4 
L 457.470909 183.2 
L 430.270909 183.2 
z
" style="fill:#ff8600;stroke:#000000;"/>
    <path clip-path="url(#pab9a750994)" d="M 457.470909 210.4 
L 484.670909 210.4 
L 484.670909 183.2 
L 457.470909 183.2 
z
" style="fill:#ff7e00;stroke:#000000;"/>
    <path clip-path="url(#pab9a750994)" d="M 484.670909 210.4 
L 511.870909 210.4 
L 511.870909 183.2 
L 484.670909 183.2 
z
" style="fill:#ff7700;stroke:#000000;"/>
    <path clip-path="url(#pab9a750994)" d="M 511.870909 210.4 
L 539.070909 210.4 
L 539.070909 183.2 
L 511.870909 183.2 
z
" style="fill:#ff6f00;stroke:#000000;"/>
    <path clip-path="url(#pab9a750994)" d="M 539.070909 210.4 
L 566.270909 210.4 
L 566.270909 183.2 
L 539.070909 183.2 
z
" style="fill:#ff6800;stroke:#000000;"/>
    <path clip-path="url(#pab9a750994)" d="M 566.270909 210.4 
L 593.470909 210.4 
L 593.470909 183.2 
L 566.270909 183.2 
z
" style="fill:#ff6000;stroke:#000000;"/>
    <path clip-path="url(#pab9a750994)" d="M 430.270909 183.2 
L 457.470909 183.2 
L 457.470909 156 
L 430.270909 156 
z
" style="fill:#ff5900;stroke:#000000;"/>
    <path clip-path="url(#pab9a750994)" d="M 457.470909 183.2 
L 484.670909 183.2 
L 484.670909 156 
L 457.470909 156 
z
" style="fill:#ff5200;stroke:#000000;"/>
    <path clip-path="url(#pab9a750994)" d="M 484.670909 183.2 
L 511.870909 183.2 
L 511.870909 156 
L 484.670909 156 
z
" style="fill:#ff4a00;stroke:#000000;"/>
    <path clip-path="url(#pab9a750994)" d="M 511.870909 183.2 
L 539.070909 183.2 
L 539.070909 156 
L 511.870909 156 
z
" style="fill:#ff3f00;stroke:#000000;"/>
    <path clip-path="url(#pab9a750994)" d="M 539.070909 183.2 
L 566.270909 183.2 
L 566.270909 156 
L 539.070909 156 
z
" style="fill:#ff3800;stroke:#000000;"/>
    <path clip-path="url(#pab9a750994)" d="M 566.270909 183.2 
L 593.470909 183.2 
L 593.470909 156 
L 566.270909 156 
z
" style="fill:#ff3000;stroke:#000000;"/>
    <path clip-path="url(#pab9a750994)" d="M 430.270909 156 
L 457.470909 156 
L 457.470909 128.8 
L 430.270909 128.8 
z
" style="fill:#ff2900;stroke:#000000;"/>
    <path clip-path="url(#pab9a750994)" d="M 457.470909 156 
L 484.670909 156 
L 484.670909 128.8 
L 457.470909 128.8 
z
" style="fill:#ff2200;stroke:#000000;"/>
    <path clip-path="url(#pab9a750994)" d="M 484.670909 156 
L 511.870909 156 
L 511.870909 128.8 
L 484.670909 128.8 
z
" style="fill:#ff1a00;stroke:#000000;"/>
    <path clip-path="url(#pab9a750994)" d="M 511.870909 156 
L 539.070909 156 
L 539.070909 128.8 
L 511.870909 128.8 
z
" style="fill:#ff1300;stroke:#000000;"/>
    <path clip-path="url(#pab9a750994)" d="M 539.070909 156 
L 566.270909 156 
L 566.270909 128.8 
L 539.070909 128.8 
z
" style="fill:#f60b00;stroke:#000000;"/>
    <path clip-path="url(#pab9a750994)" d="M 566.270909 156 
L 593.470909 156 
L 593.470909 128.8 
L 566.270909 128.8 
z
" style="fill:#ed0400;stroke:#000000;"/>
    <path clip-path="url(#pab9a750994)" d="M 430.270909 128.8 
L 457.470909 128.8 
L 457.470909 101.6 
L 430.270909 101.6 
z
" style="fill:#e40000;stroke:#000000;"/>
    <path clip-path="url(#pab9a750994)" d="M 457.470909 128.8 
L 484.670909 128.8 
L 484.670909 101.6 
L 457.470909 101.6 
z
" style="fill:#da0000;stroke:#000000;"/>
    <path clip-path="url(#pab9a750994)" d="M 484.670909 128.8 
L 511.870909 128.8 
L 511.870909 101.6 
L 484.670909 101.6 
z
" style="fill:#d10000;stroke:#000000;"/>
    <path clip-path="url(#pab9a750994)" d="M 511.870909 128.8 
L 539.070909 128.8 
L 539.070909 101.6 
L 511.870909 101.6 
z
" style="fill:#c80000;stroke:#000000;"/>
    <path clip-path="url(#pab9a750994)" d="M 539.070909 128.8 
L 566.270909 128.8 
L 566.270909 101.6 
L 539.070909 101.6 
z
" style="fill:#bf0000;stroke:#000000;"/>
    <path clip-path="url(#pab9a750994)" d="M 566.270909 128.8 
L 593.470909 128.8 
L 593.470909 101.6 
L 566.270909 101.6 
z
" style="fill:#b60000;stroke:#000000;"/>
    <path clip-path="url(#pab9a750994)" d="M 430.270909 101.6 
L 457.470909 101.6 
L 457.470909 74.4 
L 430.270909 74.4 
z
" style="fill:#ad0000;stroke:#000000;"/>
    <path clip-path="url(#pab9a750994)" d="M 457.470909 101.6 
L 484.670909 101.6 
L 484.670909 74.4 
L 457.470909 74.4 
z
" style="fill:#a40000;stroke:#000000;"/>
    <path clip-path="url(#pab9a750994)" d="M 484.670909 101.6 
L 511.870909 101.6 
L 511.870909 74.4 
L 484.670909 74.4 
z
" style="fill:#9b0000;stroke:#000000;"/>
    <path clip-path="url(#pab9a750994)" d="M 511.870909 101.6 
L 539.070909 101.6 
L 539.070909 74.4 
L 511.870909 74.4 
z
" style="fill:#920000;stroke:#000000;"/>
    <path clip-path="url(#pab9a750994)" d="M 539.070909 101.6 
L 566.270909 101.6 
L 566.270909 74.4 
L 539.070909 74.4 
z
" style="fill:#890000;stroke:#000000;"/>
    <path clip-path="url(#pab9a750994)" d="M 566.270909 101.6 
L 593.470909 101.6 
L 593.470909 74.4 
L 566.270909 74.4 
z
" style="fill:#800000;stroke:#000000;"/>
   </g>
   <g id="patch_8">
    <path d="M 413.950909 702.72 
L 413.950909 17.28 
" style="fill:none;stroke:#000000;stroke-linecap:square;stroke-linejoin:miter;stroke-width:0.8;"/>
   </g>
   <g id="patch_9">
    <path d="M 609.790909 702.72 
L 609.790909 17.28 
" style="fill:none;stroke:#000000;stroke-linecap:square;stroke-linejoin:miter;stroke-width:0.8;"/>
   </g>
   <g id="patch_10">
    <path d="M 413.950909 702.72 
L 609.790909 702.72 
" style="fill:none;stroke:#000000;stroke-linecap:square;stroke-linejoin:miter;stroke-width:0.8;"/>
   </g>
   <g id="patch_11">
    <path d="M 413.950909 17.28 
L 609.790909 17.28 
" style="fill:none;stroke:#000000;stroke-linecap:square;stroke-linejoin:miter;stroke-width:0.8;"/>
   </g>
   <g id="text_55">
    <!-- 0 -->
    <g transform="translate(438.780909 636.415)scale(0.16 -0.16)">
     <use xlink:href="#DejaVuSans-48"/>
    </g>
   </g>
   <g id="text_56">
    <!-- 1 -->
    <g transform="translate(465.980909 636.415)scale(0.16 -0.16)">
     <use xlink:href="#DejaVuSans-49"/>
    </g>
   </g>
   <g id="text_57">
    <!-- 2 -->
    <g transform="translate(493.180909 636.415)scale(0.16 -0.16)">
     <use xlink:href="#DejaVuSans-50"/>
    </g>
   </g>
   <g id="text_58">
    <!-- 3 -->
    <g transform="translate(520.380909 636.415)scale(0.16 -0.16)">
     <use xlink:href="#DejaVuSans-51"/>
    </g>
   </g>
   <g id="text_59">
    <!-- 4 -->
    <g transform="translate(547.580909 636.415)scale(0.16 -0.16)">
     <use xlink:href="#DejaVuSans-52"/>
    </g>
   </g>
   <g id="text_60">
    <!-- 5 -->
    <g transform="translate(574.780909 636.415)scale(0.16 -0.16)">
     <use xlink:href="#DejaVuSans-53"/>
    </g>
   </g>
   <g id="text_61">
    <!-- 6 -->
    <g transform="translate(438.780909 609.215)scale(0.16 -0.16)">
     <use xlink:href="#DejaVuSans-54"/>
    </g>
   </g>
   <g id="text_62">
    <!-- 7 -->
    <g transform="translate(465.980909 609.215)scale(0.16 -0.16)">
     <use xlink:href="#DejaVuSans-55"/>
    </g>
   </g>
   <g id="text_63">
    <!-- 8 -->
    <g transform="translate(493.180909 609.215)scale(0.16 -0.16)">
     <use xlink:href="#DejaVuSans-56"/>
    </g>
   </g>
   <g id="text_64">
    <!-- 9 -->
    <g transform="translate(520.380909 609.215)scale(0.16 -0.16)">
     <use xlink:href="#DejaVuSans-57"/>
    </g>
   </g>
   <g id="text_65">
    <!-- 10 -->
    <g transform="translate(542.490909 609.215)scale(0.16 -0.16)">
     <use xlink:href="#DejaVuSans-49"/>
     <use x="63.623047" xlink:href="#DejaVuSans-48"/>
    </g>
   </g>
   <g id="text_66">
    <!-- 11 -->
    <g transform="translate(569.690909 609.215)scale(0.16 -0.16)">
     <use xlink:href="#DejaVuSans-49"/>
     <use x="63.623047" xlink:href="#DejaVuSans-49"/>
    </g>
   </g>
   <g id="text_67">
    <!-- 12 -->
    <g transform="translate(433.690909 582.015)scale(0.16 -0.16)">
     <use xlink:href="#DejaVuSans-49"/>
     <use x="63.623047" xlink:href="#DejaVuSans-50"/>
    </g>
   </g>
   <g id="text_68">
    <!-- 13 -->
    <g transform="translate(460.890909 582.015)scale(0.16 -0.16)">
     <use xlink:href="#DejaVuSans-49"/>
     <use x="63.623047" xlink:href="#DejaVuSans-51"/>
    </g>
   </g>
   <g id="text_69">
    <!-- 14 -->
    <g transform="translate(488.090909 582.015)scale(0.16 -0.16)">
     <use xlink:href="#DejaVuSans-49"/>
     <use x="63.623047" xlink:href="#DejaVuSans-52"/>
    </g>
   </g>
   <g id="text_70">
    <!-- 15 -->
    <g transform="translate(515.290909 582.015)scale(0.16 -0.16)">
     <use xlink:href="#DejaVuSans-49"/>
     <use x="63.623047" xlink:href="#DejaVuSans-53"/>
    </g>
   </g>
   <g id="text_71">
    <!-- 16 -->
    <g transform="translate(542.490909 582.015)scale(0.16 -0.16)">
     <use xlink:href="#DejaVuSans-49"/>
     <use x="63.623047" xlink:href="#DejaVuSans-54"/>
    </g>
   </g>
   <g id="text_72">
    <!-- 17 -->
    <g transform="translate(569.690909 582.015)scale(0.16 -0.16)">
     <use xlink:href="#DejaVuSans-49"/>
     <use x="63.623047" xlink:href="#DejaVuSans-55"/>
    </g>
   </g>
   <g id="text_73">
    <!-- 18 -->
    <g transform="translate(433.690909 554.815)scale(0.16 -0.16)">
     <use xlink:href="#DejaVuSans-49"/>
     <use x="63.623047" xlink:href="#DejaVuSans-56"/>
    </g>
   </g>
   <g id="text_74">
    <!-- 19 -->
    <g transform="translate(460.890909 554.815)scale(0.16 -0.16)">
     <use xlink:href="#DejaVuSans-49"/>
     <use x="63.623047" xlink:href="#DejaVuSans-57"/>
    </g>
   </g>
   <g id="text_75">
    <!-- 20 -->
    <g transform="translate(488.090909 554.815)scale(0.16 -0.16)">
     <use xlink:href="#DejaVuSans-50"/>
     <use x="63.623047" xlink:href="#DejaVuSans-48"/>
    </g>
   </g>
   <g id="text_76">
    <!-- 21 -->
    <g transform="translate(515.290909 554.815)scale(0.16 -0.16)">
     <use xlink:href="#DejaVuSans-50"/>
     <use x="63.623047" xlink:href="#DejaVuSans-49"/>
    </g>
   </g>
   <g id="text_77">
    <!-- 22 -->
    <g transform="translate(542.490909 554.815)scale(0.16 -0.16)">
     <use xlink:href="#DejaVuSans-50"/>
     <use x="63.623047" xlink:href="#DejaVuSans-50"/>
    </g>
   </g>
   <g id="text_78">
    <!-- 23 -->
    <g transform="translate(569.690909 554.815)scale(0.16 -0.16)">
     <use xlink:href="#DejaVuSans-50"/>
     <use x="63.623047" xlink:href="#DejaVuSans-51"/>
    </g>
   </g>
   <g id="text_79">
    <!-- 24 -->
    <g transform="translate(433.690909 527.615)scale(0.16 -0.16)">
     <use xlink:href="#DejaVuSans-50"/>
     <use x="63.623047" xlink:href="#DejaVuSans-52"/>
    </g>
   </g>
   <g id="text_80">
    <!-- 25 -->
    <g transform="translate(460.890909 527.615)scale(0.16 -0.16)">
     <use xlink:href="#DejaVuSans-50"/>
     <use x="63.623047" xlink:href="#DejaVuSans-53"/>
    </g>
   </g>
   <g id="text_81">
    <!-- 26 -->
    <g transform="translate(488.090909 527.615)scale(0.16 -0.16)">
     <use xlink:href="#DejaVuSans-50"/>
     <use x="63.623047" xlink:href="#DejaVuSans-54"/>
    </g>
   </g>
   <g id="text_82">
    <!-- 27 -->
    <g transform="translate(515.290909 527.615)scale(0.16 -0.16)">
     <use xlink:href="#DejaVuSans-50"/>
     <use x="63.623047" xlink:href="#DejaVuSans-55"/>
    </g>
   </g>
   <g id="text_83">
    <!-- 28 -->
    <g transform="translate(542.490909 527.615)scale(0.16 -0.16)">
     <use xlink:href="#DejaVuSans-50"/>
     <use x="63.623047" xlink:href="#DejaVuSans-56"/>
    </g>
   </g>
   <g id="text_84">
    <!-- 29 -->
    <g transform="translate(569.690909 527.615)scale(0.16 -0.16)">
     <use xlink:href="#DejaVuSans-50"/>
     <use x="63.623047" xlink:href="#DejaVuSans-57"/>
    </g>
   </g>
   <g id="text_85">
    <!-- 30 -->
    <g transform="translate(433.690909 500.415)scale(0.16 -0.16)">
     <use xlink:href="#DejaVuSans-51"/>
     <use x="63.623047" xlink:href="#DejaVuSans-48"/>
    </g>
   </g>
   <g id="text_86">
    <!-- 31 -->
    <g transform="translate(460.890909 500.415)scale(0.16 -0.16)">
     <use xlink:href="#DejaVuSans-51"/>
     <use x="63.623047" xlink:href="#DejaVuSans-49"/>
    </g>
   </g>
   <g id="text_87">
    <!-- 32 -->
    <g transform="translate(488.090909 500.415)scale(0.16 -0.16)">
     <use xlink:href="#DejaVuSans-51"/>
     <use x="63.623047" xlink:href="#DejaVuSans-50"/>
    </g>
   </g>
   <g id="text_88">
    <!-- 33 -->
    <g transform="translate(515.290909 500.415)scale(0.16 -0.16)">
     <use xlink:href="#DejaVuSans-51"/>
     <use x="63.623047" xlink:href="#DejaVuSans-51"/>
    </g>
   </g>
   <g id="text_89">
    <!-- 34 -->
    <g transform="translate(542.490909 500.415)scale(0.16 -0.16)">
     <use xlink:href="#DejaVuSans-51"/>
     <use x="63.623047" xlink:href="#DejaVuSans-52"/>
    </g>
   </g>
   <g id="text_90">
    <!-- 35 -->
    <g transform="translate(569.690909 500.415)scale(0.16 -0.16)">
     <use xlink:href="#DejaVuSans-51"/>
     <use x="63.623047" xlink:href="#DejaVuSans-53"/>
    </g>
   </g>
   <g id="text_91">
    <!-- 36 -->
    <g transform="translate(433.690909 473.215)scale(0.16 -0.16)">
     <use xlink:href="#DejaVuSans-51"/>
     <use x="63.623047" xlink:href="#DejaVuSans-54"/>
    </g>
   </g>
   <g id="text_92">
    <!-- 37 -->
    <g transform="translate(460.890909 473.215)scale(0.16 -0.16)">
     <use xlink:href="#DejaVuSans-51"/>
     <use x="63.623047" xlink:href="#DejaVuSans-55"/>
    </g>
   </g>
   <g id="text_93">
    <!-- 38 -->
    <g transform="translate(488.090909 473.215)scale(0.16 -0.16)">
     <use xlink:href="#DejaVuSans-51"/>
     <use x="63.623047" xlink:href="#DejaVuSans-56"/>
    </g>
   </g>
   <g id="text_94">
    <!-- 39 -->
    <g transform="translate(515.290909 473.215)scale(0.16 -0.16)">
     <use xlink:href="#DejaVuSans-51"/>
     <use x="63.623047" xlink:href="#DejaVuSans-57"/>
    </g>
   </g>
   <g id="text_95">
    <!-- 40 -->
    <g transform="translate(542.490909 473.215)scale(0.16 -0.16)">
     <use xlink:href="#DejaVuSans-52"/>
     <use x="63.623047" xlink:href="#DejaVuSans-48"/>
    </g>
   </g>
   <g id="text_96">
    <!-- 41 -->
    <g transform="translate(569.690909 473.215)scale(0.16 -0.16)">
     <use xlink:href="#DejaVuSans-52"/>
     <use x="63.623047" xlink:href="#DejaVuSans-49"/>
    </g>
   </g>
   <g id="text_97">
    <!-- 42 -->
    <g transform="translate(433.690909 446.015)scale(0.16 -0.16)">
     <use xlink:href="#DejaVuSans-52"/>
     <use x="63.623047" xlink:href="#DejaVuSans-50"/>
    </g>
   </g>
   <g id="text_98">
    <!-- 43 -->
    <g transform="translate(460.890909 446.015)scale(0.16 -0.16)">
     <use xlink:href="#DejaVuSans-52"/>
     <use x="63.623047" xlink:href="#DejaVuSans-51"/>
    </g>
   </g>
   <g id="text_99">
    <!-- 44 -->
    <g transform="translate(488.090909 446.015)scale(0.16 -0.16)">
     <use xlink:href="#DejaVuSans-52"/>
     <use x="63.623047" xlink:href="#DejaVuSans-52"/>
    </g>
   </g>
   <g id="text_100">
    <!-- 45 -->
    <g transform="translate(515.290909 446.015)scale(0.16 -0.16)">
     <use xlink:href="#DejaVuSans-52"/>
     <use x="63.623047" xlink:href="#DejaVuSans-53"/>
    </g>
   </g>
   <g id="text_101">
    <!-- 46 -->
    <g transform="translate(542.490909 446.015)scale(0.16 -0.16)">
     <use xlink:href="#DejaVuSans-52"/>
     <use x="63.623047" xlink:href="#DejaVuSans-54"/>
    </g>
   </g>
   <g id="text_102">
    <!-- 47 -->
    <g transform="translate(569.690909 446.015)scale(0.16 -0.16)">
     <use xlink:href="#DejaVuSans-52"/>
     <use x="63.623047" xlink:href="#DejaVuSans-55"/>
    </g>
   </g>
   <g id="text_103">
    <!-- 48 -->
    <g transform="translate(433.690909 418.815)scale(0.16 -0.16)">
     <use xlink:href="#DejaVuSans-52"/>
     <use x="63.623047" xlink:href="#DejaVuSans-56"/>
    </g>
   </g>
   <g id="text_104">
    <!-- 49 -->
    <g transform="translate(460.890909 418.815)scale(0.16 -0.16)">
     <use xlink:href="#DejaVuSans-52"/>
     <use x="63.623047" xlink:href="#DejaVuSans-57"/>
    </g>
   </g>
   <g id="text_105">
    <!-- 50 -->
    <g transform="translate(488.090909 418.815)scale(0.16 -0.16)">
     <use xlink:href="#DejaVuSans-53"/>
     <use x="63.623047" xlink:href="#DejaVuSans-48"/>
    </g>
   </g>
   <g id="text_106">
    <!-- 51 -->
    <g transform="translate(515.290909 418.815)scale(0.16 -0.16)">
     <use xlink:href="#DejaVuSans-53"/>
     <use x="63.623047" xlink:href="#DejaVuSans-49"/>
    </g>
   </g>
   <g id="text_107">
    <!-- 52 -->
    <g transform="translate(542.490909 418.815)scale(0.16 -0.16)">
     <use xlink:href="#DejaVuSans-53"/>
     <use x="63.623047" xlink:href="#DejaVuSans-50"/>
    </g>
   </g>
   <g id="text_108">
    <!-- 53 -->
    <g transform="translate(569.690909 418.815)scale(0.16 -0.16)">
     <use xlink:href="#DejaVuSans-53"/>
     <use x="63.623047" xlink:href="#DejaVuSans-51"/>
    </g>
   </g>
   <g id="text_109">
    <!-- 54 -->
    <g transform="translate(433.690909 391.615)scale(0.16 -0.16)">
     <use xlink:href="#DejaVuSans-53"/>
     <use x="63.623047" xlink:href="#DejaVuSans-52"/>
    </g>
   </g>
   <g id="text_110">
    <!-- 55 -->
    <g transform="translate(460.890909 391.615)scale(0.16 -0.16)">
     <use xlink:href="#DejaVuSans-53"/>
     <use x="63.623047" xlink:href="#DejaVuSans-53"/>
    </g>
   </g>
   <g id="text_111">
    <!-- 56 -->
    <g transform="translate(488.090909 391.615)scale(0.16 -0.16)">
     <use xlink:href="#DejaVuSans-53"/>
     <use x="63.623047" xlink:href="#DejaVuSans-54"/>
    </g>
   </g>
   <g id="text_112">
    <!-- 57 -->
    <g transform="translate(515.290909 391.615)scale(0.16 -0.16)">
     <use xlink:href="#DejaVuSans-53"/>
     <use x="63.623047" xlink:href="#DejaVuSans-55"/>
    </g>
   </g>
   <g id="text_113">
    <!-- 58 -->
    <g transform="translate(542.490909 391.615)scale(0.16 -0.16)">
     <use xlink:href="#DejaVuSans-53"/>
     <use x="63.623047" xlink:href="#DejaVuSans-56"/>
    </g>
   </g>
   <g id="text_114">
    <!-- 59 -->
    <g transform="translate(569.690909 391.615)scale(0.16 -0.16)">
     <use xlink:href="#DejaVuSans-53"/>
     <use x="63.623047" xlink:href="#DejaVuSans-57"/>
    </g>
   </g>
   <g id="text_115">
    <!-- 60 -->
    <g transform="translate(433.690909 364.415)scale(0.16 -0.16)">
     <use xlink:href="#DejaVuSans-54"/>
     <use x="63.623047" xlink:href="#DejaVuSans-48"/>
    </g>
   </g>
   <g id="text_116">
    <!-- 61 -->
    <g transform="translate(460.890909 364.415)scale(0.16 -0.16)">
     <use xlink:href="#DejaVuSans-54"/>
     <use x="63.623047" xlink:href="#DejaVuSans-49"/>
    </g>
   </g>
   <g id="text_117">
    <!-- 62 -->
    <g transform="translate(488.090909 364.415)scale(0.16 -0.16)">
     <use xlink:href="#DejaVuSans-54"/>
     <use x="63.623047" xlink:href="#DejaVuSans-50"/>
    </g>
   </g>
   <g id="text_118">
    <!-- 63 -->
    <g transform="translate(515.290909 364.415)scale(0.16 -0.16)">
     <use xlink:href="#DejaVuSans-54"/>
     <use x="63.623047" xlink:href="#DejaVuSans-51"/>
    </g>
   </g>
   <g id="text_119">
    <!-- 64 -->
    <g transform="translate(542.490909 364.415)scale(0.16 -0.16)">
     <use xlink:href="#DejaVuSans-54"/>
     <use x="63.623047" xlink:href="#DejaVuSans-52"/>
    </g>
   </g>
   <g id="text_120">
    <!-- 65 -->
    <g transform="translate(569.690909 364.415)scale(0.16 -0.16)">
     <use xlink:href="#DejaVuSans-54"/>
     <use x="63.623047" xlink:href="#DejaVuSans-53"/>
    </g>
   </g>
   <g id="text_121">
    <!-- 66 -->
    <g transform="translate(433.690909 337.215)scale(0.16 -0.16)">
     <use xlink:href="#DejaVuSans-54"/>
     <use x="63.623047" xlink:href="#DejaVuSans-54"/>
    </g>
   </g>
   <g id="text_122">
    <!-- 67 -->
    <g transform="translate(460.890909 337.215)scale(0.16 -0.16)">
     <use xlink:href="#DejaVuSans-54"/>
     <use x="63.623047" xlink:href="#DejaVuSans-55"/>
    </g>
   </g>
   <g id="text_123">
    <!-- 68 -->
    <g transform="translate(488.090909 337.215)scale(0.16 -0.16)">
     <use xlink:href="#DejaVuSans-54"/>
     <use x="63.623047" xlink:href="#DejaVuSans-56"/>
    </g>
   </g>
   <g id="text_124">
    <!-- 69 -->
    <g transform="translate(515.290909 337.215)scale(0.16 -0.16)">
     <use xlink:href="#DejaVuSans-54"/>
     <use x="63.623047" xlink:href="#DejaVuSans-57"/>
    </g>
   </g>
   <g id="text_125">
    <!-- 70 -->
    <g transform="translate(542.490909 337.215)scale(0.16 -0.16)">
     <use xlink:href="#DejaVuSans-55"/>
     <use x="63.623047" xlink:href="#DejaVuSans-48"/>
    </g>
   </g>
   <g id="text_126">
    <!-- 71 -->
    <g transform="translate(569.690909 337.215)scale(0.16 -0.16)">
     <use xlink:href="#DejaVuSans-55"/>
     <use x="63.623047" xlink:href="#DejaVuSans-49"/>
    </g>
   </g>
   <g id="text_127">
    <!-- 72 -->
    <g transform="translate(433.690909 310.015)scale(0.16 -0.16)">
     <use xlink:href="#DejaVuSans-55"/>
     <use x="63.623047" xlink:href="#DejaVuSans-50"/>
    </g>
   </g>
   <g id="text_128">
    <!-- 73 -->
    <g transform="translate(460.890909 310.015)scale(0.16 -0.16)">
     <use xlink:href="#DejaVuSans-55"/>
     <use x="63.623047" xlink:href="#DejaVuSans-51"/>
    </g>
   </g>
   <g id="text_129">
    <!-- 74 -->
    <g transform="translate(488.090909 310.015)scale(0.16 -0.16)">
     <use xlink:href="#DejaVuSans-55"/>
     <use x="63.623047" xlink:href="#DejaVuSans-52"/>
    </g>
   </g>
   <g id="text_130">
    <!-- 75 -->
    <g transform="translate(515.290909 310.015)scale(0.16 -0.16)">
     <use xlink:href="#DejaVuSans-55"/>
     <use x="63.623047" xlink:href="#DejaVuSans-53"/>
    </g>
   </g>
   <g id="text_131">
    <!-- 76 -->
    <g transform="translate(542.490909 310.015)scale(0.16 -0.16)">
     <use xlink:href="#DejaVuSans-55"/>
     <use x="63.623047" xlink:href="#DejaVuSans-54"/>
    </g>
   </g>
   <g id="text_132">
    <!-- 77 -->
    <g transform="translate(569.690909 310.015)scale(0.16 -0.16)">
     <use xlink:href="#DejaVuSans-55"/>
     <use x="63.623047" xlink:href="#DejaVuSans-55"/>
    </g>
   </g>
   <g id="text_133">
    <!-- 78 -->
    <g transform="translate(433.690909 282.815)scale(0.16 -0.16)">
     <use xlink:href="#DejaVuSans-55"/>
     <use x="63.623047" xlink:href="#DejaVuSans-56"/>
    </g>
   </g>
   <g id="text_134">
    <!-- 79 -->
    <g transform="translate(460.890909 282.815)scale(0.16 -0.16)">
     <use xlink:href="#DejaVuSans-55"/>
     <use x="63.623047" xlink:href="#DejaVuSans-57"/>
    </g>
   </g>
   <g id="text_135">
    <!-- 80 -->
    <g transform="translate(488.090909 282.815)scale(0.16 -0.16)">
     <use xlink:href="#DejaVuSans-56"/>
     <use x="63.623047" xlink:href="#DejaVuSans-48"/>
    </g>
   </g>
   <g id="text_136">
    <!-- 81 -->
    <g transform="translate(515.290909 282.815)scale(0.16 -0.16)">
     <use xlink:href="#DejaVuSans-56"/>
     <use x="63.623047" xlink:href="#DejaVuSans-49"/>
    </g>
   </g>
   <g id="text_137">
    <!-- 82 -->
    <g transform="translate(542.490909 282.815)scale(0.16 -0.16)">
     <use xlink:href="#DejaVuSans-56"/>
     <use x="63.623047" xlink:href="#DejaVuSans-50"/>
    </g>
   </g>
   <g id="text_138">
    <!-- 83 -->
    <g transform="translate(569.690909 282.815)scale(0.16 -0.16)">
     <use xlink:href="#DejaVuSans-56"/>
     <use x="63.623047" xlink:href="#DejaVuSans-51"/>
    </g>
   </g>
   <g id="text_139">
    <!-- 84 -->
    <g transform="translate(433.690909 255.615)scale(0.16 -0.16)">
     <use xlink:href="#DejaVuSans-56"/>
     <use x="63.623047" xlink:href="#DejaVuSans-52"/>
    </g>
   </g>
   <g id="text_140">
    <!-- 85 -->
    <g transform="translate(460.890909 255.615)scale(0.16 -0.16)">
     <use xlink:href="#DejaVuSans-56"/>
     <use x="63.623047" xlink:href="#DejaVuSans-53"/>
    </g>
   </g>
   <g id="text_141">
    <!-- 86 -->
    <g transform="translate(488.090909 255.615)scale(0.16 -0.16)">
     <use xlink:href="#DejaVuSans-56"/>
     <use x="63.623047" xlink:href="#DejaVuSans-54"/>
    </g>
   </g>
   <g id="text_142">
    <!-- 87 -->
    <g transform="translate(515.290909 255.615)scale(0.16 -0.16)">
     <use xlink:href="#DejaVuSans-56"/>
     <use x="63.623047" xlink:href="#DejaVuSans-55"/>
    </g>
   </g>
   <g id="text_143">
    <!-- 88 -->
    <g transform="translate(542.490909 255.615)scale(0.16 -0.16)">
     <use xlink:href="#DejaVuSans-56"/>
     <use x="63.623047" xlink:href="#DejaVuSans-56"/>
    </g>
   </g>
   <g id="text_144">
    <!-- 89 -->
    <g transform="translate(569.690909 255.615)scale(0.16 -0.16)">
     <use xlink:href="#DejaVuSans-56"/>
     <use x="63.623047" xlink:href="#DejaVuSans-57"/>
    </g>
   </g>
   <g id="text_145">
    <!-- 90 -->
    <g transform="translate(433.690909 228.415)scale(0.16 -0.16)">
     <use xlink:href="#DejaVuSans-57"/>
     <use x="63.623047" xlink:href="#DejaVuSans-48"/>
    </g>
   </g>
   <g id="text_146">
    <!-- 91 -->
    <g transform="translate(460.890909 228.415)scale(0.16 -0.16)">
     <use xlink:href="#DejaVuSans-57"/>
     <use x="63.623047" xlink:href="#DejaVuSans-49"/>
    </g>
   </g>
   <g id="text_147">
    <!-- 92 -->
    <g transform="translate(488.090909 228.415)scale(0.16 -0.16)">
     <use xlink:href="#DejaVuSans-57"/>
     <use x="63.623047" xlink:href="#DejaVuSans-50"/>
    </g>
   </g>
   <g id="text_148">
    <!-- 93 -->
    <g transform="translate(515.290909 228.415)scale(0.16 -0.16)">
     <use xlink:href="#DejaVuSans-57"/>
     <use x="63.623047" xlink:href="#DejaVuSans-51"/>
    </g>
   </g>
   <g id="text_149">
    <!-- 94 -->
    <g transform="translate(542.490909 228.415)scale(0.16 -0.16)">
     <use xlink:href="#DejaVuSans-57"/>
     <use x="63.623047" xlink:href="#DejaVuSans-52"/>
    </g>
   </g>
   <g id="text_150">
    <!-- 95 -->
    <g transform="translate(569.690909 228.415)scale(0.16 -0.16)">
     <use xlink:href="#DejaVuSans-57"/>
     <use x="63.623047" xlink:href="#DejaVuSans-53"/>
    </g>
   </g>
   <g id="text_151">
    <!-- 96 -->
    <g transform="translate(433.690909 201.215)scale(0.16 -0.16)">
     <use xlink:href="#DejaVuSans-57"/>
     <use x="63.623047" xlink:href="#DejaVuSans-54"/>
    </g>
   </g>
   <g id="text_152">
    <!-- 97 -->
    <g transform="translate(460.890909 201.215)scale(0.16 -0.16)">
     <use xlink:href="#DejaVuSans-57"/>
     <use x="63.623047" xlink:href="#DejaVuSans-55"/>
    </g>
   </g>
   <g id="text_153">
    <!-- 98 -->
    <g transform="translate(488.090909 201.215)scale(0.16 -0.16)">
     <use xlink:href="#DejaVuSans-57"/>
     <use x="63.623047" xlink:href="#DejaVuSans-56"/>
    </g>
   </g>
   <g id="text_154">
    <!-- 99 -->
    <g transform="translate(515.290909 201.215)scale(0.16 -0.16)">
     <use xlink:href="#DejaVuSans-57"/>
     <use x="63.623047" xlink:href="#DejaVuSans-57"/>
    </g>
   </g>
   <g id="text_155">
    <!-- 100 -->
    <g transform="translate(537.400909 201.215)scale(0.16 -0.16)">
     <use xlink:href="#DejaVuSans-49"/>
     <use x="63.623047" xlink:href="#DejaVuSans-48"/>
     <use x="127.246094" xlink:href="#DejaVuSans-48"/>
    </g>
   </g>
   <g id="text_156">
    <!-- 101 -->
    <g transform="translate(564.600909 201.215)scale(0.16 -0.16)">
     <use xlink:href="#DejaVuSans-49"/>
     <use x="63.623047" xlink:href="#DejaVuSans-48"/>
     <use x="127.246094" xlink:href="#DejaVuSans-49"/>
    </g>
   </g>
   <g id="text_157">
    <!-- 102 -->
    <g transform="translate(428.600909 174.015)scale(0.16 -0.16)">
     <use xlink:href="#DejaVuSans-49"/>
     <use x="63.623047" xlink:href="#DejaVuSans-48"/>
     <use x="127.246094" xlink:href="#DejaVuSans-50"/>
    </g>
   </g>
   <g id="text_158">
    <!-- 103 -->
    <g transform="translate(455.800909 174.015)scale(0.16 -0.16)">
     <use xlink:href="#DejaVuSans-49"/>
     <use x="63.623047" xlink:href="#DejaVuSans-48"/>
     <use x="127.246094" xlink:href="#DejaVuSans-51"/>
    </g>
   </g>
   <g id="text_159">
    <!-- 104 -->
    <g transform="translate(483.000909 174.015)scale(0.16 -0.16)">
     <use xlink:href="#DejaVuSans-49"/>
     <use x="63.623047" xlink:href="#DejaVuSans-48"/>
     <use x="127.246094" xlink:href="#DejaVuSans-52"/>
    </g>
   </g>
   <g id="text_160">
    <!-- 105 -->
    <g transform="translate(510.200909 174.015)scale(0.16 -0.16)">
     <use xlink:href="#DejaVuSans-49"/>
     <use x="63.623047" xlink:href="#DejaVuSans-48"/>
     <use x="127.246094" xlink:href="#DejaVuSans-53"/>
    </g>
   </g>
   <g id="text_161">
    <!-- 106 -->
    <g transform="translate(537.400909 174.015)scale(0.16 -0.16)">
     <use xlink:href="#DejaVuSans-49"/>
     <use x="63.623047" xlink:href="#DejaVuSans-48"/>
     <use x="127.246094" xlink:href="#DejaVuSans-54"/>
    </g>
   </g>
   <g id="text_162">
    <!-- 107 -->
    <g transform="translate(564.600909 174.015)scale(0.16 -0.16)">
     <use xlink:href="#DejaVuSans-49"/>
     <use x="63.623047" xlink:href="#DejaVuSans-48"/>
     <use x="127.246094" xlink:href="#DejaVuSans-55"/>
    </g>
   </g>
   <g id="text_163">
    <!-- 108 -->
    <g transform="translate(428.600909 146.815)scale(0.16 -0.16)">
     <use xlink:href="#DejaVuSans-49"/>
     <use x="63.623047" xlink:href="#DejaVuSans-48"/>
     <use x="127.246094" xlink:href="#DejaVuSans-56"/>
    </g>
   </g>
   <g id="text_164">
    <!-- 109 -->
    <g transform="translate(455.800909 146.815)scale(0.16 -0.16)">
     <use xlink:href="#DejaVuSans-49"/>
     <use x="63.623047" xlink:href="#DejaVuSans-48"/>
     <use x="127.246094" xlink:href="#DejaVuSans-57"/>
    </g>
   </g>
   <g id="text_165">
    <!-- 110 -->
    <g transform="translate(483.000909 146.815)scale(0.16 -0.16)">
     <use xlink:href="#DejaVuSans-49"/>
     <use x="63.623047" xlink:href="#DejaVuSans-49"/>
     <use x="127.246094" xlink:href="#DejaVuSans-48"/>
    </g>
   </g>
   <g id="text_166">
    <!-- 111 -->
    <g transform="translate(510.200909 146.815)scale(0.16 -0.16)">
     <use xlink:href="#DejaVuSans-49"/>
     <use x="63.623047" xlink:href="#DejaVuSans-49"/>
     <use x="127.246094" xlink:href="#DejaVuSans-49"/>
    </g>
   </g>
   <g id="text_167">
    <!-- 112 -->
    <g transform="translate(537.400909 146.815)scale(0.16 -0.16)">
     <use xlink:href="#DejaVuSans-49"/>
     <use x="63.623047" xlink:href="#DejaVuSans-49"/>
     <use x="127.246094" xlink:href="#DejaVuSans-50"/>
    </g>
   </g>
   <g id="text_168">
    <!-- 113 -->
    <g transform="translate(564.600909 146.815)scale(0.16 -0.16)">
     <use xlink:href="#DejaVuSans-49"/>
     <use x="63.623047" xlink:href="#DejaVuSans-49"/>
     <use x="127.246094" xlink:href="#DejaVuSans-51"/>
    </g>
   </g>
   <g id="text_169">
    <!-- 114 -->
    <g transform="translate(428.600909 119.615)scale(0.16 -0.16)">
     <use xlink:href="#DejaVuSans-49"/>
     <use x="63.623047" xlink:href="#DejaVuSans-49"/>
     <use x="127.246094" xlink:href="#DejaVuSans-52"/>
    </g>
   </g>
   <g id="text_170">
    <!-- 115 -->
    <g transform="translate(455.800909 119.615)scale(0.16 -0.16)">
     <use xlink:href="#DejaVuSans-49"/>
     <use x="63.623047" xlink:href="#DejaVuSans-49"/>
     <use x="127.246094" xlink:href="#DejaVuSans-53"/>
    </g>
   </g>
   <g id="text_171">
    <!-- 116 -->
    <g transform="translate(483.000909 119.615)scale(0.16 -0.16)">
     <use xlink:href="#DejaVuSans-49"/>
     <use x="63.623047" xlink:href="#DejaVuSans-49"/>
     <use x="127.246094" xlink:href="#DejaVuSans-54"/>
    </g>
   </g>
   <g id="text_172">
    <!-- 117 -->
    <g transform="translate(510.200909 119.615)scale(0.16 -0.16)">
     <use xlink:href="#DejaVuSans-49"/>
     <use x="63.623047" xlink:href="#DejaVuSans-49"/>
     <use x="127.246094" xlink:href="#DejaVuSans-55"/>
    </g>
   </g>
   <g id="text_173">
    <!-- 118 -->
    <g transform="translate(537.400909 119.615)scale(0.16 -0.16)">
     <use xlink:href="#DejaVuSans-49"/>
     <use x="63.623047" xlink:href="#DejaVuSans-49"/>
     <use x="127.246094" xlink:href="#DejaVuSans-56"/>
    </g>
   </g>
   <g id="text_174">
    <!-- 119 -->
    <g transform="translate(564.600909 119.615)scale(0.16 -0.16)">
     <use xlink:href="#DejaVuSans-49"/>
     <use x="63.623047" xlink:href="#DejaVuSans-49"/>
     <use x="127.246094" xlink:href="#DejaVuSans-57"/>
    </g>
   </g>
   <g id="text_175">
    <!-- 120 -->
    <g transform="translate(428.600909 92.415)scale(0.16 -0.16)">
     <use xlink:href="#DejaVuSans-49"/>
     <use x="63.623047" xlink:href="#DejaVuSans-50"/>
     <use x="127.246094" xlink:href="#DejaVuSans-48"/>
    </g>
   </g>
   <g id="text_176">
    <!-- 121 -->
    <g transform="translate(455.800909 92.415)scale(0.16 -0.16)">
     <use xlink:href="#DejaVuSans-49"/>
     <use x="63.623047" xlink:href="#DejaVuSans-50"/>
     <use x="127.246094" xlink:href="#DejaVuSans-49"/>
    </g>
   </g>
   <g id="text_177">
    <!-- 122 -->
    <g transform="translate(483.000909 92.415)scale(0.16 -0.16)">
     <use xlink:href="#DejaVuSans-49"/>
     <use x="63.623047" xlink:href="#DejaVuSans-50"/>
     <use x="127.246094" xlink:href="#DejaVuSans-50"/>
    </g>
   </g>
   <g id="text_178">
    <!-- 123 -->
    <g transform="translate(510.200909 92.415)scale(0.16 -0.16)">
     <use xlink:href="#DejaVuSans-49"/>
     <use x="63.623047" xlink:href="#DejaVuSans-50"/>
     <use x="127.246094" xlink:href="#DejaVuSans-51"/>
    </g>
   </g>
   <g id="text_179">
    <!-- 124 -->
    <g transform="translate(537.400909 92.415)scale(0.16 -0.16)">
     <use xlink:href="#DejaVuSans-49"/>
     <use x="63.623047" xlink:href="#DejaVuSans-50"/>
     <use x="127.246094" xlink:href="#DejaVuSans-52"/>
    </g>
   </g>
   <g id="text_180">
    <!-- 125 -->
    <g transform="translate(564.600909 92.415)scale(0.16 -0.16)">
     <use xlink:href="#DejaVuSans-49"/>
     <use x="63.623047" xlink:href="#DejaVuSans-50"/>
     <use x="127.246094" xlink:href="#DejaVuSans-53"/>
    </g>
   </g>
  </g>
 </g>
 <defs>
  <clipPath id="pd9562cdf1e">
   <rect height="685.44" width="195.84" x="110.209091" y="17.28"/>
  </clipPath>
  <clipPath id="pab9a750994">
   <rect height="685.44" width="195.84" x="413.950909" y="17.28"/>
  </clipPath>
 </defs>
</svg>
