<?xml version="1.0" encoding="UTF-8"?>
<!DOCTYPE svg PUBLIC "-//W3C//DTD SVG 1.1//EN" "http://www.w3.org/Graphics/SVG/1.1/DTD/svg11.dtd">
<svg version="1.1" xmlns="http://www.w3.org/2000/svg" xmlns:xlink="http://www.w3.org/1999/xlink" x="0" y="0" width="207.448" height="217.375" viewBox="0, 0, 207.448, 217.375">
  <g id="mesh">
    <path d="M16.103,192.346 L204.734,192.346" fill-opacity="0" stroke="#000000" stroke-width="1"/>
    <path d="M16.103,98.03 L204.734,98.03" fill-opacity="0" stroke="#000000" stroke-width="1"/>
    <path d="M16.103,3.714 L204.734,3.714" fill-opacity="0" stroke="#000000" stroke-width="1"/>
    <path d="M204.734,192.346 L204.734,3.714" fill-opacity="0" stroke="#000000" stroke-width="1"/>
    <path d="M110.419,192.346 L110.419,3.714" fill-opacity="0" stroke="#000000" stroke-width="1"/>
    <path d="M16.103,192.346 L16.103,3.714" fill-opacity="0" stroke="#000000" stroke-width="1"/>
    <path d="M15.603,195.059 C13.828,195.059 12.389,193.621 12.389,191.846 C12.389,190.071 13.828,188.632 15.603,188.632 C17.378,188.632 18.816,190.071 18.816,191.846 C18.816,193.621 17.378,195.059 15.603,195.059 z" fill="#000000"/>
    <path d="M15.603,100.744 C13.828,100.744 12.389,99.305 12.389,97.53 C12.389,95.755 13.828,94.316 15.603,94.316 C17.378,94.316 18.816,95.755 18.816,97.53 C18.816,99.305 17.378,100.744 15.603,100.744 z" fill="#000000"/>
    <path d="M15.603,6.428 C13.828,6.428 12.389,4.989 12.389,3.214 C12.389,1.439 13.828,0 15.603,0 C17.378,0 18.816,1.439 18.816,3.214 C18.816,4.989 17.378,6.428 15.603,6.428 z" fill="#000000"/>
    <path d="M109.919,195.059 C108.144,195.059 106.705,193.621 106.705,191.846 C106.705,190.071 108.144,188.632 109.919,188.632 C111.693,188.632 113.132,190.071 113.132,191.846 C113.132,193.621 111.693,195.059 109.919,195.059 z" fill="#000000"/>
    <path d="M109.919,100.744 C108.144,100.744 106.705,99.305 106.705,97.53 C106.705,95.755 108.144,94.316 109.919,94.316 C111.693,94.316 113.132,95.755 113.132,97.53 C113.132,99.305 111.693,100.744 109.919,100.744 z" fill="#000000"/>
    <path d="M109.919,6.428 C108.144,6.428 106.705,4.989 106.705,3.214 C106.705,1.439 108.144,0 109.919,0 C111.693,0 113.132,1.439 113.132,3.214 C113.132,4.989 111.693,6.428 109.919,6.428 z" fill="#000000"/>
    <path d="M204.234,195.059 C202.459,195.059 201.021,193.621 201.021,191.846 C201.021,190.071 202.459,188.632 204.234,188.632 C206.009,188.632 207.448,190.071 207.448,191.846 C207.448,193.621 206.009,195.059 204.234,195.059 z" fill="#000000"/>
    <path d="M204.234,100.744 C202.459,100.744 201.021,99.305 201.021,97.53 C201.021,95.755 202.459,94.316 204.234,94.316 C206.009,94.316 207.448,95.755 207.448,97.53 C207.448,99.305 206.009,100.744 204.234,100.744 z" fill="#000000"/>
    <path d="M204.234,6.428 C202.459,6.428 201.021,4.989 201.021,3.214 C201.021,1.439 202.459,0 204.234,0 C206.009,0 207.448,1.439 207.448,3.214 C207.448,4.989 206.009,6.428 204.234,6.428 z" fill="#000000"/>
  </g>
  <g id="node_numbers">
    <text transform="matrix(1, 0, 0, 1, 4.448, 205.875)">
      <tspan x="-4.448" y="4.5" font-family="Avenir-Book" font-size="16" fill="#000000">0</tspan>
    </text>
    <text transform="matrix(1, 0, 0, 1, 96.911, 205.875)">
      <tspan x="-4.448" y="4.5" font-family="Avenir-Book" font-size="16" fill="#000000">1</tspan>
    </text>
    <text transform="matrix(1, 0, 0, 1, 195.338, 205.875)">
      <tspan x="-4.448" y="4.5" font-family="Avenir-Book" font-size="16" fill="#000000">2</tspan>
    </text>
    <text transform="matrix(1, 0, 0, 1, 4.448, 111.334)">
      <tspan x="-4.448" y="4.5" font-family="Avenir-Book" font-size="16" fill="#000000">3</tspan>
    </text>
    <text transform="matrix(1, 0, 0, 1, 96.911, 111.334)">
      <tspan x="-4.448" y="4.5" font-family="Avenir-Book" font-size="16" fill="#000000">4</tspan>
    </text>
    <text transform="matrix(1, 0, 0, 1, 195.338, 111.334)">
      <tspan x="-4.448" y="4.5" font-family="Avenir-Book" font-size="16" fill="#000000">5</tspan>
    </text>
    <text transform="matrix(1, 0, 0, 1, 4.448, 19.635)">
      <tspan x="-4.448" y="4.5" font-family="Avenir-Book" font-size="16" fill="#000000">6</tspan>
    </text>
    <text transform="matrix(1, 0, 0, 1, 96.911, 19.635)">
      <tspan x="-4.448" y="4.5" font-family="Avenir-Book" font-size="16" fill="#000000">7</tspan>
    </text>
    <text transform="matrix(1, 0, 0, 1, 195.338, 19.635)">
      <tspan x="-4.448" y="4.5" font-family="Avenir-Book" font-size="16" fill="#000000">8</tspan>
    </text>
  </g>
  <g id="element_numbers">
    <text transform="matrix(1, 0, 0, 1, 62.761, 144.688)">
      <tspan x="-4.448" y="4.5" font-family="Avenir-Book" font-size="16" fill="#000000">0</tspan>
    </text>
    <path d="M63.261,155.69 C57.46,155.69 52.758,150.988 52.758,145.188 C52.758,139.387 57.46,134.686 63.261,134.686 C69.061,134.686 73.763,139.387 73.763,145.188 C73.763,150.988 69.061,155.69 63.261,155.69 z" fill-opacity="0" stroke="#000000" stroke-width="0.5"/>
    <text transform="matrix(1, 0, 0, 1, 157.076, 144.688)">
      <tspan x="-4.448" y="4.5" font-family="Avenir-Book" font-size="16" fill="#000000">1</tspan>
    </text>
    <path d="M157.576,155.69 C151.776,155.69 147.074,150.988 147.074,145.188 C147.074,139.387 151.776,134.686 157.576,134.686 C163.377,134.686 168.079,139.387 168.079,145.188 C168.079,150.988 163.377,155.69 157.576,155.69 z" fill-opacity="0" stroke="#000000" stroke-width="0.5"/>
    <text transform="matrix(1, 0, 0, 1, 62.761, 50.372)">
      <tspan x="-4.448" y="4.5" font-family="Avenir-Book" font-size="16" fill="#000000">2</tspan>
    </text>
    <path d="M63.261,61.374 C57.46,61.374 52.758,56.672 52.758,50.872 C52.758,45.072 57.46,40.37 63.261,40.37 C69.061,40.37 73.763,45.072 73.763,50.872 C73.763,56.672 69.061,61.374 63.261,61.374 z" fill-opacity="0" stroke="#000000" stroke-width="0.5"/>
    <text transform="matrix(1, 0, 0, 1, 157.076, 50.372)">
      <tspan x="-4.448" y="4.5" font-family="Avenir-Book" font-size="16" fill="#000000">3</tspan>
    </text>
    <path d="M157.576,61.374 C151.776,61.374 147.074,56.672 147.074,50.872 C147.074,45.072 151.776,40.37 157.576,40.37 C163.377,40.37 168.079,45.072 168.079,50.872 C168.079,56.672 163.377,61.374 157.576,61.374 z" fill-opacity="0" stroke="#000000" stroke-width="0.5"/>
  </g>
</svg>
