<?xml version="1.0" encoding="UTF-8"?>
<!DOCTYPE svg PUBLIC "-//W3C//DTD SVG 1.1//EN" "http://www.w3.org/Graphics/SVG/1.1/DTD/svg11.dtd">
<svg version="1.1" xmlns="http://www.w3.org/2000/svg" xmlns:xlink="http://www.w3.org/1999/xlink" x="0" y="0" width="425.384" height="242.34" viewBox="0, 0, 425.384, 242.34">
  <g id="Layer_1">
    <path d="M37.819,34.548 L213.541,34.548 L213.541,210.269 L37.819,210.269 L37.819,34.548 z" fill-opacity="0" stroke="#000000" stroke-width="1"/>
    <g id="Layer_1">
      <path d="M5.34,242.165 C5.372,242.181 5.515,242.34 5.531,242.34 L5.882,242.34 C5.93,242.34 6.057,242.324 6.057,242.181 C6.057,242.117 6.025,242.085 5.993,242.037 C5.42,241.464 4.559,240.587 3.571,238.834 C1.849,235.773 1.211,231.836 1.211,228.01 C1.211,220.933 3.22,216.772 6.009,213.951 C6.057,213.903 6.057,213.855 6.057,213.823 C6.057,213.664 5.946,213.664 5.754,213.664 C5.547,213.664 5.515,213.664 5.372,213.792 C3.858,215.099 2.152,217.314 1.052,220.678 C0.367,222.782 -0,225.348 -0,227.994 C-0,231.772 0.685,236.044 3.188,239.742 C3.618,240.364 4.208,241.017 4.208,241.033 C4.368,241.225 4.591,241.48 4.718,241.591 z" fill="#000000"/>
      <path d="M12.23,231.102 C12.405,231.755 12.963,232.17 13.649,232.17 C14.206,232.17 14.573,231.803 14.828,231.293 C15.099,230.719 15.306,229.747 15.306,229.715 C15.306,229.556 15.163,229.556 15.115,229.556 C14.956,229.556 14.94,229.619 14.892,229.842 C14.669,230.735 14.366,231.819 13.696,231.819 C13.362,231.819 13.202,231.612 13.202,231.086 C13.202,230.735 13.393,229.986 13.521,229.428 L13.967,227.707 C14.015,227.467 14.175,226.862 14.238,226.623 C14.318,226.256 14.477,225.65 14.477,225.555 C14.477,225.268 14.254,225.124 14.015,225.124 C13.935,225.124 13.521,225.14 13.393,225.682 C13.091,226.846 12.389,229.635 12.198,230.48 C12.182,230.544 11.544,231.819 10.381,231.819 C9.552,231.819 9.392,231.102 9.392,230.512 C9.392,229.619 9.839,228.36 10.253,227.26 C10.445,226.782 10.524,226.559 10.524,226.256 C10.524,225.539 10.014,224.949 9.217,224.949 C7.703,224.949 7.113,227.26 7.113,227.404 C7.113,227.563 7.272,227.563 7.304,227.563 C7.464,227.563 7.48,227.531 7.559,227.276 C7.958,225.889 8.564,225.3 9.169,225.3 C9.313,225.3 9.568,225.315 9.568,225.826 C9.568,226.208 9.392,226.67 9.297,226.91 C8.707,228.488 8.372,229.476 8.372,230.257 C8.372,231.771 9.472,232.17 10.333,232.17 C11.385,232.17 11.959,231.452 12.23,231.102 z" fill="#000000"/>
      <path d="M19.737,217.045 C17.617,218.54 17.059,220.906 17.059,222.613 C17.059,224.186 17.527,226.63 19.737,228.192 C19.826,228.192 19.96,228.192 19.96,228.058 C19.96,227.991 19.926,227.969 19.848,227.891 C18.364,226.552 17.817,224.655 17.817,222.624 C17.817,219.611 18.967,218.139 19.882,217.313 C19.926,217.268 19.96,217.235 19.96,217.179 C19.96,217.045 19.826,217.045 19.737,217.045 z" fill="#000000"/>
      <path d="M26.514,221.854 C26.514,220.627 26.369,219.745 25.856,218.964 C25.51,218.451 24.818,218.005 23.925,218.005 C21.337,218.005 21.337,221.051 21.337,221.854 C21.337,222.658 21.337,225.637 23.925,225.637 C26.514,225.637 26.514,222.658 26.514,221.854 z M23.925,225.324 C23.412,225.324 22.732,225.023 22.508,224.108 C22.352,223.45 22.352,222.535 22.352,221.709 C22.352,220.895 22.352,220.047 22.52,219.433 C22.754,218.551 23.468,218.317 23.925,218.317 C24.528,218.317 25.108,218.685 25.309,219.332 C25.488,219.935 25.499,220.738 25.499,221.709 C25.499,222.535 25.499,223.361 25.354,224.063 C25.131,225.079 24.372,225.324 23.925,225.324 z" fill="#000000"/>
      <path d="M28.114,217.045 C28.036,217.045 27.902,217.045 27.902,217.179 C27.902,217.235 27.936,217.268 28.003,217.346 C28.962,218.228 30.033,219.734 30.033,222.613 C30.033,224.945 29.308,226.708 28.103,227.801 C27.913,227.991 27.902,228.002 27.902,228.058 C27.902,228.114 27.936,228.192 28.047,228.192 C28.181,228.192 29.241,227.456 29.978,226.061 C30.469,225.135 30.792,223.93 30.792,222.624 C30.792,221.051 30.323,218.607 28.114,217.045 z" fill="#000000"/>
      <path d="M18.554,234.752 C18.442,235.132 18.074,235.734 17.505,235.734 C17.472,235.734 17.137,235.734 16.903,235.578 C17.36,235.433 17.393,235.031 17.393,234.964 C17.393,234.719 17.204,234.552 16.947,234.552 C16.635,234.552 16.311,234.819 16.311,235.232 C16.311,235.79 16.936,236.047 17.483,236.047 C17.996,236.047 18.454,235.723 18.732,235.255 C19,235.846 19.614,236.047 20.06,236.047 C21.343,236.047 22.024,234.652 22.024,234.34 C22.024,234.195 21.879,234.195 21.846,234.195 C21.689,234.195 21.678,234.25 21.634,234.384 C21.399,235.154 20.73,235.734 20.105,235.734 C19.659,235.734 19.424,235.433 19.424,235.009 C19.424,234.719 19.692,233.704 20.004,232.465 C20.228,231.606 20.73,231.327 21.098,231.327 C21.12,231.327 21.466,231.327 21.701,231.483 C21.343,231.584 21.21,231.896 21.21,232.097 C21.21,232.342 21.399,232.51 21.656,232.51 C21.913,232.51 22.281,232.298 22.281,231.829 C22.281,231.204 21.567,231.014 21.12,231.014 C20.562,231.014 20.116,231.383 19.871,231.807 C19.67,231.349 19.156,231.014 18.532,231.014 C17.282,231.014 16.568,232.387 16.568,232.722 C16.568,232.867 16.724,232.867 16.757,232.867 C16.903,232.867 16.914,232.822 16.969,232.677 C17.248,231.807 17.951,231.327 18.498,231.327 C18.866,231.327 19.168,231.528 19.168,232.063 C19.168,232.287 19.034,232.844 18.933,233.224 z" fill="#000000"/>
      <path d="M36.125,231.978 C36.125,230.926 35.727,230.305 35.105,230.305 C34.579,230.305 34.26,230.703 34.26,231.15 C34.26,231.58 34.579,231.994 35.105,231.994 C35.296,231.994 35.503,231.931 35.663,231.787 C35.711,231.755 35.727,231.739 35.742,231.739 C35.758,231.739 35.774,231.755 35.774,231.978 C35.774,233.158 35.216,234.114 34.69,234.64 C34.515,234.816 34.515,234.848 34.515,234.896 C34.515,235.007 34.595,235.071 34.674,235.071 C34.85,235.071 36.125,233.843 36.125,231.978 z" fill="#000000"/>
      <path d="M45.558,231.102 C45.734,231.755 46.292,232.17 46.977,232.17 C47.535,232.17 47.902,231.803 48.157,231.293 C48.428,230.719 48.635,229.747 48.635,229.715 C48.635,229.556 48.491,229.556 48.444,229.556 C48.284,229.556 48.268,229.619 48.22,229.842 C47.997,230.735 47.694,231.819 47.025,231.819 C46.69,231.819 46.531,231.612 46.531,231.086 C46.531,230.735 46.722,229.986 46.85,229.428 L47.296,227.707 C47.344,227.467 47.503,226.862 47.567,226.623 C47.647,226.256 47.806,225.65 47.806,225.555 C47.806,225.268 47.583,225.124 47.344,225.124 C47.264,225.124 46.85,225.14 46.722,225.682 C46.419,226.846 45.718,229.635 45.527,230.48 C45.511,230.544 44.873,231.819 43.709,231.819 C42.88,231.819 42.721,231.102 42.721,230.512 C42.721,229.619 43.167,228.36 43.582,227.26 C43.773,226.782 43.853,226.559 43.853,226.256 C43.853,225.539 43.343,224.949 42.546,224.949 C41.031,224.949 40.442,227.26 40.442,227.404 C40.442,227.563 40.601,227.563 40.633,227.563 C40.792,227.563 40.808,227.531 40.888,227.276 C41.286,225.889 41.892,225.3 42.498,225.3 C42.641,225.3 42.896,225.315 42.896,225.826 C42.896,226.208 42.721,226.67 42.625,226.91 C42.036,228.488 41.701,229.476 41.701,230.257 C41.701,231.771 42.801,232.17 43.662,232.17 C44.714,232.17 45.287,231.452 45.558,231.102 z" fill="#000000"/>
      <path d="M53.06,217.045 C50.94,218.54 50.382,220.906 50.382,222.613 C50.382,224.186 50.851,226.63 53.06,228.192 C53.149,228.192 53.283,228.192 53.283,228.058 C53.283,227.991 53.25,227.969 53.171,227.891 C51.687,226.552 51.141,224.655 51.141,222.624 C51.141,219.611 52.29,218.139 53.205,217.313 C53.25,217.268 53.283,217.235 53.283,217.179 C53.283,217.045 53.149,217.045 53.06,217.045 z" fill="#000000"/>
      <path d="M59.837,221.854 C59.837,220.627 59.692,219.745 59.179,218.964 C58.833,218.451 58.141,218.005 57.249,218.005 C54.66,218.005 54.66,221.051 54.66,221.854 C54.66,222.658 54.66,225.637 57.249,225.637 C59.837,225.637 59.837,222.658 59.837,221.854 z M57.249,225.324 C56.735,225.324 56.055,225.023 55.832,224.108 C55.675,223.45 55.675,222.535 55.675,221.709 C55.675,220.895 55.675,220.047 55.843,219.433 C56.077,218.551 56.791,218.317 57.249,218.317 C57.851,218.317 58.431,218.685 58.632,219.332 C58.811,219.935 58.822,220.738 58.822,221.709 C58.822,222.535 58.822,223.361 58.677,224.063 C58.454,225.079 57.695,225.324 57.249,225.324 z" fill="#000000"/>
      <path d="M61.437,217.045 C61.359,217.045 61.225,217.045 61.225,217.179 C61.225,217.235 61.259,217.268 61.326,217.346 C62.285,218.228 63.357,219.734 63.357,222.613 C63.357,224.945 62.631,226.708 61.426,227.801 C61.237,227.991 61.225,228.002 61.225,228.058 C61.225,228.114 61.259,228.192 61.37,228.192 C61.504,228.192 62.564,227.456 63.301,226.061 C63.792,225.135 64.115,223.93 64.115,222.624 C64.115,221.051 63.647,218.607 61.437,217.045 z" fill="#000000"/>
      <path d="M55.303,231.729 C55.347,231.572 55.347,231.55 55.347,231.483 C55.347,231.26 55.169,231.126 54.979,231.126 C54.856,231.126 54.644,231.182 54.522,231.394 C54.488,231.461 54.399,231.818 54.343,232.041 L54.109,232.967 C54.042,233.235 53.696,234.641 53.662,234.764 C53.651,234.764 53.16,235.734 52.29,235.734 C51.531,235.734 51.531,235.009 51.531,234.808 C51.531,234.206 51.788,233.503 52.123,232.644 C52.257,232.287 52.312,232.153 52.312,231.963 C52.312,231.427 51.855,231.014 51.252,231.014 C50.125,231.014 49.623,232.532 49.623,232.722 C49.623,232.867 49.779,232.867 49.813,232.867 C49.969,232.867 49.98,232.811 50.014,232.688 C50.293,231.762 50.772,231.327 51.219,231.327 C51.408,231.327 51.498,231.45 51.498,231.717 C51.498,231.974 51.397,232.22 51.342,232.365 C50.806,233.726 50.694,234.139 50.694,234.63 C50.694,234.819 50.694,235.344 51.13,235.701 C51.475,235.991 51.944,236.047 52.245,236.047 C52.692,236.047 53.093,235.879 53.462,235.545 C53.317,236.158 53.194,236.627 52.725,237.185 C52.424,237.531 51.978,237.899 51.386,237.899 C51.308,237.899 50.784,237.899 50.549,237.531 C51.152,237.464 51.152,236.928 51.152,236.917 C51.152,236.56 50.828,236.493 50.717,236.493 C50.438,236.493 50.07,236.716 50.07,237.23 C50.07,237.799 50.605,238.211 51.397,238.211 C52.524,238.211 53.897,237.341 54.243,235.946 z" fill="#000000"/>
      <path d="M72.843,227.994 C72.843,223.419 71.775,218.558 68.635,214.971 C68.412,214.716 67.822,214.094 67.44,213.76 C67.328,213.664 67.296,213.664 67.089,213.664 C66.93,213.664 66.786,213.664 66.786,213.823 C66.786,213.887 66.85,213.951 66.882,213.983 C67.424,214.541 68.285,215.417 69.273,217.171 C70.994,220.231 71.632,224.169 71.632,227.994 C71.632,234.912 69.719,239.136 66.85,242.053 C66.818,242.085 66.786,242.133 66.786,242.181 C66.786,242.34 66.93,242.34 67.089,242.34 C67.296,242.34 67.328,242.34 67.472,242.213 C68.986,240.906 70.692,238.69 71.791,235.327 C72.493,233.143 72.843,230.561 72.843,227.994 z" fill="#000000"/>
    </g>
    <g id="Layer_1">
      <path d="M182.192,242.165 C182.224,242.181 182.368,242.34 182.384,242.34 L182.734,242.34 C182.782,242.34 182.91,242.324 182.91,242.181 C182.91,242.117 182.878,242.085 182.846,242.037 C182.272,241.464 181.411,240.587 180.423,238.834 C178.701,235.773 178.064,231.836 178.064,228.01 C178.064,220.933 180.072,216.772 182.862,213.951 C182.91,213.903 182.91,213.855 182.91,213.823 C182.91,213.664 182.798,213.664 182.607,213.664 C182.399,213.664 182.368,213.664 182.224,213.792 C180.71,215.099 179.004,217.314 177.904,220.678 C177.219,222.782 176.852,225.348 176.852,227.994 C176.852,231.772 177.538,236.044 180.04,239.742 C180.471,240.364 181.06,241.017 181.06,241.033 C181.22,241.225 181.443,241.48 181.571,241.591 z" fill="#000000"/>
      <path d="M189.082,231.102 C189.257,231.755 189.815,232.17 190.501,232.17 C191.059,232.17 191.425,231.803 191.68,231.293 C191.951,230.719 192.159,229.747 192.159,229.715 C192.159,229.556 192.015,229.556 191.967,229.556 C191.808,229.556 191.792,229.619 191.744,229.842 C191.521,230.735 191.218,231.819 190.549,231.819 C190.214,231.819 190.054,231.612 190.054,231.086 C190.054,230.735 190.246,229.986 190.373,229.428 L190.82,227.707 C190.867,227.467 191.027,226.862 191.091,226.623 C191.17,226.256 191.33,225.65 191.33,225.555 C191.33,225.268 191.107,225.124 190.867,225.124 C190.788,225.124 190.373,225.14 190.246,225.682 C189.943,226.846 189.242,229.635 189.05,230.48 C189.034,230.544 188.397,231.819 187.233,231.819 C186.404,231.819 186.245,231.102 186.245,230.512 C186.245,229.619 186.691,228.36 187.106,227.26 C187.297,226.782 187.377,226.559 187.377,226.256 C187.377,225.539 186.866,224.949 186.069,224.949 C184.555,224.949 183.965,227.26 183.965,227.404 C183.965,227.563 184.125,227.563 184.157,227.563 C184.316,227.563 184.332,227.531 184.412,227.276 C184.81,225.889 185.416,225.3 186.022,225.3 C186.165,225.3 186.42,225.315 186.42,225.826 C186.42,226.208 186.245,226.67 186.149,226.91 C185.559,228.488 185.225,229.476 185.225,230.257 C185.225,231.771 186.324,232.17 187.185,232.17 C188.237,232.17 188.811,231.452 189.082,231.102 z" fill="#000000"/>
      <path d="M196.589,217.045 C194.469,218.54 193.911,220.906 193.911,222.613 C193.911,224.186 194.38,226.63 196.589,228.192 C196.678,228.192 196.812,228.192 196.812,228.058 C196.812,227.991 196.779,227.969 196.701,227.891 C195.217,226.552 194.67,224.655 194.67,222.624 C194.67,219.611 195.819,218.139 196.734,217.313 C196.779,217.268 196.812,217.235 196.812,217.179 C196.812,217.045 196.678,217.045 196.589,217.045 z" fill="#000000"/>
      <path d="M201.347,218.317 C201.347,218.016 201.324,218.005 201.012,218.005 C200.298,218.708 199.283,218.719 198.825,218.719 L198.825,219.12 C199.093,219.12 199.829,219.12 200.443,218.808 L200.443,224.499 C200.443,224.867 200.443,225.012 199.327,225.012 L198.903,225.012 L198.903,225.414 C199.104,225.402 200.476,225.369 200.889,225.369 C201.235,225.369 202.641,225.402 202.887,225.414 L202.887,225.012 L202.463,225.012 C201.347,225.012 201.347,224.867 201.347,224.499 z" fill="#000000"/>
      <path d="M204.966,217.045 C204.888,217.045 204.754,217.045 204.754,217.179 C204.754,217.235 204.788,217.268 204.855,217.346 C205.814,218.228 206.886,219.734 206.886,222.613 C206.886,224.945 206.16,226.708 204.955,227.801 C204.766,227.991 204.754,228.002 204.754,228.058 C204.754,228.114 204.788,228.192 204.9,228.192 C205.033,228.192 206.093,227.456 206.83,226.061 C207.321,225.135 207.644,223.93 207.644,222.624 C207.644,221.051 207.176,218.607 204.966,217.045 z" fill="#000000"/>
      <path d="M195.406,234.752 C195.295,235.132 194.926,235.734 194.357,235.734 C194.324,235.734 193.989,235.734 193.755,235.578 C194.212,235.433 194.246,235.031 194.246,234.964 C194.246,234.719 194.056,234.552 193.799,234.552 C193.487,234.552 193.163,234.819 193.163,235.232 C193.163,235.79 193.788,236.047 194.335,236.047 C194.848,236.047 195.306,235.723 195.585,235.255 C195.853,235.846 196.466,236.047 196.913,236.047 C198.196,236.047 198.876,234.652 198.876,234.34 C198.876,234.195 198.731,234.195 198.698,234.195 C198.542,234.195 198.53,234.25 198.486,234.384 C198.252,235.154 197.582,235.734 196.957,235.734 C196.511,235.734 196.277,235.433 196.277,235.009 C196.277,234.719 196.544,233.704 196.857,232.465 C197.08,231.606 197.582,231.327 197.95,231.327 C197.973,231.327 198.318,231.327 198.553,231.483 C198.196,231.584 198.062,231.896 198.062,232.097 C198.062,232.342 198.252,232.51 198.508,232.51 C198.765,232.51 199.133,232.298 199.133,231.829 C199.133,231.204 198.419,231.014 197.973,231.014 C197.415,231.014 196.968,231.383 196.723,231.807 C196.522,231.349 196.009,231.014 195.384,231.014 C194.134,231.014 193.42,232.387 193.42,232.722 C193.42,232.867 193.576,232.867 193.61,232.867 C193.755,232.867 193.766,232.822 193.822,232.677 C194.101,231.807 194.804,231.327 195.35,231.327 C195.719,231.327 196.02,231.528 196.02,232.063 C196.02,232.287 195.886,232.844 195.786,233.224 z" fill="#000000"/>
      <path d="M212.977,231.978 C212.977,230.926 212.579,230.305 211.957,230.305 C211.431,230.305 211.112,230.703 211.112,231.15 C211.112,231.58 211.431,231.994 211.957,231.994 C212.148,231.994 212.356,231.931 212.515,231.787 C212.563,231.755 212.579,231.739 212.595,231.739 C212.611,231.739 212.627,231.755 212.627,231.978 C212.627,233.158 212.069,234.114 211.543,234.64 C211.367,234.816 211.367,234.848 211.367,234.896 C211.367,235.007 211.447,235.071 211.527,235.071 C211.702,235.071 212.977,233.843 212.977,231.978 z" fill="#000000"/>
      <path d="M222.411,231.102 C222.586,231.755 223.144,232.17 223.829,232.17 C224.387,232.17 224.754,231.803 225.009,231.293 C225.28,230.719 225.487,229.747 225.487,229.715 C225.487,229.556 225.344,229.556 225.296,229.556 C225.136,229.556 225.121,229.619 225.073,229.842 C224.85,230.735 224.547,231.819 223.877,231.819 C223.542,231.819 223.383,231.612 223.383,231.086 C223.383,230.735 223.574,229.986 223.702,229.428 L224.148,227.707 C224.196,227.467 224.355,226.862 224.419,226.623 C224.499,226.256 224.658,225.65 224.658,225.555 C224.658,225.268 224.435,225.124 224.196,225.124 C224.116,225.124 223.702,225.14 223.574,225.682 C223.271,226.846 222.57,229.635 222.379,230.48 C222.363,230.544 221.725,231.819 220.562,231.819 C219.733,231.819 219.573,231.102 219.573,230.512 C219.573,229.619 220.02,228.36 220.434,227.26 C220.625,226.782 220.705,226.559 220.705,226.256 C220.705,225.539 220.195,224.949 219.398,224.949 C217.884,224.949 217.294,227.26 217.294,227.404 C217.294,227.563 217.453,227.563 217.485,227.563 C217.645,227.563 217.661,227.531 217.74,227.276 C218.139,225.889 218.744,225.3 219.35,225.3 C219.494,225.3 219.749,225.315 219.749,225.826 C219.749,226.208 219.573,226.67 219.478,226.91 C218.888,228.488 218.553,229.476 218.553,230.257 C218.553,231.771 219.653,232.17 220.514,232.17 C221.566,232.17 222.14,231.452 222.411,231.102 z" fill="#000000"/>
      <path d="M229.912,217.045 C227.792,218.54 227.234,220.906 227.234,222.613 C227.234,224.186 227.703,226.63 229.912,228.192 C230.001,228.192 230.135,228.192 230.135,228.058 C230.135,227.991 230.102,227.969 230.024,227.891 C228.54,226.552 227.993,224.655 227.993,222.624 C227.993,219.611 229.142,218.139 230.057,217.313 C230.102,217.268 230.135,217.235 230.135,217.179 C230.135,217.045 230.001,217.045 229.912,217.045 z" fill="#000000"/>
      <path d="M234.67,218.317 C234.67,218.016 234.648,218.005 234.335,218.005 C233.621,218.708 232.606,218.719 232.148,218.719 L232.148,219.12 C232.416,219.12 233.152,219.12 233.766,218.808 L233.766,224.499 C233.766,224.867 233.766,225.012 232.65,225.012 L232.226,225.012 L232.226,225.414 C232.427,225.402 233.8,225.369 234.212,225.369 C234.558,225.369 235.964,225.402 236.21,225.414 L236.21,225.012 L235.786,225.012 C234.67,225.012 234.67,224.867 234.67,224.499 z" fill="#000000"/>
      <path d="M238.29,217.045 C238.212,217.045 238.078,217.045 238.078,217.179 C238.078,217.235 238.111,217.268 238.178,217.346 C239.138,218.228 240.209,219.734 240.209,222.613 C240.209,224.945 239.484,226.708 238.279,227.801 C238.089,227.991 238.078,228.002 238.078,228.058 C238.078,228.114 238.111,228.192 238.223,228.192 C238.357,228.192 239.417,227.456 240.153,226.061 C240.644,225.135 240.968,223.93 240.968,222.624 C240.968,221.051 240.499,218.607 238.29,217.045 z" fill="#000000"/>
      <path d="M232.155,231.729 C232.2,231.572 232.2,231.55 232.2,231.483 C232.2,231.26 232.021,231.126 231.831,231.126 C231.709,231.126 231.497,231.182 231.374,231.394 C231.34,231.461 231.251,231.818 231.195,232.041 L230.961,232.967 C230.894,233.235 230.548,234.641 230.515,234.764 C230.504,234.764 230.013,235.734 229.142,235.734 C228.384,235.734 228.384,235.009 228.384,234.808 C228.384,234.206 228.64,233.503 228.975,232.644 C229.109,232.287 229.165,232.153 229.165,231.963 C229.165,231.427 228.707,231.014 228.105,231.014 C226.978,231.014 226.475,232.532 226.475,232.722 C226.475,232.867 226.632,232.867 226.665,232.867 C226.821,232.867 226.833,232.811 226.866,232.688 C227.145,231.762 227.625,231.327 228.071,231.327 C228.261,231.327 228.35,231.45 228.35,231.717 C228.35,231.974 228.25,232.22 228.194,232.365 C227.658,233.726 227.547,234.139 227.547,234.63 C227.547,234.819 227.547,235.344 227.982,235.701 C228.328,235.991 228.796,236.047 229.098,236.047 C229.544,236.047 229.946,235.879 230.314,235.545 C230.169,236.158 230.046,236.627 229.577,237.185 C229.276,237.531 228.83,237.899 228.238,237.899 C228.16,237.899 227.636,237.899 227.402,237.531 C228.004,237.464 228.004,236.928 228.004,236.917 C228.004,236.56 227.681,236.493 227.569,236.493 C227.29,236.493 226.922,236.716 226.922,237.23 C226.922,237.799 227.457,238.211 228.25,238.211 C229.377,238.211 230.749,237.341 231.095,235.946 z" fill="#000000"/>
      <path d="M249.696,227.994 C249.696,223.419 248.628,218.558 245.488,214.971 C245.264,214.716 244.675,214.094 244.292,213.76 C244.18,213.664 244.149,213.664 243.941,213.664 C243.782,213.664 243.638,213.664 243.638,213.823 C243.638,213.887 243.702,213.951 243.734,213.983 C244.276,214.541 245.137,215.417 246.125,217.171 C247.847,220.231 248.484,224.169 248.484,227.994 C248.484,234.912 246.571,239.136 243.702,242.053 C243.67,242.085 243.638,242.133 243.638,242.181 C243.638,242.34 243.782,242.34 243.941,242.34 C244.149,242.34 244.18,242.34 244.324,242.213 C245.838,240.906 247.544,238.69 248.644,235.327 C249.345,233.143 249.696,230.561 249.696,227.994 z" fill="#000000"/>
    </g>
    <g id="Layer_1">
      <path d="M357.88,242.165 C357.912,242.181 358.055,242.34 358.071,242.34 L358.422,242.34 C358.47,242.34 358.597,242.324 358.597,242.181 C358.597,242.117 358.565,242.085 358.534,242.037 C357.96,241.464 357.099,240.587 356.111,238.834 C354.389,235.773 353.752,231.836 353.752,228.01 C353.752,220.933 355.76,216.772 358.55,213.951 C358.597,213.903 358.597,213.855 358.597,213.823 C358.597,213.664 358.486,213.664 358.294,213.664 C358.087,213.664 358.055,213.664 357.912,213.792 C356.398,215.099 354.692,217.314 353.592,220.678 C352.907,222.782 352.54,225.348 352.54,227.994 C352.54,231.772 353.226,236.044 355.728,239.742 C356.159,240.364 356.748,241.017 356.748,241.033 C356.908,241.225 357.131,241.48 357.258,241.591 z" fill="#000000"/>
      <path d="M364.77,231.102 C364.945,231.755 365.503,232.17 366.189,232.17 C366.746,232.17 367.113,231.803 367.368,231.293 C367.639,230.719 367.846,229.747 367.846,229.715 C367.846,229.556 367.703,229.556 367.655,229.556 C367.496,229.556 367.48,229.619 367.432,229.842 C367.209,230.735 366.906,231.819 366.236,231.819 C365.902,231.819 365.742,231.612 365.742,231.086 C365.742,230.735 365.934,229.986 366.061,229.428 L366.507,227.707 C366.555,227.467 366.715,226.862 366.778,226.623 C366.858,226.256 367.017,225.65 367.017,225.555 C367.017,225.268 366.794,225.124 366.555,225.124 C366.475,225.124 366.061,225.14 365.934,225.682 C365.631,226.846 364.929,229.635 364.738,230.48 C364.722,230.544 364.084,231.819 362.921,231.819 C362.092,231.819 361.933,231.102 361.933,230.512 C361.933,229.619 362.379,228.36 362.793,227.26 C362.985,226.782 363.064,226.559 363.064,226.256 C363.064,225.539 362.554,224.949 361.757,224.949 C360.243,224.949 359.653,227.26 359.653,227.404 C359.653,227.563 359.813,227.563 359.844,227.563 C360.004,227.563 360.02,227.531 360.099,227.276 C360.498,225.889 361.104,225.3 361.709,225.3 C361.853,225.3 362.108,225.315 362.108,225.826 C362.108,226.208 361.933,226.67 361.837,226.91 C361.247,228.488 360.912,229.476 360.912,230.257 C360.912,231.771 362.012,232.17 362.873,232.17 C363.925,232.17 364.499,231.452 364.77,231.102 z" fill="#000000"/>
      <path d="M372.277,217.045 C370.157,218.54 369.599,220.906 369.599,222.613 C369.599,224.186 370.067,226.63 372.277,228.192 C372.366,228.192 372.5,228.192 372.5,228.058 C372.5,227.991 372.466,227.969 372.388,227.891 C370.904,226.552 370.358,224.655 370.358,222.624 C370.358,219.611 371.507,218.139 372.422,217.313 C372.466,217.268 372.5,217.235 372.5,217.179 C372.5,217.045 372.366,217.045 372.277,217.045 z" fill="#000000"/>
      <path d="M378.931,223.383 L378.552,223.383 C378.519,223.628 378.407,224.287 378.262,224.398 C378.173,224.465 377.314,224.465 377.157,224.465 L375.104,224.465 C376.276,223.427 376.666,223.115 377.336,222.591 C378.162,221.932 378.931,221.24 378.931,220.18 C378.931,218.83 377.749,218.005 376.32,218.005 C374.937,218.005 374,218.975 374,220.002 C374,220.571 374.479,220.627 374.591,220.627 C374.859,220.627 375.182,220.437 375.182,220.035 C375.182,219.835 375.104,219.444 374.524,219.444 C374.87,218.652 375.629,218.406 376.153,218.406 C377.269,218.406 377.849,219.277 377.849,220.18 C377.849,221.151 377.157,221.921 376.8,222.323 L374.111,224.978 C374,225.079 374,225.101 374,225.414 L378.597,225.414 z" fill="#000000"/>
      <path d="M380.654,217.045 C380.576,217.045 380.442,217.045 380.442,217.179 C380.442,217.235 380.476,217.268 380.543,217.346 C381.502,218.228 382.573,219.734 382.573,222.613 C382.573,224.945 381.848,226.708 380.643,227.801 C380.453,227.991 380.442,228.002 380.442,228.058 C380.442,228.114 380.476,228.192 380.587,228.192 C380.721,228.192 381.781,227.456 382.518,226.061 C383.009,225.135 383.332,223.93 383.332,222.624 C383.332,221.051 382.864,218.607 380.654,217.045 z" fill="#000000"/>
      <path d="M371.094,234.752 C370.982,235.132 370.614,235.734 370.045,235.734 C370.012,235.734 369.677,235.734 369.443,235.578 C369.9,235.433 369.934,235.031 369.934,234.964 C369.934,234.719 369.744,234.552 369.487,234.552 C369.175,234.552 368.851,234.819 368.851,235.232 C368.851,235.79 369.476,236.047 370.023,236.047 C370.536,236.047 370.994,235.723 371.273,235.255 C371.54,235.846 372.154,236.047 372.6,236.047 C373.884,236.047 374.564,234.652 374.564,234.34 C374.564,234.195 374.419,234.195 374.386,234.195 C374.229,234.195 374.218,234.25 374.174,234.384 C373.939,235.154 373.27,235.734 372.645,235.734 C372.199,235.734 371.964,235.433 371.964,235.009 C371.964,234.719 372.232,233.704 372.545,232.465 C372.768,231.606 373.27,231.327 373.638,231.327 C373.66,231.327 374.006,231.327 374.241,231.483 C373.884,231.584 373.75,231.896 373.75,232.097 C373.75,232.342 373.939,232.51 374.196,232.51 C374.453,232.51 374.821,232.298 374.821,231.829 C374.821,231.204 374.107,231.014 373.66,231.014 C373.102,231.014 372.656,231.383 372.411,231.807 C372.21,231.349 371.697,231.014 371.072,231.014 C369.822,231.014 369.108,232.387 369.108,232.722 C369.108,232.867 369.264,232.867 369.298,232.867 C369.443,232.867 369.454,232.822 369.51,232.677 C369.789,231.807 370.491,231.327 371.038,231.327 C371.406,231.327 371.708,231.528 371.708,232.063 C371.708,232.287 371.574,232.844 371.473,233.224 z" fill="#000000"/>
      <path d="M388.665,231.978 C388.665,230.926 388.267,230.305 387.645,230.305 C387.119,230.305 386.8,230.703 386.8,231.15 C386.8,231.58 387.119,231.994 387.645,231.994 C387.836,231.994 388.043,231.931 388.203,231.787 C388.251,231.755 388.267,231.739 388.283,231.739 C388.298,231.739 388.314,231.755 388.314,231.978 C388.314,233.158 387.757,234.114 387.23,234.64 C387.055,234.816 387.055,234.848 387.055,234.896 C387.055,235.007 387.135,235.071 387.215,235.071 C387.39,235.071 388.665,233.843 388.665,231.978 z" fill="#000000"/>
      <path d="M398.098,231.102 C398.274,231.755 398.832,232.17 399.517,232.17 C400.075,232.17 400.442,231.803 400.697,231.293 C400.968,230.719 401.175,229.747 401.175,229.715 C401.175,229.556 401.031,229.556 400.984,229.556 C400.824,229.556 400.808,229.619 400.76,229.842 C400.537,230.735 400.234,231.819 399.565,231.819 C399.23,231.819 399.071,231.612 399.071,231.086 C399.071,230.735 399.262,229.986 399.39,229.428 L399.836,227.707 C399.884,227.467 400.043,226.862 400.107,226.623 C400.187,226.256 400.346,225.65 400.346,225.555 C400.346,225.268 400.123,225.124 399.884,225.124 C399.804,225.124 399.39,225.14 399.262,225.682 C398.959,226.846 398.258,229.635 398.067,230.48 C398.051,230.544 397.413,231.819 396.249,231.819 C395.421,231.819 395.261,231.102 395.261,230.512 C395.261,229.619 395.707,228.36 396.122,227.26 C396.313,226.782 396.393,226.559 396.393,226.256 C396.393,225.539 395.883,224.949 395.086,224.949 C393.572,224.949 392.982,227.26 392.982,227.404 C392.982,227.563 393.141,227.563 393.173,227.563 C393.332,227.563 393.348,227.531 393.428,227.276 C393.827,225.889 394.432,225.3 395.038,225.3 C395.181,225.3 395.436,225.315 395.436,225.826 C395.436,226.208 395.261,226.67 395.165,226.91 C394.576,228.488 394.241,229.476 394.241,230.257 C394.241,231.771 395.341,232.17 396.202,232.17 C397.254,232.17 397.828,231.452 398.098,231.102 z" fill="#000000"/>
      <path d="M405.6,217.045 C403.48,218.54 402.922,220.906 402.922,222.613 C402.922,224.186 403.391,226.63 405.6,228.192 C405.689,228.192 405.823,228.192 405.823,228.058 C405.823,227.991 405.79,227.969 405.712,227.891 C404.228,226.552 403.681,224.655 403.681,222.624 C403.681,219.611 404.83,218.139 405.745,217.313 C405.79,217.268 405.823,217.235 405.823,217.179 C405.823,217.045 405.689,217.045 405.6,217.045 z" fill="#000000"/>
      <path d="M412.255,223.383 L411.875,223.383 C411.842,223.628 411.73,224.287 411.585,224.398 C411.496,224.465 410.637,224.465 410.481,224.465 L408.427,224.465 C409.599,223.427 409.99,223.115 410.659,222.591 C411.485,221.932 412.255,221.24 412.255,220.18 C412.255,218.83 411.072,218.005 409.644,218.005 C408.26,218.005 407.323,218.975 407.323,220.002 C407.323,220.571 407.803,220.627 407.914,220.627 C408.182,220.627 408.506,220.437 408.506,220.035 C408.506,219.835 408.427,219.444 407.847,219.444 C408.193,218.652 408.952,218.406 409.476,218.406 C410.592,218.406 411.172,219.277 411.172,220.18 C411.172,221.151 410.481,221.921 410.123,222.323 L407.434,224.978 C407.323,225.079 407.323,225.101 407.323,225.414 L411.92,225.414 z" fill="#000000"/>
      <path d="M413.977,217.045 C413.899,217.045 413.765,217.045 413.765,217.179 C413.765,217.235 413.799,217.268 413.866,217.346 C414.825,218.228 415.897,219.734 415.897,222.613 C415.897,224.945 415.171,226.708 413.966,227.801 C413.777,227.991 413.765,228.002 413.765,228.058 C413.765,228.114 413.799,228.192 413.911,228.192 C414.044,228.192 415.104,227.456 415.841,226.061 C416.332,225.135 416.655,223.93 416.655,222.624 C416.655,221.051 416.187,218.607 413.977,217.045 z" fill="#000000"/>
      <path d="M407.843,231.729 C407.887,231.572 407.887,231.55 407.887,231.483 C407.887,231.26 407.709,231.126 407.519,231.126 C407.396,231.126 407.184,231.182 407.062,231.394 C407.028,231.461 406.939,231.818 406.883,232.041 L406.649,232.967 C406.582,233.235 406.236,234.641 406.203,234.764 C406.191,234.764 405.7,235.734 404.83,235.734 C404.071,235.734 404.071,235.009 404.071,234.808 C404.071,234.206 404.328,233.503 404.663,232.644 C404.797,232.287 404.852,232.153 404.852,231.963 C404.852,231.427 404.395,231.014 403.792,231.014 C402.665,231.014 402.163,232.532 402.163,232.722 C402.163,232.867 402.319,232.867 402.353,232.867 C402.509,232.867 402.52,232.811 402.554,232.688 C402.833,231.762 403.313,231.327 403.759,231.327 C403.949,231.327 404.038,231.45 404.038,231.717 C404.038,231.974 403.937,232.22 403.882,232.365 C403.346,233.726 403.234,234.139 403.234,234.63 C403.234,234.819 403.234,235.344 403.67,235.701 C404.016,235.991 404.484,236.047 404.785,236.047 C405.232,236.047 405.633,235.879 406.002,235.545 C405.857,236.158 405.734,236.627 405.265,237.185 C404.964,237.531 404.518,237.899 403.926,237.899 C403.848,237.899 403.324,237.899 403.089,237.531 C403.692,237.464 403.692,236.928 403.692,236.917 C403.692,236.56 403.368,236.493 403.257,236.493 C402.978,236.493 402.61,236.716 402.61,237.23 C402.61,237.799 403.145,238.211 403.937,238.211 C405.064,238.211 406.437,237.341 406.783,235.946 z" fill="#000000"/>
      <path d="M425.384,227.994 C425.384,223.419 424.316,218.558 421.175,214.971 C420.952,214.716 420.362,214.094 419.98,213.76 C419.868,213.664 419.836,213.664 419.629,213.664 C419.47,213.664 419.326,213.664 419.326,213.823 C419.326,213.887 419.39,213.951 419.422,213.983 C419.964,214.541 420.825,215.417 421.813,217.171 C423.535,220.231 424.172,224.169 424.172,227.994 C424.172,234.912 422.259,239.136 419.39,242.053 C419.358,242.085 419.326,242.133 419.326,242.181 C419.326,242.34 419.47,242.34 419.629,242.34 C419.836,242.34 419.868,242.34 420.012,242.213 C421.526,240.906 423.232,238.69 424.332,235.327 C425.033,233.143 425.384,230.561 425.384,227.994 z" fill="#000000"/>
    </g>
    <g id="Layer_1">
      <path d="M5.34,28.501 C5.372,28.517 5.515,28.676 5.531,28.676 L5.882,28.676 C5.93,28.676 6.057,28.66 6.057,28.517 C6.057,28.453 6.025,28.421 5.993,28.373 C5.42,27.8 4.559,26.923 3.571,25.17 C1.849,22.109 1.211,18.172 1.211,14.346 C1.211,7.269 3.22,3.108 6.009,0.287 C6.057,0.239 6.057,0.191 6.057,0.159 C6.057,-0 5.946,-0 5.754,-0 C5.547,-0 5.515,-0 5.372,0.128 C3.858,1.435 2.152,3.65 1.052,7.014 C0.367,9.118 -0,11.684 -0,14.33 C-0,18.108 0.685,22.38 3.188,26.078 C3.618,26.7 4.208,27.353 4.208,27.369 C4.368,27.561 4.591,27.816 4.718,27.927 z" fill="#000000"/>
      <path d="M12.23,17.438 C12.405,18.091 12.963,18.506 13.649,18.506 C14.206,18.506 14.573,18.139 14.828,17.629 C15.099,17.055 15.306,16.083 15.306,16.051 C15.306,15.892 15.163,15.892 15.115,15.892 C14.956,15.892 14.94,15.955 14.892,16.178 C14.669,17.071 14.366,18.155 13.696,18.155 C13.362,18.155 13.202,17.948 13.202,17.422 C13.202,17.071 13.393,16.322 13.521,15.764 L13.967,14.043 C14.015,13.803 14.175,13.198 14.238,12.959 C14.318,12.592 14.477,11.986 14.477,11.891 C14.477,11.604 14.254,11.46 14.015,11.46 C13.935,11.46 13.521,11.476 13.393,12.018 C13.091,13.182 12.389,15.971 12.198,16.816 C12.182,16.88 11.544,18.155 10.381,18.155 C9.552,18.155 9.392,17.438 9.392,16.848 C9.392,15.955 9.839,14.696 10.253,13.596 C10.445,13.118 10.524,12.895 10.524,12.592 C10.524,11.875 10.014,11.285 9.217,11.285 C7.703,11.285 7.113,13.596 7.113,13.74 C7.113,13.899 7.272,13.899 7.304,13.899 C7.464,13.899 7.48,13.867 7.559,13.612 C7.958,12.225 8.564,11.636 9.169,11.636 C9.313,11.636 9.568,11.651 9.568,12.162 C9.568,12.544 9.392,13.006 9.297,13.245 C8.707,14.824 8.372,15.812 8.372,16.593 C8.372,18.107 9.472,18.506 10.333,18.506 C11.385,18.506 11.959,17.788 12.23,17.438 z" fill="#000000"/>
      <path d="M19.737,3.381 C17.617,4.876 17.059,7.242 17.059,8.949 C17.059,10.522 17.527,12.966 19.737,14.528 C19.826,14.528 19.96,14.528 19.96,14.394 C19.96,14.327 19.926,14.305 19.848,14.227 C18.364,12.888 17.817,10.991 17.817,8.96 C17.817,5.947 18.967,4.475 19.882,3.649 C19.926,3.604 19.96,3.571 19.96,3.515 C19.96,3.381 19.826,3.381 19.737,3.381 z" fill="#000000"/>
      <path d="M23.803,8.023 C24.673,8.023 25.298,8.625 25.298,9.819 C25.298,11.203 24.494,11.616 23.847,11.616 C23.401,11.616 22.419,11.493 21.95,10.835 C22.475,10.812 22.598,10.444 22.598,10.21 C22.598,9.853 22.33,9.596 21.984,9.596 C21.671,9.596 21.359,9.786 21.359,10.243 C21.359,11.292 22.52,11.973 23.87,11.973 C25.421,11.973 26.492,10.935 26.492,9.819 C26.492,8.949 25.778,8.079 24.55,7.822 C25.722,7.398 26.146,6.561 26.146,5.88 C26.146,4.999 25.131,4.341 23.892,4.341 C22.653,4.341 21.705,4.943 21.705,5.836 C21.705,6.215 21.95,6.427 22.285,6.427 C22.631,6.427 22.854,6.171 22.854,5.858 C22.854,5.535 22.631,5.3 22.285,5.278 C22.676,4.787 23.446,4.664 23.858,4.664 C24.361,4.664 25.064,4.91 25.064,5.88 C25.064,6.349 24.907,6.862 24.617,7.208 C24.249,7.632 23.937,7.655 23.379,7.688 C23.1,7.71 23.077,7.71 23.022,7.722 C22.999,7.722 22.91,7.744 22.91,7.867 C22.91,8.023 23.01,8.023 23.2,8.023 z" fill="#000000"/>
      <path d="M28.114,3.381 C28.036,3.381 27.902,3.381 27.902,3.515 C27.902,3.571 27.936,3.604 28.003,3.682 C28.962,4.564 30.033,6.07 30.033,8.949 C30.033,11.281 29.308,13.044 28.103,14.137 C27.913,14.327 27.902,14.338 27.902,14.394 C27.902,14.45 27.936,14.528 28.047,14.528 C28.181,14.528 29.241,13.792 29.978,12.397 C30.469,11.471 30.792,10.266 30.792,8.96 C30.792,7.387 30.323,4.943 28.114,3.381 z" fill="#000000"/>
      <path d="M18.554,21.088 C18.442,21.468 18.074,22.07 17.505,22.07 C17.472,22.07 17.137,22.07 16.903,21.914 C17.36,21.769 17.393,21.367 17.393,21.3 C17.393,21.055 17.204,20.888 16.947,20.888 C16.635,20.888 16.311,21.155 16.311,21.568 C16.311,22.126 16.936,22.383 17.483,22.383 C17.996,22.383 18.454,22.059 18.732,21.591 C19,22.182 19.614,22.383 20.06,22.383 C21.343,22.383 22.024,20.988 22.024,20.676 C22.024,20.531 21.879,20.531 21.846,20.531 C21.689,20.531 21.678,20.586 21.634,20.72 C21.399,21.49 20.73,22.07 20.105,22.07 C19.659,22.07 19.424,21.769 19.424,21.345 C19.424,21.055 19.692,20.04 20.004,18.801 C20.228,17.942 20.73,17.663 21.098,17.663 C21.12,17.663 21.466,17.663 21.701,17.819 C21.343,17.92 21.21,18.232 21.21,18.433 C21.21,18.678 21.399,18.846 21.656,18.846 C21.913,18.846 22.281,18.634 22.281,18.165 C22.281,17.54 21.567,17.35 21.12,17.35 C20.562,17.35 20.116,17.719 19.871,18.143 C19.67,17.685 19.156,17.35 18.532,17.35 C17.282,17.35 16.568,18.723 16.568,19.058 C16.568,19.203 16.724,19.203 16.757,19.203 C16.903,19.203 16.914,19.158 16.969,19.013 C17.248,18.143 17.951,17.663 18.498,17.663 C18.866,17.663 19.168,17.864 19.168,18.399 C19.168,18.623 19.034,19.18 18.933,19.56 z" fill="#000000"/>
      <path d="M36.125,18.314 C36.125,17.262 35.727,16.641 35.105,16.641 C34.579,16.641 34.26,17.039 34.26,17.486 C34.26,17.916 34.579,18.33 35.105,18.33 C35.296,18.33 35.503,18.267 35.663,18.123 C35.711,18.091 35.727,18.075 35.742,18.075 C35.758,18.075 35.774,18.091 35.774,18.314 C35.774,19.494 35.216,20.45 34.69,20.976 C34.515,21.152 34.515,21.184 34.515,21.232 C34.515,21.343 34.595,21.407 34.674,21.407 C34.85,21.407 36.125,20.179 36.125,18.314 z" fill="#000000"/>
      <path d="M45.558,17.438 C45.734,18.091 46.292,18.506 46.977,18.506 C47.535,18.506 47.902,18.139 48.157,17.629 C48.428,17.055 48.635,16.083 48.635,16.051 C48.635,15.892 48.491,15.892 48.444,15.892 C48.284,15.892 48.268,15.955 48.22,16.178 C47.997,17.071 47.694,18.155 47.025,18.155 C46.69,18.155 46.531,17.948 46.531,17.422 C46.531,17.071 46.722,16.322 46.85,15.764 L47.296,14.043 C47.344,13.803 47.503,13.198 47.567,12.959 C47.647,12.592 47.806,11.986 47.806,11.891 C47.806,11.604 47.583,11.46 47.344,11.46 C47.264,11.46 46.85,11.476 46.722,12.018 C46.419,13.182 45.718,15.971 45.527,16.816 C45.511,16.88 44.873,18.155 43.709,18.155 C42.88,18.155 42.721,17.438 42.721,16.848 C42.721,15.955 43.167,14.696 43.582,13.596 C43.773,13.118 43.853,12.895 43.853,12.592 C43.853,11.875 43.343,11.285 42.546,11.285 C41.031,11.285 40.442,13.596 40.442,13.74 C40.442,13.899 40.601,13.899 40.633,13.899 C40.792,13.899 40.808,13.867 40.888,13.612 C41.286,12.225 41.892,11.636 42.498,11.636 C42.641,11.636 42.896,11.651 42.896,12.162 C42.896,12.544 42.721,13.006 42.625,13.245 C42.036,14.824 41.701,15.812 41.701,16.593 C41.701,18.107 42.801,18.506 43.662,18.506 C44.714,18.506 45.287,17.788 45.558,17.438 z" fill="#000000"/>
      <path d="M53.06,3.381 C50.94,4.876 50.382,7.242 50.382,8.949 C50.382,10.522 50.851,12.966 53.06,14.528 C53.149,14.528 53.283,14.528 53.283,14.394 C53.283,14.327 53.25,14.305 53.171,14.227 C51.687,12.888 51.141,10.991 51.141,8.96 C51.141,5.947 52.29,4.475 53.205,3.649 C53.25,3.604 53.283,3.571 53.283,3.515 C53.283,3.381 53.149,3.381 53.06,3.381 z" fill="#000000"/>
      <path d="M57.126,8.023 C57.996,8.023 58.621,8.625 58.621,9.819 C58.621,11.203 57.818,11.616 57.171,11.616 C56.724,11.616 55.742,11.493 55.274,10.835 C55.798,10.812 55.921,10.444 55.921,10.21 C55.921,9.853 55.653,9.596 55.307,9.596 C54.995,9.596 54.682,9.786 54.682,10.243 C54.682,11.292 55.843,11.973 57.193,11.973 C58.744,11.973 59.815,10.935 59.815,9.819 C59.815,8.949 59.101,8.079 57.873,7.822 C59.045,7.398 59.469,6.561 59.469,5.88 C59.469,4.999 58.454,4.341 57.215,4.341 C55.977,4.341 55.028,4.943 55.028,5.836 C55.028,6.215 55.274,6.427 55.608,6.427 C55.954,6.427 56.177,6.171 56.177,5.858 C56.177,5.535 55.954,5.3 55.608,5.278 C55.999,4.787 56.769,4.664 57.182,4.664 C57.684,4.664 58.387,4.91 58.387,5.88 C58.387,6.349 58.231,6.862 57.94,7.208 C57.572,7.632 57.26,7.655 56.702,7.688 C56.423,7.71 56.401,7.71 56.345,7.722 C56.323,7.722 56.233,7.744 56.233,7.867 C56.233,8.023 56.334,8.023 56.523,8.023 z" fill="#000000"/>
      <path d="M61.437,3.381 C61.359,3.381 61.225,3.381 61.225,3.515 C61.225,3.571 61.259,3.604 61.326,3.682 C62.285,4.564 63.357,6.07 63.357,8.949 C63.357,11.281 62.631,13.044 61.426,14.137 C61.237,14.327 61.225,14.338 61.225,14.394 C61.225,14.45 61.259,14.528 61.37,14.528 C61.504,14.528 62.564,13.792 63.301,12.397 C63.792,11.471 64.115,10.266 64.115,8.96 C64.115,7.387 63.647,4.943 61.437,3.381 z" fill="#000000"/>
      <path d="M55.303,18.065 C55.347,17.908 55.347,17.886 55.347,17.819 C55.347,17.596 55.169,17.462 54.979,17.462 C54.856,17.462 54.644,17.518 54.522,17.73 C54.488,17.797 54.399,18.154 54.343,18.377 L54.109,19.303 C54.042,19.571 53.696,20.977 53.662,21.1 C53.651,21.1 53.16,22.07 52.29,22.07 C51.531,22.07 51.531,21.345 51.531,21.144 C51.531,20.542 51.788,19.839 52.123,18.98 C52.257,18.623 52.312,18.489 52.312,18.299 C52.312,17.763 51.855,17.35 51.252,17.35 C50.125,17.35 49.623,18.868 49.623,19.058 C49.623,19.203 49.779,19.203 49.813,19.203 C49.969,19.203 49.98,19.147 50.014,19.024 C50.293,18.098 50.772,17.663 51.219,17.663 C51.408,17.663 51.498,17.786 51.498,18.053 C51.498,18.31 51.397,18.556 51.342,18.701 C50.806,20.062 50.694,20.475 50.694,20.966 C50.694,21.155 50.694,21.68 51.13,22.037 C51.475,22.327 51.944,22.383 52.245,22.383 C52.692,22.383 53.093,22.215 53.462,21.881 C53.317,22.494 53.194,22.963 52.725,23.521 C52.424,23.867 51.978,24.235 51.386,24.235 C51.308,24.235 50.784,24.235 50.549,23.867 C51.152,23.8 51.152,23.264 51.152,23.253 C51.152,22.896 50.828,22.829 50.717,22.829 C50.438,22.829 50.07,23.052 50.07,23.566 C50.07,24.135 50.605,24.547 51.397,24.547 C52.524,24.547 53.897,23.677 54.243,22.282 z" fill="#000000"/>
      <path d="M72.843,14.33 C72.843,9.755 71.775,4.894 68.635,1.307 C68.412,1.052 67.822,0.43 67.44,0.096 C67.328,-0 67.296,-0 67.089,-0 C66.93,-0 66.786,-0 66.786,0.159 C66.786,0.223 66.85,0.287 66.882,0.319 C67.424,0.877 68.285,1.753 69.273,3.507 C70.994,6.567 71.632,10.505 71.632,14.33 C71.632,21.248 69.719,25.472 66.85,28.389 C66.818,28.421 66.786,28.469 66.786,28.517 C66.786,28.676 66.93,28.676 67.089,28.676 C67.296,28.676 67.328,28.676 67.472,28.549 C68.986,27.242 70.692,25.026 71.791,21.663 C72.493,19.479 72.843,16.897 72.843,14.33 z" fill="#000000"/>
    </g>
    <path d="M36.715,213.664 C33.89,213.664 31.6,211.374 31.6,208.548 C31.6,205.723 33.89,203.433 36.715,203.433 C39.541,203.433 41.831,205.723 41.831,208.548 C41.831,211.374 39.541,213.664 36.715,213.664 z" fill="#000000"/>
    <path d="M213.24,213.664 C210.415,213.664 208.124,211.374 208.124,208.548 C208.124,205.723 210.415,203.433 213.24,203.433 C216.065,203.433 218.356,205.723 218.356,208.548 C218.356,211.374 216.065,213.664 213.24,213.664 z" fill="#000000"/>
    <path d="M213.24,38.908 C210.415,38.908 208.124,36.617 208.124,33.792 C208.124,30.967 210.415,28.676 213.24,28.676 C216.065,28.676 218.356,30.967 218.356,33.792 C218.356,36.617 216.065,38.908 213.24,38.908 z" fill="#000000"/>
    <path d="M36.715,38.908 C33.89,38.908 31.6,36.617 31.6,33.792 C31.6,30.967 33.89,28.676 36.715,28.676 C39.541,28.676 41.831,30.967 41.831,33.792 C41.831,36.617 39.541,38.908 36.715,38.908 z" fill="#000000"/>
    <g id="Layer_1">
      <path d="M182.192,28.501 C182.224,28.517 182.368,28.676 182.384,28.676 L182.734,28.676 C182.782,28.676 182.91,28.66 182.91,28.517 C182.91,28.453 182.878,28.421 182.846,28.373 C182.272,27.8 181.411,26.923 180.423,25.17 C178.701,22.109 178.064,18.172 178.064,14.346 C178.064,7.269 180.072,3.108 182.862,0.287 C182.91,0.239 182.91,0.191 182.91,0.159 C182.91,-0 182.798,-0 182.607,-0 C182.399,-0 182.368,-0 182.224,0.128 C180.71,1.435 179.004,3.65 177.904,7.014 C177.219,9.118 176.852,11.684 176.852,14.33 C176.852,18.108 177.538,22.38 180.04,26.078 C180.471,26.7 181.06,27.353 181.06,27.369 C181.22,27.561 181.443,27.816 181.571,27.927 z" fill="#000000"/>
      <path d="M189.082,17.438 C189.257,18.091 189.815,18.506 190.501,18.506 C191.059,18.506 191.425,18.139 191.68,17.629 C191.951,17.055 192.159,16.083 192.159,16.051 C192.159,15.892 192.015,15.892 191.967,15.892 C191.808,15.892 191.792,15.955 191.744,16.178 C191.521,17.071 191.218,18.155 190.549,18.155 C190.214,18.155 190.054,17.948 190.054,17.422 C190.054,17.071 190.246,16.322 190.373,15.764 L190.82,14.043 C190.867,13.803 191.027,13.198 191.091,12.959 C191.17,12.592 191.33,11.986 191.33,11.891 C191.33,11.604 191.107,11.46 190.867,11.46 C190.788,11.46 190.373,11.476 190.246,12.018 C189.943,13.182 189.242,15.971 189.05,16.816 C189.034,16.88 188.397,18.155 187.233,18.155 C186.404,18.155 186.245,17.438 186.245,16.848 C186.245,15.955 186.691,14.696 187.106,13.596 C187.297,13.118 187.377,12.895 187.377,12.592 C187.377,11.875 186.866,11.285 186.069,11.285 C184.555,11.285 183.965,13.596 183.965,13.74 C183.965,13.899 184.125,13.899 184.157,13.899 C184.316,13.899 184.332,13.867 184.412,13.612 C184.81,12.225 185.416,11.636 186.022,11.636 C186.165,11.636 186.42,11.651 186.42,12.162 C186.42,12.544 186.245,13.006 186.149,13.245 C185.559,14.824 185.225,15.812 185.225,16.593 C185.225,18.107 186.324,18.506 187.185,18.506 C188.237,18.506 188.811,17.788 189.082,17.438 z" fill="#000000"/>
      <path d="M196.589,3.381 C194.469,4.876 193.911,7.242 193.911,8.949 C193.911,10.522 194.38,12.966 196.589,14.528 C196.678,14.528 196.812,14.528 196.812,14.394 C196.812,14.327 196.779,14.305 196.701,14.227 C195.217,12.888 194.67,10.991 194.67,8.96 C194.67,5.947 195.819,4.475 196.734,3.649 C196.779,3.604 196.812,3.571 196.812,3.515 C196.812,3.381 196.678,3.381 196.589,3.381 z" fill="#000000"/>
      <path d="M203.511,9.92 L203.511,9.518 L202.273,9.518 L202.273,4.541 C202.273,4.307 202.273,4.229 202.027,4.229 C201.894,4.229 201.849,4.229 201.737,4.385 L198.044,9.518 L198.044,9.92 L201.324,9.92 L201.324,10.835 C201.324,11.214 201.324,11.348 200.421,11.348 L200.119,11.348 L200.119,11.75 C200.677,11.727 201.391,11.705 201.793,11.705 C202.206,11.705 202.92,11.727 203.478,11.75 L203.478,11.348 L203.177,11.348 C202.273,11.348 202.273,11.214 202.273,10.835 L202.273,9.92 z M201.403,5.434 L201.403,9.518 L198.457,9.518 z" fill="#000000"/>
      <path d="M204.966,3.381 C204.888,3.381 204.754,3.381 204.754,3.515 C204.754,3.571 204.788,3.604 204.855,3.682 C205.814,4.564 206.886,6.07 206.886,8.949 C206.886,11.281 206.16,13.044 204.955,14.137 C204.766,14.327 204.754,14.338 204.754,14.394 C204.754,14.45 204.788,14.528 204.9,14.528 C205.033,14.528 206.093,13.792 206.83,12.397 C207.321,11.471 207.644,10.266 207.644,8.96 C207.644,7.387 207.176,4.943 204.966,3.381 z" fill="#000000"/>
      <path d="M195.406,21.088 C195.295,21.468 194.926,22.07 194.357,22.07 C194.324,22.07 193.989,22.07 193.755,21.914 C194.212,21.769 194.246,21.367 194.246,21.3 C194.246,21.055 194.056,20.888 193.799,20.888 C193.487,20.888 193.163,21.155 193.163,21.568 C193.163,22.126 193.788,22.383 194.335,22.383 C194.848,22.383 195.306,22.059 195.585,21.591 C195.853,22.182 196.466,22.383 196.913,22.383 C198.196,22.383 198.876,20.988 198.876,20.676 C198.876,20.531 198.731,20.531 198.698,20.531 C198.542,20.531 198.53,20.586 198.486,20.72 C198.252,21.49 197.582,22.07 196.957,22.07 C196.511,22.07 196.277,21.769 196.277,21.345 C196.277,21.055 196.544,20.04 196.857,18.801 C197.08,17.942 197.582,17.663 197.95,17.663 C197.973,17.663 198.318,17.663 198.553,17.819 C198.196,17.92 198.062,18.232 198.062,18.433 C198.062,18.678 198.252,18.846 198.508,18.846 C198.765,18.846 199.133,18.634 199.133,18.165 C199.133,17.54 198.419,17.35 197.973,17.35 C197.415,17.35 196.968,17.719 196.723,18.143 C196.522,17.685 196.009,17.35 195.384,17.35 C194.134,17.35 193.42,18.723 193.42,19.058 C193.42,19.203 193.576,19.203 193.61,19.203 C193.755,19.203 193.766,19.158 193.822,19.013 C194.101,18.143 194.804,17.663 195.35,17.663 C195.719,17.663 196.02,17.864 196.02,18.399 C196.02,18.623 195.886,19.18 195.786,19.56 z" fill="#000000"/>
      <path d="M212.977,18.314 C212.977,17.262 212.579,16.641 211.957,16.641 C211.431,16.641 211.112,17.039 211.112,17.486 C211.112,17.916 211.431,18.33 211.957,18.33 C212.148,18.33 212.356,18.267 212.515,18.123 C212.563,18.091 212.579,18.075 212.595,18.075 C212.611,18.075 212.627,18.091 212.627,18.314 C212.627,19.494 212.069,20.45 211.543,20.976 C211.367,21.152 211.367,21.184 211.367,21.232 C211.367,21.343 211.447,21.407 211.527,21.407 C211.702,21.407 212.977,20.179 212.977,18.314 z" fill="#000000"/>
      <path d="M222.411,17.438 C222.586,18.091 223.144,18.506 223.829,18.506 C224.387,18.506 224.754,18.139 225.009,17.629 C225.28,17.055 225.487,16.083 225.487,16.051 C225.487,15.892 225.344,15.892 225.296,15.892 C225.136,15.892 225.121,15.955 225.073,16.178 C224.85,17.071 224.547,18.155 223.877,18.155 C223.542,18.155 223.383,17.948 223.383,17.422 C223.383,17.071 223.574,16.322 223.702,15.764 L224.148,14.043 C224.196,13.803 224.355,13.198 224.419,12.959 C224.499,12.592 224.658,11.986 224.658,11.891 C224.658,11.604 224.435,11.46 224.196,11.46 C224.116,11.46 223.702,11.476 223.574,12.018 C223.271,13.182 222.57,15.971 222.379,16.816 C222.363,16.88 221.725,18.155 220.562,18.155 C219.733,18.155 219.573,17.438 219.573,16.848 C219.573,15.955 220.02,14.696 220.434,13.596 C220.625,13.118 220.705,12.895 220.705,12.592 C220.705,11.875 220.195,11.285 219.398,11.285 C217.884,11.285 217.294,13.596 217.294,13.74 C217.294,13.899 217.453,13.899 217.485,13.899 C217.645,13.899 217.661,13.867 217.74,13.612 C218.139,12.225 218.744,11.636 219.35,11.636 C219.494,11.636 219.749,11.651 219.749,12.162 C219.749,12.544 219.573,13.006 219.478,13.245 C218.888,14.824 218.553,15.812 218.553,16.593 C218.553,18.107 219.653,18.506 220.514,18.506 C221.566,18.506 222.14,17.788 222.411,17.438 z" fill="#000000"/>
      <path d="M229.912,3.381 C227.792,4.876 227.234,7.242 227.234,8.949 C227.234,10.522 227.703,12.966 229.912,14.528 C230.001,14.528 230.135,14.528 230.135,14.394 C230.135,14.327 230.102,14.305 230.024,14.227 C228.54,12.888 227.993,10.991 227.993,8.96 C227.993,5.947 229.142,4.475 230.057,3.649 C230.102,3.604 230.135,3.571 230.135,3.515 C230.135,3.381 230.001,3.381 229.912,3.381 z" fill="#000000"/>
      <path d="M236.835,9.92 L236.835,9.518 L235.596,9.518 L235.596,4.541 C235.596,4.307 235.596,4.229 235.351,4.229 C235.217,4.229 235.172,4.229 235.061,4.385 L231.367,9.518 L231.367,9.92 L234.648,9.92 L234.648,10.835 C234.648,11.214 234.648,11.348 233.744,11.348 L233.443,11.348 L233.443,11.75 C234,11.727 234.715,11.705 235.116,11.705 C235.529,11.705 236.243,11.727 236.801,11.75 L236.801,11.348 L236.5,11.348 C235.596,11.348 235.596,11.214 235.596,10.835 L235.596,9.92 z M234.726,5.434 L234.726,9.518 L231.78,9.518 z" fill="#000000"/>
      <path d="M238.29,3.381 C238.212,3.381 238.078,3.381 238.078,3.515 C238.078,3.571 238.111,3.604 238.178,3.682 C239.138,4.564 240.209,6.07 240.209,8.949 C240.209,11.281 239.484,13.044 238.279,14.137 C238.089,14.327 238.078,14.338 238.078,14.394 C238.078,14.45 238.111,14.528 238.223,14.528 C238.357,14.528 239.417,13.792 240.153,12.397 C240.644,11.471 240.968,10.266 240.968,8.96 C240.968,7.387 240.499,4.943 238.29,3.381 z" fill="#000000"/>
      <path d="M232.155,18.065 C232.2,17.908 232.2,17.886 232.2,17.819 C232.2,17.596 232.021,17.462 231.831,17.462 C231.709,17.462 231.497,17.518 231.374,17.73 C231.34,17.797 231.251,18.154 231.195,18.377 L230.961,19.303 C230.894,19.571 230.548,20.977 230.515,21.1 C230.504,21.1 230.013,22.07 229.142,22.07 C228.384,22.07 228.384,21.345 228.384,21.144 C228.384,20.542 228.64,19.839 228.975,18.98 C229.109,18.623 229.165,18.489 229.165,18.299 C229.165,17.763 228.707,17.35 228.105,17.35 C226.978,17.35 226.475,18.868 226.475,19.058 C226.475,19.203 226.632,19.203 226.665,19.203 C226.821,19.203 226.833,19.147 226.866,19.024 C227.145,18.098 227.625,17.663 228.071,17.663 C228.261,17.663 228.35,17.786 228.35,18.053 C228.35,18.31 228.25,18.556 228.194,18.701 C227.658,20.062 227.547,20.475 227.547,20.966 C227.547,21.155 227.547,21.68 227.982,22.037 C228.328,22.327 228.796,22.383 229.098,22.383 C229.544,22.383 229.946,22.215 230.314,21.881 C230.169,22.494 230.046,22.963 229.577,23.521 C229.276,23.867 228.83,24.235 228.238,24.235 C228.16,24.235 227.636,24.235 227.402,23.867 C228.004,23.8 228.004,23.264 228.004,23.253 C228.004,22.896 227.681,22.829 227.569,22.829 C227.29,22.829 226.922,23.052 226.922,23.566 C226.922,24.135 227.457,24.547 228.25,24.547 C229.377,24.547 230.749,23.677 231.095,22.282 z" fill="#000000"/>
      <path d="M249.696,14.33 C249.696,9.755 248.628,4.894 245.488,1.307 C245.264,1.052 244.675,0.43 244.292,0.096 C244.18,-0 244.149,-0 243.941,-0 C243.782,-0 243.638,-0 243.638,0.159 C243.638,0.223 243.702,0.287 243.734,0.319 C244.276,0.877 245.137,1.753 246.125,3.507 C247.847,6.567 248.484,10.505 248.484,14.33 C248.484,21.248 246.571,25.472 243.702,28.389 C243.67,28.421 243.638,28.469 243.638,28.517 C243.638,28.676 243.782,28.676 243.941,28.676 C244.149,28.676 244.18,28.676 244.324,28.549 C245.838,27.242 247.544,25.026 248.644,21.663 C249.345,19.479 249.696,16.897 249.696,14.33 z" fill="#000000"/>
    </g>
    <g id="Layer_1">
      <path d="M357.88,28.501 C357.912,28.517 358.055,28.676 358.071,28.676 L358.422,28.676 C358.47,28.676 358.597,28.66 358.597,28.517 C358.597,28.453 358.565,28.421 358.534,28.373 C357.96,27.8 357.099,26.923 356.111,25.17 C354.389,22.109 353.752,18.172 353.752,14.346 C353.752,7.269 355.76,3.108 358.55,0.287 C358.597,0.239 358.597,0.191 358.597,0.159 C358.597,-0 358.486,-0 358.294,-0 C358.087,-0 358.055,-0 357.912,0.128 C356.398,1.435 354.692,3.65 353.592,7.014 C352.907,9.118 352.54,11.684 352.54,14.33 C352.54,18.108 353.226,22.38 355.728,26.078 C356.159,26.7 356.748,27.353 356.748,27.369 C356.908,27.561 357.131,27.816 357.258,27.927 z" fill="#000000"/>
      <path d="M364.77,17.438 C364.945,18.091 365.503,18.506 366.189,18.506 C366.746,18.506 367.113,18.139 367.368,17.629 C367.639,17.055 367.846,16.083 367.846,16.051 C367.846,15.892 367.703,15.892 367.655,15.892 C367.496,15.892 367.48,15.955 367.432,16.178 C367.209,17.071 366.906,18.155 366.236,18.155 C365.902,18.155 365.742,17.948 365.742,17.422 C365.742,17.071 365.934,16.322 366.061,15.764 L366.507,14.043 C366.555,13.803 366.715,13.198 366.778,12.959 C366.858,12.592 367.017,11.986 367.017,11.891 C367.017,11.604 366.794,11.46 366.555,11.46 C366.475,11.46 366.061,11.476 365.934,12.018 C365.631,13.182 364.929,15.971 364.738,16.816 C364.722,16.88 364.084,18.155 362.921,18.155 C362.092,18.155 361.933,17.438 361.933,16.848 C361.933,15.955 362.379,14.696 362.793,13.596 C362.985,13.118 363.064,12.895 363.064,12.592 C363.064,11.875 362.554,11.285 361.757,11.285 C360.243,11.285 359.653,13.596 359.653,13.74 C359.653,13.899 359.813,13.899 359.844,13.899 C360.004,13.899 360.02,13.867 360.099,13.612 C360.498,12.225 361.104,11.636 361.709,11.636 C361.853,11.636 362.108,11.651 362.108,12.162 C362.108,12.544 361.933,13.006 361.837,13.245 C361.247,14.824 360.912,15.812 360.912,16.593 C360.912,18.107 362.012,18.506 362.873,18.506 C363.925,18.506 364.499,17.788 364.77,17.438 z" fill="#000000"/>
      <path d="M372.277,3.381 C370.157,4.876 369.599,7.242 369.599,8.949 C369.599,10.522 370.067,12.966 372.277,14.528 C372.366,14.528 372.5,14.528 372.5,14.394 C372.5,14.327 372.466,14.305 372.388,14.227 C370.904,12.888 370.358,10.991 370.358,8.96 C370.358,5.947 371.507,4.475 372.422,3.649 C372.466,3.604 372.5,3.571 372.5,3.515 C372.5,3.381 372.366,3.381 372.277,3.381 z" fill="#000000"/>
      <path d="M375.026,5.523 C375.595,5.668 375.93,5.668 376.108,5.668 C377.581,5.668 378.452,4.664 378.452,4.497 C378.452,4.374 378.374,4.341 378.318,4.341 C378.295,4.341 378.273,4.341 378.228,4.374 C377.961,4.475 377.369,4.698 376.544,4.698 C376.231,4.698 375.64,4.675 374.915,4.396 C374.803,4.341 374.781,4.341 374.77,4.341 C374.624,4.341 374.624,4.463 374.624,4.642 L374.624,7.934 C374.624,8.123 374.624,8.257 374.803,8.257 C374.903,8.257 374.915,8.235 375.026,8.101 C375.506,7.487 376.187,7.398 376.577,7.398 C377.247,7.398 377.548,7.934 377.604,8.023 C377.804,8.391 377.871,8.815 377.871,9.462 C377.871,9.797 377.871,10.455 377.537,10.946 C377.258,11.348 376.778,11.616 376.231,11.616 C375.506,11.616 374.758,11.214 374.479,10.478 C374.903,10.511 375.115,10.232 375.115,9.931 C375.115,9.451 374.703,9.362 374.557,9.362 C374.535,9.362 374,9.362 374,9.964 C374,10.969 374.915,11.973 376.254,11.973 C377.682,11.973 378.931,10.913 378.931,9.507 C378.931,8.246 377.972,7.086 376.588,7.086 C376.097,7.086 375.517,7.208 375.026,7.632 z" fill="#000000"/>
      <path d="M380.654,3.381 C380.576,3.381 380.442,3.381 380.442,3.515 C380.442,3.571 380.476,3.604 380.543,3.682 C381.502,4.564 382.573,6.07 382.573,8.949 C382.573,11.281 381.848,13.044 380.643,14.137 C380.453,14.327 380.442,14.338 380.442,14.394 C380.442,14.45 380.476,14.528 380.587,14.528 C380.721,14.528 381.781,13.792 382.518,12.397 C383.009,11.471 383.332,10.266 383.332,8.96 C383.332,7.387 382.864,4.943 380.654,3.381 z" fill="#000000"/>
      <path d="M371.094,21.088 C370.982,21.468 370.614,22.07 370.045,22.07 C370.012,22.07 369.677,22.07 369.443,21.914 C369.9,21.769 369.934,21.367 369.934,21.3 C369.934,21.055 369.744,20.888 369.487,20.888 C369.175,20.888 368.851,21.155 368.851,21.568 C368.851,22.126 369.476,22.383 370.023,22.383 C370.536,22.383 370.994,22.059 371.273,21.591 C371.54,22.182 372.154,22.383 372.6,22.383 C373.884,22.383 374.564,20.988 374.564,20.676 C374.564,20.531 374.419,20.531 374.386,20.531 C374.229,20.531 374.218,20.586 374.174,20.72 C373.939,21.49 373.27,22.07 372.645,22.07 C372.199,22.07 371.964,21.769 371.964,21.345 C371.964,21.055 372.232,20.04 372.545,18.801 C372.768,17.942 373.27,17.663 373.638,17.663 C373.66,17.663 374.006,17.663 374.241,17.819 C373.884,17.92 373.75,18.232 373.75,18.433 C373.75,18.678 373.939,18.846 374.196,18.846 C374.453,18.846 374.821,18.634 374.821,18.165 C374.821,17.54 374.107,17.35 373.66,17.35 C373.102,17.35 372.656,17.719 372.411,18.143 C372.21,17.685 371.697,17.35 371.072,17.35 C369.822,17.35 369.108,18.723 369.108,19.058 C369.108,19.203 369.264,19.203 369.298,19.203 C369.443,19.203 369.454,19.158 369.51,19.013 C369.789,18.143 370.491,17.663 371.038,17.663 C371.406,17.663 371.708,17.864 371.708,18.399 C371.708,18.623 371.574,19.18 371.473,19.56 z" fill="#000000"/>
      <path d="M388.665,18.314 C388.665,17.262 388.267,16.641 387.645,16.641 C387.119,16.641 386.8,17.039 386.8,17.486 C386.8,17.916 387.119,18.33 387.645,18.33 C387.836,18.33 388.043,18.267 388.203,18.123 C388.251,18.091 388.267,18.075 388.283,18.075 C388.298,18.075 388.314,18.091 388.314,18.314 C388.314,19.494 387.757,20.45 387.23,20.976 C387.055,21.152 387.055,21.184 387.055,21.232 C387.055,21.343 387.135,21.407 387.215,21.407 C387.39,21.407 388.665,20.179 388.665,18.314 z" fill="#000000"/>
      <path d="M398.098,17.438 C398.274,18.091 398.832,18.506 399.517,18.506 C400.075,18.506 400.442,18.139 400.697,17.629 C400.968,17.055 401.175,16.083 401.175,16.051 C401.175,15.892 401.031,15.892 400.984,15.892 C400.824,15.892 400.808,15.955 400.76,16.178 C400.537,17.071 400.234,18.155 399.565,18.155 C399.23,18.155 399.071,17.948 399.071,17.422 C399.071,17.071 399.262,16.322 399.39,15.764 L399.836,14.043 C399.884,13.803 400.043,13.198 400.107,12.959 C400.187,12.592 400.346,11.986 400.346,11.891 C400.346,11.604 400.123,11.46 399.884,11.46 C399.804,11.46 399.39,11.476 399.262,12.018 C398.959,13.182 398.258,15.971 398.067,16.816 C398.051,16.88 397.413,18.155 396.249,18.155 C395.421,18.155 395.261,17.438 395.261,16.848 C395.261,15.955 395.707,14.696 396.122,13.596 C396.313,13.118 396.393,12.895 396.393,12.592 C396.393,11.875 395.883,11.285 395.086,11.285 C393.572,11.285 392.982,13.596 392.982,13.74 C392.982,13.899 393.141,13.899 393.173,13.899 C393.332,13.899 393.348,13.867 393.428,13.612 C393.827,12.225 394.432,11.636 395.038,11.636 C395.181,11.636 395.436,11.651 395.436,12.162 C395.436,12.544 395.261,13.006 395.165,13.245 C394.576,14.824 394.241,15.812 394.241,16.593 C394.241,18.107 395.341,18.506 396.202,18.506 C397.254,18.506 397.828,17.788 398.098,17.438 z" fill="#000000"/>
      <path d="M405.6,3.381 C403.48,4.876 402.922,7.242 402.922,8.949 C402.922,10.522 403.391,12.966 405.6,14.528 C405.689,14.528 405.823,14.528 405.823,14.394 C405.823,14.327 405.79,14.305 405.712,14.227 C404.228,12.888 403.681,10.991 403.681,8.96 C403.681,5.947 404.83,4.475 405.745,3.649 C405.79,3.604 405.823,3.571 405.823,3.515 C405.823,3.381 405.689,3.381 405.6,3.381 z" fill="#000000"/>
      <path d="M408.349,5.523 C408.918,5.668 409.253,5.668 409.432,5.668 C410.905,5.668 411.775,4.664 411.775,4.497 C411.775,4.374 411.697,4.341 411.641,4.341 C411.619,4.341 411.596,4.341 411.552,4.374 C411.284,4.475 410.693,4.698 409.867,4.698 C409.554,4.698 408.963,4.675 408.238,4.396 C408.126,4.341 408.104,4.341 408.093,4.341 C407.948,4.341 407.948,4.463 407.948,4.642 L407.948,7.934 C407.948,8.123 407.948,8.257 408.126,8.257 C408.227,8.257 408.238,8.235 408.349,8.101 C408.829,7.487 409.51,7.398 409.9,7.398 C410.57,7.398 410.871,7.934 410.927,8.023 C411.128,8.391 411.195,8.815 411.195,9.462 C411.195,9.797 411.195,10.455 410.86,10.946 C410.581,11.348 410.101,11.616 409.554,11.616 C408.829,11.616 408.082,11.214 407.803,10.478 C408.227,10.511 408.439,10.232 408.439,9.931 C408.439,9.451 408.026,9.362 407.881,9.362 C407.858,9.362 407.323,9.362 407.323,9.964 C407.323,10.969 408.238,11.973 409.577,11.973 C411.005,11.973 412.255,10.913 412.255,9.507 C412.255,8.246 411.295,7.086 409.911,7.086 C409.421,7.086 408.84,7.208 408.349,7.632 z" fill="#000000"/>
      <path d="M413.977,3.381 C413.899,3.381 413.765,3.381 413.765,3.515 C413.765,3.571 413.799,3.604 413.866,3.682 C414.825,4.564 415.897,6.07 415.897,8.949 C415.897,11.281 415.171,13.044 413.966,14.137 C413.777,14.327 413.765,14.338 413.765,14.394 C413.765,14.45 413.799,14.528 413.911,14.528 C414.044,14.528 415.104,13.792 415.841,12.397 C416.332,11.471 416.655,10.266 416.655,8.96 C416.655,7.387 416.187,4.943 413.977,3.381 z" fill="#000000"/>
      <path d="M407.843,18.065 C407.887,17.908 407.887,17.886 407.887,17.819 C407.887,17.596 407.709,17.462 407.519,17.462 C407.396,17.462 407.184,17.518 407.062,17.73 C407.028,17.797 406.939,18.154 406.883,18.377 L406.649,19.303 C406.582,19.571 406.236,20.977 406.203,21.1 C406.191,21.1 405.7,22.07 404.83,22.07 C404.071,22.07 404.071,21.345 404.071,21.144 C404.071,20.542 404.328,19.839 404.663,18.98 C404.797,18.623 404.852,18.489 404.852,18.299 C404.852,17.763 404.395,17.35 403.792,17.35 C402.665,17.35 402.163,18.868 402.163,19.058 C402.163,19.203 402.319,19.203 402.353,19.203 C402.509,19.203 402.52,19.147 402.554,19.024 C402.833,18.098 403.313,17.663 403.759,17.663 C403.949,17.663 404.038,17.786 404.038,18.053 C404.038,18.31 403.937,18.556 403.882,18.701 C403.346,20.062 403.234,20.475 403.234,20.966 C403.234,21.155 403.234,21.68 403.67,22.037 C404.016,22.327 404.484,22.383 404.785,22.383 C405.232,22.383 405.633,22.215 406.002,21.881 C405.857,22.494 405.734,22.963 405.265,23.521 C404.964,23.867 404.518,24.235 403.926,24.235 C403.848,24.235 403.324,24.235 403.089,23.867 C403.692,23.8 403.692,23.264 403.692,23.253 C403.692,22.896 403.368,22.829 403.257,22.829 C402.978,22.829 402.61,23.052 402.61,23.566 C402.61,24.135 403.145,24.547 403.937,24.547 C405.064,24.547 406.437,23.677 406.783,22.282 z" fill="#000000"/>
      <path d="M425.384,14.33 C425.384,9.755 424.316,4.894 421.175,1.307 C420.952,1.052 420.362,0.43 419.98,0.096 C419.868,-0 419.836,-0 419.629,-0 C419.47,-0 419.326,-0 419.326,0.159 C419.326,0.223 419.39,0.287 419.422,0.319 C419.964,0.877 420.825,1.753 421.813,3.507 C423.535,6.567 424.172,10.505 424.172,14.33 C424.172,21.248 422.259,25.472 419.39,28.389 C419.358,28.421 419.326,28.469 419.326,28.517 C419.326,28.676 419.47,28.676 419.629,28.676 C419.836,28.676 419.868,28.676 420.012,28.549 C421.526,27.242 423.232,25.026 424.332,21.663 C425.033,19.479 425.384,16.897 425.384,14.33 z" fill="#000000"/>
    </g>
    <path d="M213.541,34.548 L389.263,34.548 L389.263,210.269 L213.541,210.269 L213.541,34.548 z" fill-opacity="0" stroke="#000000" stroke-width="1"/>
    <path d="M388.962,213.664 C386.136,213.664 383.846,211.374 383.846,208.548 C383.846,205.723 386.136,203.433 388.962,203.433 C391.787,203.433 394.078,205.723 394.078,208.548 C394.078,211.374 391.787,213.664 388.962,213.664 z" fill="#000000"/>
    <path d="M388.962,38.908 C386.136,38.908 383.846,36.617 383.846,33.792 C383.846,30.967 386.136,28.676 388.962,28.676 C391.787,28.676 394.078,30.967 394.078,33.792 C394.078,36.617 391.787,38.908 388.962,38.908 z" fill="#000000"/>
  </g>
</svg>
