<?xml version="1.0" encoding="UTF-8"?>
<!DOCTYPE svg PUBLIC "-//W3C//DTD SVG 1.1//EN" "http://www.w3.org/Graphics/SVG/1.1/DTD/svg11.dtd">
<svg version="1.1" xmlns="http://www.w3.org/2000/svg" xmlns:xlink="http://www.w3.org/1999/xlink" x="0" y="0" width="319.619" height="290.597" viewBox="0, 0, 319.619, 290.597">
  <g id="Layer_1">
    <path d="M18.912,219.685 L71.912,219.685 L71.912,272.685 L18.912,272.685 L18.912,219.685 z" fill-opacity="0" stroke="#000000" stroke-width="1"/>
    <path d="M71.912,219.685 L124.912,219.685 L124.912,272.685 L71.912,272.685 L71.912,219.685 z" fill-opacity="0" stroke="#000000" stroke-width="1"/>
    <path d="M124.912,219.685 L177.912,219.685 L177.912,272.685 L124.912,272.685 L124.912,219.685 z" fill-opacity="0" stroke="#000000" stroke-width="1"/>
    <path d="M177.912,219.685 L230.912,219.685 L230.912,272.685 L177.912,272.685 L177.912,219.685 z" fill-opacity="0" stroke="#000000" stroke-width="1"/>
    <path d="M230.912,219.685 L283.912,219.685 L283.912,272.685 L230.912,272.685 L230.912,219.685 z" fill-opacity="0" stroke="#000000" stroke-width="1"/>
    <path d="M18.912,166.685 L71.912,166.685 L71.912,219.685 L18.912,219.685 L18.912,166.685 z" fill-opacity="0" stroke="#000000" stroke-width="1"/>
    <path d="M71.912,166.685 L124.912,166.685 L124.912,219.685 L71.912,219.685 L71.912,166.685 z" fill-opacity="0" stroke="#000000" stroke-width="1"/>
    <path d="M124.912,166.685 L177.912,166.685 L177.912,219.685 L124.912,219.685 L124.912,166.685 z" fill-opacity="0" stroke="#000000" stroke-width="1"/>
    <path d="M177.912,166.685 L230.912,166.685 L230.912,219.685 L177.912,219.685 L177.912,166.685 z" fill-opacity="0" stroke="#000000" stroke-width="1"/>
    <path d="M230.912,166.685 L283.912,166.685 L283.912,219.685 L230.912,219.685 L230.912,166.685 z" fill-opacity="0" stroke="#000000" stroke-width="1"/>
    <path d="M18.912,113.685 L71.912,113.685 L71.912,166.685 L18.912,166.685 L18.912,113.685 z" fill-opacity="0" stroke="#000000" stroke-width="1"/>
    <path d="M71.912,113.685 L124.912,113.685 L124.912,166.685 L71.912,166.685 L71.912,113.685 z" fill-opacity="0" stroke="#000000" stroke-width="1"/>
    <path d="M124.912,113.685 L177.912,113.685 L177.912,166.685 L124.912,166.685 L124.912,113.685 z" fill-opacity="0" stroke="#000000" stroke-width="1"/>
    <path d="M177.912,113.685 L230.912,113.685 L230.912,166.685 L177.912,166.685 L177.912,113.685 z" fill-opacity="0" stroke="#000000" stroke-width="1"/>
    <path d="M230.912,113.685 L283.912,113.685 L283.912,166.685 L230.912,166.685 L230.912,113.685 z" fill-opacity="0" stroke="#000000" stroke-width="1"/>
    <path d="M18.912,60.685 L71.912,60.685 L71.912,113.685 L18.912,113.685 L18.912,60.685 z" fill-opacity="0" stroke="#000000" stroke-width="1"/>
    <path d="M71.912,60.685 L124.912,60.685 L124.912,113.685 L71.912,113.685 L71.912,60.685 z" fill-opacity="0" stroke="#000000" stroke-width="1"/>
    <path d="M124.912,60.685 L177.912,60.685 L177.912,113.685 L124.912,113.685 L124.912,60.685 z" fill-opacity="0" stroke="#000000" stroke-width="1"/>
    <path d="M177.912,60.685 L230.912,60.685 L230.912,113.685 L177.912,113.685 L177.912,60.685 z" fill-opacity="0" stroke="#000000" stroke-width="1"/>
    <path d="M230.912,60.685 L283.912,60.685 L283.912,113.685 L230.912,113.685 L230.912,60.685 z" fill-opacity="0" stroke="#000000" stroke-width="1"/>
    <path d="M18.912,7.685 L71.912,7.685 L71.912,60.685 L18.912,60.685 L18.912,7.685 z" fill-opacity="0" stroke="#000000" stroke-width="1"/>
    <path d="M71.912,7.685 L124.912,7.685 L124.912,60.685 L71.912,60.685 L71.912,7.685 z" fill-opacity="0" stroke="#000000" stroke-width="1"/>
    <path d="M124.912,7.685 L177.912,7.685 L177.912,60.685 L124.912,60.685 L124.912,7.685 z" fill-opacity="0" stroke="#000000" stroke-width="1"/>
    <path d="M177.912,7.685 L230.912,7.685 L230.912,60.685 L177.912,60.685 L177.912,7.685 z" fill-opacity="0" stroke="#000000" stroke-width="1"/>
    <path d="M230.912,7.685 L283.912,7.685 L283.912,60.685 L230.912,60.685 L230.912,7.685 z" fill-opacity="0" stroke="#000000" stroke-width="1"/>
    <g>
      <path d="M11.266,286.134 L26.795,286.134" fill-opacity="0" stroke="#000000" stroke-width="1" stroke-linecap="round"/>
      <path d="M11.266,286.134 L19.031,272.685" fill-opacity="0" stroke="#000000" stroke-width="1" stroke-linecap="round"/>
      <path d="M26.795,286.134 L19.031,272.685" fill-opacity="0" stroke="#000000" stroke-width="1" stroke-linecap="round"/>
      <path d="M11.266,291.097 L13.014,286.293" fill-opacity="0" stroke="#000000" stroke-width="1" stroke-linecap="round"/>
      <path d="M13.811,291.097 L15.559,286.293" fill-opacity="0" stroke="#000000" stroke-width="1" stroke-linecap="round"/>
      <path d="M16.356,291.097 L18.104,286.293" fill-opacity="0" stroke="#000000" stroke-width="1" stroke-linecap="round"/>
      <path d="M18.901,291.097 L20.649,286.293" fill-opacity="0" stroke="#000000" stroke-width="1" stroke-linecap="round"/>
      <path d="M21.446,291.097 L23.195,286.293" fill-opacity="0" stroke="#000000" stroke-width="1" stroke-linecap="round"/>
      <path d="M23.991,291.097 L25.74,286.293" fill-opacity="0" stroke="#000000" stroke-width="1" stroke-linecap="round"/>
    </g>
    <g>
      <path d="M64.13,286.134 L79.66,286.134" fill-opacity="0" stroke="#000000" stroke-width="1" stroke-linecap="round"/>
      <path d="M64.13,286.134 L71.895,272.685" fill-opacity="0" stroke="#000000" stroke-width="1" stroke-linecap="round"/>
      <path d="M79.66,286.134 L71.895,272.685" fill-opacity="0" stroke="#000000" stroke-width="1" stroke-linecap="round"/>
      <g>
        <path d="M68.012,290.672 C66.759,290.672 65.744,289.656 65.744,288.403 C65.744,287.15 66.759,286.134 68.012,286.134 C69.265,286.134 70.281,287.15 70.281,288.403 C70.281,289.656 69.265,290.672 68.012,290.672 z" fill-opacity="0" stroke="#000000" stroke-width="1"/>
        <path d="M75.777,290.672 C74.524,290.672 73.508,289.656 73.508,288.403 C73.508,287.15 74.524,286.134 75.777,286.134 C77.03,286.134 78.046,287.15 78.046,288.403 C78.046,289.656 77.03,290.672 75.777,290.672 z" fill-opacity="0" stroke="#000000" stroke-width="1"/>
      </g>
      <path d="M64.13,291.097 L79.66,291.097" fill-opacity="0" stroke="#000000" stroke-width="1" stroke-linecap="round"/>
    </g>
    <g>
      <path d="M117.302,286.134 L132.832,286.134" fill-opacity="0" stroke="#000000" stroke-width="1" stroke-linecap="round"/>
      <path d="M117.302,286.134 L125.067,272.685" fill-opacity="0" stroke="#000000" stroke-width="1" stroke-linecap="round"/>
      <path d="M132.832,286.134 L125.067,272.685" fill-opacity="0" stroke="#000000" stroke-width="1" stroke-linecap="round"/>
      <g>
        <path d="M121.184,290.672 C119.931,290.672 118.916,289.656 118.916,288.403 C118.916,287.15 119.931,286.134 121.184,286.134 C122.437,286.134 123.453,287.15 123.453,288.403 C123.453,289.656 122.437,290.672 121.184,290.672 z" fill-opacity="0" stroke="#000000" stroke-width="1"/>
        <path d="M128.949,290.672 C127.696,290.672 126.68,289.656 126.68,288.403 C126.68,287.15 127.696,286.134 128.949,286.134 C130.202,286.134 131.218,287.15 131.218,288.403 C131.218,289.656 130.202,290.672 128.949,290.672 z" fill-opacity="0" stroke="#000000" stroke-width="1"/>
      </g>
      <path d="M117.302,291.097 L132.832,291.097" fill-opacity="0" stroke="#000000" stroke-width="1" stroke-linecap="round"/>
    </g>
    <g>
      <path d="M170.166,286.134 L185.696,286.134" fill-opacity="0" stroke="#000000" stroke-width="1" stroke-linecap="round"/>
      <path d="M170.166,286.134 L177.931,272.685" fill-opacity="0" stroke="#000000" stroke-width="1" stroke-linecap="round"/>
      <path d="M185.696,286.134 L177.931,272.685" fill-opacity="0" stroke="#000000" stroke-width="1" stroke-linecap="round"/>
      <g>
        <path d="M174.049,290.672 C172.796,290.672 171.78,289.656 171.78,288.403 C171.78,287.15 172.796,286.134 174.049,286.134 C175.302,286.134 176.317,287.15 176.317,288.403 C176.317,289.656 175.302,290.672 174.049,290.672 z" fill-opacity="0" stroke="#000000" stroke-width="1"/>
        <path d="M181.813,290.672 C180.56,290.672 179.545,289.656 179.545,288.403 C179.545,287.15 180.56,286.134 181.813,286.134 C183.066,286.134 184.082,287.15 184.082,288.403 C184.082,289.656 183.066,290.672 181.813,290.672 z" fill-opacity="0" stroke="#000000" stroke-width="1"/>
      </g>
      <path d="M170.166,291.097 L185.696,291.097" fill-opacity="0" stroke="#000000" stroke-width="1" stroke-linecap="round"/>
    </g>
    <g>
      <path d="M223.266,286.134 L238.796,286.134" fill-opacity="0" stroke="#000000" stroke-width="1" stroke-linecap="round"/>
      <path d="M223.266,286.134 L231.031,272.685" fill-opacity="0" stroke="#000000" stroke-width="1" stroke-linecap="round"/>
      <path d="M238.796,286.134 L231.031,272.685" fill-opacity="0" stroke="#000000" stroke-width="1" stroke-linecap="round"/>
      <g>
        <path d="M227.149,290.672 C225.896,290.672 224.88,289.656 224.88,288.403 C224.88,287.15 225.896,286.134 227.149,286.134 C228.402,286.134 229.417,287.15 229.417,288.403 C229.417,289.656 228.402,290.672 227.149,290.672 z" fill-opacity="0" stroke="#000000" stroke-width="1"/>
        <path d="M234.913,290.672 C233.66,290.672 232.645,289.656 232.645,288.403 C232.645,287.15 233.66,286.134 234.913,286.134 C236.166,286.134 237.182,287.15 237.182,288.403 C237.182,289.656 236.166,290.672 234.913,290.672 z" fill-opacity="0" stroke="#000000" stroke-width="1"/>
      </g>
      <path d="M223.266,291.097 L238.796,291.097" fill-opacity="0" stroke="#000000" stroke-width="1" stroke-linecap="round"/>
    </g>
    <g>
      <path d="M276.294,286.134 L291.824,286.134" fill-opacity="0" stroke="#000000" stroke-width="1" stroke-linecap="round"/>
      <path d="M276.294,286.134 L284.059,272.685" fill-opacity="0" stroke="#000000" stroke-width="1" stroke-linecap="round"/>
      <path d="M291.824,286.134 L284.059,272.685" fill-opacity="0" stroke="#000000" stroke-width="1" stroke-linecap="round"/>
      <g>
        <path d="M280.177,290.672 C278.924,290.672 277.908,289.656 277.908,288.403 C277.908,287.15 278.924,286.134 280.177,286.134 C281.43,286.134 282.445,287.15 282.445,288.403 C282.445,289.656 281.43,290.672 280.177,290.672 z" fill-opacity="0" stroke="#000000" stroke-width="1"/>
        <path d="M287.941,290.672 C286.688,290.672 285.673,289.656 285.673,288.403 C285.673,287.15 286.688,286.134 287.941,286.134 C289.194,286.134 290.21,287.15 290.21,288.403 C290.21,289.656 289.194,290.672 287.941,290.672 z" fill-opacity="0" stroke="#000000" stroke-width="1"/>
      </g>
      <path d="M276.294,291.097 L291.824,291.097" fill-opacity="0" stroke="#000000" stroke-width="1" stroke-linecap="round"/>
    </g>
    <g>
      <path d="M5.463,0.5 L5.463,16.03" fill-opacity="0" stroke="#000000" stroke-width="1" stroke-linecap="round"/>
      <path d="M5.463,0.5 L18.912,8.265" fill-opacity="0" stroke="#000000" stroke-width="1" stroke-linecap="round"/>
      <path d="M5.463,16.03 L18.912,8.265" fill-opacity="0" stroke="#000000" stroke-width="1" stroke-linecap="round"/>
      <g>
        <path d="M0.925,4.382 C0.925,3.129 1.941,2.114 3.194,2.114 C4.447,2.114 5.463,3.129 5.463,4.382 C5.463,5.635 4.447,6.651 3.194,6.651 C1.941,6.651 0.925,5.635 0.925,4.382 z" fill-opacity="0" stroke="#000000" stroke-width="1"/>
        <path d="M0.925,12.147 C0.925,10.894 1.941,9.878 3.194,9.878 C4.447,9.878 5.463,10.894 5.463,12.147 C5.463,13.4 4.447,14.416 3.194,14.416 C1.941,14.416 0.925,13.4 0.925,12.147 z" fill-opacity="0" stroke="#000000" stroke-width="1"/>
      </g>
      <path d="M0.5,0.5 L0.5,16.03" fill-opacity="0" stroke="#000000" stroke-width="1" stroke-linecap="round"/>
    </g>
    <g>
      <path d="M5.463,53.672 L5.463,69.202" fill-opacity="0" stroke="#000000" stroke-width="1" stroke-linecap="round"/>
      <path d="M5.463,53.672 L18.912,61.437" fill-opacity="0" stroke="#000000" stroke-width="1" stroke-linecap="round"/>
      <path d="M5.463,69.202 L18.912,61.437" fill-opacity="0" stroke="#000000" stroke-width="1" stroke-linecap="round"/>
      <g>
        <path d="M0.925,57.555 C0.925,56.302 1.941,55.286 3.194,55.286 C4.447,55.286 5.463,56.302 5.463,57.555 C5.463,58.808 4.447,59.823 3.194,59.823 C1.941,59.823 0.925,58.808 0.925,57.555 z" fill-opacity="0" stroke="#000000" stroke-width="1"/>
        <path d="M0.925,65.319 C0.925,64.066 1.941,63.051 3.194,63.051 C4.447,63.051 5.463,64.066 5.463,65.319 C5.463,66.572 4.447,67.588 3.194,67.588 C1.941,67.588 0.925,66.572 0.925,65.319 z" fill-opacity="0" stroke="#000000" stroke-width="1"/>
      </g>
      <path d="M0.5,53.672 L0.5,69.202" fill-opacity="0" stroke="#000000" stroke-width="1" stroke-linecap="round"/>
    </g>
    <g>
      <path d="M5.463,106.536 L5.463,122.066" fill-opacity="0" stroke="#000000" stroke-width="1" stroke-linecap="round"/>
      <path d="M5.463,106.536 L18.912,114.301" fill-opacity="0" stroke="#000000" stroke-width="1" stroke-linecap="round"/>
      <path d="M5.463,122.066 L18.912,114.301" fill-opacity="0" stroke="#000000" stroke-width="1" stroke-linecap="round"/>
      <g>
        <path d="M0.925,110.419 C0.925,109.166 1.941,108.15 3.194,108.15 C4.447,108.15 5.463,109.166 5.463,110.419 C5.463,111.672 4.447,112.688 3.194,112.688 C1.941,112.688 0.925,111.672 0.925,110.419 z" fill-opacity="0" stroke="#000000" stroke-width="1"/>
        <path d="M0.925,118.184 C0.925,116.931 1.941,115.915 3.194,115.915 C4.447,115.915 5.463,116.931 5.463,118.184 C5.463,119.437 4.447,120.452 3.194,120.452 C1.941,120.452 0.925,119.437 0.925,118.184 z" fill-opacity="0" stroke="#000000" stroke-width="1"/>
      </g>
      <path d="M0.5,106.536 L0.5,122.066" fill-opacity="0" stroke="#000000" stroke-width="1" stroke-linecap="round"/>
    </g>
    <g>
      <path d="M5.463,159.636 L5.463,175.166" fill-opacity="0" stroke="#000000" stroke-width="1" stroke-linecap="round"/>
      <path d="M5.463,159.636 L18.912,167.401" fill-opacity="0" stroke="#000000" stroke-width="1" stroke-linecap="round"/>
      <path d="M5.463,175.166 L18.912,167.401" fill-opacity="0" stroke="#000000" stroke-width="1" stroke-linecap="round"/>
      <g>
        <path d="M0.925,163.519 C0.925,162.266 1.941,161.25 3.194,161.25 C4.447,161.25 5.463,162.266 5.463,163.519 C5.463,164.772 4.447,165.788 3.194,165.788 C1.941,165.788 0.925,164.772 0.925,163.519 z" fill-opacity="0" stroke="#000000" stroke-width="1"/>
        <path d="M0.925,171.284 C0.925,170.031 1.941,169.015 3.194,169.015 C4.447,169.015 5.463,170.031 5.463,171.284 C5.463,172.537 4.447,173.552 3.194,173.552 C1.941,173.552 0.925,172.537 0.925,171.284 z" fill-opacity="0" stroke="#000000" stroke-width="1"/>
      </g>
      <path d="M0.5,159.636 L0.5,175.166" fill-opacity="0" stroke="#000000" stroke-width="1" stroke-linecap="round"/>
    </g>
    <g>
      <path d="M5.463,212.664 L5.463,228.194" fill-opacity="0" stroke="#000000" stroke-width="1" stroke-linecap="round"/>
      <path d="M5.463,212.664 L18.912,220.429" fill-opacity="0" stroke="#000000" stroke-width="1" stroke-linecap="round"/>
      <path d="M5.463,228.194 L18.912,220.429" fill-opacity="0" stroke="#000000" stroke-width="1" stroke-linecap="round"/>
      <g>
        <path d="M0.925,216.547 C0.925,215.294 1.941,214.278 3.194,214.278 C4.447,214.278 5.463,215.294 5.463,216.547 C5.463,217.8 4.447,218.816 3.194,218.816 C1.941,218.816 0.925,217.8 0.925,216.547 z" fill-opacity="0" stroke="#000000" stroke-width="1"/>
        <path d="M0.925,224.312 C0.925,223.059 1.941,222.043 3.194,222.043 C4.447,222.043 5.463,223.059 5.463,224.312 C5.463,225.565 4.447,226.58 3.194,226.58 C1.941,226.58 0.925,225.565 0.925,224.312 z" fill-opacity="0" stroke="#000000" stroke-width="1"/>
      </g>
      <path d="M0.5,212.664 L0.5,228.194" fill-opacity="0" stroke="#000000" stroke-width="1" stroke-linecap="round"/>
    </g>
    <g>
      <path d="M283.912,7.685 L314.119,7.685" fill-opacity="0" stroke="#000000" stroke-width="1"/>
      <path d="M314.119,7.685 L312.119,10.685 L320.119,7.685 L312.119,4.685 z" fill="#000000" fill-opacity="1" stroke="#000000" stroke-width="1" stroke-opacity="1"/>
    </g>
    <g>
      <path d="M283.912,60.685 L314.119,60.685" fill-opacity="0" stroke="#000000" stroke-width="1"/>
      <path d="M314.119,60.685 L312.119,63.685 L320.119,60.685 L312.119,57.685 z" fill="#000000" fill-opacity="1" stroke="#000000" stroke-width="1" stroke-opacity="1"/>
    </g>
    <g>
      <path d="M283.912,113.685 L314.119,113.685" fill-opacity="0" stroke="#000000" stroke-width="1"/>
      <path d="M314.119,113.685 L312.119,116.685 L320.119,113.685 L312.119,110.685 z" fill="#000000" fill-opacity="1" stroke="#000000" stroke-width="1" stroke-opacity="1"/>
    </g>
    <g>
      <path d="M283.912,166.685 L314.119,166.685" fill-opacity="0" stroke="#000000" stroke-width="1"/>
      <path d="M314.119,166.685 L312.119,169.685 L320.119,166.685 L312.119,163.685 z" fill="#000000" fill-opacity="1" stroke="#000000" stroke-width="1" stroke-opacity="1"/>
    </g>
    <g>
      <path d="M283.912,219.685 L314.119,219.685" fill-opacity="0" stroke="#000000" stroke-width="1"/>
      <path d="M314.119,219.685 L312.119,222.685 L320.119,219.685 L312.119,216.685 z" fill="#000000" fill-opacity="1" stroke="#000000" stroke-width="1" stroke-opacity="1"/>
    </g>
    <g>
      <path d="M283.912,272.685 L314.119,272.685" fill-opacity="0" stroke="#000000" stroke-width="1"/>
      <path d="M314.119,272.685 L312.119,275.685 L320.119,272.685 L312.119,269.685 z" fill="#000000" fill-opacity="1" stroke="#000000" stroke-width="1" stroke-opacity="1"/>
    </g>
  </g>
</svg>
