<?xml version="1.0" encoding="UTF-8" standalone="no"?>
<!-- Created with Inkscape (http://www.inkscape.org/) -->

<svg
   xmlns:ns0="http://www.iki.fi/pav/software/textext/"
   xmlns:dc="http://purl.org/dc/elements/1.1/"
   xmlns:cc="http://creativecommons.org/ns#"
   xmlns:rdf="http://www.w3.org/1999/02/22-rdf-syntax-ns#"
   xmlns:svg="http://www.w3.org/2000/svg"
   xmlns="http://www.w3.org/2000/svg"
   xmlns:sodipodi="http://sodipodi.sourceforge.net/DTD/sodipodi-0.dtd"
   xmlns:inkscape="http://www.inkscape.org/namespaces/inkscape"
   inkscape:version="0.91 r13725"
   version="1.1"
   id="svg2"
   viewBox="0 0 1261.8598 494.78442"
   height="139.63916mm"
   width="356.12488mm"
   sodipodi:docname="problem.svg">
  <sodipodi:namedview
     inkscape:window-maximized="1"
     inkscape:window-y="0"
     inkscape:window-x="0"
     inkscape:window-height="1392"
     inkscape:window-width="2560"
     showgrid="false"
     inkscape:current-layer="svg2"
     inkscape:document-units="px"
     inkscape:cy="-3.9229881"
     inkscape:cx="621.06756"
     inkscape:zoom="0.8439923"
     inkscape:pageshadow="2"
     inkscape:pageopacity="0.0"
     borderopacity="1.0"
     bordercolor="#666666"
     pagecolor="#ffffff"
     id="base"
     inkscape:snap-bbox="true"
     inkscape:bbox-paths="true"
     inkscape:bbox-nodes="true"
     inkscape:snap-bbox-edge-midpoints="true"
     inkscape:snap-bbox-midpoints="true"
     inkscape:object-paths="true"
     inkscape:snap-intersection-paths="true"
     inkscape:object-nodes="true"
     inkscape:snap-smooth-nodes="true"
     inkscape:snap-object-midpoints="true"
     fit-margin-top="0"
     fit-margin-left="0"
     fit-margin-right="0"
     fit-margin-bottom="0" />
  <defs
     id="defs4">
    <marker
       inkscape:stockid="Arrow1Lend"
       orient="auto"
       refY="0"
       refX="0"
       id="Arrow1Lend"
       style="overflow:visible"
       inkscape:isstock="true">
      <path
         inkscape:connector-curvature="0"
         id="path4554"
         d="M 0,0 5,-5 -12.5,0 5,5 0,0 Z"
         style="fill:#000000;fill-opacity:1;fill-rule:evenodd;stroke:#000000;stroke-width:1pt;stroke-opacity:1"
         transform="matrix(-0.8,0,0,-0.8,-10,0)" />
    </marker>
    <marker
       inkscape:stockid="Arrow2Lend"
       orient="auto"
       refY="0"
       refX="0"
       id="Arrow2Lend"
       style="overflow:visible"
       inkscape:isstock="true">
      <path
         id="path4572"
         style="fill:#001687;fill-opacity:1;fill-rule:evenodd;stroke:#001687;stroke-width:0.625;stroke-linejoin:round;stroke-opacity:1"
         d="M 8.7185878,4.0337352 -2.2072895,0.01601326 8.7185884,-4.0017078 c -1.7454984,2.3720609 -1.7354408,5.6174519 -6e-7,8.035443 z"
         transform="matrix(-1.1,0,0,-1.1,-1.1,0)"
         inkscape:connector-curvature="0" />
    </marker>
    <marker
       inkscape:stockid="Arrow2Lend"
       orient="auto"
       refY="0"
       refX="0"
       id="Arrow2Lend-4"
       style="overflow:visible"
       inkscape:isstock="true">
      <path
         inkscape:connector-curvature="0"
         id="path4572-4"
         style="fill:#001687;fill-opacity:1;fill-rule:evenodd;stroke:#001687;stroke-width:0.625;stroke-linejoin:round;stroke-opacity:1"
         d="M 8.7185878,4.0337352 -2.2072895,0.01601326 8.7185884,-4.0017078 c -1.7454984,2.3720609 -1.7354408,5.6174519 -6e-7,8.035443 z"
         transform="matrix(-1.1,0,0,-1.1,-1.1,0)" />
    </marker>
    <marker
       inkscape:stockid="Arrow2Lend"
       orient="auto"
       refY="0"
       refX="0"
       id="Arrow2Lend-7"
       style="overflow:visible"
       inkscape:isstock="true">
      <path
         inkscape:connector-curvature="0"
         id="path4572-1"
         style="fill:#001687;fill-opacity:1;fill-rule:evenodd;stroke:#001687;stroke-width:0.625;stroke-linejoin:round;stroke-opacity:1"
         d="M 8.7185878,4.0337352 -2.2072895,0.01601326 8.7185884,-4.0017078 c -1.7454984,2.3720609 -1.7354408,5.6174519 -6e-7,8.035443 z"
         transform="matrix(-1.1,0,0,-1.1,-1.1,0)" />
    </marker>
    <marker
       inkscape:stockid="Arrow2Lend"
       orient="auto"
       refY="0"
       refX="0"
       id="Arrow2Lend-5"
       style="overflow:visible"
       inkscape:isstock="true">
      <path
         inkscape:connector-curvature="0"
         id="path4572-47"
         style="fill:#001687;fill-opacity:1;fill-rule:evenodd;stroke:#001687;stroke-width:0.625;stroke-linejoin:round;stroke-opacity:1"
         d="M 8.7185878,4.0337352 -2.2072895,0.01601326 8.7185884,-4.0017078 c -1.7454984,2.3720609 -1.7354408,5.6174519 -6e-7,8.035443 z"
         transform="matrix(-1.1,0,0,-1.1,-1.1,0)" />
    </marker>
    <marker
       inkscape:stockid="Arrow2Lend"
       orient="auto"
       refY="0"
       refX="0"
       id="Arrow2Lend-3"
       style="overflow:visible"
       inkscape:isstock="true">
      <path
         inkscape:connector-curvature="0"
         id="path4572-5"
         style="fill:#001687;fill-opacity:1;fill-rule:evenodd;stroke:#001687;stroke-width:0.625;stroke-linejoin:round;stroke-opacity:1"
         d="M 8.7185878,4.0337352 -2.2072895,0.01601326 8.7185884,-4.0017078 c -1.7454984,2.3720609 -1.7354408,5.6174519 -6e-7,8.035443 z"
         transform="matrix(-1.1,0,0,-1.1,-1.1,0)" />
    </marker>
    <marker
       inkscape:stockid="Arrow2Lend"
       orient="auto"
       refY="0"
       refX="0"
       id="Arrow2Lend-3-4"
       style="overflow:visible"
       inkscape:isstock="true">
      <path
         inkscape:connector-curvature="0"
         id="path4572-5-5"
         style="fill:#001687;fill-opacity:1;fill-rule:evenodd;stroke:#001687;stroke-width:0.625;stroke-linejoin:round;stroke-opacity:1"
         d="M 8.7185878,4.0337352 -2.2072895,0.01601326 8.7185884,-4.0017078 c -1.7454984,2.3720609 -1.7354408,5.6174519 -6e-7,8.035443 z"
         transform="matrix(-1.1,0,0,-1.1,-1.1,0)" />
    </marker>
    <marker
       inkscape:stockid="Arrow2Lend"
       orient="auto"
       refY="0"
       refX="0"
       id="Arrow2Lend-5-2"
       style="overflow:visible"
       inkscape:isstock="true">
      <path
         inkscape:connector-curvature="0"
         id="path4572-47-9"
         style="fill:#001687;fill-opacity:1;fill-rule:evenodd;stroke:#001687;stroke-width:0.625;stroke-linejoin:round;stroke-opacity:1"
         d="M 8.7185878,4.0337352 -2.2072895,0.01601326 8.7185884,-4.0017078 c -1.7454984,2.3720609 -1.7354408,5.6174519 -6e-7,8.035443 z"
         transform="matrix(-1.1,0,0,-1.1,-1.1,0)" />
    </marker>
    <marker
       inkscape:stockid="Arrow2Lend"
       orient="auto"
       refY="0"
       refX="0"
       id="Arrow2Lend-7-7"
       style="overflow:visible"
       inkscape:isstock="true">
      <path
         inkscape:connector-curvature="0"
         id="path4572-1-5"
         style="fill:#001687;fill-opacity:1;fill-rule:evenodd;stroke:#001687;stroke-width:0.625;stroke-linejoin:round;stroke-opacity:1"
         d="M 8.7185878,4.0337352 -2.2072895,0.01601326 8.7185884,-4.0017078 c -1.7454984,2.3720609 -1.7354408,5.6174519 -6e-7,8.035443 z"
         transform="matrix(-1.1,0,0,-1.1,-1.1,0)" />
    </marker>
    <marker
       inkscape:stockid="Arrow2Lend"
       orient="auto"
       refY="0"
       refX="0"
       id="Arrow2Lend-4-2"
       style="overflow:visible"
       inkscape:isstock="true">
      <path
         inkscape:connector-curvature="0"
         id="path4572-4-2"
         style="fill:#001687;fill-opacity:1;fill-rule:evenodd;stroke:#001687;stroke-width:0.625;stroke-linejoin:round;stroke-opacity:1"
         d="M 8.7185878,4.0337352 -2.2072895,0.01601326 8.7185884,-4.0017078 c -1.7454984,2.3720609 -1.7354408,5.6174519 -6e-7,8.035443 z"
         transform="matrix(-1.1,0,0,-1.1,-1.1,0)" />
    </marker>
    <marker
       inkscape:stockid="Arrow2Lend"
       orient="auto"
       refY="0"
       refX="0"
       id="Arrow2Lend-49"
       style="overflow:visible"
       inkscape:isstock="true">
      <path
         inkscape:connector-curvature="0"
         id="path4572-0"
         style="fill:#001687;fill-opacity:1;fill-rule:evenodd;stroke:#001687;stroke-width:0.625;stroke-linejoin:round;stroke-opacity:1"
         d="M 8.7185878,4.0337352 -2.2072895,0.01601326 8.7185884,-4.0017078 c -1.7454984,2.3720609 -1.7354408,5.6174519 -6e-7,8.035443 z"
         transform="matrix(-1.1,0,0,-1.1,-1.1,0)" />
    </marker>
  </defs>
  <metadata
     id="metadata7">
    <rdf:RDF>
      <cc:Work
         rdf:about="">
        <dc:format>image/svg+xml</dc:format>
        <dc:type
           rdf:resource="http://purl.org/dc/dcmitype/StillImage" />
        <dc:title />
      </cc:Work>
    </rdf:RDF>
  </metadata>
  <g
     inkscape:label="Layer 1"
     inkscape:groupmode="layer"
     id="layer1"
     transform="translate(564.62675,-186.9124)">
    <path
       style="fill:#e2e2e2;fill-opacity:1;fill-rule:evenodd;stroke:#001687;stroke-width:2;stroke-linecap:butt;stroke-linejoin:miter;stroke-opacity:1;stroke-miterlimit:4;stroke-dasharray:none"
       d="M 366.27652,451.67924 C 311.8687,466.50605 247.25987,410.47942 197.7051,437.39353 c -40.81178,22.16563 -83.73737,80.05428 -65.71429,122.85714 23.86091,56.66706 99.18631,48.72433 177.14286,51.42857 77.95655,2.70424 216.99246,12.91207 277.14285,-60 55.16538,-66.86943 82.28055,-219.35093 5.71429,-260 -81.45601,-43.24504 -136.73533,135.75212 -225.71429,160 z"
       id="path4136"
       inkscape:connector-curvature="0"
       sodipodi:nodetypes="ssscsss" />
    <path
       style="fill:#e2e2e2;fill-opacity:1;fill-rule:evenodd;stroke:#001687;stroke-width:2;stroke-linecap:butt;stroke-linejoin:miter;stroke-opacity:1;stroke-miterlimit:4;stroke-dasharray:none"
       d="m -354.57524,391.8737 c -43.5163,35.07464 -124.80126,3.91702 -161.12999,46.39198 -41.9148,49.00611 -71.6239,148.41859 -24.05428,191.95686 54.45976,49.84451 149.38639,-16.01528 216.46943,-46.84069 47.63581,-21.88919 105.72263,-46.36685 125.35727,-94.97537 37.94453,-93.93741 39.03864,-288.29736 -46.81291,-300.30779 -91.33429,-12.77745 -49.75214,155.35193 -109.82952,203.77501 z"
       id="path4136-9"
       inkscape:connector-curvature="0"
       sodipodi:nodetypes="sssssss" />
    <path
       style="fill:none;fill-rule:evenodd;stroke:#976000;stroke-width:2.1;stroke-linecap:butt;stroke-linejoin:miter;stroke-miterlimit:4;stroke-dasharray:none;stroke-opacity:1"
       d="m -375.96355,609.80414 c 0,0 26.50248,-13.79305 39.92846,-20.33901 12.19805,-5.94727 36.90048,-17.19934 36.90048,-17.19934"
       id="path5829"
       inkscape:connector-curvature="0"
       sodipodi:nodetypes="csc" />
    <path
       style="fill:none;fill-rule:evenodd;stroke:#001687;stroke-width:1px;stroke-linecap:butt;stroke-linejoin:miter;stroke-opacity:1;marker-end:url(#Arrow2Lend-49)"
       d="m 635.12138,353.87113 30.17282,-4.59356"
       id="path4543-9"
       inkscape:connector-curvature="0"
       sodipodi:nodetypes="cc" />
    <path
       style="fill:none;fill-rule:evenodd;stroke:#001687;stroke-width:1px;stroke-linecap:butt;stroke-linejoin:miter;stroke-opacity:1;marker-end:url(#Arrow2Lend-4-2)"
       d="m 638.03629,370.99474 30.33113,-1.88384"
       id="path4543-1-3"
       inkscape:connector-curvature="0"
       sodipodi:nodetypes="cc" />
    <path
       style="fill:none;fill-rule:evenodd;stroke:#001687;stroke-width:1px;stroke-linecap:butt;stroke-linejoin:miter;stroke-opacity:1;marker-end:url(#Arrow2Lend-7-7)"
       d="m 639.18172,386.85308 30.00741,-0.39342"
       id="path4543-2-1"
       inkscape:connector-curvature="0"
       sodipodi:nodetypes="cc" />
    <path
       style="fill:none;fill-rule:evenodd;stroke:#001687;stroke-width:1px;stroke-linecap:butt;stroke-linejoin:miter;stroke-opacity:1;marker-end:url(#Arrow2Lend-5-2)"
       d="m 639.08563,402.75628 29.72504,0.69767"
       id="path4543-5-5"
       inkscape:connector-curvature="0"
       sodipodi:nodetypes="cc" />
    <path
       style="fill:none;fill-rule:evenodd;stroke:#001687;stroke-width:1px;stroke-linecap:butt;stroke-linejoin:miter;stroke-opacity:1;marker-end:url(#Arrow2Lend-3-4)"
       d="m 638.03286,417.36178 30.24843,3.08366"
       id="path4543-8-0"
       inkscape:connector-curvature="0"
       sodipodi:nodetypes="cc" />
  </g>
  <g
     style="font-style:normal;font-variant:normal;font-weight:normal;font-stretch:normal;letter-spacing:normal;word-spacing:normal;text-anchor:start;fill:none;fill-opacity:1;fill-rule:evenodd;stroke:#000000;stroke-linecap:butt;stroke-linejoin:miter;stroke-miterlimit:10.43299961;stroke-dasharray:none;stroke-dashoffset:0;stroke-opacity:1"
     id="content"
     transform="matrix(5,0,0,-5,-132.02258,3879.6302)"
     xml:space="preserve"
     stroke-miterlimit="10.433"
     font-style="normal"
     font-variant="normal"
     font-weight="normal"
     font-stretch="normal"
     font-size-adjust="none"
     letter-spacing="normal"
     word-spacing="normal"
     ns0:text="$\\Omega$"
     ns0:preamble=""><path
       style="fill:#000000;stroke-width:0"
       inkscape:connector-curvature="0"
       d="m 230.18,708.73 -0.25,0 c -0.05,-0.25 -0.09,-0.48 -0.18,-0.72 -0.05,-0.16 -0.08,-0.24 -0.65,-0.24 l -0.8,0 c 0.13,0.56 0.44,1.03 0.89,1.69 0.46,0.7 0.87,1.39 0.87,2.18 0,1.38 -1.34,2.49 -3.03,2.49 -1.71,0 -3.04,-1.13 -3.04,-2.49 0,-0.79 0.41,-1.48 0.88,-2.18 0.44,-0.66 0.76,-1.13 0.89,-1.69 l -0.8,0 c -0.58,0 -0.61,0.08 -0.66,0.23 -0.08,0.23 -0.13,0.49 -0.18,0.73 l -0.25,0 0.33,-1.61 1.59,0 c 0.22,0 0.25,0 0.25,0.21 0,0.7 -0.3,1.57 -0.53,2.21 -0.21,0.57 -0.49,1.36 -0.49,2.11 0,1.58 1.1,2.26 2,2.26 0.96,0 2.02,-0.71 2.02,-2.26 0,-0.75 -0.27,-1.5 -0.56,-2.32 -0.15,-0.42 -0.47,-1.31 -0.47,-2 0,-0.21 0.03,-0.21 0.26,-0.21 l 1.58,0 z"
       id="path4211" /></g>  <g
     style="font-style:normal;font-variant:normal;font-weight:normal;font-stretch:normal;letter-spacing:normal;word-spacing:normal;text-anchor:start;fill:none;fill-opacity:1;fill-rule:evenodd;stroke:#000000;stroke-linecap:butt;stroke-linejoin:miter;stroke-miterlimit:10.43299961;stroke-dasharray:none;stroke-dashoffset:0;stroke-opacity:1"
     ns0:preamble=""
     ns0:text="$\\Omega_0$"
     word-spacing="normal"
     letter-spacing="normal"
     font-size-adjust="none"
     font-stretch="normal"
     font-weight="normal"
     font-variant="normal"
     font-style="normal"
     stroke-miterlimit="10.433"
     xml:space="preserve"
     transform="matrix(5,0,0,-5,-923.35635,3837.9868)"
     id="g4247"><path
       id="path4249"
       d="m 230.18,708.73 -0.25,0 c -0.05,-0.25 -0.09,-0.48 -0.18,-0.72 -0.05,-0.16 -0.08,-0.24 -0.65,-0.24 l -0.8,0 c 0.13,0.56 0.44,1.03 0.89,1.69 0.46,0.7 0.87,1.39 0.87,2.18 0,1.38 -1.34,2.49 -3.03,2.49 -1.71,0 -3.04,-1.13 -3.04,-2.49 0,-0.79 0.41,-1.48 0.88,-2.18 0.44,-0.66 0.76,-1.13 0.89,-1.69 l -0.8,0 c -0.58,0 -0.61,0.08 -0.66,0.23 -0.08,0.23 -0.13,0.49 -0.18,0.73 l -0.25,0 0.33,-1.61 1.59,0 c 0.22,0 0.25,0 0.25,0.21 0,0.7 -0.3,1.57 -0.53,2.21 -0.21,0.57 -0.49,1.36 -0.49,2.11 0,1.58 1.1,2.26 2,2.26 0.96,0 2.02,-0.71 2.02,-2.26 0,-0.75 -0.27,-1.5 -0.56,-2.32 -0.15,-0.42 -0.47,-1.31 -0.47,-2 0,-0.21 0.03,-0.21 0.26,-0.21 l 1.58,0 z"
       inkscape:connector-curvature="0"
       style="fill:#000000;stroke-width:0" /><path
       id="path4251"
       d="m 234.24,707.85 -0.01,0.14 0,0.14 -0.01,0.13 0,0.12 -0.02,0.13 -0.01,0.12 -0.02,0.11 -0.02,0.11 -0.03,0.11 -0.03,0.11 -0.03,0.1 -0.04,0.1 -0.04,0.1 -0.05,0.09 -0.05,0.1 -0.03,0.04 -0.03,0.05 c -0.21,0.32 -0.65,0.6 -1.21,0.6 l 0,-0.2 c 0.38,0 0.74,-0.23 0.87,-0.63 0.11,-0.38 0.12,-0.88 0.12,-1.48 0,-0.52 0,-1.03 -0.09,-1.47 -0.14,-0.63 -0.62,-0.78 -0.9,-0.78 l 0,0 c -0.32,0 -0.74,0.18 -0.88,0.76 -0.1,0.4 -0.1,0.97 -0.1,1.49 0,0.51 0,1.04 0.1,1.42 0.15,0.55 0.6,0.69 0.88,0.69 l 0,0.2 c -1.62,0 -1.62,-1.9 -1.62,-2.4 0,-0.5 0,-2.36 1.62,-2.36 1.63,0 1.63,1.86 1.63,2.36 z"
       inkscape:connector-curvature="0"
       style="fill:#000000;stroke-width:0" /></g>  <g
     id="g4296"
     transform="matrix(5,0,0,-5,-926.18135,4003.0236)"
     xml:space="preserve"
     stroke-miterlimit="10.433"
     font-style="normal"
     font-variant="normal"
     font-weight="normal"
     font-stretch="normal"
     font-size-adjust="none"
     letter-spacing="normal"
     word-spacing="normal"
     ns0:text="$(\\Gamma_0)_{p}$"
     ns0:preamble=""
     style="font-style:normal;font-variant:normal;font-weight:normal;font-stretch:normal;letter-spacing:normal;word-spacing:normal;text-anchor:start;fill:#976000;fill-opacity:1;fill-rule:evenodd;stroke:#000000;stroke-linecap:butt;stroke-linejoin:miter;stroke-miterlimit:10.43299961;stroke-dasharray:none;stroke-dashoffset:0;stroke-opacity:1"><path
       d="m 226.73,704.74 0,0.01 0,0 0,0 0,0.01 0,0 0,0 0,0.01 0,0 0,0 -0.01,0.01 0,0 0,0.01 0,0 -0.01,0.01 0,0 -0.01,0.01 0,0.01 -0.01,0 0,0.01 -0.01,0 0,0.01 0,0 -0.01,0 0,0.01 0,0 -0.01,0.01 0,0 -0.01,0.01 0,0 -0.01,0.01 0,0 -0.01,0.01 0,0.01 -0.01,0 -0.01,0.01 0,0.01 -0.01,0 -0.01,0.01 0,0.01 -0.01,0 -0.01,0.01 -0.01,0.01 c -1.24,1.25 -1.56,3.13 -1.56,4.65 0,1.73 0.38,3.46 1.6,4.7 0.13,0.12 0.13,0.14 0.13,0.17 0,0.07 -0.04,0.1 -0.1,0.1 -0.1,0 -0.99,-0.68 -1.58,-1.94 -0.51,-1.09 -0.63,-2.2 -0.63,-3.03 0,-0.78 0.11,-1.98 0.66,-3.1 0.6,-1.22 1.45,-1.87 1.55,-1.87 0.06,0 0.1,0.03 0.1,0.1 z"
       id="path4298"
       inkscape:connector-curvature="0"
       style="fill:#976000;fill-opacity:1;stroke-width:0" /><path
       d="m 232.83,713.88 -5.19,0 0,-0.31 0.24,0 c 0.76,0 0.78,-0.11 0.78,-0.47 l 0,-5.2 c 0,-0.36 -0.02,-0.47 -0.78,-0.47 l -0.24,0 0,-0.31 c 0.35,0.04 1.12,0.04 1.51,0.04 0.41,0 1.32,0 1.68,-0.04 l 0,0.31 -0.33,0 c -0.95,0 -0.95,0.13 -0.95,0.48 l 0,5.26 c 0,0.33 0.02,0.4 0.49,0.4 l 1.03,0 c 1.42,0 1.63,-0.58 1.79,-1.92 l 0.25,0 z"
       id="path4300"
       inkscape:connector-curvature="0"
       style="fill:#976000;fill-opacity:1;stroke-width:0" /><path
       d="m 237.14,707.85 0,0.14 0,0.14 -0.01,0.13 -0.01,0.12 -0.01,0.13 -0.01,0.12 -0.02,0.11 -0.02,0.11 -0.03,0.11 -0.03,0.11 -0.03,0.1 -0.04,0.1 -0.04,0.1 -0.05,0.09 -0.05,0.1 -0.03,0.04 -0.03,0.05 c -0.22,0.32 -0.65,0.6 -1.21,0.6 l 0,-0.2 c 0.38,0 0.74,-0.23 0.87,-0.63 0.11,-0.38 0.12,-0.88 0.12,-1.48 0,-0.52 0,-1.03 -0.1,-1.47 -0.14,-0.63 -0.61,-0.78 -0.89,-0.78 l 0,0 c -0.32,0 -0.75,0.18 -0.89,0.76 -0.1,0.4 -0.1,0.97 -0.1,1.49 0,0.51 0,1.04 0.11,1.42 0.15,0.55 0.59,0.69 0.88,0.69 l 0,0.2 c -1.62,0 -1.62,-1.9 -1.62,-2.4 0,-0.5 0,-2.36 1.62,-2.36 1.62,0 1.62,1.86 1.62,2.36 z"
       id="path4302"
       inkscape:connector-curvature="0"
       style="fill:#976000;fill-opacity:1;stroke-width:0" /><path
       d="m 240.88,709.61 0,0.07 0,0.08 0,0.08 0,0.08 -0.01,0.17 -0.01,0.17 -0.02,0.18 -0.02,0.19 -0.03,0.2 -0.03,0.2 -0.04,0.2 -0.04,0.21 -0.06,0.21 -0.06,0.21 -0.07,0.21 -0.08,0.21 -0.04,0.11 -0.05,0.11 -0.04,0.1 -0.05,0.11 c -0.6,1.22 -1.46,1.87 -1.56,1.87 -0.06,0 -0.1,-0.04 -0.1,-0.1 0,-0.03 0,-0.05 0.19,-0.23 0.98,-0.99 1.55,-2.57 1.55,-4.64 0,-1.7 -0.37,-3.45 -1.61,-4.7 -0.13,-0.12 -0.13,-0.14 -0.13,-0.17 0,-0.06 0.04,-0.1 0.1,-0.1 0.1,0 1,0.68 1.59,1.94 0.5,1.09 0.62,2.19 0.62,3.03 z"
       id="path4304"
       inkscape:connector-curvature="0"
       style="fill:#976000;fill-opacity:1;stroke-width:0" /><path
       d="m 242.4,704.78 0,-0.01 -0.01,-0.02 0,-0.02 -0.01,-0.01 0,-0.02 0,-0.01 -0.01,-0.02 0,-0.01 -0.01,-0.01 0,-0.01 -0.01,-0.01 -0.01,-0.01 0,-0.01 -0.01,-0.01 -0.01,-0.01 0,-0.01 -0.01,0 -0.01,-0.01 -0.01,0 -0.01,-0.01 -0.02,0 -0.01,-0.01 -0.01,0 -0.02,-0.01 -0.01,0 -0.01,0 -0.01,0 -0.01,0 -0.01,0 -0.01,0 -0.01,-0.01 -0.01,0 -0.01,0 -0.01,0 -0.01,0 -0.01,0 -0.02,0 -0.01,0 -0.01,0 c -0.09,0 -0.19,0 -0.19,-0.14 0,-0.08 0.06,-0.11 0.1,-0.11 0.18,0 0.41,0.03 0.6,0.03 0.24,0 0.5,-0.03 0.73,-0.03 0.07,0 0.14,0.02 0.14,0.15 0,0.1 -0.09,0.1 -0.18,0.1 -0.15,0 -0.34,0 -0.34,0.09 0,0.03 0.05,0.21 0.08,0.32 0.08,0.36 0.18,0.74 0.25,1.03 0.09,-0.14 0.3,-0.41 0.73,-0.41 l 0,0.2 c -0.5,0 -0.63,0.53 -0.63,0.6 0,0.03 0.02,0.08 0.02,0.11 l 0.35,1.39 c 0.41,0.54 0.76,0.64 0.98,0.64 0.27,0 0.51,-0.2 0.51,-0.67 0,-0.29 -0.15,-1 -0.36,-1.4 -0.18,-0.34 -0.52,-0.67 -0.87,-0.67 l 0,-0.2 c 0.85,0 1.79,0.94 1.79,1.98 0,0.81 -0.56,1.16 -1.05,1.16 -0.43,0 -0.8,-0.29 -0.99,-0.49 -0.12,0.4 -0.51,0.49 -0.72,0.49 -0.27,0 -0.44,-0.18 -0.55,-0.37 -0.14,-0.24 -0.25,-0.66 -0.25,-0.7 0,-0.09 0.09,-0.09 0.11,-0.09 0.1,0 0.11,0.02 0.16,0.21 0.1,0.41 0.24,0.75 0.51,0.75 0.18,0 0.23,-0.15 0.23,-0.34 0,-0.07 -0.01,-0.17 -0.02,-0.21 z"
       id="path4306"
       inkscape:connector-curvature="0"
       style="fill:#976000;fill-opacity:1;stroke-width:0" /></g>  <g
     style="font-style:normal;font-variant:normal;font-weight:normal;font-stretch:normal;letter-spacing:normal;word-spacing:normal;text-anchor:start;fill:#001687;fill-opacity:1;fill-rule:evenodd;stroke:#000000;stroke-linecap:butt;stroke-linejoin:miter;stroke-miterlimit:10.43299961;stroke-dasharray:none;stroke-dashoffset:0;stroke-opacity:1"
     ns0:preamble=""
     ns0:text="$(\\Gamma_0)_{u}$"
     word-spacing="normal"
     letter-spacing="normal"
     font-size-adjust="none"
     font-stretch="normal"
     font-weight="normal"
     font-variant="normal"
     font-style="normal"
     stroke-miterlimit="10.433"
     xml:space="preserve"
     transform="matrix(5,0,0,-5,-710.98075,3752.6618)"
     id="g4372"><path
       id="path4374"
       d="m 226.73,704.74 0,0.01 0,0 0,0 0,0.01 0,0 0,0 0,0.01 0,0 0,0 -0.01,0.01 0,0 0,0.01 0,0 -0.01,0.01 0,0 -0.01,0.01 0,0.01 -0.01,0 0,0.01 -0.01,0 0,0.01 0,0 -0.01,0 0,0.01 0,0 -0.01,0.01 0,0 -0.01,0.01 0,0 -0.01,0.01 0,0 -0.01,0.01 0,0.01 -0.01,0 -0.01,0.01 0,0.01 -0.01,0 -0.01,0.01 0,0.01 -0.01,0 -0.01,0.01 -0.01,0.01 c -1.24,1.25 -1.56,3.13 -1.56,4.65 0,1.73 0.38,3.46 1.6,4.7 0.13,0.12 0.13,0.14 0.13,0.17 0,0.07 -0.04,0.1 -0.1,0.1 -0.1,0 -0.99,-0.68 -1.58,-1.94 -0.51,-1.09 -0.63,-2.2 -0.63,-3.03 0,-0.78 0.11,-1.98 0.66,-3.1 0.6,-1.22 1.45,-1.87 1.55,-1.87 0.06,0 0.1,0.03 0.1,0.1 z"
       inkscape:connector-curvature="0"
       style="fill:#001687;fill-opacity:1;stroke-width:0" /><path
       id="path4376"
       d="m 232.83,713.88 -5.19,0 0,-0.31 0.24,0 c 0.76,0 0.78,-0.11 0.78,-0.47 l 0,-5.2 c 0,-0.36 -0.02,-0.47 -0.78,-0.47 l -0.24,0 0,-0.31 c 0.35,0.04 1.12,0.04 1.51,0.04 0.41,0 1.32,0 1.68,-0.04 l 0,0.31 -0.33,0 c -0.95,0 -0.95,0.13 -0.95,0.48 l 0,5.26 c 0,0.33 0.02,0.4 0.49,0.4 l 1.03,0 c 1.42,0 1.63,-0.58 1.79,-1.92 l 0.25,0 z"
       inkscape:connector-curvature="0"
       style="fill:#001687;fill-opacity:1;stroke-width:0" /><path
       id="path4378"
       d="m 237.14,707.85 0,0.14 0,0.14 -0.01,0.13 -0.01,0.12 -0.01,0.13 -0.01,0.12 -0.02,0.11 -0.02,0.11 -0.03,0.11 -0.03,0.11 -0.03,0.1 -0.04,0.1 -0.04,0.1 -0.05,0.09 -0.05,0.1 -0.03,0.04 -0.03,0.05 c -0.22,0.32 -0.65,0.6 -1.21,0.6 l 0,-0.2 c 0.38,0 0.74,-0.23 0.87,-0.63 0.11,-0.38 0.12,-0.88 0.12,-1.48 0,-0.52 0,-1.03 -0.1,-1.47 -0.14,-0.63 -0.61,-0.78 -0.89,-0.78 l 0,0 c -0.32,0 -0.75,0.18 -0.89,0.76 -0.1,0.4 -0.1,0.97 -0.1,1.49 0,0.51 0,1.04 0.11,1.42 0.15,0.55 0.59,0.69 0.88,0.69 l 0,0.2 c -1.62,0 -1.62,-1.9 -1.62,-2.4 0,-0.5 0,-2.36 1.62,-2.36 1.62,0 1.62,1.86 1.62,2.36 z"
       inkscape:connector-curvature="0"
       style="fill:#001687;fill-opacity:1;stroke-width:0" /><path
       id="path4380"
       d="m 240.88,709.61 0,0.07 0,0.08 0,0.08 0,0.08 -0.01,0.17 -0.01,0.17 -0.02,0.18 -0.02,0.19 -0.03,0.2 -0.03,0.2 -0.04,0.2 -0.04,0.21 -0.06,0.21 -0.06,0.21 -0.07,0.21 -0.08,0.21 -0.04,0.11 -0.05,0.11 -0.04,0.1 -0.05,0.11 c -0.6,1.22 -1.46,1.87 -1.56,1.87 -0.06,0 -0.1,-0.04 -0.1,-0.1 0,-0.03 0,-0.05 0.19,-0.23 0.98,-0.99 1.55,-2.57 1.55,-4.64 0,-1.7 -0.37,-3.45 -1.61,-4.7 -0.13,-0.12 -0.13,-0.14 -0.13,-0.17 0,-0.06 0.04,-0.1 0.1,-0.1 0.1,0 1,0.68 1.59,1.94 0.5,1.09 0.62,2.19 0.62,3.03 z"
       inkscape:connector-curvature="0"
       style="fill:#001687;fill-opacity:1;stroke-width:0" /><path
       id="path4382"
       d="m 244.84,706.76 -0.01,-0.02 0,-0.01 -0.01,-0.01 0,-0.02 0,-0.02 -0.01,-0.01 -0.01,-0.03 0,-0.04 -0.01,-0.03 -0.01,-0.04 0,-0.01 -0.01,-0.02 0,-0.01 -0.01,-0.02 0,-0.01 0,-0.02 -0.01,-0.01 0,-0.01 -0.01,-0.01 0,-0.02 0,-0.01 0,0 -0.01,-0.01 0,-0.01 0,0 0,0 0,-0.01 0,0 0,0 -0.01,0 0,0 0,0 c -0.13,-0.22 -0.41,-0.59 -0.84,-0.59 -0.49,0 -0.49,0.45 -0.49,0.57 0,0.41 0.2,0.91 0.4,1.41 0.05,0.14 0.09,0.25 0.09,0.36 0,0.36 -0.3,0.6 -0.66,0.6 -0.7,0 -1.01,-0.96 -1.01,-1.07 0,-0.09 0.09,-0.09 0.11,-0.09 0.1,0 0.11,0.04 0.13,0.11 0.17,0.57 0.48,0.85 0.75,0.85 0.12,0 0.17,-0.07 0.17,-0.24 0,-0.16 -0.05,-0.31 -0.12,-0.47 -0.38,-0.96 -0.38,-1.16 -0.38,-1.34 0,-0.12 0,-0.44 0.26,-0.67 0.2,-0.16 0.47,-0.22 0.72,-0.22 0.44,0 0.68,0.24 0.91,0.46 0.15,-0.44 0.62,-0.46 0.7,-0.46 0.24,0 0.42,0.14 0.56,0.37 0.15,0.27 0.25,0.67 0.25,0.69 0,0.1 -0.1,0.1 -0.12,0.1 -0.1,0 -0.11,-0.03 -0.16,-0.22 -0.08,-0.33 -0.21,-0.74 -0.5,-0.74 -0.19,0 -0.24,0.16 -0.24,0.34 0,0.12 0.06,0.37 0.11,0.55 0.05,0.18 0.12,0.47 0.15,0.62 l 0.16,0.62 c 0.05,0.18 0.12,0.48 0.12,0.52 0,0.13 -0.11,0.22 -0.23,0.22 -0.26,0 -0.31,-0.2 -0.36,-0.43 z"
       inkscape:connector-curvature="0"
       style="fill:#001687;fill-opacity:1;stroke-width:0" /></g>  <g
     id="g4430"
     transform="matrix(5,0,0,-5,-296.39854,4016.1844)"
     xml:space="preserve"
     stroke-miterlimit="10.433"
     font-style="normal"
     font-variant="normal"
     font-weight="normal"
     font-stretch="normal"
     font-size-adjust="none"
     letter-spacing="normal"
     word-spacing="normal"
     ns0:text="$\\Gamma_{p}$"
     ns0:preamble=""
     style="font-style:normal;font-variant:normal;font-weight:normal;font-stretch:normal;letter-spacing:normal;word-spacing:normal;text-anchor:start;fill:#976000;fill-opacity:1;fill-rule:evenodd;stroke:#000000;stroke-linecap:butt;stroke-linejoin:miter;stroke-miterlimit:10.43299961;stroke-dasharray:none;stroke-dashoffset:0;stroke-opacity:1"><path
       d="m 228.96,713.88 -5.2,0 0,-0.31 0.24,0 c 0.77,0 0.79,-0.11 0.79,-0.47 l 0,-5.2 c 0,-0.36 -0.02,-0.47 -0.79,-0.47 l -0.24,0 0,-0.31 c 0.35,0.04 1.13,0.04 1.52,0.04 0.41,0 1.31,0 1.67,-0.04 l 0,0.31 -0.33,0 c -0.94,0 -0.94,0.13 -0.94,0.48 l 0,5.26 c 0,0.33 0.02,0.4 0.48,0.4 l 1.03,0 c 1.43,0 1.64,-0.58 1.8,-1.92 l 0.25,0 z"
       id="path4432"
       inkscape:connector-curvature="0"
       style="fill:#976000;fill-opacity:1;stroke-width:0" /><path
       d="m 230.18,704.78 0,-0.01 -0.01,-0.02 0,-0.02 0,-0.01 -0.01,-0.02 0,-0.01 -0.01,-0.02 0,-0.01 -0.01,-0.01 0,-0.01 -0.01,-0.01 0,-0.01 -0.01,-0.01 -0.01,-0.01 0,-0.01 -0.01,-0.01 -0.01,0 -0.01,-0.01 -0.01,0 -0.01,-0.01 -0.01,0 -0.02,-0.01 -0.01,0 -0.01,-0.01 -0.02,0 -0.01,0 -0.01,0 -0.01,0 -0.01,0 -0.01,0 -0.01,-0.01 -0.01,0 -0.01,0 -0.01,0 -0.01,0 -0.01,0 -0.01,0 -0.02,0 -0.01,0 c -0.09,0 -0.19,0 -0.19,-0.14 0,-0.08 0.06,-0.11 0.1,-0.11 0.18,0 0.41,0.03 0.6,0.03 0.24,0 0.5,-0.03 0.74,-0.03 0.06,0 0.14,0.02 0.14,0.15 0,0.1 -0.1,0.1 -0.19,0.1 -0.15,0 -0.34,0 -0.34,0.09 0,0.03 0.05,0.21 0.08,0.32 0.08,0.36 0.18,0.74 0.26,1.03 0.08,-0.14 0.3,-0.41 0.72,-0.41 l 0,0.2 c -0.5,0 -0.63,0.53 -0.63,0.6 0,0.03 0.02,0.08 0.02,0.11 l 0.36,1.39 c 0.4,0.54 0.75,0.64 0.97,0.64 0.28,0 0.51,-0.2 0.51,-0.67 0,-0.29 -0.15,-1 -0.36,-1.4 -0.17,-0.34 -0.52,-0.67 -0.87,-0.67 l 0,-0.2 c 0.85,0 1.79,0.94 1.79,1.98 0,0.81 -0.56,1.16 -1.04,1.16 -0.44,0 -0.81,-0.29 -1,-0.49 -0.12,0.4 -0.51,0.49 -0.72,0.49 -0.27,0 -0.44,-0.18 -0.55,-0.37 -0.14,-0.24 -0.25,-0.66 -0.25,-0.7 0,-0.09 0.1,-0.09 0.12,-0.09 0.09,0 0.1,0.02 0.15,0.21 0.11,0.41 0.24,0.75 0.51,0.75 0.18,0 0.23,-0.15 0.23,-0.34 0,-0.07 -0.01,-0.17 -0.02,-0.21 z"
       id="path4434"
       inkscape:connector-curvature="0"
       style="fill:#976000;fill-opacity:1;stroke-width:0" /></g>  <g
     style="font-style:normal;font-variant:normal;font-weight:normal;font-stretch:normal;letter-spacing:normal;word-spacing:normal;text-anchor:start;fill:#001687;fill-opacity:1;fill-rule:evenodd;stroke:#000000;stroke-linecap:butt;stroke-linejoin:miter;stroke-miterlimit:10.43299961;stroke-dasharray:none;stroke-dashoffset:0;stroke-opacity:1"
     ns0:preamble=""
     ns0:text="$\\Gamma_{u}$"
     word-spacing="normal"
     letter-spacing="normal"
     font-size-adjust="none"
     font-stretch="normal"
     font-weight="normal"
     font-variant="normal"
     font-style="normal"
     stroke-miterlimit="10.433"
     xml:space="preserve"
     transform="matrix(5,0,0,-5,91.609827,3833.843)"
     id="g4509"><path
       id="path4511"
       d="m 228.96,713.88 -5.2,0 0,-0.31 0.24,0 c 0.77,0 0.79,-0.11 0.79,-0.47 l 0,-5.2 c 0,-0.36 -0.02,-0.47 -0.79,-0.47 l -0.24,0 0,-0.31 c 0.35,0.04 1.13,0.04 1.52,0.04 0.41,0 1.31,0 1.67,-0.04 l 0,0.31 -0.33,0 c -0.94,0 -0.94,0.13 -0.94,0.48 l 0,5.26 c 0,0.33 0.02,0.4 0.48,0.4 l 1.03,0 c 1.43,0 1.64,-0.58 1.8,-1.92 l 0.25,0 z"
       inkscape:connector-curvature="0"
       style="fill:#001687;fill-opacity:1;stroke-width:0" /><path
       id="path4513"
       d="m 232.62,706.76 -0.01,-0.02 0,-0.01 0,-0.01 -0.01,-0.02 0,-0.02 -0.01,-0.01 0,-0.03 -0.01,-0.04 -0.01,-0.03 -0.01,-0.04 0,-0.01 -0.01,-0.02 0,-0.01 0,-0.02 -0.01,-0.01 0,-0.02 -0.01,-0.01 0,-0.01 0,-0.01 -0.01,-0.02 0,-0.01 0,0 -0.01,-0.01 0,-0.01 0,0 0,0 0,-0.01 0,0 0,0 0,0 0,0 0,0 c -0.14,-0.22 -0.42,-0.59 -0.85,-0.59 -0.48,0 -0.48,0.45 -0.48,0.57 0,0.41 0.19,0.91 0.39,1.41 0.05,0.14 0.1,0.25 0.1,0.36 0,0.36 -0.31,0.6 -0.67,0.6 -0.7,0 -1.01,-0.96 -1.01,-1.07 0,-0.09 0.1,-0.09 0.12,-0.09 0.09,0 0.1,0.04 0.12,0.11 0.17,0.57 0.48,0.85 0.75,0.85 0.12,0 0.17,-0.07 0.17,-0.24 0,-0.16 -0.05,-0.31 -0.12,-0.47 -0.38,-0.96 -0.38,-1.16 -0.38,-1.34 0,-0.12 0,-0.44 0.26,-0.67 0.2,-0.16 0.48,-0.22 0.72,-0.22 0.44,0 0.68,0.24 0.91,0.46 0.15,-0.44 0.62,-0.46 0.71,-0.46 0.23,0 0.41,0.14 0.55,0.37 0.15,0.27 0.25,0.67 0.25,0.69 0,0.1 -0.1,0.1 -0.12,0.1 -0.1,0 -0.1,-0.03 -0.15,-0.22 -0.09,-0.33 -0.22,-0.74 -0.51,-0.74 -0.18,0 -0.23,0.16 -0.23,0.34 0,0.12 0.05,0.37 0.1,0.55 0.05,0.18 0.12,0.47 0.15,0.62 l 0.17,0.62 c 0.04,0.18 0.11,0.48 0.11,0.52 0,0.13 -0.11,0.22 -0.23,0.22 -0.25,0 -0.3,-0.2 -0.36,-0.43 z"
       inkscape:connector-curvature="0"
       style="fill:#001687;fill-opacity:1;stroke-width:0" /></g>  <path
     style="fill:none;fill-rule:evenodd;stroke:#001687;stroke-width:1px;stroke-linecap:butt;stroke-linejoin:miter;stroke-opacity:1;marker-end:url(#Arrow2Lend)"
     d="m 380.67002,70.226102 30.17282,-8.40562"
     id="path4543"
     inkscape:connector-curvature="0" />
  <path
     style="fill:none;fill-rule:evenodd;stroke:#001687;stroke-width:1px;stroke-linecap:butt;stroke-linejoin:miter;stroke-opacity:1;marker-end:url(#Arrow2Lend-4)"
     d="m 384.794,87.009062 30.47232,-7.10777"
     id="path4543-1"
     inkscape:connector-curvature="0"
     sodipodi:nodetypes="cc" />
  <path
     style="fill:none;fill-rule:evenodd;stroke:#001687;stroke-width:1px;stroke-linecap:butt;stroke-linejoin:miter;stroke-opacity:1;marker-end:url(#Arrow2Lend-7)"
     d="m 387.603,102.92856 30.57216,-4.911418"
     id="path4543-2"
     inkscape:connector-curvature="0"
     sodipodi:nodetypes="cc" />
  <path
     style="fill:none;fill-rule:evenodd;stroke:#001687;stroke-width:1px;stroke-linecap:butt;stroke-linejoin:miter;stroke-opacity:1;marker-end:url(#Arrow2Lend-5)"
     d="m 389.54153,118.83334 30.57216,-3.11439"
     id="path4543-5"
     inkscape:connector-curvature="0"
     sodipodi:nodetypes="cc" />
  <path
     style="fill:none;fill-rule:evenodd;stroke:#001687;stroke-width:1px;stroke-linecap:butt;stroke-linejoin:miter;stroke-opacity:1;marker-end:url(#Arrow2Lend-3)"
     d="m 390.66193,133.32405 30.67199,-1.71671"
     id="path4543-8"
     inkscape:connector-curvature="0"
     sodipodi:nodetypes="cc" />
  <path
     style="fill:none;fill-rule:evenodd;stroke:#976000;stroke-width:2.1;stroke-linecap:butt;stroke-linejoin:miter;stroke-opacity:1;stroke-miterlimit:4;stroke-dasharray:none"
     d="m 188.6632,422.89174 -2.76574,12.01798"
     id="path5716"
     inkscape:connector-curvature="0" />
  <path
     style="fill:none;fill-rule:evenodd;stroke:#976000;stroke-width:2.1;stroke-linecap:butt;stroke-linejoin:miter;stroke-opacity:1;stroke-miterlimit:4;stroke-dasharray:none"
     d="m 194.38058,419.97116 -2.76574,12.01798"
     id="path5716-7"
     inkscape:connector-curvature="0" />
  <path
     style="fill:none;fill-rule:evenodd;stroke:#976000;stroke-width:2.1;stroke-linecap:butt;stroke-linejoin:miter;stroke-opacity:1;stroke-miterlimit:4;stroke-dasharray:none"
     d="m 200.12741,417.01893 -2.76574,12.01798"
     id="path5716-9"
     inkscape:connector-curvature="0" />
  <path
     style="fill:none;fill-rule:evenodd;stroke:#976000;stroke-width:2.1;stroke-linecap:butt;stroke-linejoin:miter;stroke-opacity:1;stroke-miterlimit:4;stroke-dasharray:none"
     d="m 205.81373,414.09218 -2.76574,12.01798"
     id="path5716-5"
     inkscape:connector-curvature="0" />
  <path
     style="fill:none;fill-rule:evenodd;stroke:#976000;stroke-width:2.1;stroke-linecap:butt;stroke-linejoin:miter;stroke-opacity:1;stroke-miterlimit:4;stroke-dasharray:none"
     d="m 210.96523,411.44531 -2.76574,12.01798"
     id="path5716-6"
     inkscape:connector-curvature="0" />
  <path
     style="fill:none;fill-rule:evenodd;stroke:#976000;stroke-width:2.1;stroke-linecap:butt;stroke-linejoin:miter;stroke-opacity:1;stroke-miterlimit:4;stroke-dasharray:none"
     d="m 216.22328,408.75784 -2.76574,12.01798"
     id="path5716-4"
     inkscape:connector-curvature="0" />
  <path
     style="fill:none;fill-rule:evenodd;stroke:#976000;stroke-width:2.1;stroke-linecap:butt;stroke-linejoin:miter;stroke-opacity:1;stroke-miterlimit:4;stroke-dasharray:none"
     d="m 220.96309,406.35591 -2.76574,12.01798"
     id="path5716-51"
     inkscape:connector-curvature="0" />
  <path
     style="fill:none;fill-rule:evenodd;stroke:#976000;stroke-width:2.1;stroke-linecap:butt;stroke-linejoin:miter;stroke-opacity:1;stroke-miterlimit:4;stroke-dasharray:none"
     d="m 225.75415,403.95654 -2.76574,12.01798"
     id="path5716-2"
     inkscape:connector-curvature="0" />
  <path
     style="fill:none;fill-rule:evenodd;stroke:#976000;stroke-width:2.1;stroke-linecap:butt;stroke-linejoin:miter;stroke-opacity:1;stroke-miterlimit:4;stroke-dasharray:none"
     d="m 230.58054,401.57778 -2.76574,12.01798"
     id="path5716-41"
     inkscape:connector-curvature="0" />
  <path
     style="fill:none;fill-rule:evenodd;stroke:#976000;stroke-width:2.1;stroke-linecap:butt;stroke-linejoin:miter;stroke-opacity:1;stroke-miterlimit:4;stroke-dasharray:none"
     d="m 235.83358,399.04463 -2.76574,12.01798"
     id="path5716-41-2"
     inkscape:connector-curvature="0" />
  <path
     style="fill:none;fill-rule:evenodd;stroke:#976000;stroke-width:2.1;stroke-linecap:butt;stroke-linejoin:miter;stroke-opacity:1;stroke-miterlimit:4;stroke-dasharray:none"
     d="m 241.33667,396.46945 -2.76574,12.01798"
     id="path5716-41-3"
     inkscape:connector-curvature="0" />
  <path
     style="fill:none;fill-rule:evenodd;stroke:#976000;stroke-width:2.1;stroke-linecap:butt;stroke-linejoin:miter;stroke-opacity:1;stroke-miterlimit:4;stroke-dasharray:none"
     d="m 246.70832,394.00807 -2.76574,12.01798"
     id="path5716-41-31"
     inkscape:connector-curvature="0" />
  <path
     style="fill:none;fill-rule:evenodd;stroke:#976000;stroke-width:2.1;stroke-linecap:butt;stroke-linejoin:miter;stroke-opacity:1;stroke-miterlimit:4;stroke-dasharray:none"
     d="m 252.75694,391.24139 -2.76574,12.01798"
     id="path5716-41-8"
     inkscape:connector-curvature="0" />
  <path
     style="fill:none;fill-rule:evenodd;stroke:#976000;stroke-width:2.1;stroke-linecap:butt;stroke-linejoin:miter;stroke-opacity:1;stroke-miterlimit:4;stroke-dasharray:none"
     d="m 259.13562,388.30959 -2.76574,12.01798"
     id="path5716-41-7"
     inkscape:connector-curvature="0" />
  <path
     style="fill:none;fill-rule:evenodd;stroke:#976000;stroke-width:2.1;stroke-linecap:butt;stroke-linejoin:miter;stroke-opacity:1;stroke-miterlimit:4;stroke-dasharray:none"
     d="m 265.49214,385.35339 -2.76574,12.01798"
     id="path5716-41-6"
     inkscape:connector-curvature="0" />
  <path
     style="fill:none;fill-rule:evenodd;stroke:#976000;stroke-width:2.1;stroke-linecap:butt;stroke-linejoin:miter;stroke-miterlimit:4;stroke-dasharray:none;stroke-opacity:1"
     d="m 814.91021,423.5112 c 0,0 29.79874,0.59921 44.73293,0.87626 13.56831,0.25172 40.68552,1.46666 40.68552,1.46666"
     id="path5829-3"
     inkscape:connector-curvature="0"
     sodipodi:nodetypes="csc" />
  <path
     style="fill:none;fill-rule:evenodd;stroke:#976000;stroke-width:2.1;stroke-linecap:butt;stroke-linejoin:miter;stroke-opacity:1;stroke-miterlimit:4;stroke-dasharray:none"
     d="m 815.07361,423.5161 -7.92938,9.44489"
     id="path5716-3"
     inkscape:connector-curvature="0" />
  <path
     style="fill:none;fill-rule:evenodd;stroke:#976000;stroke-width:2.1;stroke-linecap:butt;stroke-linejoin:miter;stroke-opacity:1;stroke-miterlimit:4;stroke-dasharray:none"
     d="m 821.55674,423.68865 -7.92937,9.4449"
     id="path5716-7-2"
     inkscape:connector-curvature="0" />
  <path
     style="fill:none;fill-rule:evenodd;stroke:#976000;stroke-width:2.1;stroke-linecap:butt;stroke-linejoin:miter;stroke-opacity:1;stroke-miterlimit:4;stroke-dasharray:none"
     d="m 828.04067,423.8266 -7.92938,9.4449"
     id="path5716-9-5"
     inkscape:connector-curvature="0" />
  <path
     style="fill:none;fill-rule:evenodd;stroke:#976000;stroke-width:2.1;stroke-linecap:butt;stroke-linejoin:miter;stroke-opacity:1;stroke-miterlimit:4;stroke-dasharray:none"
     d="m 834.45937,423.94085 -7.92938,9.4449"
     id="path5716-5-0"
     inkscape:connector-curvature="0" />
  <path
     style="fill:none;fill-rule:evenodd;stroke:#976000;stroke-width:2.1;stroke-linecap:butt;stroke-linejoin:miter;stroke-opacity:1;stroke-miterlimit:4;stroke-dasharray:none"
     d="m 839.90081,424.28971 -7.92938,9.44489"
     id="path5716-6-0"
     inkscape:connector-curvature="0" />
  <path
     style="fill:none;fill-rule:evenodd;stroke:#976000;stroke-width:2.1;stroke-linecap:butt;stroke-linejoin:miter;stroke-opacity:1;stroke-miterlimit:4;stroke-dasharray:none"
     d="m 845.80586,424.2879 -7.92938,9.4449"
     id="path5716-4-9"
     inkscape:connector-curvature="0" />
  <path
     style="fill:none;fill-rule:evenodd;stroke:#976000;stroke-width:2.1;stroke-linecap:butt;stroke-linejoin:miter;stroke-opacity:1;stroke-miterlimit:4;stroke-dasharray:none"
     d="m 851.1195,424.30468 -7.92937,9.4449"
     id="path5716-51-6"
     inkscape:connector-curvature="0" />
  <path
     style="fill:none;fill-rule:evenodd;stroke:#976000;stroke-width:2.1;stroke-linecap:butt;stroke-linejoin:miter;stroke-opacity:1;stroke-miterlimit:4;stroke-dasharray:none"
     d="m 856.47762,424.34705 -7.92937,9.44489"
     id="path5716-2-8"
     inkscape:connector-curvature="0" />
  <path
     style="fill:none;fill-rule:evenodd;stroke:#976000;stroke-width:2.1;stroke-linecap:butt;stroke-linejoin:miter;stroke-opacity:1;stroke-miterlimit:4;stroke-dasharray:none"
     d="m 861.85783,424.42384 -7.92938,9.44489"
     id="path5716-41-74"
     inkscape:connector-curvature="0" />
  <path
     style="fill:none;fill-rule:evenodd;stroke:#976000;stroke-width:2.1;stroke-linecap:butt;stroke-linejoin:miter;stroke-opacity:1;stroke-miterlimit:4;stroke-dasharray:none"
     d="m 867.68822,424.55718 -7.92938,9.44491"
     id="path5716-41-2-2"
     inkscape:connector-curvature="0" />
  <path
     style="fill:none;fill-rule:evenodd;stroke:#976000;stroke-width:2.1;stroke-linecap:butt;stroke-linejoin:miter;stroke-opacity:1;stroke-miterlimit:4;stroke-dasharray:none"
     d="m 873.76042,424.76684 -7.92938,9.44491"
     id="path5716-41-3-0"
     inkscape:connector-curvature="0" />
  <path
     style="fill:none;fill-rule:evenodd;stroke:#976000;stroke-width:2.1;stroke-linecap:butt;stroke-linejoin:miter;stroke-opacity:1;stroke-miterlimit:4;stroke-dasharray:none"
     d="m 879.6638,425.01807 -7.92938,9.44489"
     id="path5716-41-31-9"
     inkscape:connector-curvature="0" />
  <path
     style="fill:none;fill-rule:evenodd;stroke:#976000;stroke-width:2.1;stroke-linecap:butt;stroke-linejoin:miter;stroke-opacity:1;stroke-miterlimit:4;stroke-dasharray:none"
     d="m 886.30893,425.30531 -7.92937,9.44489"
     id="path5716-41-8-1"
     inkscape:connector-curvature="0" />
  <path
     style="fill:none;fill-rule:evenodd;stroke:#976000;stroke-width:2.1;stroke-linecap:butt;stroke-linejoin:miter;stroke-opacity:1;stroke-miterlimit:4;stroke-dasharray:none"
     d="m 893.32312,425.59563 -7.92938,9.44489"
     id="path5716-41-7-2"
     inkscape:connector-curvature="0" />
  <path
     style="fill:none;fill-rule:evenodd;stroke:#976000;stroke-width:2.1;stroke-linecap:butt;stroke-linejoin:miter;stroke-opacity:1;stroke-miterlimit:4;stroke-dasharray:none"
     d="m 900.32866,425.85413 -7.92938,9.4449"
     id="path5716-41-6-9"
     inkscape:connector-curvature="0" />
  <path
     style="fill:none;fill-rule:evenodd;stroke:#000000;stroke-width:3;stroke-linecap:butt;stroke-linejoin:miter;stroke-miterlimit:4;stroke-dasharray:none;stroke-opacity:1;marker-end:url(#Arrow1Lend)"
     d="M 522.51662,92.994454 C 607.58882,92.409381 687.70046,116.418 763.04014,164.08515"
     id="path8431"
     inkscape:connector-curvature="0"
     sodipodi:nodetypes="cc" />
  <g
     style="font-style:normal;font-variant:normal;font-weight:normal;font-stretch:normal;letter-spacing:normal;word-spacing:normal;text-anchor:start;fill:none;fill-opacity:1;fill-rule:evenodd;stroke:#000000;stroke-linecap:butt;stroke-linejoin:miter;stroke-miterlimit:10.43299961;stroke-dasharray:none;stroke-dashoffset:0;stroke-opacity:1"
     ns0:preamble="/data/settings/inkscape/textext_preamble.tex"
     ns0:text="$\\bm{F}$"
     text-anchor="start"
     word-spacing="normal"
     letter-spacing="normal"
     font-size-adjust="none"
     font-stretch="normal"
     font-weight="normal"
     font-variant="normal"
     font-style="normal"
     fill-opacity="1"
     fill-rule="evenodd"
     fill="none"
     stroke-opacity="1"
     stroke-dashoffset="0"
     stroke-dasharray="none"
     stroke-miterlimit="10.433"
     stroke-linejoin="miter"
     stroke-linecap="butt"
     stroke="black"
     xml:space="preserve"
     transform="matrix(5,0,0,-5,-474.0197,3627.084)"
     id="g4386"><path
       id="path4388"
       fill="black"
       stroke-width="0"
       d="M227.08,710.27 H227.73 C228.33,710.27,228.5,710.17,228.5,709.85 C228.5,709.74,228.47,709.55,228.44,709.43 C228.42,709.36,228.41,709.31,228.41,709.29 C228.41,709.14,228.54,709.11,228.64,709.11 C228.83,709.11,228.84,709.17,228.89,709.35 L229.45,711.57 C229.49,711.7,229.49,711.71,229.49,711.72 C229.49,711.9,229.29,711.9,229.25,711.9 C229.06,711.9,229.04,711.83,228.99,711.65 C228.79,710.89,228.48,710.74,227.76,710.74 H227.2 L227.86,713.39 C227.99,713.41,228.1,713.41,228.2,713.41 H229.38 C230.52,713.41,230.87,713.12,230.87,712.25 C230.87,712.01,230.83,711.71,230.83,711.67 C230.83,711.49,231.02,711.49,231.07,711.49 C231.28,711.49,231.29,711.59,231.31,711.76 L231.49,713.54 L231.5,713.7 C231.5,713.88,231.33,713.88,231.17,713.88 H225.8 C225.6,713.88,225.59,713.87,225.54,713.83 C225.47,713.78,225.45,713.6,225.45,713.59 C225.45,713.41,225.59,713.41,225.85,713.41 C226.07,713.41,226.25,713.4,226.46,713.39 L225.06,707.79 C225.02,707.63,225.01,707.62,224.83,707.6 C224.66,707.59,224.46,707.59,224.3,707.59 C224.04,707.59,224.02,707.59,223.98,707.57 C223.86,707.5,223.86,707.34,223.86,707.3 C223.86,707.29,223.86,707.12,224.08,707.12 C224.33,707.12,224.59,707.15,224.84,707.15 C225.11,707.15,225.38,707.16,225.65,707.16 C225.95,707.16,226.24,707.15,226.54,707.15 C226.83,707.15,227.12,707.12,227.4,707.12 C227.52,707.12,227.7,707.12,227.7,707.41 C227.7,707.59,227.53,707.59,227.37,707.59 H227.04 C226.66,707.59,226.51,707.61,226.41,707.63 Z " /></g></svg>
