<?xml version="1.0" encoding="utf-8" standalone="no"?>
<!DOCTYPE svg PUBLIC "-//W3C//DTD SVG 1.1//EN"
  "http://www.w3.org/Graphics/SVG/1.1/DTD/svg11.dtd">
<!-- Created with matplotlib (http://matplotlib.org/) -->
<svg height="432pt" version="1.1" viewBox="0 0 576 432" width="576pt" xmlns="http://www.w3.org/2000/svg" xmlns:xlink="http://www.w3.org/1999/xlink">
 <defs>
  <style type="text/css">
*{stroke-linecap:butt;stroke-linejoin:round;}
  </style>
 </defs>
 <g id="figure_1">
  <g id="patch_1">
   <path d="M 0 432 
L 576 432 
L 576 0 
L 0 0 
z
" style="fill:none;"/>
  </g>
  <g id="axes_1">
   <g id="patch_2">
    <path d="M 113.255905 372.340456 
L 467.899181 372.340456 
L 467.899181 22.94 
L 113.255905 22.94 
z
" style="fill:none;"/>
   </g>
   <g id="matplotlib.axis_1">
    <g id="xtick_1">
     <g id="line2d_1">
      <defs>
       <path d="M 0 0 
L 0 3.5 
" id="m85b22d8b4e" style="stroke:#000000;stroke-width:0.8;"/>
      </defs>
      <g>
       <use style="stroke:#000000;stroke-width:0.8;" x="129.376054" xlink:href="#m85b22d8b4e" y="372.340456"/>
      </g>
     </g>
     <g id="line2d_2">
      <defs>
       <path d="M 0 0 
L 0 -3.5 
" id="mcd2bae98c7" style="stroke:#000000;stroke-width:0.8;"/>
      </defs>
      <g>
       <use style="stroke:#000000;stroke-width:0.8;" x="129.376054" xlink:href="#mcd2bae98c7" y="22.94"/>
      </g>
     </g>
     <g id="text_1">
      <!-- $0$ -->
      <defs>
       <path d="M 42 31.640625 
C 42 37.75 41.90625 48.125 37.703125 56.109375 
C 34 63.109375 28.09375 65.59375 22.90625 65.59375 
C 18.09375 65.59375 12 63.40625 8.203125 56.203125 
C 4.203125 48.71875 3.796875 39.4375 3.796875 31.640625 
C 3.796875 25.953125 3.90625 17.28125 7 9.671875 
C 11.296875 -0.609375 19 -2 22.90625 -2 
C 27.5 -2 34.5 -0.109375 38.59375 9.375 
C 41.59375 16.28125 42 24.359375 42 31.640625 
z
M 22.90625 -0.40625 
C 16.5 -0.40625 12.703125 5.078125 11.296875 12.6875 
C 10.203125 18.5625 10.203125 27.15625 10.203125 32.75 
C 10.203125 40.4375 10.203125 46.828125 11.5 52.921875 
C 13.40625 61.390625 19 64 22.90625 64 
C 27 64 32.296875 61.296875 34.203125 53.125 
C 35.5 47.4375 35.59375 40.734375 35.59375 32.75 
C 35.59375 26.25 35.59375 18.265625 34.40625 12.375 
C 32.296875 1.484375 26.40625 -0.40625 22.90625 -0.40625 
z
" id="CMR17-48"/>
      </defs>
      <g transform="translate(125.719402 389.714046)scale(0.14994 -0.14994)">
       <use transform="scale(0.996264)" xlink:href="#CMR17-48"/>
      </g>
     </g>
    </g>
    <g id="xtick_2">
     <g id="line2d_3">
      <g>
       <use style="stroke:#000000;stroke-width:0.8;" x="193.85665" xlink:href="#m85b22d8b4e" y="372.340456"/>
      </g>
     </g>
     <g id="line2d_4">
      <g>
       <use style="stroke:#000000;stroke-width:0.8;" x="193.85665" xlink:href="#mcd2bae98c7" y="22.94"/>
      </g>
     </g>
     <g id="text_2">
      <!-- $10$ -->
      <defs>
       <path d="M 26.59375 63.40625 
C 26.59375 65.5 26.5 65.5 25.09375 65.5 
C 21.203125 61.1875 15.296875 59.796875 9.703125 59.796875 
C 9.40625 59.796875 8.90625 59.796875 8.796875 59.5 
C 8.703125 59.296875 8.703125 59.09375 8.703125 57 
C 11.796875 57 17 57.59375 21 59.984375 
L 21 7.203125 
C 21 3.6875 20.796875 2.5 12.203125 2.5 
L 9.203125 2.5 
L 9.203125 0 
C 14 0 19 0 23.796875 0 
C 28.59375 0 33.59375 0 38.40625 0 
L 38.40625 2.5 
L 35.40625 2.5 
C 26.796875 2.5 26.59375 3.59375 26.59375 7.15625 
z
" id="CMR17-49"/>
      </defs>
      <g transform="translate(186.543346 389.714046)scale(0.14994 -0.14994)">
       <use transform="scale(0.996264)" xlink:href="#CMR17-49"/>
       <use transform="translate(45.690477 0)scale(0.996264)" xlink:href="#CMR17-48"/>
      </g>
     </g>
    </g>
    <g id="xtick_3">
     <g id="line2d_5">
      <g>
       <use style="stroke:#000000;stroke-width:0.8;" x="258.337245" xlink:href="#m85b22d8b4e" y="372.340456"/>
      </g>
     </g>
     <g id="line2d_6">
      <g>
       <use style="stroke:#000000;stroke-width:0.8;" x="258.337245" xlink:href="#mcd2bae98c7" y="22.94"/>
      </g>
     </g>
     <g id="text_3">
      <!-- $20$ -->
      <defs>
       <path d="M 41.703125 15.453125 
L 39.90625 15.453125 
C 38.90625 8.375 38.09375 7.171875 37.703125 6.5625 
C 37.203125 5.765625 30 5.765625 28.59375 5.765625 
L 9.40625 5.765625 
C 13 9.671875 20 16.75 28.5 24.953125 
C 34.59375 30.734375 41.703125 37.53125 41.703125 47.421875 
C 41.703125 59.21875 32.296875 66 21.796875 66 
C 10.796875 66 4.09375 56.3125 4.09375 47.34375 
C 4.09375 43.4375 7 42.9375 8.203125 42.9375 
C 9.203125 42.9375 12.203125 43.546875 12.203125 47.03125 
C 12.203125 50.109375 9.59375 51 8.203125 51 
C 7.59375 51 7 50.90625 6.59375 50.703125 
C 8.5 59.21875 14.296875 63.40625 20.40625 63.40625 
C 29.09375 63.40625 34.796875 56.515625 34.796875 47.421875 
C 34.796875 38.734375 29.703125 31.25 24 24.75 
L 4.09375 2.28125 
L 4.09375 0 
L 39.296875 0 
z
" id="CMR17-50"/>
      </defs>
      <g transform="translate(251.023941 389.714046)scale(0.14994 -0.14994)">
       <use transform="scale(0.996264)" xlink:href="#CMR17-50"/>
       <use transform="translate(45.690477 0)scale(0.996264)" xlink:href="#CMR17-48"/>
      </g>
     </g>
    </g>
    <g id="xtick_4">
     <g id="line2d_7">
      <g>
       <use style="stroke:#000000;stroke-width:0.8;" x="322.817841" xlink:href="#m85b22d8b4e" y="372.340456"/>
      </g>
     </g>
     <g id="line2d_8">
      <g>
       <use style="stroke:#000000;stroke-width:0.8;" x="322.817841" xlink:href="#mcd2bae98c7" y="22.94"/>
      </g>
     </g>
     <g id="text_4">
      <!-- $30$ -->
      <defs>
       <path d="M 22.09375 33.703125 
C 31 33.703125 34.90625 25.96875 34.90625 17.03125 
C 34.90625 5 28.5 0.390625 22.703125 0.390625 
C 17.40625 0.390625 8.796875 3.03125 6.09375 10.828125 
C 6.59375 10.625 7.09375 10.625 7.59375 10.625 
C 10 10.625 11.796875 12.21875 11.796875 14.8125 
C 11.796875 17.703125 9.59375 19 7.59375 19 
C 5.90625 19 3.296875 18.203125 3.296875 14.46875 
C 3.296875 5.234375 12.296875 -2 22.90625 -2 
C 34 -2 42.5 6.71875 42.5 16.953125 
C 42.5 26.671875 34.5 33.703125 25 34.796875 
C 32.59375 36.375 39.90625 43.0625 39.90625 52.015625 
C 39.90625 59.6875 32 65.296875 23 65.296875 
C 13.90625 65.296875 5.90625 59.828125 5.90625 52.015625 
C 5.90625 48.59375 8.5 48 9.796875 48 
C 11.90625 48 13.703125 49.296875 13.703125 51.890625 
C 13.703125 54.46875 11.90625 55.765625 9.796875 55.765625 
C 9.40625 55.765625 8.90625 55.765625 8.5 55.578125 
C 11.40625 61.859375 19.296875 63 22.796875 63 
C 26.296875 63 32.90625 61.328125 32.90625 51.875 
C 32.90625 49.109375 32.5 44.1875 29.09375 39.84375 
C 26.09375 36 22.703125 36 19.40625 35.6875 
C 18.90625 35.6875 16.59375 35.453125 16.203125 35.453125 
C 15.5 35.359375 15.09375 35.265625 15.09375 34.5 
C 15.09375 33.796875 15.203125 33.703125 17.203125 33.703125 
z
" id="CMR17-51"/>
      </defs>
      <g transform="translate(315.504537 389.714046)scale(0.14994 -0.14994)">
       <use transform="scale(0.996264)" xlink:href="#CMR17-51"/>
       <use transform="translate(45.690477 0)scale(0.996264)" xlink:href="#CMR17-48"/>
      </g>
     </g>
    </g>
    <g id="xtick_5">
     <g id="line2d_9">
      <g>
       <use style="stroke:#000000;stroke-width:0.8;" x="387.298437" xlink:href="#m85b22d8b4e" y="372.340456"/>
      </g>
     </g>
     <g id="line2d_10">
      <g>
       <use style="stroke:#000000;stroke-width:0.8;" x="387.298437" xlink:href="#mcd2bae98c7" y="22.94"/>
      </g>
     </g>
     <g id="text_5">
      <!-- $40$ -->
      <defs>
       <path d="M 33.59375 64.40625 
C 33.59375 66.5 33.5 66.5 31.703125 66.5 
L 2 19.59375 
L 2 17 
L 27.796875 17 
L 27.796875 7.140625 
C 27.796875 3.5 27.59375 2.5 20.59375 2.5 
L 18.703125 2.5 
L 18.703125 0 
C 21.90625 0 27.296875 0 30.703125 0 
C 34.09375 0 39.5 0 42.703125 0 
L 42.703125 2.5 
L 40.796875 2.5 
C 33.796875 2.5 33.59375 3.5 33.59375 7.140625 
L 33.59375 17 
L 43.796875 17 
L 43.796875 19.59375 
L 33.59375 19.59375 
z
M 28.09375 57.859375 
L 28.09375 19.59375 
L 4 19.59375 
z
" id="CMR17-52"/>
      </defs>
      <g transform="translate(379.985133 389.714046)scale(0.14994 -0.14994)">
       <use transform="scale(0.996264)" xlink:href="#CMR17-52"/>
       <use transform="translate(45.690477 0)scale(0.996264)" xlink:href="#CMR17-48"/>
      </g>
     </g>
    </g>
    <g id="xtick_6">
     <g id="line2d_11">
      <g>
       <use style="stroke:#000000;stroke-width:0.8;" x="451.779032" xlink:href="#m85b22d8b4e" y="372.340456"/>
      </g>
     </g>
     <g id="line2d_12">
      <g>
       <use style="stroke:#000000;stroke-width:0.8;" x="451.779032" xlink:href="#mcd2bae98c7" y="22.94"/>
      </g>
     </g>
     <g id="text_6">
      <!-- $50$ -->
      <defs>
       <path d="M 11.40625 57.6875 
C 12.40625 57.28125 16.5 56 20.703125 56 
C 30 56 35.09375 61.109375 38 64.0625 
C 38 64.953125 38 65.5 37.40625 65.5 
C 37.296875 65.5 37.09375 65.5 36.296875 65.046875 
C 32.796875 63.40625 28.703125 62.078125 23.703125 62.078125 
C 20.703125 62.078125 16.203125 62.484375 11.296875 64.671875 
C 10.203125 65.171875 10 65.171875 9.90625 65.171875 
C 9.40625 65.171875 9.296875 65.0625 9.296875 63.078125 
L 9.296875 34.421875 
C 9.296875 32.640625 9.296875 32.140625 10.296875 32.140625 
C 10.796875 32.140625 11 32.34375 11.5 33.03125 
C 14.703125 37.515625 19.09375 39.40625 24.09375 39.40625 
C 27.59375 39.40625 35.09375 37.21875 35.09375 20.140625 
C 35.09375 16.953125 35.09375 11.171875 32.09375 6.578125 
C 29.59375 2.484375 25.703125 0.390625 21.40625 0.390625 
C 14.796875 0.390625 8.09375 5 6.296875 12.71875 
C 6.703125 12.609375 7.5 12.421875 7.90625 12.421875 
C 9.203125 12.421875 11.703125 13.125 11.703125 16.21875 
C 11.703125 18.90625 9.796875 20 7.90625 20 
C 5.59375 20 4.09375 18.59375 4.09375 15.796875 
C 4.09375 7.09375 11 -2 21.59375 -2 
C 31.90625 -2 41.703125 6.875 41.703125 19.75 
C 41.703125 31.71875 33.90625 41 24.203125 41 
C 19.09375 41 14.796875 39.109375 11.40625 35.53125 
z
" id="CMR17-53"/>
      </defs>
      <g transform="translate(444.465728 389.714046)scale(0.14994 -0.14994)">
       <use transform="scale(0.996264)" xlink:href="#CMR17-53"/>
       <use transform="translate(45.690477 0)scale(0.996264)" xlink:href="#CMR17-48"/>
      </g>
     </g>
    </g>
    <g id="text_7">
     <!-- $t$ -->
     <defs>
      <path d="M 20.09375 40.09375 
L 29.296875 40.09375 
C 31.203125 40.09375 32.203125 40.09375 32.203125 41.890625 
C 32.203125 43 31.59375 43 29.59375 43 
L 20.796875 43 
L 24.5 57.6875 
C 24.90625 59.078125 24.90625 59.28125 24.90625 60 
C 24.90625 61.609375 23.59375 62.5 22.296875 62.5 
C 21.5 62.5 19.203125 62.203125 18.40625 58.984375 
L 14.5 43 
L 5.09375 43 
C 3.09375 43 2.203125 43 2.203125 41.09375 
C 2.203125 40.09375 2.90625 40.09375 4.796875 40.09375 
L 13.703125 40.09375 
L 7.09375 13.765625 
C 6.296875 10.28125 6 9.28125 6 7.984375 
C 6 3.296875 9.296875 -1 14.90625 -1 
C 25 -1 30.40625 13.5625 30.40625 14.25 
C 30.40625 14.859375 30 15.15625 29.40625 15.15625 
C 29.203125 15.15625 28.796875 15.15625 28.59375 14.75 
C 28.5 14.65625 28.40625 14.546875 27.703125 12.953125 
C 25.59375 7.984375 21 1 15.203125 1 
C 12.203125 1 12 3.5 12 5.6875 
C 12 5.78125 12 7.6875 12.296875 8.875 
z
" id="CMMI12-116"/>
     </defs>
     <g transform="translate(287.407173 409.071936)scale(0.18 -0.18)">
      <use transform="scale(0.996264)" xlink:href="#CMMI12-116"/>
     </g>
    </g>
   </g>
   <g id="matplotlib.axis_2">
    <g id="ytick_1">
     <g id="line2d_13">
      <defs>
       <path d="M 0 0 
L -3.5 0 
" id="m1bbc99b869" style="stroke:#000000;stroke-width:0.8;"/>
      </defs>
      <g>
       <use style="stroke:#000000;stroke-width:0.8;" x="113.255905" xlink:href="#m1bbc99b869" y="371.024073"/>
      </g>
     </g>
     <g id="line2d_14">
      <defs>
       <path d="M 0 0 
L 3.5 0 
" id="m1c646b5945" style="stroke:#000000;stroke-width:0.8;"/>
      </defs>
      <g>
       <use style="stroke:#000000;stroke-width:0.8;" x="467.899181" xlink:href="#m1c646b5945" y="371.024073"/>
      </g>
     </g>
     <g id="text_8">
      <!-- $-0.000012$ -->
      <defs>
       <path d="M 65.90625 23 
C 67.59375 23 69.40625 23 69.40625 25 
C 69.40625 27 67.59375 27 65.90625 27 
L 11.796875 27 
C 10.09375 27 8.296875 27 8.296875 25 
C 8.296875 23 10.09375 23 11.796875 23 
z
" id="CMSY10-0"/>
       <path d="M 18.40625 4.796875 
C 18.40625 7.6875 16 9.671875 13.59375 9.671875 
C 10.703125 9.671875 8.703125 7.28125 8.703125 4.890625 
C 8.703125 2 11.09375 0 13.5 0 
C 16.40625 0 18.40625 2.390625 18.40625 4.796875 
z
" id="CMMI12-58"/>
      </defs>
      <g transform="translate(39.381364 376.210868)scale(0.14994 -0.14994)">
       <use transform="scale(0.996264)" xlink:href="#CMSY10-0"/>
       <use transform="translate(77.487468 0)scale(0.996264)" xlink:href="#CMR17-48"/>
       <use transform="translate(123.177945 0)scale(0.996264)" xlink:href="#CMMI12-58"/>
       <use transform="translate(150.275122 0)scale(0.996264)" xlink:href="#CMR17-48"/>
       <use transform="translate(195.965599 0)scale(0.996264)" xlink:href="#CMR17-48"/>
       <use transform="translate(241.656076 0)scale(0.996264)" xlink:href="#CMR17-48"/>
       <use transform="translate(287.346553 0)scale(0.996264)" xlink:href="#CMR17-48"/>
       <use transform="translate(333.03703 0)scale(0.996264)" xlink:href="#CMR17-49"/>
       <use transform="translate(378.727507 0)scale(0.996264)" xlink:href="#CMR17-50"/>
      </g>
     </g>
    </g>
    <g id="ytick_2">
     <g id="line2d_15">
      <g>
       <use style="stroke:#000000;stroke-width:0.8;" x="113.255905" xlink:href="#m1bbc99b869" y="315.657034"/>
      </g>
     </g>
     <g id="line2d_16">
      <g>
       <use style="stroke:#000000;stroke-width:0.8;" x="467.899181" xlink:href="#m1c646b5945" y="315.657034"/>
      </g>
     </g>
     <g id="text_9">
      <!-- $-0.000010$ -->
      <g transform="translate(39.381364 320.843829)scale(0.14994 -0.14994)">
       <use transform="scale(0.996264)" xlink:href="#CMSY10-0"/>
       <use transform="translate(77.487468 0)scale(0.996264)" xlink:href="#CMR17-48"/>
       <use transform="translate(123.177945 0)scale(0.996264)" xlink:href="#CMMI12-58"/>
       <use transform="translate(150.275122 0)scale(0.996264)" xlink:href="#CMR17-48"/>
       <use transform="translate(195.965599 0)scale(0.996264)" xlink:href="#CMR17-48"/>
       <use transform="translate(241.656076 0)scale(0.996264)" xlink:href="#CMR17-48"/>
       <use transform="translate(287.346553 0)scale(0.996264)" xlink:href="#CMR17-48"/>
       <use transform="translate(333.03703 0)scale(0.996264)" xlink:href="#CMR17-49"/>
       <use transform="translate(378.727507 0)scale(0.996264)" xlink:href="#CMR17-48"/>
      </g>
     </g>
    </g>
    <g id="ytick_3">
     <g id="line2d_17">
      <g>
       <use style="stroke:#000000;stroke-width:0.8;" x="113.255905" xlink:href="#m1bbc99b869" y="260.289995"/>
      </g>
     </g>
     <g id="line2d_18">
      <g>
       <use style="stroke:#000000;stroke-width:0.8;" x="467.899181" xlink:href="#m1c646b5945" y="260.289995"/>
      </g>
     </g>
     <g id="text_10">
      <!-- $-0.000008$ -->
      <defs>
       <path d="M 27.203125 35.375 
C 33.5 38.546875 39.90625 43.328125 39.90625 50.984375 
C 39.90625 60.015625 31.09375 65.296875 23 65.296875 
C 13.90625 65.296875 5.90625 58.734375 5.90625 49.6875 
C 5.90625 47.203125 6.5 42.921875 10.40625 39.140625 
C 11.40625 38.15625 15.59375 35.171875 18.296875 33.28125 
C 13.796875 30.984375 3.296875 25.53125 3.296875 14.59375 
C 3.296875 4.359375 13.09375 -2 22.796875 -2 
C 33.5 -2 42.5 5.65625 42.5 15.78125 
C 42.5 24.84375 36.40625 29.015625 32.40625 31.703125 
z
M 14.09375 44.09375 
C 13.296875 44.59375 9.296875 47.671875 9.296875 52.359375 
C 9.296875 58.421875 15.59375 63 22.796875 63 
C 30.703125 63 36.5 57.4375 36.5 50.96875 
C 36.5 41.703125 26.09375 36.421875 25.59375 36.421875 
C 25.5 36.421875 25.40625 36.421875 24.59375 37.03125 
z
M 32.5 23.734375 
C 34 22.640625 38.796875 19.375 38.796875 13.296875 
C 38.796875 5.953125 31.40625 0.390625 23 0.390625 
C 13.90625 0.390625 7 6.84375 7 14.6875 
C 7 22.546875 13.09375 29.09375 20 32.1875 
z
" id="CMR17-56"/>
      </defs>
      <g transform="translate(39.381364 265.47679)scale(0.14994 -0.14994)">
       <use transform="scale(0.996264)" xlink:href="#CMSY10-0"/>
       <use transform="translate(77.487468 0)scale(0.996264)" xlink:href="#CMR17-48"/>
       <use transform="translate(123.177945 0)scale(0.996264)" xlink:href="#CMMI12-58"/>
       <use transform="translate(150.275122 0)scale(0.996264)" xlink:href="#CMR17-48"/>
       <use transform="translate(195.965599 0)scale(0.996264)" xlink:href="#CMR17-48"/>
       <use transform="translate(241.656076 0)scale(0.996264)" xlink:href="#CMR17-48"/>
       <use transform="translate(287.346553 0)scale(0.996264)" xlink:href="#CMR17-48"/>
       <use transform="translate(333.03703 0)scale(0.996264)" xlink:href="#CMR17-48"/>
       <use transform="translate(378.727507 0)scale(0.996264)" xlink:href="#CMR17-56"/>
      </g>
     </g>
    </g>
    <g id="ytick_4">
     <g id="line2d_19">
      <g>
       <use style="stroke:#000000;stroke-width:0.8;" x="113.255905" xlink:href="#m1bbc99b869" y="204.922956"/>
      </g>
     </g>
     <g id="line2d_20">
      <g>
       <use style="stroke:#000000;stroke-width:0.8;" x="467.899181" xlink:href="#m1c646b5945" y="204.922956"/>
      </g>
     </g>
     <g id="text_11">
      <!-- $-0.000006$ -->
      <defs>
       <path d="M 10.59375 34 
C 10.59375 57.65625 21.796875 63 28.296875 63 
C 30.40625 63 35.5 62.640625 37.5 59 
C 35.90625 59 32.90625 59 32.90625 55.515625 
C 32.90625 52.828125 35.09375 51.921875 36.5 51.921875 
C 37.40625 51.921875 40.09375 52.3125 40.09375 55.625 
C 40.09375 61.78125 35.09375 65.296875 28.203125 65.296875 
C 16.296875 65.296875 3.796875 52.96875 3.796875 31 
C 3.796875 3.953125 15.09375 -2 23.09375 -2 
C 32.796875 -2 42 6.671875 42 20.046875 
C 42 32.515625 33.90625 41.59375 23.703125 41.59375 
C 17.59375 41.59375 13.09375 37.609375 10.59375 30.625 
z
M 23.09375 0.390625 
C 10.796875 0.390625 10.796875 18.75 10.796875 22.4375 
C 10.796875 29.625 14.203125 40 23.5 40 
C 25.203125 40 30.09375 40 33.40625 33.125 
C 35.203125 29.21875 35.203125 25.140625 35.203125 20.140625 
C 35.203125 14.75 35.203125 10.78125 33.09375 6.78125 
C 30.90625 2.671875 27.703125 0.390625 23.09375 0.390625 
z
" id="CMR17-54"/>
      </defs>
      <g transform="translate(39.381364 210.109751)scale(0.14994 -0.14994)">
       <use transform="scale(0.996264)" xlink:href="#CMSY10-0"/>
       <use transform="translate(77.487468 0)scale(0.996264)" xlink:href="#CMR17-48"/>
       <use transform="translate(123.177945 0)scale(0.996264)" xlink:href="#CMMI12-58"/>
       <use transform="translate(150.275122 0)scale(0.996264)" xlink:href="#CMR17-48"/>
       <use transform="translate(195.965599 0)scale(0.996264)" xlink:href="#CMR17-48"/>
       <use transform="translate(241.656076 0)scale(0.996264)" xlink:href="#CMR17-48"/>
       <use transform="translate(287.346553 0)scale(0.996264)" xlink:href="#CMR17-48"/>
       <use transform="translate(333.03703 0)scale(0.996264)" xlink:href="#CMR17-48"/>
       <use transform="translate(378.727507 0)scale(0.996264)" xlink:href="#CMR17-54"/>
      </g>
     </g>
    </g>
    <g id="ytick_5">
     <g id="line2d_21">
      <g>
       <use style="stroke:#000000;stroke-width:0.8;" x="113.255905" xlink:href="#m1bbc99b869" y="149.555917"/>
      </g>
     </g>
     <g id="line2d_22">
      <g>
       <use style="stroke:#000000;stroke-width:0.8;" x="467.899181" xlink:href="#m1c646b5945" y="149.555917"/>
      </g>
     </g>
     <g id="text_12">
      <!-- $-0.000004$ -->
      <g transform="translate(39.381364 154.742712)scale(0.14994 -0.14994)">
       <use transform="scale(0.996264)" xlink:href="#CMSY10-0"/>
       <use transform="translate(77.487468 0)scale(0.996264)" xlink:href="#CMR17-48"/>
       <use transform="translate(123.177945 0)scale(0.996264)" xlink:href="#CMMI12-58"/>
       <use transform="translate(150.275122 0)scale(0.996264)" xlink:href="#CMR17-48"/>
       <use transform="translate(195.965599 0)scale(0.996264)" xlink:href="#CMR17-48"/>
       <use transform="translate(241.656076 0)scale(0.996264)" xlink:href="#CMR17-48"/>
       <use transform="translate(287.346553 0)scale(0.996264)" xlink:href="#CMR17-48"/>
       <use transform="translate(333.03703 0)scale(0.996264)" xlink:href="#CMR17-48"/>
       <use transform="translate(378.727507 0)scale(0.996264)" xlink:href="#CMR17-52"/>
      </g>
     </g>
    </g>
    <g id="ytick_6">
     <g id="line2d_23">
      <g>
       <use style="stroke:#000000;stroke-width:0.8;" x="113.255905" xlink:href="#m1bbc99b869" y="94.188878"/>
      </g>
     </g>
     <g id="line2d_24">
      <g>
       <use style="stroke:#000000;stroke-width:0.8;" x="467.899181" xlink:href="#m1c646b5945" y="94.188878"/>
      </g>
     </g>
     <g id="text_13">
      <!-- $-0.000002$ -->
      <g transform="translate(39.381364 99.375673)scale(0.14994 -0.14994)">
       <use transform="scale(0.996264)" xlink:href="#CMSY10-0"/>
       <use transform="translate(77.487468 0)scale(0.996264)" xlink:href="#CMR17-48"/>
       <use transform="translate(123.177945 0)scale(0.996264)" xlink:href="#CMMI12-58"/>
       <use transform="translate(150.275122 0)scale(0.996264)" xlink:href="#CMR17-48"/>
       <use transform="translate(195.965599 0)scale(0.996264)" xlink:href="#CMR17-48"/>
       <use transform="translate(241.656076 0)scale(0.996264)" xlink:href="#CMR17-48"/>
       <use transform="translate(287.346553 0)scale(0.996264)" xlink:href="#CMR17-48"/>
       <use transform="translate(333.03703 0)scale(0.996264)" xlink:href="#CMR17-48"/>
       <use transform="translate(378.727507 0)scale(0.996264)" xlink:href="#CMR17-50"/>
      </g>
     </g>
    </g>
    <g id="ytick_7">
     <g id="line2d_25">
      <g>
       <use style="stroke:#000000;stroke-width:0.8;" x="113.255905" xlink:href="#m1bbc99b869" y="38.821839"/>
      </g>
     </g>
     <g id="line2d_26">
      <g>
       <use style="stroke:#000000;stroke-width:0.8;" x="467.899181" xlink:href="#m1c646b5945" y="38.821839"/>
      </g>
     </g>
     <g id="text_14">
      <!-- $0.000000$ -->
      <g transform="translate(50.999828 44.008634)scale(0.14994 -0.14994)">
       <use transform="scale(0.996264)" xlink:href="#CMR17-48"/>
       <use transform="translate(45.690477 0)scale(0.996264)" xlink:href="#CMMI12-58"/>
       <use transform="translate(72.787654 0)scale(0.996264)" xlink:href="#CMR17-48"/>
       <use transform="translate(118.478131 0)scale(0.996264)" xlink:href="#CMR17-48"/>
       <use transform="translate(164.168608 0)scale(0.996264)" xlink:href="#CMR17-48"/>
       <use transform="translate(209.859086 0)scale(0.996264)" xlink:href="#CMR17-48"/>
       <use transform="translate(255.549563 0)scale(0.996264)" xlink:href="#CMR17-48"/>
       <use transform="translate(301.24004 0)scale(0.996264)" xlink:href="#CMR17-48"/>
      </g>
     </g>
    </g>
    <g id="text_15">
     <!-- $u$ -->
     <defs>
      <path d="M 34.09375 5.78125 
C 35.40625 0.203125 40.203125 -1 42.59375 -1 
C 45.796875 -1 48.203125 1.09375 49.796875 4.484375 
C 51.5 8.078125 52.796875 13.96875 52.796875 14.265625 
C 52.796875 14.765625 52.40625 15.171875 51.796875 15.171875 
C 50.90625 15.171875 50.796875 14.671875 50.40625 13.171875 
C 48.59375 6.28125 46.796875 1 42.796875 1 
C 39.796875 1 39.796875 4.296875 39.796875 5.59375 
C 39.796875 7.890625 40.09375 8.875 41.09375 13.078125 
C 41.796875 15.765625 42.5 18.453125 43.09375 21.25 
L 47.203125 37.515625 
C 47.90625 40.015625 47.90625 40.21875 47.90625 40.515625 
C 47.90625 42.015625 46.703125 43.015625 45.203125 43.015625 
C 42.296875 43.015625 41.59375 40.515625 41 38.015625 
C 40 34.125 34.59375 12.671875 33.90625 9.1875 
C 33.796875 9.1875 29.90625 1 22.59375 1 
C 17.40625 1 16.40625 5.484375 16.40625 9.1875 
C 16.40625 14.875 19.203125 22.84375 21.796875 29.53125 
C 23 32.734375 23.5 34.03125 23.5 36.015625 
C 23.5 40.3125 20.40625 44 15.59375 44 
C 6.40625 44 2.703125 29.53125 2.703125 28.734375 
C 2.703125 28.34375 3.09375 27.84375 3.796875 27.84375 
C 4.703125 27.84375 4.796875 28.234375 5.203125 29.625 
C 7.59375 38.140625 11.5 41.90625 15.296875 41.90625 
C 16.296875 41.90625 17.90625 41.90625 17.90625 38.71875 
C 17.90625 36.125 16.796875 33.234375 15.296875 29.4375 
C 10.90625 17.5625 10.40625 13.765625 10.40625 10.78125 
C 10.40625 0.59375 18.09375 -1 22.203125 -1 
C 28.59375 -1 32.09375 3.390625 34.09375 5.78125 
z
" id="CMMI12-117"/>
     </defs>
     <g transform="translate(31.8933 202.637054)rotate(-90)scale(0.18 -0.18)">
      <use transform="scale(0.996264)" xlink:href="#CMMI12-117"/>
     </g>
    </g>
   </g>
   <g id="line2d_27">
    <path clip-path="url(#p8efba886f6)" d="M 129.376054 38.821839 
L 129.5402 38.968401 
L 129.886729 39.626104 
L 130.442999 41.2167 
L 131.245488 44.252089 
L 132.339791 49.333721 
L 133.798862 57.242045 
L 135.74125 69.07775 
L 138.385815 86.663531 
L 142.152041 113.323024 
L 148.198065 157.894567 
L 159.277882 239.685905 
L 163.117062 266.209765 
L 166.171991 285.826627 
L 168.789199 301.237071 
L 171.096354 313.541936 
L 173.17553 323.469646 
L 175.072321 331.4813 
L 176.814087 337.906704 
L 178.419064 343.005959 
L 179.896373 346.985056 
L 181.255133 350.031084 
L 182.504462 352.309371 
L 183.65348 353.962732 
L 184.711306 355.112086 
L 185.68706 355.85791 
L 186.598979 356.285127 
L 187.474421 356.453139 
L 188.331625 356.391248 
L 189.207068 356.100773 
L 190.118987 355.558831 
L 191.103859 354.705655 
L 192.170805 353.476348 
L 193.338061 351.780617 
L 194.623867 349.506267 
L 196.046461 346.5195 
L 197.614962 342.690851 
L 199.365847 337.808004 
L 201.326473 331.657677 
L 203.569794 323.858052 
L 206.20524 313.85302 
L 209.542864 300.251372 
L 216.391377 271.107817 
L 220.622681 253.714113 
L 223.714087 241.913658 
L 226.349533 232.701321 
L 228.693166 225.292395 
L 230.817937 219.288891 
L 232.769444 214.41957 
L 234.575044 210.492686 
L 236.252975 207.358784 
L 237.812357 204.900665 
L 239.271427 203.00141 
L 240.639306 201.573871 
L 241.925112 200.54261 
L 243.147084 199.83938 
L 244.323459 199.41426 
L 245.472477 199.23387 
L 246.612376 199.279875 
L 247.770514 199.550854 
L 248.974247 200.065522 
L 250.241814 200.855855 
L 251.591455 201.966404 
L 253.050525 203.464181 
L 254.637265 205.422827 
L 256.37903 207.939421 
L 258.303179 211.12416 
L 260.464428 215.147032 
L 262.944848 220.251689 
L 265.935943 226.940969 
L 270.085175 236.817254 
L 278.356281 256.589804 
L 281.630071 263.769124 
L 284.393186 269.309727 
L 286.846248 273.745031 
L 289.08045 277.3381 
L 291.141387 280.243882 
L 293.065536 282.583603 
L 294.880255 284.448547 
L 296.594663 285.899472 
L 298.236118 287.002941 
L 299.813738 287.800007 
L 301.345762 288.328663 
L 302.859548 288.616893 
L 304.364214 288.677489 
L 305.887119 288.51571 
L 307.45562 288.122503 
L 309.087955 287.479558 
L 310.802363 286.561148 
L 312.635321 285.321711 
L 314.614185 283.709298 
L 316.793672 281.638202 
L 319.237615 278.998064 
L 322.064564 275.603798 
L 325.593691 270.998314 
L 332.068317 262.094442 
L 337.020038 255.476658 
L 340.439735 251.268028 
L 343.357876 248.019533 
L 345.975084 245.430247 
L 348.391669 243.345003 
L 350.662348 241.673644 
L 352.823596 240.354538 
L 354.902772 239.342566 
L 356.927232 238.602295 
L 358.915216 238.110339 
L 360.894081 237.84883 
L 362.882064 237.809752 
L 364.915644 237.993335 
L 367.013058 238.407963 
L 369.210783 239.072176 
L 371.545296 240.01399 
L 374.071312 241.277766 
L 376.870904 242.933127 
L 380.108217 245.114714 
L 384.202733 248.15874 
L 397.990951 258.631838 
L 401.474482 260.86793 
L 404.584126 262.604997 
L 407.474909 263.96879 
L 410.219786 265.020973 
L 412.873471 265.802811 
L 415.481559 266.341262 
L 418.080529 266.65156 
L 420.706856 266.740742 
L 423.397017 266.60807 
L 426.18749 266.246176 
L 429.151227 265.634213 
L 432.361182 264.739836 
L 435.972382 263.496323 
L 440.331355 261.749059 
L 447.243702 258.700663 
L 451.77594 256.706319 
L 451.77594 256.706319 
" style="fill:none;stroke:#440154;stroke-linecap:square;stroke-width:2;"/>
   </g>
   <g id="line2d_28">
    <path clip-path="url(#p8efba886f6)" d="M 129.376054 38.821839 
L 129.505018 38.968667 
L 129.801635 39.693657 
L 130.298145 41.560511 
L 131.033239 45.277667 
L 132.045604 51.642112 
L 133.399724 61.674249 
L 135.205217 76.831676 
L 137.636184 99.249995 
L 141.111757 133.537835 
L 151.254758 234.798399 
L 153.911411 258.405188 
L 156.155381 276.434173 
L 158.128527 290.557359 
L 159.901779 301.70784 
L 161.513826 310.487768 
L 162.990461 317.348221 
L 164.338132 322.601061 
L 165.576184 326.571614 
L 166.704617 329.47902 
L 167.729879 331.538022 
L 168.658419 332.931431 
L 169.496683 333.811864 
L 170.264018 334.310493 
L 170.973318 334.516205 
L 171.663274 334.486899 
L 172.366127 334.230704 
L 173.120565 333.709289 
L 173.945933 332.857127 
L 174.874472 331.561984 
L 175.919079 329.702228 
L 177.099097 327.123566 
L 178.440321 323.630868 
L 179.974989 318.984546 
L 181.767586 312.813124 
L 183.940625 304.489406 
L 186.874551 292.292956 
L 194.676859 259.443202 
L 197.146516 250.23799 
L 199.261521 243.181444 
L 201.144392 237.647014 
L 202.853162 233.290595 
L 204.420072 229.882936 
L 205.864466 227.253457 
L 207.20569 225.256358 
L 208.456638 223.77907 
L 209.62376 222.732635 
L 210.726401 222.033027 
L 211.783903 221.619521 
L 212.815614 221.451886 
L 213.847324 221.508986 
L 214.911275 221.79354 
L 216.03326 222.329632 
L 217.239071 223.159796 
L 218.554501 224.343543 
L 220.01824 225.970387 
L 221.668976 228.149773 
L 223.584088 231.062972 
L 225.898988 235.010642 
L 229.084393 240.923221 
L 236.306364 254.45122 
L 238.950122 258.852376 
L 241.206988 262.192556 
L 243.231719 264.80459 
L 245.095245 266.856104 
L 246.836256 268.451047 
L 248.486993 269.668889 
L 250.073247 270.567611 
L 251.614364 271.188408 
L 253.136137 271.563084 
L 254.657909 271.709469 
L 256.211922 271.63491 
L 257.830418 271.331912 
L 259.545636 270.780376 
L 261.402714 269.944072 
L 263.466135 268.76372 
L 265.845516 267.137072 
L 268.811683 264.824604 
L 274.163679 260.305421 
L 278.567792 256.724898 
L 281.611337 254.532188 
L 284.248646 252.899601 
L 286.673165 251.655038 
L 288.975168 250.71946 
L 291.21269 250.04768 
L 293.430867 249.612819 
L 295.668388 249.4005 
L 297.97684 249.406135 
L 300.407807 249.637151 
L 303.038668 250.114559 
L 306.004834 250.884985 
L 309.622268 252.065705 
L 315.677117 254.319583 
L 321.53852 256.410955 
L 325.446123 257.568623 
L 328.921696 258.369124 
L 332.229617 258.904392 
L 335.518193 259.210953 
L 338.890596 259.300522 
L 342.488685 259.170209 
L 346.525251 258.795426 
L 351.554838 258.092331 
L 368.797294 255.493852 
L 373.79464 255.083398 
L 378.721056 254.903185 
L 383.950537 254.938413 
L 390.082764 255.21159 
L 400.06456 255.91866 
L 410.394558 256.571028 
L 417.855112 256.813215 
L 425.470423 256.833143 
L 434.987949 256.619898 
L 451.772584 256.114039 
L 451.772584 256.114039 
" style="fill:none;stroke:#443983;stroke-linecap:square;stroke-width:2;"/>
   </g>
   <g id="line2d_29">
    <path clip-path="url(#p8efba886f6)" d="M 129.376054 38.821839 
L 129.480923 38.975576 
L 129.745376 39.822666 
L 130.205889 42.140719 
L 130.894378 46.864588 
L 131.85188 55.107146 
L 133.137667 68.244323 
L 134.852051 88.20082 
L 137.245805 118.88254 
L 145.006127 220.252911 
L 147.057916 243.126766 
L 148.827014 260.458823 
L 150.404612 273.811271 
L 151.831745 284.075491 
L 153.135771 291.908811 
L 154.325808 297.767318 
L 155.410977 302.052009 
L 156.400395 305.102149 
L 157.294063 307.178518 
L 158.096541 308.515379 
L 158.812387 309.304087 
L 159.455281 309.701763 
L 160.052579 309.819263 
L 160.640759 309.708448 
L 161.265415 309.356615 
L 161.963023 308.694572 
L 162.760941 307.612823 
L 163.686526 305.961233 
L 164.767135 303.553302 
L 166.052922 300.113841 
L 167.625961 295.231363 
L 169.709666 287.980631 
L 177.374238 260.620593 
L 179.271003 255.030675 
L 180.935232 250.79217 
L 182.435318 247.555718 
L 183.812296 245.092254 
L 185.088965 243.246147 
L 186.283562 241.895743 
L 187.409766 240.947304 
L 188.485816 240.323817 
L 189.534508 239.968712 
L 190.57864 239.847865 
L 191.65469 239.948781 
L 192.794572 240.283596 
L 194.039324 240.888244 
L 195.434541 241.821913 
L 197.062294 243.190457 
L 199.082166 245.196562 
L 202.141611 248.589877 
L 206.764976 253.683015 
L 209.172408 255.99101 
L 211.246995 257.680218 
L 213.152879 258.951314 
L 214.963013 259.895665 
L 216.727551 260.568501 
L 218.49209 261.004583 
L 220.297664 261.22148 
L 222.198989 261.22372 
L 224.264456 260.999862 
L 226.617174 260.514668 
L 229.544393 259.671515 
L 235.111581 257.77589 
L 239.470493 256.416048 
L 242.776153 255.616672 
L 245.858396 255.099024 
L 248.949758 254.806481 
L 252.228061 254.722994 
L 255.962317 254.857393 
L 260.88661 255.274176 
L 273.849357 256.467292 
L 279.380069 256.683598 
L 285.462483 256.690675 
L 294.567867 256.44745 
L 307.717554 256.133866 
L 318.587477 256.127219 
L 354.252129 256.270987 
L 398.479581 256.250539 
L 451.77594 256.2475 
L 451.77594 256.2475 
" style="fill:none;stroke:#31688e;stroke-linecap:square;stroke-width:2;"/>
   </g>
   <g id="line2d_30">
    <path clip-path="url(#p8efba886f6)" d="M 129.376054 38.821839 
L 129.446017 38.937702 
L 129.660421 39.774693 
L 130.061501 42.35128 
L 130.681175 47.930338 
L 131.556845 58.004796 
L 132.747832 74.475442 
L 134.42018 100.964331 
L 140.794575 204.959448 
L 142.417916 226.308563 
L 143.849422 242.33076 
L 145.145839 254.453678 
L 146.333924 263.569297 
L 147.427544 270.324206 
L 148.434757 275.226907 
L 149.359433 278.684951 
L 150.203506 281.032945 
L 150.968588 282.546471 
L 151.657581 283.449866 
L 152.280157 283.922456 
L 152.857596 284.093293 
L 153.428264 284.030735 
L 154.039878 283.731809 
L 154.737254 283.12952 
L 155.562627 282.10452 
L 156.568873 280.477141 
L 157.850458 277.951038 
L 159.695941 273.769144 
L 164.351561 263.047398 
L 166.096129 259.685158 
L 167.618233 257.216041 
L 169.010405 255.36655 
L 170.317783 253.987889 
L 171.571319 252.980684 
L 172.799383 252.273685 
L 174.032929 251.817463 
L 175.310001 251.582422 
L 176.679927 251.559292 
L 178.216217 251.761513 
L 180.055251 252.237728 
L 182.601656 253.147608 
L 189.089217 255.550053 
L 191.779095 256.251758 
L 194.394819 256.70376 
L 197.156917 256.951962 
L 200.326865 257.006016 
L 204.575602 256.838209 
L 218.104305 256.166655 
L 225.536532 256.131854 
L 261.964824 256.247659 
L 380.794045 256.247693 
L 451.779032 256.247693 
L 451.779032 256.247693 
" style="fill:none;stroke:#21918c;stroke-linecap:square;stroke-width:2;"/>
   </g>
   <g id="line2d_31">
    <path clip-path="url(#p8efba886f6)" d="M 129.376054 38.821839 
L 129.431025 38.936564 
L 129.620761 39.90029 
L 129.992174 43.086743 
L 130.577504 50.23703 
L 131.419632 63.504362 
L 132.658643 86.908759 
L 137.489108 181.581284 
L 138.880456 202.887427 
L 140.133169 218.81008 
L 141.292545 230.838053 
L 142.37938 239.901983 
L 143.405118 246.676659 
L 144.376048 251.67658 
L 145.296198 255.307691 
L 146.168309 257.891345 
L 146.994961 259.682153 
L 147.780667 260.881518 
L 148.534294 261.645294 
L 149.273413 262.088637 
L 150.028813 262.285628 
L 150.848372 262.266153 
L 151.80318 262.012162 
L 153.021557 261.442852 
L 154.953098 260.260025 
L 158.363683 258.18355 
L 160.328754 257.266915 
L 162.223219 256.628035 
L 164.2136 256.193994 
L 166.464969 255.936768 
L 169.28587 255.850314 
L 173.860183 255.96545 
L 183.97329 256.231909 
L 196.664204 256.253938 
L 292.993824 256.247693 
L 451.779032 256.247693 
L 451.779032 256.247693 
" style="fill:none;stroke:#35b779;stroke-linecap:square;stroke-width:2;"/>
   </g>
   <g id="line2d_32">
    <path clip-path="url(#p8efba886f6)" d="M 129.376054 38.821839 
L 129.419418 38.935911 
L 129.58868 40.059331 
L 129.935104 44.045616 
L 130.495686 53.359457 
L 131.381414 72.243629 
L 135.320156 160.536395 
L 136.563914 181.52686 
L 137.730214 197.602783 
L 138.852023 210.113931 
L 139.945298 219.913941 
L 141.019391 227.613543 
L 142.080829 233.673983 
L 143.134852 238.450974 
L 144.186457 242.222105 
L 145.241285 245.205296 
L 146.306431 247.571773 
L 147.391808 249.456542 
L 148.511601 250.96551 
L 149.686365 252.181118 
L 150.946001 253.166582 
L 152.333875 253.968906 
L 153.914143 254.621678 
L 155.785382 255.147522 
L 158.111857 255.560996 
L 161.201062 255.871246 
L 165.735931 256.084486 
L 173.714167 256.206267 
L 195.678738 256.246472 
L 451.779032 256.247693 
L 451.779032 256.247693 
" style="fill:none;stroke:#90d743;stroke-linecap:square;stroke-width:2;"/>
   </g>
   <g id="line2d_33">
    <path clip-path="url(#p8efba886f6)" d="M 129.376054 38.821839 
L 129.41031 38.935364 
L 129.562041 40.255388 
L 129.887508 45.290838 
L 130.463039 58.14446 
L 134.146223 147.361975 
L 135.331018 167.844811 
L 136.498725 184.312665 
L 137.661354 197.670671 
L 138.823137 208.53981 
L 139.985887 217.394944 
L 141.150854 224.614819 
L 142.319246 230.505017 
L 143.492756 235.31426 
L 144.673803 239.245046 
L 145.865972 242.462572 
L 147.074463 245.10144 
L 148.306933 247.27151 
L 149.574384 249.062039 
L 150.892573 250.545245 
L 152.283666 251.77877 
L 153.778533 252.807654 
L 155.420335 253.666058 
L 157.270491 254.378796 
L 159.42016 254.962978 
L 162.014384 255.429747 
L 165.309474 255.78611 
L 169.833326 256.036727 
L 176.9832 256.186108 
L 192.934623 256.243629 
L 360.496982 256.247693 
L 451.779032 256.247693 
L 451.779032 256.247693 
" style="fill:none;stroke:#fde725;stroke-linecap:square;stroke-width:2;"/>
   </g>
   <g id="patch_3">
    <path d="M 113.255905 372.340456 
L 113.255905 22.94 
" style="fill:none;stroke:#000000;stroke-linecap:square;stroke-linejoin:miter;stroke-width:0.8;"/>
   </g>
   <g id="patch_4">
    <path d="M 467.899181 372.340456 
L 467.899181 22.94 
" style="fill:none;stroke:#000000;stroke-linecap:square;stroke-linejoin:miter;stroke-width:0.8;"/>
   </g>
   <g id="patch_5">
    <path d="M 113.255905 372.340456 
L 467.899181 372.340456 
" style="fill:none;stroke:#000000;stroke-linecap:square;stroke-linejoin:miter;stroke-width:0.8;"/>
   </g>
   <g id="patch_6">
    <path d="M 113.255905 22.94 
L 467.899181 22.94 
" style="fill:none;stroke:#000000;stroke-linecap:square;stroke-linejoin:miter;stroke-width:0.8;"/>
   </g>
  </g>
  <g id="axes_2">
   <g id="patch_7">
    <path clip-path="url(#p0770293f3c)" d="M 490.064386 372.340456 
L 490.064386 322.426106 
L 490.064386 72.854351 
L 490.064386 22.94 
L 507.534409 22.94 
L 507.534409 72.854351 
L 507.534409 322.426106 
L 507.534409 372.340456 
z
" style="fill:none;"/>
   </g>
   <g id="QuadMesh_1">
    <path clip-path="url(#p0770293f3c)" d="M 490.064386 372.340456 
L 507.534409 372.340456 
L 507.534409 322.426106 
L 490.064386 322.426106 
L 490.064386 372.340456 
" style="fill:#440154;"/>
    <path clip-path="url(#p0770293f3c)" d="M 490.064386 322.426106 
L 507.534409 322.426106 
L 507.534409 272.511755 
L 490.064386 272.511755 
L 490.064386 322.426106 
" style="fill:#443983;"/>
    <path clip-path="url(#p0770293f3c)" d="M 490.064386 272.511755 
L 507.534409 272.511755 
L 507.534409 222.597404 
L 490.064386 222.597404 
L 490.064386 272.511755 
" style="fill:#31688e;"/>
    <path clip-path="url(#p0770293f3c)" d="M 490.064386 222.597404 
L 507.534409 222.597404 
L 507.534409 172.683053 
L 490.064386 172.683053 
L 490.064386 222.597404 
" style="fill:#21918c;"/>
    <path clip-path="url(#p0770293f3c)" d="M 490.064386 172.683053 
L 507.534409 172.683053 
L 507.534409 122.768702 
L 490.064386 122.768702 
L 490.064386 172.683053 
" style="fill:#35b779;"/>
    <path clip-path="url(#p0770293f3c)" d="M 490.064386 122.768702 
L 507.534409 122.768702 
L 507.534409 72.854351 
L 490.064386 72.854351 
L 490.064386 122.768702 
" style="fill:#90d743;"/>
    <path clip-path="url(#p0770293f3c)" d="M 490.064386 72.854351 
L 507.534409 72.854351 
L 507.534409 22.94 
L 490.064386 22.94 
L 490.064386 72.854351 
" style="fill:#fde725;"/>
   </g>
   <g id="matplotlib.axis_3"/>
   <g id="matplotlib.axis_4">
    <g id="ytick_8">
     <g id="line2d_34">
      <g>
       <use style="stroke:#000000;stroke-width:0.8;" x="507.534409" xlink:href="#m1c646b5945" y="347.383281"/>
      </g>
     </g>
     <g id="text_16">
      <!-- 1/8 -->
      <defs>
       <path d="M 40.703125 71.015625 
C 41.203125 72.296875 41.203125 72.5 41.203125 72.703125 
C 41.203125 73.890625 40.296875 74.5 39.5 74.5 
C 38.296875 74.5 37.90625 73.703125 37.5 72.5 
L 5.09375 -21.515625 
C 4.59375 -22.8125 4.59375 -23.015625 4.59375 -23.21875 
C 4.59375 -24.40625 5.5 -25 6.296875 -25 
C 7.5 -25 7.90625 -24.203125 8.296875 -23.015625 
z
" id="CMR17-47"/>
      </defs>
      <g transform="translate(514.534409 352.985024)scale(0.14994 -0.14994)">
       <use transform="scale(0.996264)" xlink:href="#CMR17-49"/>
       <use transform="translate(45.690477 0)scale(0.996264)" xlink:href="#CMR17-47"/>
       <use transform="translate(91.380954 0)scale(0.996264)" xlink:href="#CMR17-56"/>
      </g>
     </g>
    </g>
    <g id="ytick_9">
     <g id="line2d_35">
      <g>
       <use style="stroke:#000000;stroke-width:0.8;" x="507.534409" xlink:href="#m1c646b5945" y="297.46893"/>
      </g>
     </g>
     <g id="text_17">
      <!-- 1/4 -->
      <g transform="translate(514.534409 303.070673)scale(0.14994 -0.14994)">
       <use transform="scale(0.996264)" xlink:href="#CMR17-49"/>
       <use transform="translate(45.690477 0)scale(0.996264)" xlink:href="#CMR17-47"/>
       <use transform="translate(91.380954 0)scale(0.996264)" xlink:href="#CMR17-52"/>
      </g>
     </g>
    </g>
    <g id="ytick_10">
     <g id="line2d_36">
      <g>
       <use style="stroke:#000000;stroke-width:0.8;" x="507.534409" xlink:href="#m1c646b5945" y="247.554579"/>
      </g>
     </g>
     <g id="text_18">
      <!-- 1/2 -->
      <g transform="translate(514.534409 253.156322)scale(0.14994 -0.14994)">
       <use transform="scale(0.996264)" xlink:href="#CMR17-49"/>
       <use transform="translate(45.690477 0)scale(0.996264)" xlink:href="#CMR17-47"/>
       <use transform="translate(91.380954 0)scale(0.996264)" xlink:href="#CMR17-50"/>
      </g>
     </g>
    </g>
    <g id="ytick_11">
     <g id="line2d_37">
      <g>
       <use style="stroke:#000000;stroke-width:0.8;" x="507.534409" xlink:href="#m1c646b5945" y="197.640228"/>
      </g>
     </g>
     <g id="text_19">
      <!-- 1 -->
      <g transform="translate(514.534409 202.827023)scale(0.14994 -0.14994)">
       <use transform="scale(0.996264)" xlink:href="#CMR17-49"/>
      </g>
     </g>
    </g>
    <g id="ytick_12">
     <g id="line2d_38">
      <g>
       <use style="stroke:#000000;stroke-width:0.8;" x="507.534409" xlink:href="#m1c646b5945" y="147.725877"/>
      </g>
     </g>
     <g id="text_20">
      <!-- 2 -->
      <g transform="translate(514.534409 152.912672)scale(0.14994 -0.14994)">
       <use transform="scale(0.996264)" xlink:href="#CMR17-50"/>
      </g>
     </g>
    </g>
    <g id="ytick_13">
     <g id="line2d_39">
      <g>
       <use style="stroke:#000000;stroke-width:0.8;" x="507.534409" xlink:href="#m1c646b5945" y="97.811526"/>
      </g>
     </g>
     <g id="text_21">
      <!-- 4 -->
      <g transform="translate(514.534409 102.998321)scale(0.14994 -0.14994)">
       <use transform="scale(0.996264)" xlink:href="#CMR17-52"/>
      </g>
     </g>
    </g>
    <g id="ytick_14">
     <g id="line2d_40">
      <g>
       <use style="stroke:#000000;stroke-width:0.8;" x="507.534409" xlink:href="#m1c646b5945" y="47.897175"/>
      </g>
     </g>
     <g id="text_22">
      <!-- 8 -->
      <g transform="translate(514.534409 53.08397)scale(0.14994 -0.14994)">
       <use transform="scale(0.996264)" xlink:href="#CMR17-56"/>
      </g>
     </g>
    </g>
   </g>
   <g id="patch_8">
    <path d="M 490.064386 372.340456 
L 490.064386 322.426106 
L 490.064386 72.854351 
L 490.064386 22.94 
L 507.534409 22.94 
L 507.534409 72.854351 
L 507.534409 322.426106 
L 507.534409 372.340456 
z
" style="fill:none;stroke:#000000;stroke-linejoin:miter;stroke-width:0.8;"/>
   </g>
  </g>
 </g>
 <defs>
  <clipPath id="p8efba886f6">
   <rect height="349.400456" width="354.643276" x="113.255905" y="22.94"/>
  </clipPath>
  <clipPath id="p0770293f3c">
   <rect height="349.400456" width="17.470023" x="490.064386" y="22.94"/>
  </clipPath>
 </defs>
</svg>
