<?xml version="1.0" encoding="UTF-8"?>
<!DOCTYPE svg PUBLIC "-//W3C//DTD SVG 1.1//EN" "http://www.w3.org/Graphics/SVG/1.1/DTD/svg11.dtd">
<svg version="1.1" xmlns="http://www.w3.org/2000/svg" xmlns:xlink="http://www.w3.org/1999/xlink" x="0" y="0" width="280.558" height="301.823" viewBox="0, 0, 280.558, 301.823">
  <g id="Layer_1">
    <g>
      <path d="M8.146,230.912 L61.146,230.912 L61.146,283.912 L8.146,283.912 L8.146,230.912 z" fill="#A5A5A5"/>
      <path d="M8.146,230.912 L61.146,230.912 L61.146,283.912 L8.146,283.912 L8.146,230.912 z" fill-opacity="0" stroke="#000000" stroke-width="1"/>
    </g>
    <g>
      <path d="M61.146,230.912 L114.146,230.912 L114.146,283.912 L61.146,283.912 L61.146,230.912 z" fill="#A5A5A5"/>
      <path d="M61.146,230.912 L114.146,230.912 L114.146,283.912 L61.146,283.912 L61.146,230.912 z" fill-opacity="0" stroke="#000000" stroke-width="1"/>
    </g>
    <g>
      <path d="M114.146,230.912 L167.146,230.912 L167.146,283.912 L114.146,283.912 L114.146,230.912 z" fill="#F0EFEF"/>
      <path d="M114.146,230.912 L167.146,230.912 L167.146,283.912 L114.146,283.912 L114.146,230.912 z" fill-opacity="0" stroke="#000000" stroke-width="1"/>
    </g>
    <g>
      <path d="M167.146,230.912 L220.146,230.912 L220.146,283.912 L167.146,283.912 L167.146,230.912 z" fill="#F0EFEF"/>
      <path d="M167.146,230.912 L220.146,230.912 L220.146,283.912 L167.146,283.912 L167.146,230.912 z" fill-opacity="0" stroke="#000000" stroke-width="1"/>
    </g>
    <g>
      <path d="M220.146,230.912 L273.146,230.912 L273.146,283.912 L220.146,283.912 L220.146,230.912 z" fill="#F0EFEF"/>
      <path d="M220.146,230.912 L273.146,230.912 L273.146,283.912 L220.146,283.912 L220.146,230.912 z" fill-opacity="0" stroke="#000000" stroke-width="1"/>
    </g>
    <g>
      <path d="M8.146,177.912 L61.146,177.912 L61.146,230.912 L8.146,230.912 L8.146,177.912 z" fill="#A5A5A5"/>
      <path d="M8.146,177.912 L61.146,177.912 L61.146,230.912 L8.146,230.912 L8.146,177.912 z" fill-opacity="0" stroke="#000000" stroke-width="1"/>
    </g>
    <g>
      <path d="M61.146,177.912 L114.146,177.912 L114.146,230.912 L61.146,230.912 L61.146,177.912 z" fill="#A5A5A5"/>
      <path d="M61.146,177.912 L114.146,177.912 L114.146,230.912 L61.146,230.912 L61.146,177.912 z" fill-opacity="0" stroke="#000000" stroke-width="1"/>
    </g>
    <g>
      <path d="M114.146,177.912 L167.146,177.912 L167.146,230.912 L114.146,230.912 L114.146,177.912 z" fill="#F0EFEF"/>
      <path d="M114.146,177.912 L167.146,177.912 L167.146,230.912 L114.146,230.912 L114.146,177.912 z" fill-opacity="0" stroke="#000000" stroke-width="1"/>
    </g>
    <g>
      <path d="M167.146,177.912 L220.146,177.912 L220.146,230.912 L167.146,230.912 L167.146,177.912 z" fill="#F0EFEF"/>
      <path d="M167.146,177.912 L220.146,177.912 L220.146,230.912 L167.146,230.912 L167.146,177.912 z" fill-opacity="0" stroke="#000000" stroke-width="1"/>
    </g>
    <g>
      <path d="M220.146,177.912 L273.146,177.912 L273.146,230.912 L220.146,230.912 L220.146,177.912 z" fill="#F0EFEF"/>
      <path d="M220.146,177.912 L273.146,177.912 L273.146,230.912 L220.146,230.912 L220.146,177.912 z" fill-opacity="0" stroke="#000000" stroke-width="1"/>
    </g>
    <g>
      <path d="M8.146,124.912 L61.146,124.912 L61.146,177.912 L8.146,177.912 L8.146,124.912 z" fill="#F0EFEF"/>
      <path d="M8.146,124.912 L61.146,124.912 L61.146,177.912 L8.146,177.912 L8.146,124.912 z" fill-opacity="0" stroke="#000000" stroke-width="1"/>
    </g>
    <g>
      <path d="M61.146,124.912 L114.146,124.912 L114.146,177.912 L61.146,177.912 L61.146,124.912 z" fill="#F0EFEF"/>
      <path d="M61.146,124.912 L114.146,124.912 L114.146,177.912 L61.146,177.912 L61.146,124.912 z" fill-opacity="0" stroke="#000000" stroke-width="1"/>
    </g>
    <g>
      <path d="M114.146,124.912 L167.146,124.912 L167.146,177.912 L114.146,177.912 L114.146,124.912 z" fill="#F0EFEF"/>
      <path d="M114.146,124.912 L167.146,124.912 L167.146,177.912 L114.146,177.912 L114.146,124.912 z" fill-opacity="0" stroke="#000000" stroke-width="1"/>
    </g>
    <g>
      <path d="M167.146,124.912 L220.146,124.912 L220.146,177.912 L167.146,177.912 L167.146,124.912 z" fill="#F0EFEF"/>
      <path d="M167.146,124.912 L220.146,124.912 L220.146,177.912 L167.146,177.912 L167.146,124.912 z" fill-opacity="0" stroke="#000000" stroke-width="1"/>
    </g>
    <g>
      <path d="M220.146,124.912 L273.146,124.912 L273.146,177.912 L220.146,177.912 L220.146,124.912 z" fill="#F0EFEF"/>
      <path d="M220.146,124.912 L273.146,124.912 L273.146,177.912 L220.146,177.912 L220.146,124.912 z" fill-opacity="0" stroke="#000000" stroke-width="1"/>
    </g>
    <g>
      <path d="M8.146,71.912 L61.146,71.912 L61.146,124.912 L8.146,124.912 L8.146,71.912 z" fill="#F0EFEF"/>
      <path d="M8.146,71.912 L61.146,71.912 L61.146,124.912 L8.146,124.912 L8.146,71.912 z" fill-opacity="0" stroke="#000000" stroke-width="1"/>
    </g>
    <g>
      <path d="M61.146,71.912 L114.146,71.912 L114.146,124.912 L61.146,124.912 L61.146,71.912 z" fill="#F0EFEF"/>
      <path d="M61.146,71.912 L114.146,71.912 L114.146,124.912 L61.146,124.912 L61.146,71.912 z" fill-opacity="0" stroke="#000000" stroke-width="1"/>
    </g>
    <g>
      <path d="M114.146,71.912 L167.146,71.912 L167.146,124.912 L114.146,124.912 L114.146,71.912 z" fill="#F0EFEF"/>
      <path d="M114.146,71.912 L167.146,71.912 L167.146,124.912 L114.146,124.912 L114.146,71.912 z" fill-opacity="0" stroke="#000000" stroke-width="1"/>
    </g>
    <g>
      <path d="M167.146,71.912 L220.146,71.912 L220.146,124.912 L167.146,124.912 L167.146,71.912 z" fill="#F0EFEF"/>
      <path d="M167.146,71.912 L220.146,71.912 L220.146,124.912 L167.146,124.912 L167.146,71.912 z" fill-opacity="0" stroke="#000000" stroke-width="1"/>
    </g>
    <g>
      <path d="M220.146,71.912 L273.146,71.912 L273.146,124.912 L220.146,124.912 L220.146,71.912 z" fill="#F0EFEF"/>
      <path d="M220.146,71.912 L273.146,71.912 L273.146,124.912 L220.146,124.912 L220.146,71.912 z" fill-opacity="0" stroke="#000000" stroke-width="1"/>
    </g>
    <g>
      <path d="M8.146,18.912 L61.146,18.912 L61.146,71.912 L8.146,71.912 L8.146,18.912 z" fill="#F0EFEF"/>
      <path d="M8.146,18.912 L61.146,18.912 L61.146,71.912 L8.146,71.912 L8.146,18.912 z" fill-opacity="0" stroke="#000000" stroke-width="1"/>
    </g>
    <g>
      <path d="M61.146,18.912 L114.146,18.912 L114.146,71.912 L61.146,71.912 L61.146,18.912 z" fill="#F0EFEF"/>
      <path d="M61.146,18.912 L114.146,18.912 L114.146,71.912 L61.146,71.912 L61.146,18.912 z" fill-opacity="0" stroke="#000000" stroke-width="1"/>
    </g>
    <g>
      <path d="M114.146,18.912 L167.146,18.912 L167.146,71.912 L114.146,71.912 L114.146,18.912 z" fill="#F0EFEF"/>
      <path d="M114.146,18.912 L167.146,18.912 L167.146,71.912 L114.146,71.912 L114.146,18.912 z" fill-opacity="0" stroke="#000000" stroke-width="1"/>
    </g>
    <g>
      <path d="M167.146,18.912 L220.146,18.912 L220.146,71.912 L167.146,71.912 L167.146,18.912 z" fill="#F0EFEF"/>
      <path d="M167.146,18.912 L220.146,18.912 L220.146,71.912 L167.146,71.912 L167.146,18.912 z" fill-opacity="0" stroke="#000000" stroke-width="1"/>
    </g>
    <g>
      <path d="M220.146,18.912 L273.146,18.912 L273.146,71.912 L220.146,71.912 L220.146,18.912 z" fill="#F0EFEF"/>
      <path d="M220.146,18.912 L273.146,18.912 L273.146,71.912 L220.146,71.912 L220.146,18.912 z" fill-opacity="0" stroke="#000000" stroke-width="1"/>
    </g>
    <g>
      <path d="M0.5,297.361 L16.03,297.361" fill-opacity="0" stroke="#000000" stroke-width="1" stroke-linecap="round"/>
      <path d="M0.5,297.361 L8.265,283.912" fill-opacity="0" stroke="#000000" stroke-width="1" stroke-linecap="round"/>
      <path d="M16.03,297.361 L8.265,283.912" fill-opacity="0" stroke="#000000" stroke-width="1" stroke-linecap="round"/>
      <path d="M0.5,302.323 L2.248,297.52" fill-opacity="0" stroke="#000000" stroke-width="1" stroke-linecap="round"/>
      <path d="M3.045,302.323 L4.793,297.52" fill-opacity="0" stroke="#000000" stroke-width="1" stroke-linecap="round"/>
      <path d="M5.59,302.323 L7.338,297.52" fill-opacity="0" stroke="#000000" stroke-width="1" stroke-linecap="round"/>
      <path d="M8.135,302.323 L9.884,297.52" fill-opacity="0" stroke="#000000" stroke-width="1" stroke-linecap="round"/>
      <path d="M10.68,302.323 L12.429,297.52" fill-opacity="0" stroke="#000000" stroke-width="1" stroke-linecap="round"/>
      <path d="M13.226,302.323 L14.974,297.52" fill-opacity="0" stroke="#000000" stroke-width="1" stroke-linecap="round"/>
    </g>
    <g>
      <path d="M281.058,5.463 L265.529,5.463" fill-opacity="0" stroke="#000000" stroke-width="1" stroke-linecap="round"/>
      <path d="M281.058,5.463 L273.293,18.912" fill-opacity="0" stroke="#000000" stroke-width="1" stroke-linecap="round"/>
      <path d="M265.529,5.463 L273.293,18.912" fill-opacity="0" stroke="#000000" stroke-width="1" stroke-linecap="round"/>
      <g>
        <path d="M277.176,0.925 C278.429,0.925 279.445,1.941 279.445,3.194 C279.445,4.447 278.429,5.463 277.176,5.463 C275.923,5.463 274.907,4.447 274.907,3.194 C274.907,1.941 275.923,0.925 277.176,0.925 z" fill-opacity="0" stroke="#000000" stroke-width="1"/>
        <path d="M269.411,0.925 C270.664,0.925 271.68,1.941 271.68,3.194 C271.68,4.447 270.664,5.463 269.411,5.463 C268.158,5.463 267.142,4.447 267.142,3.194 C267.142,1.941 268.158,0.925 269.411,0.925 z" fill-opacity="0" stroke="#000000" stroke-width="1"/>
      </g>
      <path d="M281.058,0.5 L265.529,0.5" fill-opacity="0" stroke="#000000" stroke-width="1" stroke-linecap="round"/>
    </g>
    <g>
      <path d="M227.886,5.463 L212.356,5.463" fill-opacity="0" stroke="#000000" stroke-width="1" stroke-linecap="round"/>
      <path d="M227.886,5.463 L220.121,18.912" fill-opacity="0" stroke="#000000" stroke-width="1" stroke-linecap="round"/>
      <path d="M212.356,5.463 L220.121,18.912" fill-opacity="0" stroke="#000000" stroke-width="1" stroke-linecap="round"/>
      <g>
        <path d="M224.003,0.925 C225.256,0.925 226.272,1.941 226.272,3.194 C226.272,4.447 225.256,5.463 224.003,5.463 C222.75,5.463 221.735,4.447 221.735,3.194 C221.735,1.941 222.75,0.925 224.003,0.925 z" fill-opacity="0" stroke="#000000" stroke-width="1"/>
        <path d="M216.239,0.925 C217.492,0.925 218.507,1.941 218.507,3.194 C218.507,4.447 217.492,5.463 216.239,5.463 C214.986,5.463 213.97,4.447 213.97,3.194 C213.97,1.941 214.986,0.925 216.239,0.925 z" fill-opacity="0" stroke="#000000" stroke-width="1"/>
      </g>
      <path d="M227.886,0.5 L212.356,0.5" fill-opacity="0" stroke="#000000" stroke-width="1" stroke-linecap="round"/>
    </g>
    <g>
      <path d="M175.022,5.463 L159.492,5.463" fill-opacity="0" stroke="#000000" stroke-width="1" stroke-linecap="round"/>
      <path d="M175.022,5.463 L167.257,18.912" fill-opacity="0" stroke="#000000" stroke-width="1" stroke-linecap="round"/>
      <path d="M159.492,5.463 L167.257,18.912" fill-opacity="0" stroke="#000000" stroke-width="1" stroke-linecap="round"/>
      <g>
        <path d="M171.139,0.925 C172.392,0.925 173.408,1.941 173.408,3.194 C173.408,4.447 172.392,5.463 171.139,5.463 C169.886,5.463 168.87,4.447 168.87,3.194 C168.87,1.941 169.886,0.925 171.139,0.925 z" fill-opacity="0" stroke="#000000" stroke-width="1"/>
        <path d="M163.374,0.925 C164.627,0.925 165.643,1.941 165.643,3.194 C165.643,4.447 164.627,5.463 163.374,5.463 C162.121,5.463 161.106,4.447 161.106,3.194 C161.106,1.941 162.121,0.925 163.374,0.925 z" fill-opacity="0" stroke="#000000" stroke-width="1"/>
      </g>
      <path d="M175.022,0.5 L159.492,0.5" fill-opacity="0" stroke="#000000" stroke-width="1" stroke-linecap="round"/>
    </g>
    <g>
      <path d="M121.921,5.463 L106.392,5.463" fill-opacity="0" stroke="#000000" stroke-width="1" stroke-linecap="round"/>
      <path d="M121.921,5.463 L114.157,18.912" fill-opacity="0" stroke="#000000" stroke-width="1" stroke-linecap="round"/>
      <path d="M106.392,5.463 L114.157,18.912" fill-opacity="0" stroke="#000000" stroke-width="1" stroke-linecap="round"/>
      <g>
        <path d="M118.039,0.925 C119.292,0.925 120.308,1.941 120.308,3.194 C120.308,4.447 119.292,5.463 118.039,5.463 C116.786,5.463 115.77,4.447 115.77,3.194 C115.77,1.941 116.786,0.925 118.039,0.925 z" fill-opacity="0" stroke="#000000" stroke-width="1"/>
        <path d="M110.274,0.925 C111.527,0.925 112.543,1.941 112.543,3.194 C112.543,4.447 111.527,5.463 110.274,5.463 C109.021,5.463 108.005,4.447 108.005,3.194 C108.005,1.941 109.021,0.925 110.274,0.925 z" fill-opacity="0" stroke="#000000" stroke-width="1"/>
      </g>
      <path d="M121.921,0.5 L106.392,0.5" fill-opacity="0" stroke="#000000" stroke-width="1" stroke-linecap="round"/>
    </g>
    <g>
      <path d="M68.894,5.463 L53.364,5.463" fill-opacity="0" stroke="#000000" stroke-width="1" stroke-linecap="round"/>
      <path d="M68.894,5.463 L61.129,18.912" fill-opacity="0" stroke="#000000" stroke-width="1" stroke-linecap="round"/>
      <path d="M53.364,5.463 L61.129,18.912" fill-opacity="0" stroke="#000000" stroke-width="1" stroke-linecap="round"/>
      <g>
        <path d="M65.011,0.925 C66.264,0.925 67.28,1.941 67.28,3.194 C67.28,4.447 66.264,5.463 65.011,5.463 C63.758,5.463 62.743,4.447 62.743,3.194 C62.743,1.941 63.758,0.925 65.011,0.925 z" fill-opacity="0" stroke="#000000" stroke-width="1"/>
        <path d="M57.247,0.925 C58.5,0.925 59.515,1.941 59.515,3.194 C59.515,4.447 58.5,5.463 57.247,5.463 C55.994,5.463 54.978,4.447 54.978,3.194 C54.978,1.941 55.994,0.925 57.247,0.925 z" fill-opacity="0" stroke="#000000" stroke-width="1"/>
      </g>
      <path d="M68.894,0.5 L53.364,0.5" fill-opacity="0" stroke="#000000" stroke-width="1" stroke-linecap="round"/>
    </g>
    <g>
      <path d="M16.03,5.463 L0.5,5.463" fill-opacity="0" stroke="#000000" stroke-width="1" stroke-linecap="round"/>
      <path d="M16.03,5.463 L8.265,18.912" fill-opacity="0" stroke="#000000" stroke-width="1" stroke-linecap="round"/>
      <path d="M0.5,5.463 L8.265,18.912" fill-opacity="0" stroke="#000000" stroke-width="1" stroke-linecap="round"/>
      <g>
        <path d="M12.147,0.925 C13.4,0.925 14.416,1.941 14.416,3.194 C14.416,4.447 13.4,5.463 12.147,5.463 C10.894,5.463 9.878,4.447 9.878,3.194 C9.878,1.941 10.894,0.925 12.147,0.925 z" fill-opacity="0" stroke="#000000" stroke-width="1"/>
        <path d="M4.382,0.925 C5.635,0.925 6.651,1.941 6.651,3.194 C6.651,4.447 5.635,5.463 4.382,5.463 C3.129,5.463 2.114,4.447 2.114,3.194 C2.114,1.941 3.129,0.925 4.382,0.925 z" fill-opacity="0" stroke="#000000" stroke-width="1"/>
      </g>
      <path d="M16.03,0.5 L0.5,0.5" fill-opacity="0" stroke="#000000" stroke-width="1" stroke-linecap="round"/>
    </g>
    <g>
      <path d="M53.364,297.361 L68.894,297.361" fill-opacity="0" stroke="#000000" stroke-width="1" stroke-linecap="round"/>
      <path d="M53.364,297.361 L61.129,283.912" fill-opacity="0" stroke="#000000" stroke-width="1" stroke-linecap="round"/>
      <path d="M68.894,297.361 L61.129,283.912" fill-opacity="0" stroke="#000000" stroke-width="1" stroke-linecap="round"/>
      <path d="M53.364,302.323 L55.112,297.52" fill-opacity="0" stroke="#000000" stroke-width="1" stroke-linecap="round"/>
      <path d="M55.909,302.323 L57.657,297.52" fill-opacity="0" stroke="#000000" stroke-width="1" stroke-linecap="round"/>
      <path d="M58.454,302.323 L60.203,297.52" fill-opacity="0" stroke="#000000" stroke-width="1" stroke-linecap="round"/>
      <path d="M60.999,302.323 L62.748,297.52" fill-opacity="0" stroke="#000000" stroke-width="1" stroke-linecap="round"/>
      <path d="M63.545,302.323 L65.293,297.52" fill-opacity="0" stroke="#000000" stroke-width="1" stroke-linecap="round"/>
      <path d="M66.09,302.323 L67.838,297.52" fill-opacity="0" stroke="#000000" stroke-width="1" stroke-linecap="round"/>
    </g>
    <g>
      <path d="M106.392,297.361 L121.921,297.361" fill-opacity="0" stroke="#000000" stroke-width="1" stroke-linecap="round"/>
      <path d="M106.392,297.361 L114.157,283.912" fill-opacity="0" stroke="#000000" stroke-width="1" stroke-linecap="round"/>
      <path d="M121.921,297.361 L114.157,283.912" fill-opacity="0" stroke="#000000" stroke-width="1" stroke-linecap="round"/>
      <path d="M106.392,302.323 L108.14,297.52" fill-opacity="0" stroke="#000000" stroke-width="1" stroke-linecap="round"/>
      <path d="M108.937,302.323 L110.685,297.52" fill-opacity="0" stroke="#000000" stroke-width="1" stroke-linecap="round"/>
      <path d="M111.482,302.323 L113.23,297.52" fill-opacity="0" stroke="#000000" stroke-width="1" stroke-linecap="round"/>
      <path d="M114.027,302.323 L115.775,297.52" fill-opacity="0" stroke="#000000" stroke-width="1" stroke-linecap="round"/>
      <path d="M116.572,302.323 L118.321,297.52" fill-opacity="0" stroke="#000000" stroke-width="1" stroke-linecap="round"/>
      <path d="M119.117,302.323 L120.866,297.52" fill-opacity="0" stroke="#000000" stroke-width="1" stroke-linecap="round"/>
    </g>
    <g>
      <path d="M159.492,297.361 L175.022,297.361" fill-opacity="0" stroke="#000000" stroke-width="1" stroke-linecap="round"/>
      <path d="M159.492,297.361 L167.257,283.912" fill-opacity="0" stroke="#000000" stroke-width="1" stroke-linecap="round"/>
      <path d="M175.022,297.361 L167.257,283.912" fill-opacity="0" stroke="#000000" stroke-width="1" stroke-linecap="round"/>
      <path d="M159.492,302.323 L161.24,297.52" fill-opacity="0" stroke="#000000" stroke-width="1" stroke-linecap="round"/>
      <path d="M162.037,302.323 L163.785,297.52" fill-opacity="0" stroke="#000000" stroke-width="1" stroke-linecap="round"/>
      <path d="M164.582,302.323 L166.331,297.52" fill-opacity="0" stroke="#000000" stroke-width="1" stroke-linecap="round"/>
      <path d="M167.127,302.323 L168.876,297.52" fill-opacity="0" stroke="#000000" stroke-width="1" stroke-linecap="round"/>
      <path d="M169.673,302.323 L171.421,297.52" fill-opacity="0" stroke="#000000" stroke-width="1" stroke-linecap="round"/>
      <path d="M172.218,302.323 L173.966,297.52" fill-opacity="0" stroke="#000000" stroke-width="1" stroke-linecap="round"/>
    </g>
    <g>
      <path d="M212.356,297.361 L227.886,297.361" fill-opacity="0" stroke="#000000" stroke-width="1" stroke-linecap="round"/>
      <path d="M212.356,297.361 L220.121,283.912" fill-opacity="0" stroke="#000000" stroke-width="1" stroke-linecap="round"/>
      <path d="M227.886,297.361 L220.121,283.912" fill-opacity="0" stroke="#000000" stroke-width="1" stroke-linecap="round"/>
      <path d="M212.356,302.323 L214.105,297.52" fill-opacity="0" stroke="#000000" stroke-width="1" stroke-linecap="round"/>
      <path d="M214.901,302.323 L216.65,297.52" fill-opacity="0" stroke="#000000" stroke-width="1" stroke-linecap="round"/>
      <path d="M217.447,302.323 L219.195,297.52" fill-opacity="0" stroke="#000000" stroke-width="1" stroke-linecap="round"/>
      <path d="M219.992,302.323 L221.74,297.52" fill-opacity="0" stroke="#000000" stroke-width="1" stroke-linecap="round"/>
      <path d="M222.537,302.323 L224.285,297.52" fill-opacity="0" stroke="#000000" stroke-width="1" stroke-linecap="round"/>
      <path d="M225.082,302.323 L226.83,297.52" fill-opacity="0" stroke="#000000" stroke-width="1" stroke-linecap="round"/>
    </g>
    <g>
      <path d="M265.529,297.361 L281.058,297.361" fill-opacity="0" stroke="#000000" stroke-width="1" stroke-linecap="round"/>
      <path d="M265.529,297.361 L273.293,283.912" fill-opacity="0" stroke="#000000" stroke-width="1" stroke-linecap="round"/>
      <path d="M281.058,297.361 L273.293,283.912" fill-opacity="0" stroke="#000000" stroke-width="1" stroke-linecap="round"/>
      <path d="M265.529,302.323 L267.277,297.52" fill-opacity="0" stroke="#000000" stroke-width="1" stroke-linecap="round"/>
      <path d="M268.074,302.323 L269.822,297.52" fill-opacity="0" stroke="#000000" stroke-width="1" stroke-linecap="round"/>
      <path d="M270.619,302.323 L272.367,297.52" fill-opacity="0" stroke="#000000" stroke-width="1" stroke-linecap="round"/>
      <path d="M273.164,302.323 L274.912,297.52" fill-opacity="0" stroke="#000000" stroke-width="1" stroke-linecap="round"/>
      <path d="M275.709,302.323 L277.457,297.52" fill-opacity="0" stroke="#000000" stroke-width="1" stroke-linecap="round"/>
      <path d="M278.254,302.323 L280.002,297.52" fill-opacity="0" stroke="#000000" stroke-width="1" stroke-linecap="round"/>
    </g>
    <path d="M8.265,18.912 L8.265,283.912" fill-opacity="0" stroke="#CF0202" stroke-width="3"/>
    <path d="M273.146,18.912 L273.146,283.912" fill-opacity="0" stroke="#CF0202" stroke-width="3" stroke-dasharray="9,6"/>
  </g>
</svg>
