<?xml version="1.0" encoding="UTF-8" standalone="no"?>
<!-- Created with Inkscape (http://www.inkscape.org/) -->

<svg
   xmlns:dc="http://purl.org/dc/elements/1.1/"
   xmlns:cc="http://creativecommons.org/ns#"
   xmlns:rdf="http://www.w3.org/1999/02/22-rdf-syntax-ns#"
   xmlns:svg="http://www.w3.org/2000/svg"
   xmlns="http://www.w3.org/2000/svg"
   xmlns:sodipodi="http://sodipodi.sourceforge.net/DTD/sodipodi-0.dtd"
   xmlns:inkscape="http://www.inkscape.org/namespaces/inkscape"
   width="127.31857mm"
   height="76.417915mm"
   viewBox="0 0 451.12877 270.77214"
   id="svg2"
   version="1.1"
   inkscape:version="0.91 r13725"
   sodipodi:docname="naming_convention.svg">
  <defs
     id="defs4">
    <marker
       inkscape:isstock="true"
       style="overflow:visible"
       id="marker5985"
       refX="0"
       refY="0"
       orient="auto"
       inkscape:stockid="Arrow1Lend">
      <path
         transform="matrix(-0.8,0,0,-0.8,-10,0)"
         style="fill:#000000;fill-opacity:1;fill-rule:evenodd;stroke:#000000;stroke-width:1pt;stroke-opacity:1"
         d="M 0,0 5,-5 -12.5,0 5,5 0,0 Z"
         id="path5987"
         inkscape:connector-curvature="0" />
    </marker>
    <marker
       inkscape:isstock="true"
       style="overflow:visible"
       id="marker5945"
       refX="0"
       refY="0"
       orient="auto"
       inkscape:stockid="Arrow1Lend">
      <path
         transform="matrix(-0.8,0,0,-0.8,-10,0)"
         style="fill:#000000;fill-opacity:1;fill-rule:evenodd;stroke:#000000;stroke-width:1pt;stroke-opacity:1"
         d="M 0,0 5,-5 -12.5,0 5,5 0,0 Z"
         id="path5947"
         inkscape:connector-curvature="0" />
    </marker>
    <marker
       inkscape:stockid="Arrow1Lend"
       orient="auto"
       refY="0"
       refX="0"
       id="Arrow1Lend"
       style="overflow:visible"
       inkscape:isstock="true">
      <path
         id="path4336"
         d="M 0,0 5,-5 -12.5,0 5,5 0,0 Z"
         style="fill:#005d1c;fill-opacity:1;fill-rule:evenodd;stroke:#005d1c;stroke-width:1pt;stroke-opacity:1"
         transform="matrix(-0.8,0,0,-0.8,-10,0)"
         inkscape:connector-curvature="0" />
    </marker>
    <marker
       inkscape:stockid="Arrow1Lend"
       orient="auto"
       refY="0"
       refX="0"
       id="Arrow1Lend-1"
       style="overflow:visible"
       inkscape:isstock="true">
      <path
         inkscape:connector-curvature="0"
         id="path4336-6"
         d="M 0,0 5,-5 -12.5,0 5,5 0,0 Z"
         style="fill:#0021ad;fill-opacity:1;fill-rule:evenodd;stroke:#0021ad;stroke-width:1pt;stroke-opacity:1"
         transform="matrix(-0.8,0,0,-0.8,-10,0)" />
    </marker>
    <marker
       inkscape:stockid="Arrow1Lend"
       orient="auto"
       refY="0"
       refX="0"
       id="Arrow1Lend-1-2"
       style="overflow:visible"
       inkscape:isstock="true">
      <path
         inkscape:connector-curvature="0"
         id="path4336-6-8"
         d="M 0,0 5,-5 -12.5,0 5,5 0,0 Z"
         style="fill:#b00000;fill-opacity:1;fill-rule:evenodd;stroke:#b00000;stroke-width:1pt;stroke-opacity:1"
         transform="matrix(-0.8,0,0,-0.8,-10,0)" />
    </marker>
  </defs>
  <sodipodi:namedview
     id="base"
     pagecolor="#ffffff"
     bordercolor="#666666"
     borderopacity="1.0"
     inkscape:pageopacity="0.0"
     inkscape:pageshadow="2"
     inkscape:zoom="0.98994949"
     inkscape:cx="197.43482"
     inkscape:cy="81.435931"
     inkscape:document-units="px"
     inkscape:current-layer="layer1"
     showgrid="false"
     inkscape:snap-bbox="true"
     inkscape:object-paths="true"
     inkscape:snap-intersection-paths="true"
     inkscape:object-nodes="true"
     inkscape:snap-smooth-nodes="true"
     fit-margin-top="0"
     fit-margin-left="0"
     fit-margin-right="0"
     fit-margin-bottom="0"
     inkscape:window-width="1440"
     inkscape:window-height="856"
     inkscape:window-x="0"
     inkscape:window-y="0"
     inkscape:window-maximized="1"
     showguides="true"
     inkscape:guide-bbox="true">
    <sodipodi:guide
       position="176.17237,29.370709"
       orientation="0,1"
       id="guide6095" />
  </sodipodi:namedview>
  <metadata
     id="metadata7">
    <rdf:RDF>
      <cc:Work
         rdf:about="">
        <dc:format>image/svg+xml</dc:format>
        <dc:type
           rdf:resource="http://purl.org/dc/dcmitype/StillImage" />
        <dc:title />
      </cc:Work>
    </rdf:RDF>
  </metadata>
  <g
     inkscape:label="Layer 1"
     inkscape:groupmode="layer"
     id="layer1"
     transform="translate(53.315247,-336.67508)">
    <g
       transform="translate(-177.85814,-53.497475)"
       style="font-style:normal;font-weight:normal;font-size:22.5px;line-height:125%;font-family:sans-serif;letter-spacing:0px;word-spacing:0px;fill:#b00000;fill-opacity:1;stroke:none;stroke-width:1px;stroke-linecap:butt;stroke-linejoin:miter;stroke-opacity:1"
       id="flowRoot4247">
      <path
         d="m 376.62915,654.48472 q 0,-2.23023 -0.92285,-3.49365 -0.91187,-1.27442 -2.51587,-1.27442 -1.604,0 -2.52686,1.27442 -0.91186,1.26342 -0.91186,3.49365 0,2.23022 0.91186,3.50464 0.92286,1.26342 2.52686,1.26342 1.604,0 2.51587,-1.26342 0.92285,-1.27442 0.92285,-3.50464 z m -6.87744,-4.29566 q 0.63721,-1.09863 1.604,-1.62597 0.97779,-0.53833 2.3291,-0.53833 2.24122,0 3.63648,1.77978 1.40625,1.77979 1.40625,4.68018 0,2.90039 -1.40625,4.68017 -1.39526,1.77979 -3.63648,1.77979 -1.35131,0 -2.3291,-0.52735 -0.96679,-0.53833 -1.604,-1.63696 l 0,1.8457 -2.03247,0 0,-17.09472 2.03247,0 0,6.65771 z"
         style=""
         id="path4203" />
      <path
         d="m 386.84644,649.73862 q -1.62598,0 -2.57081,1.27442 -0.94482,1.26343 -0.94482,3.47168 0,2.20825 0.93384,3.48266 0.94482,1.26343 2.58179,1.26343 1.61499,0 2.55981,-1.27441 0.94482,-1.27442 0.94482,-3.47168 0,-2.18628 -0.94482,-3.4607 -0.94482,-1.2854 -2.55981,-1.2854 z m 0,-1.71386 q 2.63671,0 4.14184,1.71386 1.50513,1.71387 1.50513,4.7461 0,3.02124 -1.50513,4.74609 -1.50513,1.71387 -4.14184,1.71387 -2.64771,0 -4.15284,-1.71387 -1.49414,-1.72485 -1.49414,-4.74609 0,-3.03223 1.49414,-4.7461 1.50513,-1.71386 4.15284,-1.71386 z"
         style=""
         id="path4205" />
      <path
         d="m 397.83276,644.82774 0,3.49365 4.16382,0 0,1.57104 -4.16382,0 0,6.67969 q 0,1.50513 0.4065,1.93359 0.41748,0.42847 1.68091,0.42847 l 2.07641,0 0,1.69189 -2.07641,0 q -2.34009,0 -3.22998,-0.86792 -0.8899,-0.8789 -0.8899,-3.18603 l 0,-6.67969 -1.48315,0 0,-1.57104 1.48315,0 0,-3.49365 2.03247,0 z"
         style=""
         id="path4207" />
      <path
         d="m 406.66577,644.82774 0,3.49365 4.16382,0 0,1.57104 -4.16382,0 0,6.67969 q 0,1.50513 0.4065,1.93359 0.41748,0.42847 1.6809,0.42847 l 2.07642,0 0,1.69189 -2.07642,0 q -2.34008,0 -3.22998,-0.86792 -0.88989,-0.8789 -0.88989,-3.18603 l 0,-6.67969 -1.48315,0 0,-1.57104 1.48315,0 0,-3.49365 2.03247,0 z"
         style=""
         id="path4209" />
      <path
         d="m 418.26733,649.73862 q -1.62597,0 -2.5708,1.27442 -0.94482,1.26343 -0.94482,3.47168 0,2.20825 0.93384,3.48266 0.94482,1.26343 2.58178,1.26343 1.61499,0 2.55982,-1.27441 0.94482,-1.27442 0.94482,-3.47168 0,-2.18628 -0.94482,-3.4607 -0.94483,-1.2854 -2.55982,-1.2854 z m 0,-1.71386 q 2.63672,0 4.14185,1.71386 1.50513,1.71387 1.50513,4.7461 0,3.02124 -1.50513,4.74609 -1.50513,1.71387 -4.14185,1.71387 -2.6477,0 -4.15283,-1.71387 -1.49414,-1.72485 -1.49414,-4.74609 0,-3.03223 1.49414,-4.7461 1.50513,-1.71386 4.15283,-1.71386 z"
         style=""
         id="path4211" />
      <path
         d="m 436.83423,650.68345 q 0.75806,-1.36231 1.81274,-2.0105 1.05469,-0.64819 2.48291,-0.64819 1.92261,0 2.96631,1.35131 1.0437,1.34034 1.0437,3.82325 l 0,7.42675 -2.03247,0 0,-7.36083 q 0,-1.7688 -0.62622,-2.62574 -0.62622,-0.85693 -1.91162,-0.85693 -1.57104,0 -2.48291,1.0437 -0.91187,1.0437 -0.91187,2.84546 l 0,6.95434 -2.03247,0 0,-7.36083 q 0,-1.77979 -0.62622,-2.62574 -0.62622,-0.85693 -1.93359,-0.85693 -1.54907,0 -2.46094,1.05469 -0.91186,1.0437 -0.91186,2.83447 l 0,6.95434 -2.03247,0 0,-12.30468 2.03247,0 0,1.91162 q 0.69214,-1.13159 1.65893,-1.66992 0.9668,-0.53833 2.29614,-0.53833 1.34034,0 2.27417,0.68115 0.94483,0.68115 1.39527,1.97754 z"
         style=""
         id="path4213" />
    </g>
    <g
       style="font-style:normal;font-weight:normal;font-size:22.5px;line-height:125%;font-family:sans-serif;letter-spacing:0px;word-spacing:0px;fill:#005d1c;fill-opacity:1;stroke:none;stroke-width:1px;stroke-linecap:butt;stroke-linejoin:miter;stroke-opacity:1"
       id="text4255">
      <path
         d="m 354.70319,468.15445 q -0.34058,-0.19775 -0.74707,-0.28565 -0.39551,-0.0989 -0.87891,-0.0989 -1.71387,0 -2.63672,1.1206 -0.91186,1.10962 -0.91186,3.19702 l 0,6.48194 -2.03248,0 0,-12.30469 2.03248,0 0,1.91162 q 0.6372,-1.1206 1.65893,-1.65893 1.02173,-0.54932 2.48291,-0.54932 0.20874,0 0.46143,0.033 0.25268,0.022 0.5603,0.0769 l 0.011,2.07642 z"
         style=""
         id="path4216" />
      <path
         d="m 356.84552,466.2648 2.02148,0 0,12.30469 -2.02148,0 0,-12.30469 z m 0,-4.79004 2.02148,0 0,2.55982 -2.02148,0 0,-2.55982 z"
         style=""
         id="path4218" />
      <path
         d="m 371.18268,472.27432 q 0,-2.19726 -0.91187,-3.40576 -0.90088,-1.2085 -2.53784,-1.2085 -1.62598,0 -2.53784,1.2085 -0.90088,1.2085 -0.90088,3.40576 0,2.18628 0.90088,3.39478 0.91186,1.20849 2.53784,1.20849 1.63696,0 2.53784,-1.20849 0.91187,-1.2085 0.91187,-3.39478 z m 2.02148,4.76807 q 0,3.14209 -1.39526,4.66919 -1.39526,1.53808 -4.27368,1.53808 -1.06568,0 -2.0105,-0.16479 -0.94482,-0.15381 -1.83472,-0.4834 l 0,-1.96655 q 0.8899,0.4834 1.75781,0.71411 0.86792,0.23071 1.7688,0.23071 1.98853,0 2.9773,-1.0437 0.98877,-1.03271 0.98877,-3.1311 l 0,-0.99976 q -0.62622,1.08765 -1.60401,1.62598 -0.97778,0.53833 -2.34008,0.53833 -2.26319,0 -3.64746,-1.72485 -1.38428,-1.72486 -1.38428,-4.57032 0,-2.85644 1.38428,-4.5813 1.38427,-1.72485 3.64746,-1.72485 1.3623,0 2.34008,0.53833 0.97779,0.53833 1.60401,1.62598 l 0,-1.86768 2.02148,0 0,10.77759 z"
         style=""
         id="path4220" />
      <path
         d="m 387.59625,471.14273 0,7.42676 -2.02148,0 0,-7.36084 q 0,-1.74683 -0.68115,-2.61475 -0.68116,-0.86792 -2.04346,-0.86792 -1.63696,0 -2.58179,1.0437 -0.94482,1.04371 -0.94482,2.84546 l 0,6.95435 -2.03247,0 0,-17.09473 2.03247,0 0,6.70166 q 0.7251,-1.10962 1.70288,-1.65893 0.98877,-0.54932 2.27417,-0.54932 2.12036,0 3.20801,1.31836 1.08764,1.30737 1.08764,3.8562 z"
         style=""
         id="path4222" />
      <path
         d="m 393.64972,462.77115 0,3.49365 4.16382,0 0,1.57105 -4.16382,0 0,6.67968 q 0,1.50513 0.40649,1.9336 0.41748,0.42846 1.68091,0.42846 l 2.07642,0 0,1.6919 -2.07642,0 q -2.34009,0 -3.22998,-0.86792 -0.88989,-0.87891 -0.88989,-3.18604 l 0,-6.67968 -1.48316,0 0,-1.57105 1.48316,0 0,-3.49365 2.03247,0 z"
         style=""
         id="path4224" />
    </g>
    <g
       transform="translate(-155.2263,-308.15266)"
       style="font-style:normal;font-weight:normal;font-size:22.5px;line-height:125%;font-family:sans-serif;letter-spacing:0px;word-spacing:0px;fill:#b00000;fill-opacity:1;stroke:none;stroke-width:1px;stroke-linecap:butt;stroke-linejoin:miter;stroke-opacity:1"
       id="flowRoot4247-7">
      <path
         d="m 369.79565,644.82774 0,3.49365 4.16382,0 0,1.57104 -4.16382,0 0,6.67969 q 0,1.50513 0.4065,1.93359 0.41748,0.42847 1.68091,0.42847 l 2.07641,0 0,1.69189 -2.07641,0 q -2.34009,0 -3.22998,-0.86792 -0.8899,-0.8789 -0.8899,-3.18603 l 0,-6.67969 -1.48315,0 0,-1.57104 1.48315,0 0,-3.49365 2.03247,0 z"
         style=""
         id="path4227" />
      <path
         d="m 381.39722,649.73862 q -1.62598,0 -2.5708,1.27442 -0.94483,1.26343 -0.94483,3.47168 0,2.20825 0.93384,3.48266 0.94482,1.26343 2.58179,1.26343 1.61499,0 2.55981,-1.27441 0.94483,-1.27442 0.94483,-3.47168 0,-2.18628 -0.94483,-3.4607 -0.94482,-1.2854 -2.55981,-1.2854 z m 0,-1.71386 q 2.63672,0 4.14184,1.71386 1.50513,1.71387 1.50513,4.7461 0,3.02124 -1.50513,4.74609 -1.50512,1.71387 -4.14184,1.71387 -2.64771,0 -4.15284,-1.71387 -1.49414,-1.72485 -1.49414,-4.74609 0,-3.03223 1.49414,-4.7461 1.50513,-1.71386 4.15284,-1.71386 z"
         style=""
         id="path4229" />
      <path
         d="m 392.3396,658.78037 0,6.52588 -2.03247,0 0,-16.98486 2.03247,0 0,1.86767 q 0.63721,-1.09863 1.604,-1.62597 0.97779,-0.53833 2.32911,-0.53833 2.24121,0 3.63647,1.77978 1.40625,1.77979 1.40625,4.68018 0,2.90039 -1.40625,4.68017 -1.39526,1.77979 -3.63647,1.77979 -1.35132,0 -2.32911,-0.52735 -0.96679,-0.53833 -1.604,-1.63696 z m 6.87744,-4.29565 q 0,-2.23023 -0.92285,-3.49365 -0.91187,-1.27442 -2.51587,-1.27442 -1.604,0 -2.52686,1.27442 -0.91186,1.26342 -0.91186,3.49365 0,2.23022 0.91186,3.50464 0.92286,1.26342 2.52686,1.26342 1.604,0 2.51587,-1.26342 0.92285,-1.27442 0.92285,-3.50464 z"
         style=""
         id="path4231" />
    </g>
    <g
       style="font-style:normal;font-weight:normal;font-size:22.5px;line-height:125%;font-family:sans-serif;letter-spacing:0px;word-spacing:0px;fill:#005d1c;fill-opacity:1;stroke:none;stroke-width:1px;stroke-linecap:butt;stroke-linejoin:miter;stroke-opacity:1"
       id="text4255-2">
      <path
         d="m 78.74057,463.65555 2.021484,0 0,17.09472 -2.021484,0 0,-17.09472 z"
         style=""
         id="path4234" />
      <path
         d="m 95.505707,474.09256 0,0.98877 -9.294434,0 q 0.131836,2.0874 1.252442,3.18603 1.131591,1.08765 3.142089,1.08765 1.164551,0 2.252198,-0.28564 1.098633,-0.28565 2.175293,-0.85694 l 0,1.91162 q -1.087647,0.46143 -2.230225,0.70313 -1.142578,0.2417 -2.318115,0.2417 -2.944336,0 -4.66919,-1.71387 -1.713867,-1.71387 -1.713867,-4.63623 0,-3.02124 1.625977,-4.79004 1.636963,-1.77978 4.405517,-1.77978 2.48291,0 3.922119,1.604 1.450196,1.59302 1.450196,4.3396 z m -2.021485,-0.59326 q -0.02197,-1.65894 -0.933837,-2.64771 -0.900879,-0.98877 -2.39502,-0.98877 -1.691895,0 -2.713623,0.95581 -1.010742,0.95581 -1.164551,2.69165 l 7.207031,-0.011 z"
         style=""
         id="path4236" />
      <path
         d="m 105.00888,463.65555 0,1.68091 -1.93359,0 q -1.08765,0 -1.51612,0.43945 -0.41748,0.43945 -0.41748,1.58203 l 0,1.08765 3.32886,0 0,1.57104 -3.32886,0 0,10.73364 -2.032468,0 0,-10.73364 -1.933593,0 0,-1.57104 1.933593,0 0,-0.85694 q 0,-2.05444 0.955808,-2.98828 0.95581,-0.94482 3.03223,-0.94482 l 1.91162,0 z"
         style=""
         id="path4238" />
      <path
         d="m 108.35971,464.95193 0,3.49366 4.16382,0 0,1.57104 -4.16382,0 0,6.67969 q 0,1.50513 0.40649,1.93359 0.41749,0.42847 1.68091,0.42847 l 2.07642,0 0,1.69189 -2.07642,0 q -2.34008,0 -3.22998,-0.86792 -0.88989,-0.8789 -0.88989,-3.18603 l 0,-6.67969 -1.48315,0 0,-1.57104 1.48315,0 0,-3.49366 2.03247,0 z"
         style=""
         id="path4240" />
    </g>
    <path
       style="fill:none;fill-rule:evenodd;stroke:#000000;stroke-width:1px;stroke-linecap:butt;stroke-linejoin:miter;stroke-opacity:1;marker-end:url(#marker5985)"
       d="m -31.6962,578.07649 0,-59.56332"
       id="path5888"
       inkscape:connector-curvature="0"
       sodipodi:nodetypes="cc" />
    <path
       style="fill:none;fill-rule:evenodd;stroke:#000000;stroke-width:1px;stroke-linecap:butt;stroke-linejoin:miter;stroke-opacity:1;marker-end:url(#marker5945)"
       d="m -31.6962,578.07649 59.563321,0"
       id="path5888-2"
       inkscape:connector-curvature="0"
       sodipodi:nodetypes="cc" />
    <g
       style="font-style:normal;font-weight:normal;font-size:22.5px;line-height:125%;font-family:sans-serif;letter-spacing:0px;word-spacing:0px;fill:#000000;fill-opacity:1;stroke:none;stroke-width:1px;stroke-linecap:butt;stroke-linejoin:miter;stroke-opacity:1"
       id="text6055">
      <path
         d="m 40.948349,555.70593 -5.646973,6.0315 3.460694,6.27319 -2.318116,0 -2.603759,-4.87793 -4.526367,4.87793 -2.449952,0 6.053467,-6.48193 -3.218994,-5.82276 2.318115,0 2.362061,4.44947 4.119873,-4.44947 2.449951,0 z"
         style="font-style:italic"
         id="path4200" />
    </g>
    <g
       style="font-style:normal;font-weight:normal;font-size:22.5px;line-height:125%;font-family:sans-serif;letter-spacing:0px;word-spacing:0px;fill:#000000;fill-opacity:1;stroke:none;stroke-width:1px;stroke-linecap:butt;stroke-linejoin:miter;stroke-opacity:1"
       id="text6055-2">
      <path
         d="m -47.173889,517.72687 q -1.40625,2.36206 -2.296143,2.94433 -0.878906,0.59327 -2.252197,0.59327 l -1.593018,0 0.340577,-1.6919 1.16455,0 q 0.845948,0 1.439209,-0.46142 0.593262,-0.46143 1.329346,-1.80176 l 0.626221,-1.17554 -2.72461,-11.85425 2.142334,0 2.043457,9.42627 5.646973,-9.42627 2.120361,0 -7.98706,13.44727 z"
         style="font-style:italic"
         id="path4197" />
    </g>
    <path
       style="fill:none;fill-rule:evenodd;stroke:#b00000;stroke-width:1px;stroke-linecap:butt;stroke-linejoin:miter;stroke-opacity:1"
       d="m 122.85714,578.07649 211.42857,0"
       id="path6186"
       inkscape:connector-curvature="0" />
    <path
       style="fill:none;fill-rule:evenodd;stroke:#b00000;stroke-width:1px;stroke-linecap:butt;stroke-linejoin:miter;stroke-opacity:1"
       d="m 122.85714,366.64792 211.42857,0"
       id="path6188"
       inkscape:connector-curvature="0" />
    <path
       style="fill:none;fill-rule:evenodd;stroke:#005d1c;stroke-width:1px;stroke-linecap:butt;stroke-linejoin:miter;stroke-opacity:1"
       d="m 122.85714,578.07649 0,-211.42857"
       id="path6190"
       inkscape:connector-curvature="0" />
    <path
       style="fill:none;fill-rule:evenodd;stroke:#005d1c;stroke-width:1px;stroke-linecap:butt;stroke-linejoin:miter;stroke-opacity:1"
       d="m 334.28571,578.07649 0,-211.42857"
       id="path6192"
       inkscape:connector-curvature="0" />
  </g>
</svg>
