<?xml version="1.0" encoding="UTF-8"?>
<!DOCTYPE svg PUBLIC "-//W3C//DTD SVG 1.1//EN" "http://www.w3.org/Graphics/SVG/1.1/DTD/svg11.dtd">
<svg version="1.1" xmlns="http://www.w3.org/2000/svg" xmlns:xlink="http://www.w3.org/1999/xlink" x="0" y="0" width="423.479" height="218.059" viewBox="0, 0, 423.479, 218.059">
  <defs>
    <pattern id="Pattern_1" patternUnits="userSpaceOnUse" x="21.844" y="157.686" width="48" height="48" patternTransform="matrix(0.177, 0.177, -0.177, 0.177, 0, 0)">
      <g transform="translate(0, -0)">
        <path d="M12,0 L16,0 L16,48 L12,48 L12,0 z" fill="#000000"/>
        <path d="M28,0 L32,0 L32,48 L28,48 L28,0 z" fill="#000000"/>
        <path d="M44,0 L48,0 L48,48 L44,48 L44,0 z" fill="#000000"/>
      </g>
    </pattern>
  </defs>
  <g id="mesh">
    <path d="M232.133,192.346 L420.765,192.346" fill-opacity="0" stroke="#000000" stroke-width="1"/>
    <path d="M232.133,98.03 L420.765,98.03" fill-opacity="0" stroke="#000000" stroke-width="1"/>
    <path d="M232.133,3.714 L420.765,3.714" fill-opacity="0" stroke="#000000" stroke-width="1"/>
    <path d="M420.765,192.346 L420.765,3.714" fill-opacity="0" stroke="#000000" stroke-width="1"/>
    <path d="M326.449,192.346 L326.449,3.714" fill-opacity="0" stroke="#000000" stroke-width="1"/>
    <path d="M232.133,192.346 L232.133,3.714" fill-opacity="0" stroke="#000000" stroke-width="1"/>
    <path d="M231.634,195.059 C229.859,195.059 228.42,193.621 228.42,191.846 C228.42,190.071 229.859,188.632 231.634,188.632 C233.408,188.632 234.847,190.071 234.847,191.846 C234.847,193.621 233.408,195.059 231.634,195.059 z" fill="#000000"/>
    <path d="M231.634,100.744 C229.859,100.744 228.42,99.305 228.42,97.53 C228.42,95.755 229.859,94.316 231.634,94.316 C233.408,94.316 234.847,95.755 234.847,97.53 C234.847,99.305 233.408,100.744 231.634,100.744 z" fill="#000000"/>
    <path d="M231.634,6.428 C229.859,6.428 228.42,4.989 228.42,3.214 C228.42,1.439 229.859,0 231.634,0 C233.408,0 234.847,1.439 234.847,3.214 C234.847,4.989 233.408,6.428 231.634,6.428 z" fill="#000000"/>
    <path d="M325.949,195.059 C324.174,195.059 322.736,193.621 322.736,191.846 C322.736,190.071 324.174,188.632 325.949,188.632 C327.724,188.632 329.163,190.071 329.163,191.846 C329.163,193.621 327.724,195.059 325.949,195.059 z" fill="#000000"/>
    <path d="M325.949,100.744 C324.174,100.744 322.736,99.305 322.736,97.53 C322.736,95.755 324.174,94.316 325.949,94.316 C327.724,94.316 329.163,95.755 329.163,97.53 C329.163,99.305 327.724,100.744 325.949,100.744 z" fill="#000000"/>
    <path d="M325.949,6.428 C324.174,6.428 322.736,4.989 322.736,3.214 C322.736,1.439 324.174,0 325.949,0 C327.724,0 329.163,1.439 329.163,3.214 C329.163,4.989 327.724,6.428 325.949,6.428 z" fill="#000000"/>
    <path d="M420.265,195.059 C418.49,195.059 417.051,193.621 417.051,191.846 C417.051,190.071 418.49,188.632 420.265,188.632 C422.04,188.632 423.479,190.071 423.479,191.846 C423.479,193.621 422.04,195.059 420.265,195.059 z" fill="#000000"/>
    <path d="M420.265,100.744 C418.49,100.744 417.051,99.305 417.051,97.53 C417.051,95.755 418.49,94.316 420.265,94.316 C422.04,94.316 423.479,95.755 423.479,97.53 C423.479,99.305 422.04,100.744 420.265,100.744 z" fill="#000000"/>
    <path d="M420.265,6.428 C418.49,6.428 417.051,4.989 417.051,3.214 C417.051,1.439 418.49,0 420.265,0 C422.04,0 423.479,1.439 423.479,3.214 C423.479,4.989 422.04,6.428 420.265,6.428 z" fill="#000000"/>
  </g>
  <g id="dof_numers">
    <text transform="matrix(1, 0, 0, 1, 217.3, 206.559)">
      <tspan x="-11.12" y="4.5" font-family="Avenir-Oblique" font-size="16" fill="#6A0808">0</tspan>
      <tspan x="-2.224" y="4.5" font-family="Avenir-Oblique" font-size="16" fill="#000000">,</tspan>
      <tspan x="2.224" y="4.5" font-family="Avenir-Oblique" font-size="16" fill="#6A0808">1</tspan>
    </text>
    <text transform="matrix(1, 0, 0, 1, 311.513, 206.559)">
      <tspan x="-11.12" y="4.5" font-family="Avenir-Oblique" font-size="16" fill="#690808">2</tspan>
      <tspan x="-2.224" y="4.5" font-family="Avenir-Oblique" font-size="16" fill="#000000">,</tspan>
      <tspan x="2.224" y="4.5" font-family="Avenir-Oblique" font-size="16" fill="#6A0808">3</tspan>
    </text>
    <text transform="matrix(1, 0, 0, 1, 406.305, 206.559)">
      <tspan x="-11.12" y="4.5" font-family="Avenir-Oblique" font-size="16" fill="#6A0808">4</tspan>
      <tspan x="-2.224" y="4.5" font-family="Avenir-Oblique" font-size="16" fill="#000000">,</tspan>
      <tspan x="2.224" y="4.5" font-family="Avenir-Oblique" font-size="16" fill="#6A0808">5</tspan>
    </text>
    <text transform="matrix(1, 0, 0, 1, 217.3, 112.244)">
      <tspan x="-11.12" y="4.5" font-family="Avenir-Oblique" font-size="16" fill="#000000">6,7</tspan>
    </text>
    <text transform="matrix(1, 0, 0, 1, 311.513, 112.244)">
      <tspan x="-11.12" y="4.5" font-family="Avenir-Oblique" font-size="16" fill="#000000">8,9</tspan>
    </text>
    <text transform="matrix(1, 0, 0, 1, 397.035, 112.244)">
      <tspan x="-2.224" y="4.5" font-family="Avenir-Oblique" font-size="16" fill="#4118B8">6</tspan>
      <tspan x="6.672" y="4.5" font-family="Avenir-Oblique" font-size="16" fill="#000000">,</tspan>
      <tspan x="11.12" y="4.5" font-family="Avenir-Oblique" font-size="16" fill="#4118B8">7</tspan>
    </text>
    <text transform="matrix(1, 0, 0, 1, 208.404, 17.928)">
      <tspan x="-20.016" y="4.5" font-family="Avenir-Oblique" font-size="16" fill="#6A0808">10</tspan>
      <tspan x="-2.224" y="4.5" font-family="Avenir-Oblique" font-size="16" fill="#000000">,</tspan>
      <tspan x="2.224" y="4.5" font-family="Avenir-Oblique" font-size="16" fill="#690808">11</tspan>
    </text>
    <text transform="matrix(1, 0, 0, 1, 302.617, 17.928)">
      <tspan x="-20.016" y="4.5" font-family="Avenir-Oblique" font-size="16" fill="#690808">12</tspan>
      <tspan x="-2.224" y="4.5" font-family="Avenir-Oblique" font-size="16" fill="#000000">,</tspan>
      <tspan x="2.224" y="4.5" font-family="Avenir-Oblique" font-size="16" fill="#690808">13</tspan>
    </text>
    <text transform="matrix(1, 0, 0, 1, 397.035, 17.928)">
      <tspan x="-20.016" y="4.5" font-family="Avenir-Oblique" font-size="16" fill="#6A0808">14,15</tspan>
    </text>
  </g>
  <g id="example">
    <path d="M21.844,48.765 L130.766,48.765 L130.766,157.686 L21.844,157.686 L21.844,48.765 z" fill="#E0E0E0"/>
    <text transform="matrix(1, 0, 0, 1, 76.305, 29.861)">
      <tspan x="-10.08" y="4.5" font-family="Avenir-Oblique" font-size="16" fill="#000000">(B)</tspan>
    </text>
    <g>
      <path d="M21.844,157.686 L130.766,157.686 L130.766,167.848 L21.844,167.848 L21.844,157.686 z" fill="url(#Pattern_1)"/>
      <path d="M21.844,157.686 L130.766,157.686 L130.766,167.848 L21.844,167.848 L21.844,157.686 z" fill-opacity="0" stroke="#000000" stroke-width="0.96"/>
    </g>
    <path d="M22.344,39.103 L131.266,39.103 L131.266,49.265 L22.344,49.265 L22.344,39.103 z" fill-opacity="0" stroke="#000000" stroke-width="0.96"/>
    <g>
      <path d="M57.182,44.184 L87.788,44.184" fill-opacity="0" stroke="#000000" stroke-width="0.96"/>
      <path d="M87.788,47.064 L95.468,44.184 L87.788,41.304 M87.788,44.184 L95.468,44.184" fill-opacity="0" stroke="#000000" stroke-width="0.96" stroke-opacity="1"/>
    </g>
    <path d="M131.266,49.265 L131.266,158.186" fill-opacity="0" stroke="#000000" stroke-width="1" stroke-dasharray="6,5"/>
    <path d="M131.266,49.265 L152.212,49.265" fill-opacity="0" stroke="#000000" stroke-width="1" stroke-dasharray="6,5"/>
    <path d="M131.266,158.186 L152.212,158.186" fill-opacity="0" stroke="#000000" stroke-width="1" stroke-dasharray="6,5"/>
    <path d="M22.344,49.265 L22.344,158.186" fill-opacity="0" stroke="#000000" stroke-width="1" stroke-dasharray="6,5"/>
    <path d="M22.344,49.265 L1.399,49.265" fill-opacity="0" stroke="#000000" stroke-width="1" stroke-dasharray="6,5"/>
    <path d="M22.344,158.186 L1.399,158.186" fill-opacity="0" stroke="#000000" stroke-width="1" stroke-dasharray="6,5"/>
  </g>
</svg>
